  0
SECTION
  2
HEADER
  9
$ACADVER
  1
AC1024
  9
$ACADMAINTVER
 70
6
  9
$DWGCODEPAGE
  3
ANSI_1252
  9
$LASTSAVEDBY
  1
ezdxf
  9
$INSBASE
 10
0.0
 20
0.0
 30
0.0
  9
$EXTMIN
 10
1e+20
 20
1e+20
 30
1e+20
  9
$EXTMAX
 10
-1e+20
 20
-1e+20
 30
-1e+20
  9
$LIMMIN
 10
0.0
 20
0.0
  9
$LIMMAX
 10
420.0
 20
297.0
  9
$ORTHOMODE
 70
0
  9
$REGENMODE
 70
1
  9
$FILLMODE
 70
1
  9
$QTEXTMODE
 70
0
  9
$MIRRTEXT
 70
1
  9
$LTSCALE
 40
1.0
  9
$ATTMODE
 70
1
  9
$TEXTSIZE
 40
2.5
  9
$TRACEWID
 40
1.0
  9
$TEXTSTYLE
  7
OpenSans
  9
$CLAYER
  8
0
  9
$CELTYPE
  6
ByLayer
  9
$CECOLOR
 62
256
  9
$CELTSCALE
 40
1.0
  9
$DISPSILH
 70
0
  9
$DIMSCALE
 40
75.0
  9
$DIMASZ
 40
0.175
  9
$DIMEXO
 40
0.125
  9
$DIMDLI
 40
3.75
  9
$DIMRND
 40
0.0
  9
$DIMDLE
 40
0.0
  9
$DIMEXE
 40
0.375
  9
$DIMTP
 40
0.0
  9
$DIMTM
 40
0.0
  9
$DIMTXT
 40
0.25
  9
$DIMCEN
 40
2.5
  9
$DIMTSZ
 40
0.0
  9
$DIMTOL
 70
0
  9
$DIMLIM
 70
0
  9
$DIMTIH
 70
0
  9
$DIMTOH
 70
0
  9
$DIMSE1
 70
0
  9
$DIMSE2
 70
0
  9
$DIMTAD
 70
1
  9
$DIMZIN
 70
12
  9
$DIMBLK
  1
ARCHTICK
  9
$DIMASO
 70
1
  9
$DIMSHO
 70
1
  9
$DIMPOST
  1

  9
$DIMAPOST
  1

  9
$DIMALT
 70
0
  9
$DIMALTD
 70
3
  9
$DIMALTF
 40
0.03937007874
  9
$DIMLFAC
 40
100.0
  9
$DIMTOFL
 70
1
  9
$DIMTVP
 40
0.0
  9
$DIMTIX
 70
0
  9
$DIMSOXD
 70
0
  9
$DIMSAH
 70
0
  9
$DIMBLK1
  1

  9
$DIMBLK2
  1

  9
$DIMSTYLE
  2
GYM-50
  9
$DIMCLRD
 70
0
  9
$DIMCLRE
 70
0
  9
$DIMCLRT
 70
0
  9
$DIMTFAC
 40
0.5
  9
$DIMGAP
 40
0.1
  9
$DIMJUST
 70
0
  9
$DIMSD1
 70
0
  9
$DIMSD2
 70
0
  9
$DIMTOLJ
 70
0
  9
$DIMTZIN
 70
8
  9
$DIMALTZ
 70
0
  9
$DIMALTTZ
 70
0
  9
$DIMUPT
 70
1
  9
$DIMDEC
 70
2
  9
$DIMTDEC
 70
2
  9
$DIMALTU
 70
2
  9
$DIMALTTD
 70
3
  9
$DIMTXSTY
  7
OpenSansCondensed-Light
  9
$DIMAUNIT
 70
0
  9
$DIMADEC
 70
2
  9
$DIMALTRND
 40
0.0
  9
$DIMAZIN
 70
3
  9
$DIMDSEP
 70
46
  9
$DIMATFIT
 70
3
  9
$DIMFRAC
 70
0
  9
$DIMLDRBLK
  1

  9
$DIMLUNIT
 70
2
  9
$DIMLWD
 70
-2
  9
$DIMLWE
 70
-2
  9
$DIMTMOVE
 70
2
  9
$DIMFXL
 40
1.0
  9
$DIMFXLON
 70
0
  9
$DIMJOGANG
 40
0.785398163397
  9
$DIMTFILL
 70
0
  9
$DIMTFILLCLR
 70
0
  9
$DIMARCSYM
 70
0
  9
$DIMLTYPE
  6

  9
$DIMLTEX1
  6

  9
$DIMLTEX2
  6

  9
$DIMTXTDIRECTION
 70
0
  9
$LUNITS
 70
2
  9
$LUPREC
 70
2
  9
$SKETCHINC
 40
1.0
  9
$FILLETRAD
 40
10.0
  9
$AUNITS
 70
0
  9
$AUPREC
 70
2
  9
$MENU
  1
.
  9
$ELEVATION
 40
0.0
  9
$PELEVATION
 40
0.0
  9
$THICKNESS
 40
0.0
  9
$LIMCHECK
 70
0
  9
$CHAMFERA
 40
0.0
  9
$CHAMFERB
 40
0.0
  9
$CHAMFERC
 40
0.0
  9
$CHAMFERD
 40
0.0
  9
$SKPOLY
 70
0
  9
$TDCREATE
 40
2461302.4785185186
  9
$TDUCREATE
 40
2458532.153996898
  9
$TDUPDATE
 40
2461302.4785185186
  9
$TDUUPDATE
 40
2458532.1544311
  9
$TDINDWG
 40
0.0
  9
$TDUSRTIMER
 40
0.0
  9
$USRTIMER
 70
1
  9
$ANGBASE
 50
0.0
  9
$ANGDIR
 70
0
  9
$PDMODE
 70
0
  9
$PDSIZE
 40
0.0
  9
$PLINEWID
 40
0.0
  9
$SPLFRAME
 70
0
  9
$SPLINETYPE
 70
6
  9
$SPLINESEGS
 70
8
  9
$HANDSEED
  5
3C3
  9
$SURFTAB1
 70
6
  9
$SURFTAB2
 70
6
  9
$SURFTYPE
 70
6
  9
$SURFU
 70
6
  9
$SURFV
 70
6
  9
$UCSBASE
  2

  9
$UCSNAME
  2

  9
$UCSORG
 10
0.0
 20
0.0
 30
0.0
  9
$UCSXDIR
 10
1.0
 20
0.0
 30
0.0
  9
$UCSYDIR
 10
0.0
 20
1.0
 30
0.0
  9
$UCSORTHOREF
  2

  9
$UCSORTHOVIEW
 70
0
  9
$UCSORGTOP
 10
0.0
 20
0.0
 30
0.0
  9
$UCSORGBOTTOM
 10
0.0
 20
0.0
 30
0.0
  9
$UCSORGLEFT
 10
0.0
 20
0.0
 30
0.0
  9
$UCSORGRIGHT
 10
0.0
 20
0.0
 30
0.0
  9
$UCSORGFRONT
 10
0.0
 20
0.0
 30
0.0
  9
$UCSORGBACK
 10
0.0
 20
0.0
 30
0.0
  9
$PUCSBASE
  2

  9
$PUCSNAME
  2

  9
$PUCSORG
 10
0.0
 20
0.0
 30
0.0
  9
$PUCSXDIR
 10
1.0
 20
0.0
 30
0.0
  9
$PUCSYDIR
 10
0.0
 20
1.0
 30
0.0
  9
$PUCSORTHOREF
  2

  9
$PUCSORTHOVIEW
 70
0
  9
$PUCSORGTOP
 10
0.0
 20
0.0
 30
0.0
  9
$PUCSORGBOTTOM
 10
0.0
 20
0.0
 30
0.0
  9
$PUCSORGLEFT
 10
0.0
 20
0.0
 30
0.0
  9
$PUCSORGRIGHT
 10
0.0
 20
0.0
 30
0.0
  9
$PUCSORGFRONT
 10
0.0
 20
0.0
 30
0.0
  9
$PUCSORGBACK
 10
0.0
 20
0.0
 30
0.0
  9
$USERI1
 70
0
  9
$USERI2
 70
0
  9
$USERI3
 70
0
  9
$USERI4
 70
0
  9
$USERI5
 70
0
  9
$USERR1
 40
0.0
  9
$USERR2
 40
0.0
  9
$USERR3
 40
0.0
  9
$USERR4
 40
0.0
  9
$USERR5
 40
0.0
  9
$WORLDVIEW
 70
1
  9
$SHADEDGE
 70
3
  9
$SHADEDIF
 70
70
  9
$TILEMODE
 70
1
  9
$MAXACTVP
 70
64
  9
$PINSBASE
 10
0.0
 20
0.0
 30
0.0
  9
$PLIMCHECK
 70
0
  9
$PEXTMIN
 10
1e+20
 20
1e+20
 30
1e+20
  9
$PEXTMAX
 10
-1e+20
 20
-1e+20
 30
-1e+20
  9
$PLIMMIN
 10
-0.0
 20
-0.0
  9
$PLIMMAX
 10
841.0
 20
594.0
  9
$UNITMODE
 70
0
  9
$VISRETAIN
 70
1
  9
$PLINEGEN
 70
0
  9
$PSLTSCALE
 70
1
  9
$TREEDEPTH
 70
3020
  9
$CMLSTYLE
  2
Standard
  9
$CMLJUST
 70
0
  9
$CMLSCALE
 40
20.0
  9
$PROXYGRAPHICS
 70
1
  9
$MEASUREMENT
 70
1
  9
$CELWEIGHT
370
-1
  9
$ENDCAPS
280
0
  9
$JOINSTYLE
280
0
  9
$LWDISPLAY
290
1
  9
$INSUNITS
 70
4
  9
$HYPERLINKBASE
  1

  9
$STYLESHEET
  1

  9
$XEDIT
290
1
  9
$CEPSNTYPE
380
0
  9
$PSTYLEMODE
290
1
  9
$FINGERPRINTGUID
  2
{5C6C3BCB-E0B7-4757-B6C2-AF9A24E36742}
  9
$VERSIONGUID
  2
{2326A143-8CC7-4ACD-A847-0B844866733A}
  9
$EXTNAMES
290
1
  9
$PSVPSCALE
 40
0.0
  9
$OLESTARTUP
290
0
  9
$SORTENTS
280
127
  9
$INDEXCTL
280
0
  9
$HIDETEXT
280
1
  9
$XCLIPFRAME
280
1
  9
$HALOGAP
280
0
  9
$OBSCOLOR
 70
257
  9
$OBSLTYPE
280
0
  9
$INTERSECTIONDISPLAY
280
0
  9
$INTERSECTIONCOLOR
 70
257
  9
$DIMASSOC
280
2
  9
$PROJECTNAME
  1

  9
$CAMERADISPLAY
290
0
  9
$LENSLENGTH
 40
50.0
  9
$CAMERAHEIGHT
 40
0.0
  9
$STEPSPERSEC
 40
24.0
  9
$STEPSIZE
 40
100.0
  9
$3DDWFPREC
 40
2.0
  9
$PSOLWIDTH
 40
0.005
  9
$PSOLHEIGHT
 40
0.08
  9
$LOFTANG1
 40
1.570796326795
  9
$LOFTANG2
 40
1.570796326795
  9
$LOFTMAG1
 40
0.0
  9
$LOFTMAG2
 40
0.0
  9
$LOFTPARAM
 70
7
  9
$LOFTNORMALS
280
1
  9
$LATITUDE
 40
37.795
  9
$LONGITUDE
 40
-122.394
  9
$NORTHDIRECTION
 40
0.0
  9
$TIMEZONE
 70
-8000
  9
$LIGHTGLYPHDISPLAY
280
1
  9
$TILEMODELIGHTSYNCH
280
1
  9
$CMATERIAL
347
20
  9
$SOLIDHIST
280
0
  9
$SHOWHIST
280
1
  9
$DWFFRAME
280
2
  9
$DGNFRAME
280
2
  9
$REALWORLDSCALE
290
1
  9
$INTERFERECOLOR
 62
256
  9
$CSHADOW
280
0
  9
$SHADOWPLANELOCATION
 40
0.0
  0
ENDSEC
  0
SECTION
  2
CLASSES
  0
CLASS
  1
ACDBDICTIONARYWDFLT
  2
AcDbDictionaryWithDefault
  3
ObjectDBX Classes
 90
0
 91
0
280
0
281
0
  0
CLASS
  1
SUN
  2
AcDbSun
  3
SCENEOE
 90
1153
 91
0
280
0
281
0
  0
CLASS
  1
VISUALSTYLE
  2
AcDbVisualStyle
  3
ObjectDBX Classes
 90
4095
 91
0
280
0
281
0
  0
CLASS
  1
MATERIAL
  2
AcDbMaterial
  3
ObjectDBX Classes
 90
1153
 91
0
280
0
281
0
  0
CLASS
  1
SCALE
  2
AcDbScale
  3
ObjectDBX Classes
 90
1153
 91
0
280
0
281
0
  0
CLASS
  1
TABLESTYLE
  2
AcDbTableStyle
  3
ObjectDBX Classes
 90
4095
 91
0
280
0
281
0
  0
CLASS
  1
MLEADERSTYLE
  2
AcDbMLeaderStyle
  3
ACDB_MLEADERSTYLE_CLASS
 90
4095
 91
0
280
0
281
0
  0
CLASS
  1
DICTIONARYVAR
  2
AcDbDictionaryVar
  3
ObjectDBX Classes
 90
0
 91
0
280
0
281
0
  0
CLASS
  1
CELLSTYLEMAP
  2
AcDbCellStyleMap
  3
ObjectDBX Classes
 90
1152
 91
0
280
0
281
0
  0
CLASS
  1
MENTALRAYRENDERSETTINGS
  2
AcDbMentalRayRenderSettings
  3
SCENEOE
 90
1024
 91
0
280
0
281
0
  0
CLASS
  1
ACDBDETAILVIEWSTYLE
  2
AcDbDetailViewStyle
  3
ObjectDBX Classes
 90
1025
 91
0
280
0
281
0
  0
CLASS
  1
ACDBSECTIONVIEWSTYLE
  2
AcDbSectionViewStyle
  3
ObjectDBX Classes
 90
1025
 91
0
280
0
281
0
  0
CLASS
  1
RASTERVARIABLES
  2
AcDbRasterVariables
  3
ISM
 90
0
 91
0
280
0
281
0
  0
CLASS
  1
LAYOUT
  2
AcDbLayout
  3
ObjectDBX Classes
 90
0
 91
0
280
0
281
0
  0
CLASS
  1
ACDBPLACEHOLDER
  2
AcDbPlaceHolder
  3
ObjectDBX Classes
 90
0
 91
0
280
0
281
0
  0
ENDSEC
  0
SECTION
  2
TABLES
  0
TABLE
  2
VPORT
  5
8
330
0
100
AcDbSymbolTable
 70
1
  0
VPORT
  5
3BF
330
8
100
AcDbSymbolTableRecord
100
AcDbViewportTableRecord
  2
*Active
 70
0
 10
0.0
 20
0.0
 11
1.0
 21
1.0
 12
5781.402523373163
 22
6494.971236472614
 13
0.0
 23
0.0
 14
0.5
 24
0.5
 15
0.5
 25
0.5
 16
0.0
 26
0.0
 36
1.0
 17
0.0
 27
0.0
 37
0.0
 40
16000.0
 41
1.34
 42
50.0
 43
0.0
 44
0.0
 50
0.0
 51
0.0
 71
0
 72
1000
 73
1
 74
3
 75
0
 76
0
 77
0
 78
0
281
0
 65
1
110
0.0
120
0.0
130
0.0
111
1.0
121
0.0
131
0.0
112
0.0
122
1.0
132
0.0
 79
0
146
0.0
  0
ENDTAB
  0
TABLE
  2
LTYPE
  5
2
330
0
100
AcDbSymbolTable
 70
21
  0
LTYPE
  5
24
330
2
100
AcDbSymbolTableRecord
100
AcDbLinetypeTableRecord
  2
ByBlock
 70
0
  3

 72
65
 73
0
 40
0.0
  0
LTYPE
  5
25
330
2
100
AcDbSymbolTableRecord
100
AcDbLinetypeTableRecord
  2
ByLayer
 70
0
  3

 72
65
 73
0
 40
0.0
  0
LTYPE
  5
26
330
2
100
AcDbSymbolTableRecord
100
AcDbLinetypeTableRecord
  2
Continuous
 70
0
  3

 72
65
 73
0
 40
0.0
  0
LTYPE
  5
2F
330
2
100
AcDbSymbolTableRecord
100
AcDbLinetypeTableRecord
  2
CENTER
 70
0
  3
Center ____ _ ____ _ ____ _ ____ _ ____ _ ____
 72
65
 73
4
 40
5.08
 49
3.175
 74
0
 49
-0.635
 74
0
 49
0.635
 74
0
 49
-0.635
 74
0
  0
LTYPE
  5
30
330
2
100
AcDbSymbolTableRecord
100
AcDbLinetypeTableRecord
  2
CENTERX2
 70
0
  3
Center (2x) ________  __  ________  __  ________
 72
65
 73
4
 40
8.89
 49
6.35
 74
0
 49
-0.635
 74
0
 49
1.27
 74
0
 49
-0.635
 74
0
  0
LTYPE
  5
31
330
2
100
AcDbSymbolTableRecord
100
AcDbLinetypeTableRecord
  2
CENTER2
 70
0
  3
Center (.5x) ____ _ ____ _ ____ _ ____ _ ____
 72
65
 73
4
 40
2.54
 49
1.587
 74
0
 49
-0.318
 74
0
 49
0.318
 74
0
 49
-0.318
 74
0
  0
LTYPE
  5
32
330
2
100
AcDbSymbolTableRecord
100
AcDbLinetypeTableRecord
  2
DASHED
 70
0
  3
Dashed __ __ __ __ __ __ __ __ __ __ __ __ __ _
 72
65
 73
2
 40
1.524
 49
1.27
 74
0
 49
-0.254
 74
0
  0
LTYPE
  5
33
330
2
100
AcDbSymbolTableRecord
100
AcDbLinetypeTableRecord
  2
DASHEDX2
 70
0
  3
Dashed (2x) ____  ____  ____  ____  ____  ____
 72
65
 73
2
 40
3.048
 49
2.54
 74
0
 49
-0.508
 74
0
  0
LTYPE
  5
34
330
2
100
AcDbSymbolTableRecord
100
AcDbLinetypeTableRecord
  2
DASHED2
 70
0
  3
Dashed (.5x) _ _ _ _ _ _ _ _ _ _ _ _ _ _
 72
65
 73
2
 40
0.762
 49
0.635
 74
0
 49
-0.127
 74
0
  0
LTYPE
  5
35
330
2
100
AcDbSymbolTableRecord
100
AcDbLinetypeTableRecord
  2
PHANTOM
 70
0
  3
Phantom ______  __  __  ______  __  __  ______
 72
65
 73
6
 40
6.35
 49
3.175
 74
0
 49
-0.635
 74
0
 49
0.635
 74
0
 49
-0.635
 74
0
 49
0.635
 74
0
 49
-0.635
 74
0
  0
LTYPE
  5
36
330
2
100
AcDbSymbolTableRecord
100
AcDbLinetypeTableRecord
  2
PHANTOMX2
 70
0
  3
Phantom (2x)____________    ____    ____    ____________
 72
65
 73
6
 40
10.795
 49
6.35
 74
0
 49
-0.635
 74
0
 49
1.27
 74
0
 49
-0.635
 74
0
 49
1.27
 74
0
 49
-0.635
 74
0
  0
LTYPE
  5
37
330
2
100
AcDbSymbolTableRecord
100
AcDbLinetypeTableRecord
  2
PHANTOM2
 70
0
  3
Phantom (.5x) ___ _ _ ___ _ _ ___ _ _ ___ _ _ ___
 72
65
 73
6
 40
3.175
 49
1.587
 74
0
 49
-0.318
 74
0
 49
0.318
 74
0
 49
-0.318
 74
0
 49
0.318
 74
0
 49
-0.318
 74
0
  0
LTYPE
  5
38
330
2
100
AcDbSymbolTableRecord
100
AcDbLinetypeTableRecord
  2
DASHDOT
 70
0
  3
Dash dot __ . __ . __ . __ . __ . __ . __ . __
 72
65
 73
4
 40
3.556
 49
2.54
 74
0
 49
-0.508
 74
0
 49
0.0
 74
0
 49
-0.508
 74
0
  0
LTYPE
  5
39
330
2
100
AcDbSymbolTableRecord
100
AcDbLinetypeTableRecord
  2
DASHDOTX2
 70
0
  3
Dash dot (2x) ____  .  ____  .  ____  .  ____
 72
65
 73
4
 40
6.096
 49
5.08
 74
0
 49
-0.508
 74
0
 49
0.0
 74
0
 49
-0.508
 74
0
  0
LTYPE
  5
3A
330
2
100
AcDbSymbolTableRecord
100
AcDbLinetypeTableRecord
  2
DASHDOT2
 70
0
  3
Dash dot (.5x) _ . _ . _ . _ . _ . _ . _ . _
 72
65
 73
4
 40
1.778
 49
1.27
 74
0
 49
-0.254
 74
0
 49
0.0
 74
0
 49
-0.254
 74
0
  0
LTYPE
  5
3B
330
2
100
AcDbSymbolTableRecord
100
AcDbLinetypeTableRecord
  2
DOT
 70
0
  3
Dot .  .  .  .  .  .  .  .  .  .  .  .  .  .  .  .
 72
65
 73
2
 40
0.508
 49
0.0
 74
0
 49
-0.508
 74
0
  0
LTYPE
  5
3C
330
2
100
AcDbSymbolTableRecord
100
AcDbLinetypeTableRecord
  2
DOTX2
 70
0
  3
Dot (2x) .    .    .    .    .    .    .    . 
 72
65
 73
2
 40
1.016
 49
0.0
 74
0
 49
-1.016
 74
0
  0
LTYPE
  5
3D
330
2
100
AcDbSymbolTableRecord
100
AcDbLinetypeTableRecord
  2
DOT2
 70
0
  3
Dot (.5) . . . . . . . . . . . . . . . . . . . 
 72
65
 73
2
 40
0.254
 49
0.0
 74
0
 49
-0.254
 74
0
  0
LTYPE
  5
3E
330
2
100
AcDbSymbolTableRecord
100
AcDbLinetypeTableRecord
  2
DIVIDE
 70
0
  3
Divide __ . . __ . . __ . . __ . . __ . . __
 72
65
 73
6
 40
4.064
 49
2.54
 74
0
 49
-0.508
 74
0
 49
0.0
 74
0
 49
-0.508
 74
0
 49
0.0
 74
0
 49
-0.508
 74
0
  0
LTYPE
  5
3F
330
2
100
AcDbSymbolTableRecord
100
AcDbLinetypeTableRecord
  2
DIVIDEX2
 70
0
  3
Divide (2x) ____  . .  ____  . .  ____  . .  ____
 72
65
 73
6
 40
6.604
 49
5.08
 74
0
 49
-0.508
 74
0
 49
0.0
 74
0
 49
-0.508
 74
0
 49
0.0
 74
0
 49
-0.508
 74
0
  0
LTYPE
  5
40
330
2
100
AcDbSymbolTableRecord
100
AcDbLinetypeTableRecord
  2
DIVIDE2
 70
0
  3
Divide(.5x) _ . _ . _ . _ . _ . _ . _ . _
 72
65
 73
6
 40
2.032
 49
1.27
 74
0
 49
-0.254
 74
0
 49
0.0
 74
0
 49
-0.254
 74
0
 49
0.0
 74
0
 49
-0.254
 74
0
  0
ENDTAB
  0
TABLE
  2
LAYER
  5
1
330
0
100
AcDbSymbolTable
 70
87
  0
LAYER
  5
27
330
1
100
AcDbSymbolTableRecord
100
AcDbLayerTableRecord
  2
0
 70
0
 62
7
  6
Continuous
370
-3
390
13
347
21
  0
LAYER
  5
28
330
1
100
AcDbSymbolTableRecord
100
AcDbLayerTableRecord
  2
Defpoints
 70
0
 62
7
  6
Continuous
290
0
370
-3
390
13
347
21
  0
LAYER
  5
8A
330
1
100
AcDbSymbolTableRecord
100
AcDbLayerTableRecord
  2
A-DUVAR-MEVCUT
 70
0
 62
8
  6
Continuous
370
35
390
13
347
21
1001
AcAecLayerStandard
1000

1000
Mimari — mevcut duvar (korunuyor)
  0
LAYER
  5
8C
330
1
100
AcDbSymbolTableRecord
100
AcDbLayerTableRecord
  2
A-DUVAR-YENI
 70
0
 62
1
  6
Continuous
370
35
390
13
347
21
1001
AcAecLayerStandard
1000

1000
Mimari — yeni alçıpan bölme
  0
LAYER
  5
8D
330
1
100
AcDbSymbolTableRecord
100
AcDbLayerTableRecord
  2
A-CEPHE
 70
0
 62
5
  6
Continuous
370
25
390
13
347
21
1001
AcAecLayerStandard
1000

1000
Mimari — cephe doğraması
  0
LAYER
  5
8E
330
1
100
AcDbSymbolTableRecord
100
AcDbLayerTableRecord
  2
A-KAPI
 70
0
 62
8
  6
Continuous
370
18
390
13
347
21
1001
AcAecLayerStandard
1000

1000
Mimari — kapı ve açılım
  0
LAYER
  5
8F
330
1
100
AcDbSymbolTableRecord
100
AcDbLayerTableRecord
  2
A-EKIPMAN
 70
0
 62
9
  6
Continuous
370
18
390
13
347
21
1001
AcAecLayerStandard
1000

1000
Mimari — spor ekipmanı (işverence temin)
  0
LAYER
  5
90
330
1
100
AcDbSymbolTableRecord
100
AcDbLayerTableRecord
  2
A-MOBILYA
 70
0
 62
9
  6
Continuous
370
18
390
13
347
21
1001
AcAecLayerStandard
1000

1000
Mimari — sabit mobilya
  0
LAYER
  5
91
330
1
100
AcDbSymbolTableRecord
100
AcDbLayerTableRecord
  2
A-BOLGE
 70
0
 62
254
  6
Continuous
370
13
390
13
347
21
1001
AcAecLayerStandard
1000

1000
Mimari — zemin bölge taraması
  0
LAYER
  5
92
330
1
100
AcDbSymbolTableRecord
100
AcDbLayerTableRecord
  2
A-YAZI
 70
0
 62
7
  6
Continuous
370
13
390
13
347
21
1001
AcAecLayerStandard
1000

1000
Mimari — mahal adı ve alan
  0
LAYER
  5
93
330
1
100
AcDbSymbolTableRecord
100
AcDbLayerTableRecord
  2
A-MAHAL
 70
0
 62
250
  6
Continuous
370
18
390
13
347
21
1001
AcAecLayerStandard
1000

1000
Mimari — mahal numarası ve kapı kodu balonu
  0
LAYER
  5
94
330
1
100
AcDbSymbolTableRecord
100
AcDbLayerTableRecord
  2
A-KESIT-HAT
 70
0
 62
1
  6
DASHDOT
370
35
390
13
347
21
1001
AcAecLayerStandard
1000

1000
Mimari — kesit ve görünüş hattı
  0
LAYER
  5
95
330
1
100
AcDbSymbolTableRecord
100
AcDbLayerTableRecord
  2
A-ZEMIN-SINIR
 70
0
 62
30
  6
Continuous
370
25
390
13
347
21
1001
AcAecLayerStandard
1000

1000
Mimari — zemin kaplama tipi sınırı
  0
LAYER
  5
96
330
1
100
AcDbSymbolTableRecord
100
AcDbLayerTableRecord
  2
A-ZEMIN-YAZI
 70
0
 62
30
  6
Continuous
370
13
390
13
347
21
1001
AcAecLayerStandard
1000

1000
Mimari — zemin kaplama tipi ve kotu
  0
LAYER
  5
97
330
1
100
AcDbSymbolTableRecord
100
AcDbLayerTableRecord
  2
A-ZEMIN-DERZ
 70
0
 62
253
  6
Continuous
370
13
390
13
347
21
1001
AcAecLayerStandard
1000

1000
Mimari — kauçuk karo derz ızgarası
  0
LAYER
  5
98
330
1
100
AcDbSymbolTableRecord
100
AcDbLayerTableRecord
  2
A-TAVAN-SINIR
 70
0
 62
150
  6
Continuous
370
25
390
13
347
21
1001
AcAecLayerStandard
1000

1000
Mimari — asma tavan tipi sınırı
  0
LAYER
  5
99
330
1
100
AcDbSymbolTableRecord
100
AcDbLayerTableRecord
  2
A-TAVAN-YAZI
 70
0
 62
150
  6
Continuous
370
13
390
13
347
21
1001
AcAecLayerStandard
1000

1000
Mimari — asma tavan tipi ve kotu
  0
LAYER
  5
9A
330
1
100
AcDbSymbolTableRecord
100
AcDbLayerTableRecord
  2
A-TAVAN-KAPAK
 70
0
 62
150
  6
Continuous
370
18
390
13
347
21
1001
AcAecLayerStandard
1000

1000
Mimari — revizyon kapağı 300×300
  0
LAYER
  5
9B
330
1
100
AcDbSymbolTableRecord
100
AcDbLayerTableRecord
  2
A-YANGIN-KACIS
 70
0
 62
3
  6
Continuous
370
50
390
13
347
21
1001
AcAecLayerStandard
1000

1000
Mimari — kaçış yolu ve çıkış
  0
LAYER
  5
9C
330
1
100
AcDbSymbolTableRecord
100
AcDbLayerTableRecord
  2
A-YANGIN-EKIP
 70
0
 62
1
  6
Continuous
370
35
390
13
347
21
1001
AcAecLayerStandard
1000

1000
Mimari — söndürücü, dolap, ihbar
  0
LAYER
  5
9D
330
1
100
AcDbSymbolTableRecord
100
AcDbLayerTableRecord
  2
M-HAVA-BESLEME
 70
0
 62
3
  6
Continuous
370
35
390
13
347
21
1001
AcAecLayerStandard
1000

1000
Mekanik — taze hava kanalı
  0
LAYER
  5
9E
330
1
100
AcDbSymbolTableRecord
100
AcDbLayerTableRecord
  2
M-HAVA-EGZOZ
 70
0
 62
1
  6
Continuous
370
35
390
13
347
21
1001
AcAecLayerStandard
1000

1000
Mekanik — egzoz kanalı
  0
LAYER
  5
9F
330
1
100
AcDbSymbolTableRecord
100
AcDbLayerTableRecord
  2
M-HAVA-ISLAK
 70
0
 62
6
  6
Continuous
370
25
390
13
347
21
1001
AcAecLayerStandard
1000

1000
Mekanik — ıslak hacim egzoz kanalı
  0
LAYER
  5
A0
330
1
100
AcDbSymbolTableRecord
100
AcDbLayerTableRecord
  2
M-HAVA-MENFEZ
 70
0
 62
3
  6
Continuous
370
25
390
13
347
21
1001
AcAecLayerStandard
1000

1000
Mekanik — menfez ve valf
  0
LAYER
  5
A1
330
1
100
AcDbSymbolTableRecord
100
AcDbLayerTableRecord
  2
M-HAVA-BRANSMAN
 70
0
 62
3
  6
DASHED
370
18
390
13
347
21
1001
AcAecLayerStandard
1000

1000
Mekanik — menfez branşmanı
  0
LAYER
  5
A2
330
1
100
AcDbSymbolTableRecord
100
AcDbLayerTableRecord
  2
M-HAVA-CIHAZ
 70
0
 62
2
  6
Continuous
370
35
390
13
347
21
1001
AcAecLayerStandard
1000

1000
Mekanik — fan ve panjur
  0
LAYER
  5
A3
330
1
100
AcDbSymbolTableRecord
100
AcDbLayerTableRecord
  2
M-KLIMA-IC
 70
0
 62
4
  6
Continuous
370
35
390
13
347
21
1001
AcAecLayerStandard
1000

1000
Mekanik — klima iç ünite
  0
LAYER
  5
A4
330
1
100
AcDbSymbolTableRecord
100
AcDbLayerTableRecord
  2
M-KLIMA-DIS
 70
0
 62
4
  6
Continuous
370
35
390
13
347
21
1001
AcAecLayerStandard
1000

1000
Mekanik — klima dış ünite platformu
  0
LAYER
  5
A5
330
1
100
AcDbSymbolTableRecord
100
AcDbLayerTableRecord
  2
M-KLIMA-BAKIR
 70
0
 62
4
  6
Continuous
370
25
390
13
347
21
1001
AcAecLayerStandard
1000

1000
Mekanik — soğutucu akışkan bakır hattı
  0
LAYER
  5
A6
330
1
100
AcDbSymbolTableRecord
100
AcDbLayerTableRecord
  2
M-KLIMA-DRENAJ
 70
0
 62
4
  6
DASHED
370
18
390
13
347
21
1001
AcAecLayerStandard
1000

1000
Mekanik — klima drenaj hattı
  0
LAYER
  5
A7
330
1
100
AcDbSymbolTableRecord
100
AcDbLayerTableRecord
  2
M-SIHHI-TEMIZ
 70
0
 62
5
  6
Continuous
370
25
390
13
347
21
1001
AcAecLayerStandard
1000

1000
Mekanik — temiz su PPRC
  0
LAYER
  5
A8
330
1
100
AcDbSymbolTableRecord
100
AcDbLayerTableRecord
  2
M-SIHHI-SICAK
 70
0
 62
30
  6
DASHED
370
25
390
13
347
21
1001
AcAecLayerStandard
1000

1000
Mekanik — sıcak su PPRC izoleli
  0
LAYER
  5
A9
330
1
100
AcDbSymbolTableRecord
100
AcDbLayerTableRecord
  2
M-SIHHI-PIS
 70
0
 62
8
  6
Continuous
370
35
390
13
347
21
1001
AcAecLayerStandard
1000

1000
Mekanik — pis su PVC
  0
LAYER
  5
AA
330
1
100
AcDbSymbolTableRecord
100
AcDbLayerTableRecord
  2
M-SIHHI-CIHAZ
 70
0
 62
8
  6
Continuous
370
25
390
13
347
21
1001
AcAecLayerStandard
1000

1000
Mekanik — vitrifiye ve su ısıtıcı
  0
LAYER
  5
AB
330
1
100
AcDbSymbolTableRecord
100
AcDbLayerTableRecord
  2
M-YAZI
 70
0
 62
7
  6
Continuous
370
13
390
13
347
21
1001
AcAecLayerStandard
1000

1000
Mekanik — etiket ve not
  0
LAYER
  5
AC
330
1
100
AcDbSymbolTableRecord
100
AcDbLayerTableRecord
  2
E-AYD-ARMATUR
 70
0
 62
2
  6
Continuous
370
25
390
13
347
21
1001
AcAecLayerStandard
1000

1000
Elektrik — lineer LED armatür
  0
LAYER
  5
AD
330
1
100
AcDbSymbolTableRecord
100
AcDbLayerTableRecord
  2
E-AYD-DOWNLIGHT
 70
0
 62
2
  6
Continuous
370
25
390
13
347
21
1001
AcAecLayerStandard
1000

1000
Elektrik — IP44 downlight
  0
LAYER
  5
AE
330
1
100
AcDbSymbolTableRecord
100
AcDbLayerTableRecord
  2
E-AYD-ACIL
 70
0
 62
3
  6
Continuous
370
25
390
13
347
21
1001
AcAecLayerStandard
1000

1000
Elektrik — acil aydınlatma / yönlendirme
  0
LAYER
  5
AF
330
1
100
AcDbSymbolTableRecord
100
AcDbLayerTableRecord
  2
E-AYD-ANAHTAR
 70
0
 62
2
  6
Continuous
370
18
390
13
347
21
1001
AcAecLayerStandard
1000

1000
Elektrik — anahtar ve sensör
  0
LAYER
  5
B0
330
1
100
AcDbSymbolTableRecord
100
AcDbLayerTableRecord
  2
E-KUVVET-PRIZ
 70
0
 62
5
  6
Continuous
370
25
390
13
347
21
1001
AcAecLayerStandard
1000

1000
Elektrik — priz
  0
LAYER
  5
B1
330
1
100
AcDbSymbolTableRecord
100
AcDbLayerTableRecord
  2
E-KUVVET-CIHAZ
 70
0
 62
5
  6
Continuous
370
25
390
13
347
21
1001
AcAecLayerStandard
1000

1000
Elektrik — klima/ısıtıcı/fan beslemesi
  0
LAYER
  5
B2
330
1
100
AcDbSymbolTableRecord
100
AcDbLayerTableRecord
  2
E-ZAYIF-KAMERA
 70
0
 62
6
  6
Continuous
370
25
390
13
347
21
1001
AcAecLayerStandard
1000

1000
Elektrik — IP kamera
  0
LAYER
  5
B3
330
1
100
AcDbSymbolTableRecord
100
AcDbLayerTableRecord
  2
E-ZAYIF-SES
 70
0
 62
6
  6
Continuous
370
25
390
13
347
21
1001
AcAecLayerStandard
1000

1000
Elektrik — tavan hoparlörü
  0
LAYER
  5
B4
330
1
100
AcDbSymbolTableRecord
100
AcDbLayerTableRecord
  2
E-ZAYIF-VERI
 70
0
 62
6
  6
Continuous
370
25
390
13
347
21
1001
AcAecLayerStandard
1000

1000
Elektrik — veri prizi ve rack
  0
LAYER
  5
B5
330
1
100
AcDbSymbolTableRecord
100
AcDbLayerTableRecord
  2
E-ZAYIF-YANGIN
 70
0
 62
1
  6
Continuous
370
25
390
13
347
21
1001
AcAecLayerStandard
1000

1000
Elektrik — dedektör, buton, siren
  0
LAYER
  5
B6
330
1
100
AcDbSymbolTableRecord
100
AcDbLayerTableRecord
  2
E-ZAYIF-LINYE
 70
0
 62
6
  6
DASHED
370
13
390
13
347
21
1001
AcAecLayerStandard
1000

1000
Elektrik — yangın algılama çevrimi
  0
LAYER
  5
B7
330
1
100
AcDbSymbolTableRecord
100
AcDbLayerTableRecord
  2
E-AYD-LINYE
 70
0
 62
2
  6
Continuous
370
25
390
13
347
21
1001
AcAecLayerStandard
1000

1000
Elektrik — aydınlatma linyesi (ortogonal)
  0
LAYER
  5
B8
330
1
100
AcDbSymbolTableRecord
100
AcDbLayerTableRecord
  2
E-AYD-SORTI
 70
0
 62
2
  6
DASHED
370
18
390
13
347
21
1001
AcAecLayerStandard
1000

1000
Elektrik — anahtar kumanda sortisi
  0
LAYER
  5
B9
330
1
100
AcDbSymbolTableRecord
100
AcDbLayerTableRecord
  2
E-KUVVET-LINYE
 70
0
 62
5
  6
Continuous
370
25
390
13
347
21
1001
AcAecLayerStandard
1000

1000
Elektrik — priz ve kuvvet linyesi
  0
LAYER
  5
BA
330
1
100
AcDbSymbolTableRecord
100
AcDbLayerTableRecord
  2
E-KUVVET-KOLON
 70
0
 62
5
  6
Continuous
370
50
390
13
347
21
1001
AcAecLayerStandard
1000

1000
Elektrik — kolon (ana besleme) hattı
  0
LAYER
  5
BB
330
1
100
AcDbSymbolTableRecord
100
AcDbLayerTableRecord
  2
E-KUVVET-BUAT
 70
0
 62
5
  6
Continuous
370
18
390
13
347
21
1001
AcAecLayerStandard
1000

1000
Elektrik — buat ve geçiş kutusu
  0
LAYER
  5
BC
330
1
100
AcDbSymbolTableRecord
100
AcDbLayerTableRecord
  2
E-ZAYIF-TAVA
 70
0
 62
6
  6
Continuous
370
18
390
13
347
21
1001
AcAecLayerStandard
1000

1000
Elektrik — zayıf akım kablo kanalı
  0
LAYER
  5
BD
330
1
100
AcDbSymbolTableRecord
100
AcDbLayerTableRecord
  2
E-TOPRAK-ELEKTROT
 70
0
 62
3
  6
Continuous
370
50
390
13
347
21
1001
AcAecLayerStandard
1000

1000
Elektrik — çubuk elektrot
  0
LAYER
  5
BE
330
1
100
AcDbSymbolTableRecord
100
AcDbLayerTableRecord
  2
E-TOPRAK-SERIT
 70
0
 62
3
  6
Continuous
370
50
390
13
347
21
1001
AcAecLayerStandard
1000

1000
Elektrik — elektrot bağlantı şeridi
  0
LAYER
  5
BF
330
1
100
AcDbSymbolTableRecord
100
AcDbLayerTableRecord
  2
E-TOPRAK-ILETKEN
 70
0
 62
3
  6
DASHDOT
370
35
390
13
347
21
1001
AcAecLayerStandard
1000

1000
Elektrik — topraklama iletkeni
  0
LAYER
  5
C0
330
1
100
AcDbSymbolTableRecord
100
AcDbLayerTableRecord
  2
E-TOPRAK-BARA
 70
0
 62
3
  6
Continuous
370
50
390
13
347
21
1001
AcAecLayerStandard
1000

1000
Elektrik — ATB / EPDB barası
  0
LAYER
  5
C1
330
1
100
AcDbSymbolTableRecord
100
AcDbLayerTableRecord
  2
E-TOPRAK-YAZI
 70
0
 62
3
  6
Continuous
370
13
390
13
347
21
1001
AcAecLayerStandard
1000

1000
Elektrik — topraklama etiketi
  0
LAYER
  5
C2
330
1
100
AcDbSymbolTableRecord
100
AcDbLayerTableRecord
  2
E-TEKHAT-TEL
 70
0
 62
7
  6
Continuous
370
35
390
13
347
21
1001
AcAecLayerStandard
1000

1000
Tek hat — iletken
  0
LAYER
  5
C3
330
1
100
AcDbSymbolTableRecord
100
AcDbLayerTableRecord
  2
E-TEKHAT-SEMBOL
 70
0
 62
7
  6
Continuous
370
35
390
13
347
21
1001
AcAecLayerStandard
1000

1000
Tek hat — IEC 60617 sembolü
  0
LAYER
  5
C4
330
1
100
AcDbSymbolTableRecord
100
AcDbLayerTableRecord
  2
E-TEKHAT-BARA
 70
0
 62
7
  6
Continuous
370
70
390
13
347
21
1001
AcAecLayerStandard
1000

1000
Tek hat — bara
  0
LAYER
  5
C5
330
1
100
AcDbSymbolTableRecord
100
AcDbLayerTableRecord
  2
E-TEKHAT-SINIR
 70
0
 62
8
  6
DASHDOT
370
35
390
13
347
21
1001
AcAecLayerStandard
1000

1000
Tek hat — pano sınırı
  0
LAYER
  5
C6
330
1
100
AcDbSymbolTableRecord
100
AcDbLayerTableRecord
  2
E-TEKHAT-GRUP
 70
0
 62
8
  6
Continuous
370
25
390
13
347
21
1001
AcAecLayerStandard
1000

1000
Tek hat — kaçak akım grubu parantezi
  0
LAYER
  5
C7
330
1
100
AcDbSymbolTableRecord
100
AcDbLayerTableRecord
  2
E-TEKHAT-TABLO
 70
0
 62
7
  6
Continuous
370
18
390
13
347
21
1001
AcAecLayerStandard
1000

1000
Tek hat — veri matrisi
  0
LAYER
  5
C8
330
1
100
AcDbSymbolTableRecord
100
AcDbLayerTableRecord
  2
E-TEKHAT-YAZI
 70
0
 62
7
  6
Continuous
370
18
390
13
347
21
1001
AcAecLayerStandard
1000

1000
Tek hat — etiket ve not
  0
LAYER
  5
C9
330
1
100
AcDbSymbolTableRecord
100
AcDbLayerTableRecord
  2
E-TEKHAT-YEDEK
 70
0
 62
8
  6
DASHED
370
25
390
13
347
21
1001
AcAecLayerStandard
1000

1000
Tek hat — yedek / boş modül
  0
LAYER
  5
CA
330
1
100
AcDbSymbolTableRecord
100
AcDbLayerTableRecord
  2
E-SEMA-TEL
 70
0
 62
7
  6
Continuous
370
25
390
13
347
21
1001
AcAecLayerStandard
1000

1000
Şema — iletken
  0
LAYER
  5
CB
330
1
100
AcDbSymbolTableRecord
100
AcDbLayerTableRecord
  2
E-SEMA-SEMBOL
 70
0
 62
7
  6
Continuous
370
35
390
13
347
21
1001
AcAecLayerStandard
1000

1000
Şema — IEC 60617 sembolü
  0
LAYER
  5
CC
330
1
100
AcDbSymbolTableRecord
100
AcDbLayerTableRecord
  2
E-SEMA-RAY
 70
0
 62
7
  6
Continuous
370
35
390
13
347
21
1001
AcAecLayerStandard
1000

1000
Şema — potansiyel rayı (L1/L2/L3/N)
  0
LAYER
  5
CD
330
1
100
AcDbSymbolTableRecord
100
AcDbLayerTableRecord
  2
E-SEMA-PE
 70
0
 62
7
  6
DASHDOT
370
35
390
13
347
21
1001
AcAecLayerStandard
1000

1000
Şema — PE rayı ve koruma iletkeni
  0
LAYER
  5
CE
330
1
100
AcDbSymbolTableRecord
100
AcDbLayerTableRecord
  2
E-SEMA-KLEMENS
 70
0
 62
7
  6
Continuous
370
25
390
13
347
21
1001
AcAecLayerStandard
1000

1000
Şema — klemens
  0
LAYER
  5
CF
330
1
100
AcDbSymbolTableRecord
100
AcDbLayerTableRecord
  2
E-SEMA-YUK
 70
0
 62
8
  6
DASHED
370
18
390
13
347
21
1001
AcAecLayerStandard
1000

1000
Şema — saha cihazı
  0
LAYER
  5
D0
330
1
100
AcDbSymbolTableRecord
100
AcDbLayerTableRecord
  2
E-SEMA-ZON
 70
0
 62
8
  6
Continuous
370
18
390
13
347
21
1001
AcAecLayerStandard
1000

1000
Şema — kenar ızgarası
  0
LAYER
  5
D1
330
1
100
AcDbSymbolTableRecord
100
AcDbLayerTableRecord
  2
E-SEMA-ANTET
 70
0
 62
7
  6
Continuous
370
50
390
13
347
21
1001
AcAecLayerStandard
1000

1000
Şema — antet ve çerçeve
  0
LAYER
  5
D2
330
1
100
AcDbSymbolTableRecord
100
AcDbLayerTableRecord
  2
E-SEMA-YAZI
 70
0
 62
7
  6
Continuous
370
18
390
13
347
21
1001
AcAecLayerStandard
1000

1000
Şema — etiket ve tel numarası
  0
LAYER
  5
D3
330
1
100
AcDbSymbolTableRecord
100
AcDbLayerTableRecord
  2
E-PANO
 70
0
 62
7
  6
Continuous
370
50
390
13
347
21
1001
AcAecLayerStandard
1000

1000
Elektrik — ana dağıtım panosu
  0
LAYER
  5
D4
330
1
100
AcDbSymbolTableRecord
100
AcDbLayerTableRecord
  2
E-YAZI
 70
0
 62
7
  6
Continuous
370
13
390
13
347
21
1001
AcAecLayerStandard
1000

1000
Elektrik — etiket ve not
  0
LAYER
  5
D5
330
1
100
AcDbSymbolTableRecord
100
AcDbLayerTableRecord
  2
G-OLCU
 70
0
 62
7
  6
Continuous
370
13
390
13
347
21
1001
AcAecLayerStandard
1000

1000
Genel — ölçülendirme
  0
LAYER
  5
D6
330
1
100
AcDbSymbolTableRecord
100
AcDbLayerTableRecord
  2
G-YAZI
 70
0
 62
7
  6
Continuous
370
18
390
13
347
21
1001
AcAecLayerStandard
1000

1000
Genel — başlık ve açıklama
  0
LAYER
  5
D7
330
1
100
AcDbSymbolTableRecord
100
AcDbLayerTableRecord
  2
G-ANTET
 70
0
 62
7
  6
Continuous
370
25
390
13
347
21
1001
AcAecLayerStandard
1000

1000
Genel — antet ve revizyon tablosu
  0
LAYER
  5
D8
330
1
100
AcDbSymbolTableRecord
100
AcDbLayerTableRecord
  2
G-CERCEVE
 70
0
 62
7
  6
Continuous
370
70
390
13
347
21
1001
AcAecLayerStandard
1000

1000
Genel — pafta çizim çerçevesi (ISO 5457)
  0
LAYER
  5
D9
330
1
100
AcDbSymbolTableRecord
100
AcDbLayerTableRecord
  2
G-PAFTA-ZON
 70
0
 62
8
  6
Continuous
370
13
390
13
347
21
1001
AcAecLayerStandard
1000

1000
Genel — kenar ızgarası / bölge referansı
  0
LAYER
  5
DA
330
1
100
AcDbSymbolTableRecord
100
AcDbLayerTableRecord
  2
G-VIEWPORT
 70
0
 62
251
  6
Continuous
290
0
370
13
390
13
347
21
1001
AcAecLayerStandard
1000

1000
Genel — görüntü penceresi (basılmaz)
  0
LAYER
  5
DB
330
1
100
AcDbSymbolTableRecord
100
AcDbLayerTableRecord
  2
G-AKS-HAT
 70
0
 62
8
  6
DASHDOT
370
18
390
13
347
21
1001
AcAecLayerStandard
1000

1000
Genel — aks çizgisi
  0
LAYER
  5
DC
330
1
100
AcDbSymbolTableRecord
100
AcDbLayerTableRecord
  2
G-AKS-BALON
 70
0
 62
8
  6
Continuous
370
25
390
13
347
21
1001
AcAecLayerStandard
1000

1000
Genel — aks balonu
  0
LAYER
  5
DD
330
1
100
AcDbSymbolTableRecord
100
AcDbLayerTableRecord
  2
G-OLCU-ZINCIR
 70
0
 62
7
  6
Continuous
370
13
390
13
347
21
1001
AcAecLayerStandard
1000

1000
Genel — zincir ölçü
  0
LAYER
  5
DE
330
1
100
AcDbSymbolTableRecord
100
AcDbLayerTableRecord
  2
G-KESIT-ISARET
 70
0
 62
1
  6
Continuous
370
50
390
13
347
21
1001
AcAecLayerStandard
1000

1000
Genel — kesit ve detay işareti
  0
LAYER
  5
DF
330
1
100
AcDbSymbolTableRecord
100
AcDbLayerTableRecord
  2
G-KUZEY
 70
0
 62
7
  6
Continuous
370
25
390
13
347
21
1001
AcAecLayerStandard
1000

1000
Genel — kuzey oku ve ölçek
  0
ENDTAB
  0
TABLE
  2
STYLE
  5
5
330
0
100
AcDbSymbolTable
 70
28
  0
STYLE
  5
29
330
5
100
AcDbSymbolTableRecord
100
AcDbTextStyleTableRecord
  2
Standard
 70
0
 40
0.0
 41
1.0
 50
0.0
 71
0
 42
2.5
  3
txt
  4

  0
STYLE
  5
41
330
5
100
AcDbSymbolTableRecord
100
AcDbTextStyleTableRecord
  2
OpenSans-Light
 70
0
 40
0.0
 41
1.0
 50
0.0
 71
0
 42
2.5
  3
OpenSans-Light.ttf
  4

  0
STYLE
  5
42
330
5
100
AcDbSymbolTableRecord
100
AcDbTextStyleTableRecord
  2
OpenSans-Light-Italic
 70
0
 40
0.0
 41
1.0
 50
0.0
 71
0
 42
2.5
  3
OpenSans-LightItalic.ttf
  4

  0
STYLE
  5
43
330
5
100
AcDbSymbolTableRecord
100
AcDbTextStyleTableRecord
  2
OpenSans
 70
0
 40
0.0
 41
1.0
 50
0.0
 71
0
 42
2.5
  3
OpenSans-Regular.ttf
  4

  0
STYLE
  5
44
330
5
100
AcDbSymbolTableRecord
100
AcDbTextStyleTableRecord
  2
OpenSans-Italic
 70
0
 40
0.0
 41
1.0
 50
0.0
 71
0
 42
2.5
  3
OpenSans-Italic.ttf
  4

  0
STYLE
  5
45
330
5
100
AcDbSymbolTableRecord
100
AcDbTextStyleTableRecord
  2
OpenSans-SemiBold
 70
0
 40
0.0
 41
1.0
 50
0.0
 71
0
 42
2.5
  3
OpenSans-SemiBold.ttf
  4

  0
STYLE
  5
46
330
5
100
AcDbSymbolTableRecord
100
AcDbTextStyleTableRecord
  2
OpenSans-SemiBoldItalic
 70
0
 40
0.0
 41
1.0
 50
0.0
 71
0
 42
2.5
  3
OpenSans-SemiBoldItalic.ttf
  4

  0
STYLE
  5
47
330
5
100
AcDbSymbolTableRecord
100
AcDbTextStyleTableRecord
  2
OpenSans-Bold
 70
0
 40
0.0
 41
1.0
 50
0.0
 71
0
 42
2.5
  3
OpenSans-Bold.ttf
  4

  0
STYLE
  5
48
330
5
100
AcDbSymbolTableRecord
100
AcDbTextStyleTableRecord
  2
OpenSans-BoldItalic
 70
0
 40
0.0
 41
1.0
 50
0.0
 71
0
 42
2.5
  3
OpenSans-BoldItalic.ttf
  4

  0
STYLE
  5
49
330
5
100
AcDbSymbolTableRecord
100
AcDbTextStyleTableRecord
  2
OpenSans-ExtraBold
 70
0
 40
0.0
 41
1.0
 50
0.0
 71
0
 42
2.5
  3
OpenSans-ExtraBold.ttf
  4

  0
STYLE
  5
4A
330
5
100
AcDbSymbolTableRecord
100
AcDbTextStyleTableRecord
  2
OpenSans-ExtraBoldItalic
 70
0
 40
0.0
 41
1.0
 50
0.0
 71
0
 42
2.5
  3
OpenSans-ExtraBoldItalic.ttf
  4

  0
STYLE
  5
4B
330
5
100
AcDbSymbolTableRecord
100
AcDbTextStyleTableRecord
  2
OpenSansCondensed-Bold
 70
0
 40
0.0
 41
1.0
 50
0.0
 71
0
 42
2.5
  3
OpenSansCondensed-Bold.ttf
  4

  0
STYLE
  5
4C
330
5
100
AcDbSymbolTableRecord
100
AcDbTextStyleTableRecord
  2
OpenSansCondensed-Light
 70
0
 40
0.0
 41
1.0
 50
0.0
 71
0
 42
2.5
  3
OpenSansCondensed-Light.ttf
  4

  0
STYLE
  5
4D
330
5
100
AcDbSymbolTableRecord
100
AcDbTextStyleTableRecord
  2
OpenSansCondensed-Italic
 70
0
 40
0.0
 41
1.0
 50
0.0
 71
0
 42
2.5
  3
OpenSansCondensed-LightItalic.ttf
  4

  0
STYLE
  5
4E
330
5
100
AcDbSymbolTableRecord
100
AcDbTextStyleTableRecord
  2
LiberationSans
 70
0
 40
0.0
 41
1.0
 50
0.0
 71
0
 42
2.5
  3
LiberationSans-Regular.ttf
  4

  0
STYLE
  5
4F
330
5
100
AcDbSymbolTableRecord
100
AcDbTextStyleTableRecord
  2
LiberationSans-Bold
 70
0
 40
0.0
 41
1.0
 50
0.0
 71
0
 42
2.5
  3
LiberationSans-Bold.ttf
  4

  0
STYLE
  5
50
330
5
100
AcDbSymbolTableRecord
100
AcDbTextStyleTableRecord
  2
LiberationSans-BoldItalic
 70
0
 40
0.0
 41
1.0
 50
0.0
 71
0
 42
2.5
  3
LiberationSans-BoldItalic.ttf
  4

  0
STYLE
  5
51
330
5
100
AcDbSymbolTableRecord
100
AcDbTextStyleTableRecord
  2
LiberationSans-Italic
 70
0
 40
0.0
 41
1.0
 50
0.0
 71
0
 42
2.5
  3
LiberationSans-Italic.ttf
  4

  0
STYLE
  5
52
330
5
100
AcDbSymbolTableRecord
100
AcDbTextStyleTableRecord
  2
LiberationSerif
 70
0
 40
0.0
 41
1.0
 50
0.0
 71
0
 42
2.5
  3
LiberationSerif-Regular.ttf
  4

  0
STYLE
  5
53
330
5
100
AcDbSymbolTableRecord
100
AcDbTextStyleTableRecord
  2
LiberationSerif-Bold
 70
0
 40
0.0
 41
1.0
 50
0.0
 71
0
 42
2.5
  3
LiberationSerif-Bold.ttf
  4

  0
STYLE
  5
54
330
5
100
AcDbSymbolTableRecord
100
AcDbTextStyleTableRecord
  2
LiberationSerif-BoldItalic
 70
0
 40
0.0
 41
1.0
 50
0.0
 71
0
 42
2.5
  3
LiberationSerif-BoldItalic.ttf
  4

  0
STYLE
  5
55
330
5
100
AcDbSymbolTableRecord
100
AcDbTextStyleTableRecord
  2
LiberationSerif-Italic
 70
0
 40
0.0
 41
1.0
 50
0.0
 71
0
 42
2.5
  3
LiberationSerif-Italic.ttf
  4

  0
STYLE
  5
56
330
5
100
AcDbSymbolTableRecord
100
AcDbTextStyleTableRecord
  2
LiberationMono
 70
0
 40
0.0
 41
1.0
 50
0.0
 71
0
 42
2.5
  3
LiberationMono-Regular.ttf
  4

  0
STYLE
  5
57
330
5
100
AcDbSymbolTableRecord
100
AcDbTextStyleTableRecord
  2
LiberationMono-Bold
 70
0
 40
0.0
 41
1.0
 50
0.0
 71
0
 42
2.5
  3
LiberationMono-Bold.ttf
  4

  0
STYLE
  5
58
330
5
100
AcDbSymbolTableRecord
100
AcDbTextStyleTableRecord
  2
LiberationMono-BoldItalic
 70
0
 40
0.0
 41
1.0
 50
0.0
 71
0
 42
2.5
  3
LiberationMono-BoldItalic.ttf
  4

  0
STYLE
  5
59
330
5
100
AcDbSymbolTableRecord
100
AcDbTextStyleTableRecord
  2
LiberationMono-Italic
 70
0
 40
0.0
 41
1.0
 50
0.0
 71
0
 42
2.5
  3
LiberationMono-Italic.ttf
  4

  0
STYLE
  5
E0
330
5
100
AcDbSymbolTableRecord
100
AcDbTextStyleTableRecord
  2
GYM
 70
0
 40
0.0
 41
1.0
 50
0.0
 71
0
 42
2.5
  3
arial.ttf
  4

  0
STYLE
  5
E1
330
5
100
AcDbSymbolTableRecord
100
AcDbTextStyleTableRecord
  2
GYM-B
 70
0
 40
0.0
 41
1.0
 50
0.0
 71
0
 42
2.5
  3
arialbd.ttf
  4

  0
ENDTAB
  0
TABLE
  2
VIEW
  5
7
330
0
100
AcDbSymbolTable
 70
0
  0
ENDTAB
  0
TABLE
  2
UCS
  5
6
330
0
100
AcDbSymbolTable
 70
0
  0
ENDTAB
  0
TABLE
  2
APPID
  5
3
330
0
100
AcDbSymbolTable
 70
4
  0
APPID
  5
2A
330
3
100
AcDbSymbolTableRecord
100
AcDbRegAppTableRecord
  2
ACAD
 70
0
  0
APPID
  5
8B
330
3
100
AcDbSymbolTableRecord
100
AcDbRegAppTableRecord
  2
AcAecLayerStandard
 70
0
  0
APPID
  5
3C0
330
3
100
AcDbSymbolTableRecord
100
AcDbRegAppTableRecord
  2
HATCHBACKGROUNDCOLOR
 70
0
  0
APPID
  5
3C1
330
3
100
AcDbSymbolTableRecord
100
AcDbRegAppTableRecord
  2
EZDXF
 70
0
  0
ENDTAB
  0
TABLE
  2
DIMSTYLE
  5
4
330
0
100
AcDbSymbolTable
 70
19
100
AcDbDimStyleTable
  0
DIMSTYLE
105
2B
330
4
100
AcDbSymbolTableRecord
100
AcDbDimStyleTableRecord
  2
Standard
 70
0
 40
1.0
 41
2.5
 42
0.625
 43
3.75
 44
1.25
 45
0.0
 46
0.0
 47
0.0
 48
0.0
 49
2.5
140
2.5
141
2.5
142
0.0
143
0.03937007874
144
1.0
145
0.0
146
1.0
147
0.625
148
0.0
 69
0
 70
0
 71
0
 72
0
 73
0
 74
0
 75
0
 76
0
 77
1
 78
8
 79
3
170
0
171
3
172
1
173
0
174
0
175
0
176
0
177
0
178
0
179
2
271
2
272
2
273
2
274
3
275
0
276
0
277
2
278
44
279
0
280
0
281
0
282
0
283
0
284
8
285
0
286
0
288
0
289
3
290
0
371
-2
372
-2
  0
DIMSTYLE
105
73
330
4
100
AcDbSymbolTableRecord
100
AcDbDimStyleTableRecord
  2
EZDXF
 70
0
 40
1.0
 41
0.175
 42
0.125
 43
3.75
 44
0.375
 45
0.0
 46
0.0
 47
0.0
 48
0.0
 49
2.5
140
0.25
141
2.5
142
0.0
143
0.03937007874
144
100.0
145
0.0
146
0.5
147
0.1
148
0.0
 69
0
 70
0
 71
0
 72
0
 73
0
 74
0
 75
0
 76
0
 77
1
 78
12
 79
3
170
0
171
3
172
1
173
0
174
0
175
0
176
0
177
0
178
0
179
2
271
2
272
2
273
2
274
3
275
0
276
0
277
2
278
46
279
2
280
0
281
0
282
0
283
0
284
8
285
0
286
0
288
1
289
3
290
0
340
4C
342
74
371
-2
372
-2
  0
DIMSTYLE
105
7C
330
4
100
AcDbSymbolTableRecord
100
AcDbDimStyleTableRecord
  2
EZ_M_100_H25_CM
 70
0
 40
1.0
 41
0.25
 42
0.125
 43
3.75
 44
0.375
 45
0.0
 46
0.0
 47
0.0
 48
0.0
 49
2.5
140
0.25
141
2.5
142
0.125
143
0.03937007874
144
100.0
145
0.0
146
0.5
147
0.1
148
0.0
 69
0
 70
0
 71
0
 72
0
 73
0
 74
0
 75
0
 76
0
 77
1
 78
12
 79
3
170
0
171
3
172
1
173
0
174
0
175
0
176
0
177
0
178
0
179
2
271
2
272
2
273
2
274
3
275
0
276
0
277
2
278
46
279
2
280
0
281
0
282
0
283
0
284
8
285
0
286
0
288
1
289
3
290
0
340
4C
371
-2
372
-2
  0
DIMSTYLE
105
7D
330
4
100
AcDbSymbolTableRecord
100
AcDbDimStyleTableRecord
  2
EZ_M_50_H25_CM
 70
0
 40
1.0
 41
0.125
 42
0.0625
 43
3.75
 44
0.1875
 45
0.0
 46
0.0
 47
0.0
 48
0.0
 49
2.5
140
0.125
141
2.5
142
0.0625
143
0.03937007874
144
100.0
145
0.0
146
0.5
147
0.05
148
0.0
 69
0
 70
0
 71
0
 72
0
 73
0
 74
0
 75
0
 76
0
 77
1
 78
12
 79
3
170
0
171
3
172
1
173
0
174
0
175
0
176
0
177
0
178
0
179
2
271
2
272
2
273
2
274
3
275
0
276
0
277
2
278
46
279
2
280
0
281
0
282
0
283
0
284
8
285
0
286
0
288
1
289
3
290
0
340
4C
371
-2
372
-2
  0
DIMSTYLE
105
7E
330
4
100
AcDbSymbolTableRecord
100
AcDbDimStyleTableRecord
  2
EZ_M_25_H25_CM
 70
0
 40
1.0
 41
0.0625
 42
0.03125
 43
3.75
 44
0.09375
 45
0.0
 46
0.0
 47
0.0
 48
0.0
 49
2.5
140
0.0625
141
2.5
142
0.03125
143
0.03937007874
144
100.0
145
0.0
146
0.5
147
0.025
148
0.0
 69
0
 70
0
 71
0
 72
0
 73
0
 74
0
 75
0
 76
0
 77
1
 78
12
 79
3
170
0
171
3
172
1
173
0
174
0
175
0
176
0
177
0
178
0
179
2
271
2
272
2
273
2
274
3
275
0
276
0
277
2
278
46
279
2
280
0
281
0
282
0
283
0
284
8
285
0
286
0
288
1
289
3
290
0
340
4C
371
-2
372
-2
  0
DIMSTYLE
105
7F
330
4
100
AcDbSymbolTableRecord
100
AcDbDimStyleTableRecord
  2
EZ_M_20_H25_CM
 70
0
 40
1.0
 41
0.05
 42
0.025
 43
3.75
 44
0.07500000000000001
 45
0.0
 46
0.0
 47
0.0
 48
0.0
 49
2.5
140
0.05
141
2.5
142
0.025
143
0.03937007874
144
100.0
145
0.0
146
0.5
147
0.020000000000000004
148
0.0
 69
0
 70
0
 71
0
 72
0
 73
0
 74
0
 75
0
 76
0
 77
1
 78
12
 79
3
170
0
171
3
172
1
173
0
174
0
175
0
176
0
177
0
178
0
179
2
271
2
272
2
273
2
274
3
275
0
276
0
277
2
278
46
279
2
280
0
281
0
282
0
283
0
284
8
285
0
286
0
288
1
289
3
290
0
340
4C
371
-2
372
-2
  0
DIMSTYLE
105
80
330
4
100
AcDbSymbolTableRecord
100
AcDbDimStyleTableRecord
  2
EZ_M_10_H25_CM
 70
0
 40
1.0
 41
0.025
 42
0.0125
 43
3.75
 44
0.037500000000000006
 45
0.0
 46
0.0
 47
0.0
 48
0.0
 49
2.5
140
0.025
141
2.5
142
0.0125
143
0.03937007874
144
100.0
145
0.0
146
0.5
147
0.010000000000000002
148
0.0
 69
0
 70
0
 71
0
 72
0
 73
0
 74
0
 75
0
 76
0
 77
1
 78
12
 79
3
170
0
171
3
172
1
173
0
174
0
175
0
176
0
177
0
178
0
179
2
271
2
272
2
273
2
274
3
275
0
276
0
277
2
278
46
279
2
280
0
281
0
282
0
283
0
284
8
285
0
286
0
288
1
289
3
290
0
340
4C
371
-2
372
-2
  0
DIMSTYLE
105
81
330
4
100
AcDbSymbolTableRecord
100
AcDbDimStyleTableRecord
  2
EZ_M_5_H25_CM
 70
0
 40
1.0
 41
0.0125
 42
0.00625
 43
3.75
 44
0.018750000000000003
 45
0.0
 46
0.0
 47
0.0
 48
0.0
 49
2.5
140
0.0125
141
2.5
142
0.00625
143
0.03937007874
144
100.0
145
0.0
146
0.5
147
0.005000000000000001
148
0.0
 69
0
 70
0
 71
0
 72
0
 73
0
 74
0
 75
0
 76
0
 77
1
 78
12
 79
3
170
0
171
3
172
1
173
0
174
0
175
0
176
0
177
0
178
0
179
2
271
2
272
2
273
2
274
3
275
0
276
0
277
2
278
46
279
2
280
0
281
0
282
0
283
0
284
8
285
0
286
0
288
1
289
3
290
0
340
4C
371
-2
372
-2
  0
DIMSTYLE
105
82
330
4
100
AcDbSymbolTableRecord
100
AcDbDimStyleTableRecord
  2
EZ_M_1_H25_CM
 70
0
 40
1.0
 41
0.0025
 42
0.00125
 43
3.75
 44
0.00375
 45
0.0
 46
0.0
 47
0.0
 48
0.0
 49
2.5
140
0.0025
141
2.5
142
0.00125
143
0.03937007874
144
100.0
145
0.0
146
0.5
147
0.001
148
0.0
 69
0
 70
0
 71
0
 72
0
 73
0
 74
0
 75
0
 76
0
 77
1
 78
12
 79
3
170
0
171
3
172
1
173
0
174
0
175
0
176
0
177
0
178
0
179
2
271
2
272
2
273
2
274
3
275
0
276
0
277
2
278
46
279
2
280
0
281
0
282
0
283
0
284
8
285
0
286
0
288
1
289
3
290
0
340
4C
371
-2
372
-2
  0
DIMSTYLE
105
83
330
4
100
AcDbSymbolTableRecord
100
AcDbDimStyleTableRecord
  2
EZ_RADIUS
 70
0
 40
1.0
 41
0.25
 42
0.125
 43
3.75
 44
0.375
 45
0.0
 46
0.0
 47
0.0
 48
0.0
 49
2.5
140
0.25
141
0.0
142
0.0
143
0.03937007874
144
100.0
145
0.0
146
0.5
147
0.1
148
0.0
 69
0
 70
0
 71
0
 72
0
 73
0
 74
0
 75
0
 76
0
 77
1
 78
12
 79
3
170
0
171
3
172
0
173
0
174
0
175
0
176
0
177
0
178
0
179
2
271
2
272
2
273
2
274
3
275
0
276
0
277
2
278
46
279
1
280
0
281
0
282
0
283
0
284
8
285
0
286
0
288
1
289
3
290
0
340
4C
342
84
371
-2
372
-2
  0
DIMSTYLE
105
88
330
4
100
AcDbSymbolTableRecord
100
AcDbDimStyleTableRecord
  2
EZ_RADIUS_INSIDE
 70
0
 40
1.0
 41
0.25
 42
0.125
 43
3.75
 44
0.375
 45
0.0
 46
0.0
 47
0.0
 48
0.0
 49
2.5
140
0.25
141
0.0
142
0.0
143
0.03937007874
144
100.0
145
0.0
146
0.5
147
0.1
148
0.0
 69
0
 70
0
 71
0
 72
0
 73
0
 74
0
 75
0
 76
0
 77
0
 78
12
 79
3
170
0
171
3
172
0
173
0
174
1
175
0
176
0
177
0
178
0
179
2
271
2
272
2
273
2
274
3
275
0
276
0
277
2
278
46
279
0
280
0
281
0
282
0
283
0
284
8
285
0
286
0
288
1
289
0
290
0
340
4C
342
84
371
-2
372
-2
  0
DIMSTYLE
105
89
330
4
100
AcDbSymbolTableRecord
100
AcDbDimStyleTableRecord
  2
EZ_CURVED
 70
0
 40
1.0
 41
0.25
 42
0.125
 43
3.75
 44
0.375
 45
0.0
 46
0.0
 47
0.0
 48
0.0
 49
2.5
140
0.25
141
2.5
142
0.0
143
0.03937007874
144
100.0
145
0.0
146
0.5
147
0.1
148
0.0
 69
0
 70
0
 71
0
 72
0
 73
0
 74
0
 75
0
 76
0
 77
1
 78
12
 79
2
 90
2
170
0
171
3
172
1
173
0
174
0
175
0
176
0
177
0
178
0
179
2
271
2
272
2
273
2
274
3
275
0
276
0
277
2
278
46
279
2
280
0
281
0
282
0
283
0
284
8
285
0
286
0
288
1
289
3
290
0
340
4C
371
-2
372
-2
  0
DIMSTYLE
105
E2
330
4
100
AcDbSymbolTableRecord
100
AcDbDimStyleTableRecord
  2
GYM-5
 70
0
 40
5.0
 41
2.5
 42
1.5
 43
7.0
 44
1.25
 45
0.0
 46
0.0
 47
0.0
 48
0.0
 49
2.5
140
2.5
141
2.5
142
0.0
143
0.03937007874
144
1.0
145
0.0
146
1.0
147
0.9
148
0.0
 69
0
 70
0
 71
0
 72
0
 73
0
 74
0
 75
0
 76
0
 77
1
 78
8
 79
3
170
0
171
3
172
1
173
0
174
0
175
0
176
7
177
7
178
7
179
2
271
0
272
2
273
2
274
3
275
0
276
0
277
2
278
44
279
0
280
0
281
0
282
0
283
0
284
8
285
0
286
0
288
0
289
3
290
0
340
E0
342
74
371
18
372
13
  0
DIMSTYLE
105
E3
330
4
100
AcDbSymbolTableRecord
100
AcDbDimStyleTableRecord
  2
GYM-10
 70
0
 40
10.0
 41
2.5
 42
1.5
 43
7.0
 44
1.25
 45
0.0
 46
0.0
 47
0.0
 48
0.0
 49
2.5
140
2.5
141
2.5
142
0.0
143
0.03937007874
144
1.0
145
0.0
146
1.0
147
0.9
148
0.0
 69
0
 70
0
 71
0
 72
0
 73
0
 74
0
 75
0
 76
0
 77
1
 78
8
 79
3
170
0
171
3
172
1
173
0
174
0
175
0
176
7
177
7
178
7
179
2
271
0
272
2
273
2
274
3
275
0
276
0
277
2
278
44
279
0
280
0
281
0
282
0
283
0
284
8
285
0
286
0
288
0
289
3
290
0
340
E0
342
74
371
18
372
13
  0
DIMSTYLE
105
E4
330
4
100
AcDbSymbolTableRecord
100
AcDbDimStyleTableRecord
  2
GYM-20
 70
0
 40
20.0
 41
2.5
 42
1.5
 43
7.0
 44
1.25
 45
0.0
 46
0.0
 47
0.0
 48
0.0
 49
2.5
140
2.5
141
2.5
142
0.0
143
0.03937007874
144
1.0
145
0.0
146
1.0
147
0.9
148
0.0
 69
0
 70
0
 71
0
 72
0
 73
0
 74
0
 75
0
 76
0
 77
1
 78
8
 79
3
170
0
171
3
172
1
173
0
174
0
175
0
176
7
177
7
178
7
179
2
271
0
272
2
273
2
274
3
275
0
276
0
277
2
278
44
279
0
280
0
281
0
282
0
283
0
284
8
285
0
286
0
288
0
289
3
290
0
340
E0
342
74
371
18
372
13
  0
DIMSTYLE
105
E5
330
4
100
AcDbSymbolTableRecord
100
AcDbDimStyleTableRecord
  2
GYM-25
 70
0
 40
25.0
 41
2.5
 42
1.5
 43
7.0
 44
1.25
 45
0.0
 46
0.0
 47
0.0
 48
0.0
 49
2.5
140
2.5
141
2.5
142
0.0
143
0.03937007874
144
1.0
145
0.0
146
1.0
147
0.9
148
0.0
 69
0
 70
0
 71
0
 72
0
 73
0
 74
0
 75
0
 76
0
 77
1
 78
8
 79
3
170
0
171
3
172
1
173
0
174
0
175
0
176
7
177
7
178
7
179
2
271
0
272
2
273
2
274
3
275
0
276
0
277
2
278
44
279
0
280
0
281
0
282
0
283
0
284
8
285
0
286
0
288
0
289
3
290
0
340
E0
342
74
371
18
372
13
  0
DIMSTYLE
105
E6
330
4
100
AcDbSymbolTableRecord
100
AcDbDimStyleTableRecord
  2
GYM-50
 70
0
 40
50.0
 41
2.5
 42
1.5
 43
7.0
 44
1.25
 45
0.0
 46
0.0
 47
0.0
 48
0.0
 49
2.5
140
2.5
141
2.5
142
0.0
143
0.03937007874
144
1.0
145
0.0
146
1.0
147
0.9
148
0.0
 69
0
 70
0
 71
0
 72
0
 73
0
 74
0
 75
0
 76
0
 77
1
 78
8
 79
3
170
0
171
3
172
1
173
0
174
0
175
0
176
7
177
7
178
7
179
2
271
0
272
2
273
2
274
3
275
0
276
0
277
2
278
44
279
0
280
0
281
0
282
0
283
0
284
8
285
0
286
0
288
0
289
3
290
0
340
E0
342
74
371
18
372
13
  0
DIMSTYLE
105
E7
330
4
100
AcDbSymbolTableRecord
100
AcDbDimStyleTableRecord
  2
GYM-75
 70
0
 40
75.0
 41
2.5
 42
1.5
 43
7.0
 44
1.25
 45
0.0
 46
0.0
 47
0.0
 48
0.0
 49
2.5
140
2.5
141
2.5
142
0.0
143
0.03937007874
144
1.0
145
0.0
146
1.0
147
0.9
148
0.0
 69
0
 70
0
 71
0
 72
0
 73
0
 74
0
 75
0
 76
0
 77
1
 78
8
 79
3
170
0
171
3
172
1
173
0
174
0
175
0
176
7
177
7
178
7
179
2
271
0
272
2
273
2
274
3
275
0
276
0
277
2
278
44
279
0
280
0
281
0
282
0
283
0
284
8
285
0
286
0
288
0
289
3
290
0
340
E0
342
74
371
18
372
13
  0
DIMSTYLE
105
E8
330
4
100
AcDbSymbolTableRecord
100
AcDbDimStyleTableRecord
  2
GYM-100
 70
0
 40
100.0
 41
2.5
 42
1.5
 43
7.0
 44
1.25
 45
0.0
 46
0.0
 47
0.0
 48
0.0
 49
2.5
140
2.5
141
2.5
142
0.0
143
0.03937007874
144
1.0
145
0.0
146
1.0
147
0.9
148
0.0
 69
0
 70
0
 71
0
 72
0
 73
0
 74
0
 75
0
 76
0
 77
1
 78
8
 79
3
170
0
171
3
172
1
173
0
174
0
175
0
176
7
177
7
178
7
179
2
271
0
272
2
273
2
274
3
275
0
276
0
277
2
278
44
279
0
280
0
281
0
282
0
283
0
284
8
285
0
286
0
288
0
289
3
290
0
340
E0
342
74
371
18
372
13
  0
ENDTAB
  0
TABLE
  2
BLOCK_RECORD
  5
9
330
0
100
AcDbSymbolTable
 70
34
  0
BLOCK_RECORD
  5
17
330
9
100
AcDbSymbolTableRecord
100
AcDbBlockTableRecord
  2
*Model_Space
340
1A
 70
0
280
1
281
0
  0
BLOCK_RECORD
  5
74
330
9
100
AcDbSymbolTableRecord
100
AcDbBlockTableRecord
  2
_ARCHTICK
340
0
 70
0
280
1
281
0
  0
BLOCK_RECORD
  5
78
330
9
100
AcDbSymbolTableRecord
100
AcDbBlockTableRecord
  2
_CLOSEDFILLED
340
0
 70
0
280
1
281
0
  0
BLOCK_RECORD
  5
84
330
9
100
AcDbSymbolTableRecord
100
AcDbBlockTableRecord
  2
_CLOSEDBLANK
340
0
 70
0
280
1
281
0
  0
BLOCK_RECORD
  5
E9
330
9
100
AcDbSymbolTableRecord
100
AcDbBlockTableRecord
  2
M_MENFEZ_BESLEME
340
0
 70
0
280
1
281
0
  0
BLOCK_RECORD
  5
F2
330
9
100
AcDbSymbolTableRecord
100
AcDbBlockTableRecord
  2
M_MENFEZ_EGZOZ
340
0
 70
0
280
1
281
0
  0
BLOCK_RECORD
  5
FA
330
9
100
AcDbSymbolTableRecord
100
AcDbBlockTableRecord
  2
M_VALF
340
0
 70
0
280
1
281
0
  0
BLOCK_RECORD
  5
102
330
9
100
AcDbSymbolTableRecord
100
AcDbBlockTableRecord
  2
M_FAN
340
0
 70
0
280
1
281
0
  0
BLOCK_RECORD
  5
10D
330
9
100
AcDbSymbolTableRecord
100
AcDbBlockTableRecord
  2
M_PANJUR
340
0
 70
0
280
1
281
0
  0
BLOCK_RECORD
  5
117
330
9
100
AcDbSymbolTableRecord
100
AcDbBlockTableRecord
  2
M_KLIMA_IC
340
0
 70
0
280
1
281
0
  0
BLOCK_RECORD
  5
11E
330
9
100
AcDbSymbolTableRecord
100
AcDbBlockTableRecord
  2
M_KLIMA_DIS
340
0
 70
0
280
1
281
0
  0
BLOCK_RECORD
  5
125
330
9
100
AcDbSymbolTableRecord
100
AcDbBlockTableRecord
  2
M_ISITICI
340
0
 70
0
280
1
281
0
  0
BLOCK_RECORD
  5
12E
330
9
100
AcDbSymbolTableRecord
100
AcDbBlockTableRecord
  2
M_KLOZET
340
0
 70
0
280
1
281
0
  0
BLOCK_RECORD
  5
134
330
9
100
AcDbSymbolTableRecord
100
AcDbBlockTableRecord
  2
M_LAVABO
340
0
 70
0
280
1
281
0
  0
BLOCK_RECORD
  5
13A
330
9
100
AcDbSymbolTableRecord
100
AcDbBlockTableRecord
  2
M_DUS
340
0
 70
0
280
1
281
0
  0
BLOCK_RECORD
  5
141
330
9
100
AcDbSymbolTableRecord
100
AcDbBlockTableRecord
  2
M_SUZGEC
340
0
 70
0
280
1
281
0
  0
BLOCK_RECORD
  5
146
330
9
100
AcDbSymbolTableRecord
100
AcDbBlockTableRecord
  2
M_SAYAC
340
0
 70
0
280
1
281
0
  0
BLOCK_RECORD
  5
14C
330
9
100
AcDbSymbolTableRecord
100
AcDbBlockTableRecord
  2
E_ARMATUR_LINEER
340
0
 70
0
280
1
281
0
  0
BLOCK_RECORD
  5
152
330
9
100
AcDbSymbolTableRecord
100
AcDbBlockTableRecord
  2
E_DOWNLIGHT
340
0
 70
0
280
1
281
0
  0
BLOCK_RECORD
  5
159
330
9
100
AcDbSymbolTableRecord
100
AcDbBlockTableRecord
  2
E_ACIL
340
0
 70
0
280
1
281
0
  0
BLOCK_RECORD
  5
15F
330
9
100
AcDbSymbolTableRecord
100
AcDbBlockTableRecord
  2
E_YONLENDIRME
340
0
 70
0
280
1
281
0
  0
BLOCK_RECORD
  5
166
330
9
100
AcDbSymbolTableRecord
100
AcDbBlockTableRecord
  2
E_PRIZ
340
0
 70
0
280
1
281
0
  0
BLOCK_RECORD
  5
16F
330
9
100
AcDbSymbolTableRecord
100
AcDbBlockTableRecord
  2
E_PRIZ_IP44
340
0
 70
0
280
1
281
0
  0
BLOCK_RECORD
  5
178
330
9
100
AcDbSymbolTableRecord
100
AcDbBlockTableRecord
  2
E_ANAHTAR
340
0
 70
0
280
1
281
0
  0
BLOCK_RECORD
  5
17E
330
9
100
AcDbSymbolTableRecord
100
AcDbBlockTableRecord
  2
E_SENSOR
340
0
 70
0
280
1
281
0
  0
BLOCK_RECORD
  5
184
330
9
100
AcDbSymbolTableRecord
100
AcDbBlockTableRecord
  2
E_KAMERA
340
0
 70
0
280
1
281
0
  0
BLOCK_RECORD
  5
189
330
9
100
AcDbSymbolTableRecord
100
AcDbBlockTableRecord
  2
E_HOPARLOR
340
0
 70
0
280
1
281
0
  0
BLOCK_RECORD
  5
190
330
9
100
AcDbSymbolTableRecord
100
AcDbBlockTableRecord
  2
E_VERI
340
0
 70
0
280
1
281
0
  0
BLOCK_RECORD
  5
196
330
9
100
AcDbSymbolTableRecord
100
AcDbBlockTableRecord
  2
E_DEDEKTOR
340
0
 70
0
280
1
281
0
  0
BLOCK_RECORD
  5
19C
330
9
100
AcDbSymbolTableRecord
100
AcDbBlockTableRecord
  2
E_YANGIN_BUTON
340
0
 70
0
280
1
281
0
  0
BLOCK_RECORD
  5
1A2
330
9
100
AcDbSymbolTableRecord
100
AcDbBlockTableRecord
  2
E_PANO
340
0
 70
0
280
1
281
0
  0
BLOCK_RECORD
  5
1AF
330
9
100
AcDbSymbolTableRecord
100
AcDbBlockTableRecord
  2
G_KUZEY
340
0
 70
0
280
1
281
0
  0
BLOCK_RECORD
  5
1B5
330
9
100
AcDbSymbolTableRecord
100
AcDbBlockTableRecord
  2
ANTET_A3
340
0
 70
0
280
1
281
0
  0
BLOCK_RECORD
  5
29E
330
9
100
AcDbSymbolTableRecord
100
AcDbBlockTableRecord
  2
*Paper_Space
340
2A1
 70
0
280
1
281
0
  0
ENDTAB
  0
ENDSEC
  0
SECTION
  2
BLOCKS
  0
BLOCK
  5
18
330
17
100
AcDbEntity
  8
0
100
AcDbBlockBegin
  2
*Model_Space
 70
0
 10
0.0
 20
0.0
 30
0.0
  3
*Model_Space
  1

  0
ENDBLK
  5
19
330
17
100
AcDbEntity
  8
0
100
AcDbBlockEnd
  0
BLOCK
  5
75
330
74
100
AcDbEntity
  8
0
100
AcDbBlockBegin
  2
_ARCHTICK
 70
0
 10
0.0
 20
0.0
 30
0.0
  3
_ARCHTICK
  1

  0
LWPOLYLINE
  5
77
330
74
100
AcDbEntity
  8
0
  6
BYBLOCK
 62
0
100
AcDbPolyline
 90
2
 70
0
 43
0.15
 10
-0.5
 20
-0.5
 10
0.5
 20
0.5
  0
ENDBLK
  5
76
330
74
100
AcDbEntity
  8
0
100
AcDbBlockEnd
  0
BLOCK
  5
79
330
78
100
AcDbEntity
  8
0
100
AcDbBlockBegin
  2
_CLOSEDFILLED
 70
0
 10
0.0
 20
0.0
 30
0.0
  3
_CLOSEDFILLED
  1

  0
SOLID
  5
7B
330
78
100
AcDbEntity
  8
0
  6
BYBLOCK
 62
0
100
AcDbTrace
 10
-1.0
 20
0.16439898372402537
 30
0.0
 11
0.0
 21
0.0
 31
0.0
 12
-1.0
 22
-0.16439898372402537
 32
0.0
 13
-1.0
 23
-0.16439898372402537
 33
0.0
  0
ENDBLK
  5
7A
330
78
100
AcDbEntity
  8
0
100
AcDbBlockEnd
  0
BLOCK
  5
85
330
84
100
AcDbEntity
  8
0
100
AcDbBlockBegin
  2
_CLOSEDBLANK
 70
0
 10
0.0
 20
0.0
 30
0.0
  3
_CLOSEDBLANK
  1

  0
LWPOLYLINE
  5
87
330
84
100
AcDbEntity
  8
0
  6
BYBLOCK
 62
0
100
AcDbPolyline
 90
3
 70
1
 10
-1.0
 20
0.16439898372402537
 10
0.0
 20
0.0
 10
-1.0
 20
-0.16439898372402537
  0
ENDBLK
  5
86
330
84
100
AcDbEntity
  8
0
100
AcDbBlockEnd
  0
BLOCK
  5
EA
330
E9
100
AcDbEntity
  8
0
100
AcDbBlockBegin
  2
M_MENFEZ_BESLEME
 70
2
 10
0.0
 20
0.0
 30
0.0
  3
M_MENFEZ_BESLEME
  1

  0
LWPOLYLINE
  5
EC
330
E9
100
AcDbEntity
  8
0
100
AcDbPolyline
 90
4
 70
1
 10
-150.0
 20
-75.0
 10
150.0
 20
-75.0
 10
150.0
 20
75.0
 10
-150.0
 20
75.0
  0
LINE
  5
ED
330
E9
100
AcDbEntity
  8
0
100
AcDbLine
 10
-150.0
 20
-40.0
 30
0.0
 11
150.0
 21
-40.0
 31
0.0
  0
LINE
  5
EE
330
E9
100
AcDbEntity
  8
0
100
AcDbLine
 10
-150.0
 20
0.0
 30
0.0
 11
150.0
 21
0.0
 31
0.0
  0
LINE
  5
EF
330
E9
100
AcDbEntity
  8
0
100
AcDbLine
 10
-150.0
 20
40.0
 30
0.0
 11
150.0
 21
40.0
 31
0.0
  0
ATTDEF
  5
F0
330
E9
100
AcDbEntity
  8
0
100
AcDbText
 10
0.0
 20
140.0
 30
0.0
 40
120.0
  1

  7
GYM
100
AcDbAttributeDefinition
  3
Menfez kodu
  2
KOD
 70
0
  0
ATTDEF
  5
F1
330
E9
100
AcDbEntity
  8
0
100
AcDbText
 10
0.0
 20
-200.0
 30
0.0
 40
105.0
  1

  7
GYM
100
AcDbAttributeDefinition
  3
Debi (m3/h)
  2
DEBI
 70
0
  0
ENDBLK
  5
EB
330
E9
100
AcDbEntity
  8
0
100
AcDbBlockEnd
  0
BLOCK
  5
F3
330
F2
100
AcDbEntity
  8
0
100
AcDbBlockBegin
  2
M_MENFEZ_EGZOZ
 70
2
 10
0.0
 20
0.0
 30
0.0
  3
M_MENFEZ_EGZOZ
  1

  0
LWPOLYLINE
  5
F5
330
F2
100
AcDbEntity
  8
0
100
AcDbPolyline
 90
4
 70
1
 10
-150.0
 20
-75.0
 10
150.0
 20
-75.0
 10
150.0
 20
75.0
 10
-150.0
 20
75.0
  0
LINE
  5
F6
330
F2
100
AcDbEntity
  8
0
100
AcDbLine
 10
-150.0
 20
-75.0
 30
0.0
 11
150.0
 21
75.0
 31
0.0
  0
LINE
  5
F7
330
F2
100
AcDbEntity
  8
0
100
AcDbLine
 10
-150.0
 20
75.0
 30
0.0
 11
150.0
 21
-75.0
 31
0.0
  0
ATTDEF
  5
F8
330
F2
100
AcDbEntity
  8
0
100
AcDbText
 10
0.0
 20
140.0
 30
0.0
 40
120.0
  1

  7
GYM
100
AcDbAttributeDefinition
  3
Menfez kodu
  2
KOD
 70
0
  0
ATTDEF
  5
F9
330
F2
100
AcDbEntity
  8
0
100
AcDbText
 10
0.0
 20
-200.0
 30
0.0
 40
105.0
  1

  7
GYM
100
AcDbAttributeDefinition
  3
Debi (m3/h)
  2
DEBI
 70
0
  0
ENDBLK
  5
F4
330
F2
100
AcDbEntity
  8
0
100
AcDbBlockEnd
  0
BLOCK
  5
FB
330
FA
100
AcDbEntity
  8
0
100
AcDbBlockBegin
  2
M_VALF
 70
2
 10
0.0
 20
0.0
 30
0.0
  3
M_VALF
  1

  0
CIRCLE
  5
FD
330
FA
100
AcDbEntity
  8
0
100
AcDbCircle
 10
0.0
 20
0.0
 30
0.0
 40
90.0
  0
LINE
  5
FE
330
FA
100
AcDbEntity
  8
0
100
AcDbLine
 10
-90.0
 20
0.0
 30
0.0
 11
90.0
 21
0.0
 31
0.0
  0
LINE
  5
FF
330
FA
100
AcDbEntity
  8
0
100
AcDbLine
 10
0.0
 20
-90.0
 30
0.0
 11
0.0
 21
90.0
 31
0.0
  0
ATTDEF
  5
100
330
FA
100
AcDbEntity
  8
0
100
AcDbText
 10
0.0
 20
150.0
 30
0.0
 40
120.0
  1

  7
GYM
100
AcDbAttributeDefinition
  3
Valf kodu
  2
KOD
 70
0
  0
ATTDEF
  5
101
330
FA
100
AcDbEntity
  8
0
100
AcDbText
 10
0.0
 20
-200.0
 30
0.0
 40
105.0
  1

  7
GYM
100
AcDbAttributeDefinition
  3
Debi (m3/h)
  2
DEBI
 70
0
  0
ENDBLK
  5
FC
330
FA
100
AcDbEntity
  8
0
100
AcDbBlockEnd
  0
BLOCK
  5
103
330
102
100
AcDbEntity
  8
0
100
AcDbBlockBegin
  2
M_FAN
 70
2
 10
0.0
 20
0.0
 30
0.0
  3
M_FAN
  1

  0
LWPOLYLINE
  5
105
330
102
100
AcDbEntity
  8
0
100
AcDbPolyline
 90
4
 70
1
 10
-250.0
 20
-140.0
 10
250.0
 20
-140.0
 10
250.0
 20
140.0
 10
-250.0
 20
140.0
  0
CIRCLE
  5
106
330
102
100
AcDbEntity
  8
0
100
AcDbCircle
 10
0.0
 20
0.0
 30
0.0
 40
105.0
  0
LINE
  5
107
330
102
100
AcDbEntity
  8
0
100
AcDbLine
 10
0.0
 20
0.0
 30
0.0
 11
105.0
 21
0.0
 31
0.0
  0
LINE
  5
108
330
102
100
AcDbEntity
  8
0
100
AcDbLine
 10
0.0
 20
0.0
 30
0.0
 11
6.429395695523604e-15
 21
105.0
 31
0.0
  0
LINE
  5
109
330
102
100
AcDbEntity
  8
0
100
AcDbLine
 10
0.0
 20
0.0
 30
0.0
 11
-105.0
 21
1.2858791391047208e-14
 31
0.0
  0
LINE
  5
10A
330
102
100
AcDbEntity
  8
0
100
AcDbLine
 10
0.0
 20
0.0
 30
0.0
 11
-1.928818708657081e-14
 21
-105.0
 31
0.0
  0
ATTDEF
  5
10B
330
102
100
AcDbEntity
  8
0
100
AcDbText
 10
0.0
 20
210.0
 30
0.0
 40
120.0
  1

  7
GYM
100
AcDbAttributeDefinition
  3
Fan kodu
  2
KOD
 70
0
  0
ATTDEF
  5
10C
330
102
100
AcDbEntity
  8
0
100
AcDbText
 10
0.0
 20
-270.0
 30
0.0
 40
105.0
  1

  7
GYM
100
AcDbAttributeDefinition
  3
Fan tanimi
  2
TANIM
 70
0
  0
ENDBLK
  5
104
330
102
100
AcDbEntity
  8
0
100
AcDbBlockEnd
  0
BLOCK
  5
10E
330
10D
100
AcDbEntity
  8
0
100
AcDbBlockBegin
  2
M_PANJUR
 70
2
 10
0.0
 20
0.0
 30
0.0
  3
M_PANJUR
  1

  0
LWPOLYLINE
  5
110
330
10D
100
AcDbEntity
  8
0
100
AcDbPolyline
 90
4
 70
1
 10
-140.0
 20
-90.0
 10
140.0
 20
-90.0
 10
140.0
 20
90.0
 10
-140.0
 20
90.0
  0
LINE
  5
111
330
10D
100
AcDbEntity
  8
0
100
AcDbLine
 10
-140.0
 20
-64.0
 30
0.0
 11
140.0
 21
-64.0
 31
0.0
  0
LINE
  5
112
330
10D
100
AcDbEntity
  8
0
100
AcDbLine
 10
-140.0
 20
-32.0
 30
0.0
 11
140.0
 21
-32.0
 31
0.0
  0
LINE
  5
113
330
10D
100
AcDbEntity
  8
0
100
AcDbLine
 10
-140.0
 20
0.0
 30
0.0
 11
140.0
 21
0.0
 31
0.0
  0
LINE
  5
114
330
10D
100
AcDbEntity
  8
0
100
AcDbLine
 10
-140.0
 20
32.0
 30
0.0
 11
140.0
 21
32.0
 31
0.0
  0
LINE
  5
115
330
10D
100
AcDbEntity
  8
0
100
AcDbLine
 10
-140.0
 20
64.0
 30
0.0
 11
140.0
 21
64.0
 31
0.0
  0
ATTDEF
  5
116
330
10D
100
AcDbEntity
  8
0
100
AcDbText
 10
0.0
 20
150.0
 30
0.0
 40
120.0
  1

  7
GYM
100
AcDbAttributeDefinition
  3
Panjur kodu
  2
KOD
 70
0
  0
ENDBLK
  5
10F
330
10D
100
AcDbEntity
  8
0
100
AcDbBlockEnd
  0
BLOCK
  5
118
330
117
100
AcDbEntity
  8
0
100
AcDbBlockBegin
  2
M_KLIMA_IC
 70
2
 10
0.0
 20
0.0
 30
0.0
  3
M_KLIMA_IC
  1

  0
LWPOLYLINE
  5
11A
330
117
100
AcDbEntity
  8
0
100
AcDbPolyline
 90
4
 70
1
 10
-450.0
 20
-140.0
 10
450.0
 20
-140.0
 10
450.0
 20
140.0
 10
-450.0
 20
140.0
  0
LINE
  5
11B
330
117
100
AcDbEntity
  8
0
100
AcDbLine
 10
-450.0
 20
-60.0
 30
0.0
 11
450.0
 21
-60.0
 31
0.0
  0
ATTDEF
  5
11C
330
117
100
AcDbEntity
  8
0
100
AcDbText
 10
0.0
 20
215.0
 30
0.0
 40
120.0
  1

  7
GYM
100
AcDbAttributeDefinition
  3
Unite kodu
  2
KOD
 70
0
  0
ATTDEF
  5
11D
330
117
100
AcDbEntity
  8
0
100
AcDbText
 10
0.0
 20
-270.0
 30
0.0
 40
105.0
  1

  7
GYM
100
AcDbAttributeDefinition
  3
Kapasite (BTU)
  2
KAPASITE
 70
0
  0
ENDBLK
  5
119
330
117
100
AcDbEntity
  8
0
100
AcDbBlockEnd
  0
BLOCK
  5
11F
330
11E
100
AcDbEntity
  8
0
100
AcDbBlockBegin
  2
M_KLIMA_DIS
 70
2
 10
0.0
 20
0.0
 30
0.0
  3
M_KLIMA_DIS
  1

  0
LWPOLYLINE
  5
121
330
11E
100
AcDbEntity
  8
0
100
AcDbPolyline
 90
4
 70
1
 10
-500.0
 20
-350.0
 10
500.0
 20
-350.0
 10
500.0
 20
350.0
 10
-500.0
 20
350.0
  0
CIRCLE
  5
122
330
11E
100
AcDbEntity
  8
0
100
AcDbCircle
 10
0.0
 20
0.0
 30
0.0
 40
230.0
  0
ATTDEF
  5
123
330
11E
100
AcDbEntity
  8
0
100
AcDbText
 10
0.0
 20
430.0
 30
0.0
 40
120.0
  1

  7
GYM
100
AcDbAttributeDefinition
  3
Platform
  2
KOD
 70
0
  0
ATTDEF
  5
124
330
11E
100
AcDbEntity
  8
0
100
AcDbText
 10
0.0
 20
-530.0
 30
0.0
 40
105.0
  1

  7
GYM
100
AcDbAttributeDefinition
  3
Unite adedi
  2
ADET
 70
0
  0
ENDBLK
  5
120
330
11E
100
AcDbEntity
  8
0
100
AcDbBlockEnd
  0
BLOCK
  5
126
330
125
100
AcDbEntity
  8
0
100
AcDbBlockBegin
  2
M_ISITICI
 70
2
 10
0.0
 20
0.0
 30
0.0
  3
M_ISITICI
  1

  0
LWPOLYLINE
  5
128
330
125
100
AcDbEntity
  8
0
100
AcDbPolyline
 90
4
 70
1
 10
-200.0
 20
-150.0
 10
200.0
 20
-150.0
 10
200.0
 20
150.0
 10
-200.0
 20
150.0
  0
LINE
  5
129
330
125
100
AcDbEntity
  8
0
100
AcDbLine
 10
-90.0
 20
-150.0
 30
0.0
 11
-90.0
 21
150.0
 31
0.0
  0
LINE
  5
12A
330
125
100
AcDbEntity
  8
0
100
AcDbLine
 10
0.0
 20
-150.0
 30
0.0
 11
0.0
 21
150.0
 31
0.0
  0
LINE
  5
12B
330
125
100
AcDbEntity
  8
0
100
AcDbLine
 10
90.0
 20
-150.0
 30
0.0
 11
90.0
 21
150.0
 31
0.0
  0
ATTDEF
  5
12C
330
125
100
AcDbEntity
  8
0
100
AcDbText
 10
0.0
 20
225.0
 30
0.0
 40
120.0
  1

  7
GYM
100
AcDbAttributeDefinition
  3
Isitici kodu
  2
KOD
 70
0
  0
ATTDEF
  5
12D
330
125
100
AcDbEntity
  8
0
100
AcDbText
 10
0.0
 20
-285.0
 30
0.0
 40
105.0
  1

  7
GYM
100
AcDbAttributeDefinition
  3
Guc (kW)
  2
GUC
 70
0
  0
ENDBLK
  5
127
330
125
100
AcDbEntity
  8
0
100
AcDbBlockEnd
  0
BLOCK
  5
12F
330
12E
100
AcDbEntity
  8
0
100
AcDbBlockBegin
  2
M_KLOZET
 70
2
 10
0.0
 20
0.0
 30
0.0
  3
M_KLOZET
  1

  0
ELLIPSE
  5
131
330
12E
100
AcDbEntity
  8
0
100
AcDbEllipse
 10
0.0
 20
-40.0
 30
0.0
 11
160.0
 21
0.0
 31
0.0
 40
0.78
 41
0.0
 42
6.283185307179586
  0
LWPOLYLINE
  5
132
330
12E
100
AcDbEntity
  8
0
100
AcDbPolyline
 90
4
 70
1
 10
-170.0
 20
150.0
 10
170.0
 20
150.0
 10
170.0
 20
260.0
 10
-170.0
 20
260.0
  0
ATTDEF
  5
133
330
12E
100
AcDbEntity
  8
0
100
AcDbText
 10
0.0
 20
330.0
 30
0.0
 40
120.0
  1

  7
GYM
100
AcDbAttributeDefinition
  3
Vitrifiye
  2
KOD
 70
0
  0
ENDBLK
  5
130
330
12E
100
AcDbEntity
  8
0
100
AcDbBlockEnd
  0
BLOCK
  5
135
330
134
100
AcDbEntity
  8
0
100
AcDbBlockBegin
  2
M_LAVABO
 70
2
 10
0.0
 20
0.0
 30
0.0
  3
M_LAVABO
  1

  0
LWPOLYLINE
  5
137
330
134
100
AcDbEntity
  8
0
100
AcDbPolyline
 90
4
 70
1
 10
-230.0
 20
-140.0
 10
230.0
 20
-140.0
 10
230.0
 20
140.0
 10
-230.0
 20
140.0
  0
ELLIPSE
  5
138
330
134
100
AcDbEntity
  8
0
100
AcDbEllipse
 10
0.0
 20
0.0
 30
0.0
 11
170.0
 21
0.0
 31
0.0
 40
0.62
 41
0.0
 42
6.283185307179586
  0
ATTDEF
  5
139
330
134
100
AcDbEntity
  8
0
100
AcDbText
 10
0.0
 20
210.0
 30
0.0
 40
120.0
  1

  7
GYM
100
AcDbAttributeDefinition
  3
Vitrifiye
  2
KOD
 70
0
  0
ENDBLK
  5
136
330
134
100
AcDbEntity
  8
0
100
AcDbBlockEnd
  0
BLOCK
  5
13B
330
13A
100
AcDbEntity
  8
0
100
AcDbBlockBegin
  2
M_DUS
 70
2
 10
0.0
 20
0.0
 30
0.0
  3
M_DUS
  1

  0
LWPOLYLINE
  5
13D
330
13A
100
AcDbEntity
  8
0
100
AcDbPolyline
 90
4
 70
1
 10
-450.0
 20
-450.0
 10
450.0
 20
-450.0
 10
450.0
 20
450.0
 10
-450.0
 20
450.0
  0
CIRCLE
  5
13E
330
13A
100
AcDbEntity
  8
0
100
AcDbCircle
 10
0.0
 20
0.0
 30
0.0
 40
80.0
  0
LINE
  5
13F
330
13A
100
AcDbEntity
  8
0
100
AcDbLine
 10
-450.0
 20
-450.0
 30
0.0
 11
450.0
 21
450.0
 31
0.0
  0
ATTDEF
  5
140
330
13A
100
AcDbEntity
  8
0
100
AcDbText
 10
0.0
 20
530.0
 30
0.0
 40
120.0
  1

  7
GYM
100
AcDbAttributeDefinition
  3
Dus teknesi
  2
KOD
 70
0
  0
ENDBLK
  5
13C
330
13A
100
AcDbEntity
  8
0
100
AcDbBlockEnd
  0
BLOCK
  5
142
330
141
100
AcDbEntity
  8
0
100
AcDbBlockBegin
  2
M_SUZGEC
 70
0
 10
0.0
 20
0.0
 30
0.0
  3
M_SUZGEC
  1

  0
LWPOLYLINE
  5
144
330
141
100
AcDbEntity
  8
0
100
AcDbPolyline
 90
4
 70
1
 10
-75.0
 20
-75.0
 10
75.0
 20
-75.0
 10
75.0
 20
75.0
 10
-75.0
 20
75.0
  0
CIRCLE
  5
145
330
141
100
AcDbEntity
  8
0
100
AcDbCircle
 10
0.0
 20
0.0
 30
0.0
 40
42.0
  0
ENDBLK
  5
143
330
141
100
AcDbEntity
  8
0
100
AcDbBlockEnd
  0
BLOCK
  5
147
330
146
100
AcDbEntity
  8
0
100
AcDbBlockBegin
  2
M_SAYAC
 70
2
 10
0.0
 20
0.0
 30
0.0
  3
M_SAYAC
  1

  0
CIRCLE
  5
149
330
146
100
AcDbEntity
  8
0
100
AcDbCircle
 10
0.0
 20
0.0
 30
0.0
 40
130.0
  0
LINE
  5
14A
330
146
100
AcDbEntity
  8
0
100
AcDbLine
 10
-130.0
 20
0.0
 30
0.0
 11
130.0
 21
0.0
 31
0.0
  0
ATTDEF
  5
14B
330
146
100
AcDbEntity
  8
0
100
AcDbText
 10
0.0
 20
200.0
 30
0.0
 40
120.0
  1

  7
GYM
100
AcDbAttributeDefinition
  3
Sayac / ana kesme
  2
KOD
 70
0
  0
ENDBLK
  5
148
330
146
100
AcDbEntity
  8
0
100
AcDbBlockEnd
  0
BLOCK
  5
14D
330
14C
100
AcDbEntity
  8
0
100
AcDbBlockBegin
  2
E_ARMATUR_LINEER
 70
2
 10
0.0
 20
0.0
 30
0.0
  3
E_ARMATUR_LINEER
  1

  0
LWPOLYLINE
  5
14F
330
14C
100
AcDbEntity
  8
0
100
AcDbPolyline
 90
4
 70
1
 10
-600.0
 20
-55.0
 10
600.0
 20
-55.0
 10
600.0
 20
55.0
 10
-600.0
 20
55.0
  0
LINE
  5
150
330
14C
100
AcDbEntity
  8
0
100
AcDbLine
 10
-600.0
 20
0.0
 30
0.0
 11
600.0
 21
0.0
 31
0.0
  0
ATTDEF
  5
151
330
14C
100
AcDbEntity
  8
0
100
AcDbText
 10
0.0
 20
185.0
 30
0.0
 40
105.0
  1

  7
GYM
100
AcDbAttributeDefinition
  3
Linye kodu
  2
LINYE
 70
0
  0
ENDBLK
  5
14E
330
14C
100
AcDbEntity
  8
0
100
AcDbBlockEnd
  0
BLOCK
  5
153
330
152
100
AcDbEntity
  8
0
100
AcDbBlockBegin
  2
E_DOWNLIGHT
 70
2
 10
0.0
 20
0.0
 30
0.0
  3
E_DOWNLIGHT
  1

  0
CIRCLE
  5
155
330
152
100
AcDbEntity
  8
0
100
AcDbCircle
 10
0.0
 20
0.0
 30
0.0
 40
90.0
  0
LINE
  5
156
330
152
100
AcDbEntity
  8
0
100
AcDbLine
 10
-64.0
 20
-64.0
 30
0.0
 11
64.0
 21
64.0
 31
0.0
  0
LINE
  5
157
330
152
100
AcDbEntity
  8
0
100
AcDbLine
 10
-64.0
 20
64.0
 30
0.0
 11
64.0
 21
-64.0
 31
0.0
  0
ATTDEF
  5
158
330
152
100
AcDbEntity
  8
0
100
AcDbText
 10
0.0
 20
210.0
 30
0.0
 40
105.0
  1

  7
GYM
100
AcDbAttributeDefinition
  3
Linye kodu
  2
LINYE
 70
0
  0
ENDBLK
  5
154
330
152
100
AcDbEntity
  8
0
100
AcDbBlockEnd
  0
BLOCK
  5
15A
330
159
100
AcDbEntity
  8
0
100
AcDbBlockBegin
  2
E_ACIL
 70
2
 10
0.0
 20
0.0
 30
0.0
  3
E_ACIL
  1

  0
LWPOLYLINE
  5
15C
330
159
100
AcDbEntity
  8
0
100
AcDbPolyline
 90
4
 70
1
 10
-100.0
 20
-100.0
 10
100.0
 20
-100.0
 10
100.0
 20
100.0
 10
-100.0
 20
100.0
  0
TEXT
  5
15D
330
159
100
AcDbEntity
  8
0
100
AcDbText
 10
0.0
 20
0.0
 30
0.0
 40
110.0
  1
E
  7
GYM-B
 72
1
 11
0.0
 21
0.0
 31
0.0
100
AcDbText
 73
2
  0
ATTDEF
  5
15E
330
159
100
AcDbEntity
  8
0
100
AcDbText
 10
0.0
 20
230.0
 30
0.0
 40
105.0
  1

  7
GYM
100
AcDbAttributeDefinition
  3
Armatur kodu
  2
KOD
 70
0
  0
ENDBLK
  5
15B
330
159
100
AcDbEntity
  8
0
100
AcDbBlockEnd
  0
BLOCK
  5
160
330
15F
100
AcDbEntity
  8
0
100
AcDbBlockBegin
  2
E_YONLENDIRME
 70
2
 10
0.0
 20
0.0
 30
0.0
  3
E_YONLENDIRME
  1

  0
LWPOLYLINE
  5
162
330
15F
100
AcDbEntity
  8
0
100
AcDbPolyline
 90
4
 70
1
 10
-130.0
 20
-80.0
 10
130.0
 20
-80.0
 10
130.0
 20
80.0
 10
-130.0
 20
80.0
  0
LWPOLYLINE
  5
163
330
15F
100
AcDbEntity
  8
0
100
AcDbPolyline
 90
2
 70
0
 10
-70.0
 20
0.0
 10
30.0
 20
0.0
  0
LWPOLYLINE
  5
164
330
15F
100
AcDbEntity
  8
0
100
AcDbPolyline
 90
3
 70
1
 10
30.0
 20
45.0
 10
80.0
 20
0.0
 10
30.0
 20
-45.0
  0
ATTDEF
  5
165
330
15F
100
AcDbEntity
  8
0
100
AcDbText
 10
0.0
 20
205.0
 30
0.0
 40
105.0
  1

  7
GYM
100
AcDbAttributeDefinition
  3
Armatur kodu
  2
KOD
 70
0
  0
ENDBLK
  5
161
330
15F
100
AcDbEntity
  8
0
100
AcDbBlockEnd
  0
BLOCK
  5
167
330
166
100
AcDbEntity
  8
0
100
AcDbBlockBegin
  2
E_PRIZ
 70
2
 10
0.0
 20
0.0
 30
0.0
  3
E_PRIZ
  1

  0
ARC
  5
169
330
166
100
AcDbEntity
  8
0
100
AcDbCircle
 10
0.0
 20
0.0
 30
0.0
 40
95.0
100
AcDbArc
 50
0.0
 51
180.0
  0
LINE
  5
16A
330
166
100
AcDbEntity
  8
0
100
AcDbLine
 10
-95.0
 20
0.0
 30
0.0
 11
95.0
 21
0.0
 31
0.0
  0
LINE
  5
16B
330
166
100
AcDbEntity
  8
0
100
AcDbLine
 10
0.0
 20
0.0
 30
0.0
 11
0.0
 21
150.0
 31
0.0
  0
LINE
  5
16C
330
166
100
AcDbEntity
  8
0
100
AcDbLine
 10
-60.0
 20
150.0
 30
0.0
 11
60.0
 21
150.0
 31
0.0
  0
ATTDEF
  5
16D
330
166
100
AcDbEntity
  8
0
100
AcDbText
 10
195.0
 20
80.0
 30
0.0
 40
105.0
  1

  7
GYM
100
AcDbAttributeDefinition
  3
Priz kodu
  2
KOD
 70
0
  0
ATTDEF
  5
16E
330
166
100
AcDbEntity
  8
0
100
AcDbText
 10
195.0
 20
-80.0
 30
0.0
 40
105.0
  1

  7
GYM
100
AcDbAttributeDefinition
  3
Linye
  2
LINYE
 70
0
  0
ENDBLK
  5
168
330
166
100
AcDbEntity
  8
0
100
AcDbBlockEnd
  0
BLOCK
  5
170
330
16F
100
AcDbEntity
  8
0
100
AcDbBlockBegin
  2
E_PRIZ_IP44
 70
2
 10
0.0
 20
0.0
 30
0.0
  3
E_PRIZ_IP44
  1

  0
ARC
  5
172
330
16F
100
AcDbEntity
  8
0
100
AcDbCircle
 10
0.0
 20
0.0
 30
0.0
 40
95.0
100
AcDbArc
 50
0.0
 51
180.0
  0
LINE
  5
173
330
16F
100
AcDbEntity
  8
0
100
AcDbLine
 10
-95.0
 20
0.0
 30
0.0
 11
95.0
 21
0.0
 31
0.0
  0
LINE
  5
174
330
16F
100
AcDbEntity
  8
0
100
AcDbLine
 10
0.0
 20
0.0
 30
0.0
 11
0.0
 21
150.0
 31
0.0
  0
LINE
  5
175
330
16F
100
AcDbEntity
  8
0
100
AcDbLine
 10
-60.0
 20
150.0
 30
0.0
 11
60.0
 21
150.0
 31
0.0
  0
TEXT
  5
176
330
16F
100
AcDbEntity
  8
0
100
AcDbText
 10
0.0
 20
-120.0
 30
0.0
 40
70.0
  1
IP44
  7
GYM
 72
1
 11
0.0
 21
-120.0
 31
0.0
100
AcDbText
 73
2
  0
ATTDEF
  5
177
330
16F
100
AcDbEntity
  8
0
100
AcDbText
 10
205.0
 20
80.0
 30
0.0
 40
105.0
  1

  7
GYM
100
AcDbAttributeDefinition
  3
Priz kodu
  2
KOD
 70
0
  0
ENDBLK
  5
171
330
16F
100
AcDbEntity
  8
0
100
AcDbBlockEnd
  0
BLOCK
  5
179
330
178
100
AcDbEntity
  8
0
100
AcDbBlockBegin
  2
E_ANAHTAR
 70
2
 10
0.0
 20
0.0
 30
0.0
  3
E_ANAHTAR
  1

  0
CIRCLE
  5
17B
330
178
100
AcDbEntity
  8
0
100
AcDbCircle
 10
0.0
 20
0.0
 30
0.0
 40
60.0
  0
LINE
  5
17C
330
178
100
AcDbEntity
  8
0
100
AcDbLine
 10
0.0
 20
0.0
 30
0.0
 11
130.0
 21
110.0
 31
0.0
  0
ATTDEF
  5
17D
330
178
100
AcDbEntity
  8
0
100
AcDbText
 10
0.0
 20
240.0
 30
0.0
 40
105.0
  1

  7
GYM
100
AcDbAttributeDefinition
  3
Anahtar kodu
  2
KOD
 70
0
  0
ENDBLK
  5
17A
330
178
100
AcDbEntity
  8
0
100
AcDbBlockEnd
  0
BLOCK
  5
17F
330
17E
100
AcDbEntity
  8
0
100
AcDbBlockBegin
  2
E_SENSOR
 70
2
 10
0.0
 20
0.0
 30
0.0
  3
E_SENSOR
  1

  0
CIRCLE
  5
181
330
17E
100
AcDbEntity
  8
0
100
AcDbCircle
 10
0.0
 20
0.0
 30
0.0
 40
95.0
  0
TEXT
  5
182
330
17E
100
AcDbEntity
  8
0
100
AcDbText
 10
0.0
 20
0.0
 30
0.0
 40
100.0
  1
S
  7
GYM-B
 72
1
 11
0.0
 21
0.0
 31
0.0
100
AcDbText
 73
2
  0
ATTDEF
  5
183
330
17E
100
AcDbEntity
  8
0
100
AcDbText
 10
0.0
 20
230.0
 30
0.0
 40
105.0
  1

  7
GYM
100
AcDbAttributeDefinition
  3
Sensor kodu
  2
KOD
 70
0
  0
ENDBLK
  5
180
330
17E
100
AcDbEntity
  8
0
100
AcDbBlockEnd
  0
BLOCK
  5
185
330
184
100
AcDbEntity
  8
0
100
AcDbBlockBegin
  2
E_KAMERA
 70
2
 10
0.0
 20
0.0
 30
0.0
  3
E_KAMERA
  1

  0
LWPOLYLINE
  5
187
330
184
100
AcDbEntity
  8
0
100
AcDbPolyline
 90
3
 70
1
 10
-110.0
 20
-85.0
 10
110.0
 20
0.0
 10
-110.0
 20
85.0
  0
ATTDEF
  5
188
330
184
100
AcDbEntity
  8
0
100
AcDbText
 10
0.0
 20
210.0
 30
0.0
 40
105.0
  1

  7
GYM
100
AcDbAttributeDefinition
  3
Kamera kodu
  2
KOD
 70
0
  0
ENDBLK
  5
186
330
184
100
AcDbEntity
  8
0
100
AcDbBlockEnd
  0
BLOCK
  5
18A
330
189
100
AcDbEntity
  8
0
100
AcDbBlockBegin
  2
E_HOPARLOR
 70
2
 10
0.0
 20
0.0
 30
0.0
  3
E_HOPARLOR
  1

  0
CIRCLE
  5
18C
330
189
100
AcDbEntity
  8
0
100
AcDbCircle
 10
0.0
 20
0.0
 30
0.0
 40
95.0
  0
ARC
  5
18D
330
189
100
AcDbEntity
  8
0
100
AcDbCircle
 10
0.0
 20
0.0
 30
0.0
 40
150.0
100
AcDbArc
 50
-45.0
 51
45.0
  0
ARC
  5
18E
330
189
100
AcDbEntity
  8
0
100
AcDbCircle
 10
0.0
 20
0.0
 30
0.0
 40
200.0
100
AcDbArc
 50
-35.0
 51
35.0
  0
ATTDEF
  5
18F
330
189
100
AcDbEntity
  8
0
100
AcDbText
 10
0.0
 20
330.0
 30
0.0
 40
105.0
  1

  7
GYM
100
AcDbAttributeDefinition
  3
Hoparlor kodu
  2
KOD
 70
0
  0
ENDBLK
  5
18B
330
189
100
AcDbEntity
  8
0
100
AcDbBlockEnd
  0
BLOCK
  5
191
330
190
100
AcDbEntity
  8
0
100
AcDbBlockBegin
  2
E_VERI
 70
2
 10
0.0
 20
0.0
 30
0.0
  3
E_VERI
  1

  0
LWPOLYLINE
  5
193
330
190
100
AcDbEntity
  8
0
100
AcDbPolyline
 90
4
 70
1
 10
-95.0
 20
-95.0
 10
95.0
 20
-95.0
 10
95.0
 20
95.0
 10
-95.0
 20
95.0
  0
TEXT
  5
194
330
190
100
AcDbEntity
  8
0
100
AcDbText
 10
0.0
 20
0.0
 30
0.0
 40
105.0
  1
D
  7
GYM-B
 72
1
 11
0.0
 21
0.0
 31
0.0
100
AcDbText
 73
2
  0
ATTDEF
  5
195
330
190
100
AcDbEntity
  8
0
100
AcDbText
 10
0.0
 20
230.0
 30
0.0
 40
105.0
  1

  7
GYM
100
AcDbAttributeDefinition
  3
Veri kodu
  2
KOD
 70
0
  0
ENDBLK
  5
192
330
190
100
AcDbEntity
  8
0
100
AcDbBlockEnd
  0
BLOCK
  5
197
330
196
100
AcDbEntity
  8
0
100
AcDbBlockBegin
  2
E_DEDEKTOR
 70
2
 10
0.0
 20
0.0
 30
0.0
  3
E_DEDEKTOR
  1

  0
CIRCLE
  5
199
330
196
100
AcDbEntity
  8
0
100
AcDbCircle
 10
0.0
 20
0.0
 30
0.0
 40
110.0
  0
CIRCLE
  5
19A
330
196
100
AcDbEntity
  8
0
100
AcDbCircle
 10
0.0
 20
0.0
 30
0.0
 40
40.0
  0
ATTDEF
  5
19B
330
196
100
AcDbEntity
  8
0
100
AcDbText
 10
0.0
 20
240.0
 30
0.0
 40
105.0
  1

  7
GYM
100
AcDbAttributeDefinition
  3
Dedektor kodu
  2
KOD
 70
0
  0
ENDBLK
  5
198
330
196
100
AcDbEntity
  8
0
100
AcDbBlockEnd
  0
BLOCK
  5
19D
330
19C
100
AcDbEntity
  8
0
100
AcDbBlockBegin
  2
E_YANGIN_BUTON
 70
2
 10
0.0
 20
0.0
 30
0.0
  3
E_YANGIN_BUTON
  1

  0
LWPOLYLINE
  5
19F
330
19C
100
AcDbEntity
  8
0
100
AcDbPolyline
 90
4
 70
1
 10
-95.0
 20
-95.0
 10
95.0
 20
-95.0
 10
95.0
 20
95.0
 10
-95.0
 20
95.0
  0
TEXT
  5
1A0
330
19C
100
AcDbEntity
  8
0
100
AcDbText
 10
0.0
 20
0.0
 30
0.0
 40
105.0
  1
Y
  7
GYM-B
 72
1
 11
0.0
 21
0.0
 31
0.0
100
AcDbText
 73
2
  0
ATTDEF
  5
1A1
330
19C
100
AcDbEntity
  8
0
100
AcDbText
 10
0.0
 20
230.0
 30
0.0
 40
105.0
  1

  7
GYM
100
AcDbAttributeDefinition
  3
Buton kodu
  2
KOD
 70
0
  0
ENDBLK
  5
19E
330
19C
100
AcDbEntity
  8
0
100
AcDbBlockEnd
  0
BLOCK
  5
1A3
330
1A2
100
AcDbEntity
  8
0
100
AcDbBlockBegin
  2
E_PANO
 70
2
 10
0.0
 20
0.0
 30
0.0
  3
E_PANO
  1

  0
LWPOLYLINE
  5
1A5
330
1A2
100
AcDbEntity
  8
0
100
AcDbPolyline
 90
4
 70
1
 10
-420.0
 20
-280.0
 10
420.0
 20
-280.0
 10
420.0
 20
280.0
 10
-420.0
 20
280.0
  0
LINE
  5
1A6
330
1A2
100
AcDbEntity
  8
0
100
AcDbLine
 10
-330.0
 20
-280.0
 30
0.0
 11
-330.0
 21
280.0
 31
0.0
  0
LINE
  5
1A7
330
1A2
100
AcDbEntity
  8
0
100
AcDbLine
 10
-220.0
 20
-280.0
 30
0.0
 11
-220.0
 21
280.0
 31
0.0
  0
LINE
  5
1A8
330
1A2
100
AcDbEntity
  8
0
100
AcDbLine
 10
-110.0
 20
-280.0
 30
0.0
 11
-110.0
 21
280.0
 31
0.0
  0
LINE
  5
1A9
330
1A2
100
AcDbEntity
  8
0
100
AcDbLine
 10
0.0
 20
-280.0
 30
0.0
 11
0.0
 21
280.0
 31
0.0
  0
LINE
  5
1AA
330
1A2
100
AcDbEntity
  8
0
100
AcDbLine
 10
110.0
 20
-280.0
 30
0.0
 11
110.0
 21
280.0
 31
0.0
  0
LINE
  5
1AB
330
1A2
100
AcDbEntity
  8
0
100
AcDbLine
 10
220.0
 20
-280.0
 30
0.0
 11
220.0
 21
280.0
 31
0.0
  0
LINE
  5
1AC
330
1A2
100
AcDbEntity
  8
0
100
AcDbLine
 10
330.0
 20
-280.0
 30
0.0
 11
330.0
 21
280.0
 31
0.0
  0
ATTDEF
  5
1AD
330
1A2
100
AcDbEntity
  8
0
100
AcDbText
 10
0.0
 20
380.0
 30
0.0
 40
120.0
  1

  7
GYM
100
AcDbAttributeDefinition
  3
Pano kodu
  2
KOD
 70
0
  0
ATTDEF
  5
1AE
330
1A2
100
AcDbEntity
  8
0
100
AcDbText
 10
0.0
 20
-470.0
 30
0.0
 40
105.0
  1

  7
GYM
100
AcDbAttributeDefinition
  3
Pano tanimi
  2
TANIM
 70
0
  0
ENDBLK
  5
1A4
330
1A2
100
AcDbEntity
  8
0
100
AcDbBlockEnd
  0
BLOCK
  5
1B0
330
1AF
100
AcDbEntity
  8
0
100
AcDbBlockBegin
  2
G_KUZEY
 70
0
 10
0.0
 20
0.0
 30
0.0
  3
G_KUZEY
  1

  0
CIRCLE
  5
1B2
330
1AF
100
AcDbEntity
  8
0
100
AcDbCircle
 10
0.0
 20
0.0
 30
0.0
 40
700.0
  0
LWPOLYLINE
  5
1B3
330
1AF
100
AcDbEntity
  8
0
100
AcDbPolyline
 90
4
 70
1
 10
0.0
 20
560.0
 10
-230.0
 20
-330.0
 10
0.0
 20
-140.0
 10
230.0
 20
-330.0
  0
TEXT
  5
1B4
330
1AF
100
AcDbEntity
  8
0
100
AcDbText
 10
0.0
 20
-960.0
 30
0.0
 40
260.0
  1
K
  7
GYM-B
 72
1
 11
0.0
 21
-960.0
 31
0.0
100
AcDbText
 73
2
  0
ENDBLK
  5
1B1
330
1AF
100
AcDbEntity
  8
0
100
AcDbBlockEnd
  0
BLOCK
  5
1B6
330
1B5
100
AcDbEntity
  8
0
100
AcDbBlockBegin
  2
ANTET_A3
 70
2
 10
0.0
 20
0.0
 30
0.0
  3
ANTET_A3
  1

  0
LWPOLYLINE
  5
1B8
330
1B5
100
AcDbEntity
  8
0
100
AcDbPolyline
 90
4
 70
1
 10
0.0
 20
0.0
 10
170.0
 20
0.0
 10
170.0
 20
92.0
 10
0.0
 20
92.0
  0
LINE
  5
1B9
330
1B5
100
AcDbEntity
  8
0
100
AcDbLine
 10
0.0
 20
12.0
 30
0.0
 11
170.0
 21
12.0
 31
0.0
  0
LINE
  5
1BA
330
1B5
100
AcDbEntity
  8
0
100
AcDbLine
 10
0.0
 20
24.0
 30
0.0
 11
170.0
 21
24.0
 31
0.0
  0
LINE
  5
1BB
330
1B5
100
AcDbEntity
  8
0
100
AcDbLine
 10
0.0
 20
36.0
 30
0.0
 11
170.0
 21
36.0
 31
0.0
  0
LINE
  5
1BC
330
1B5
100
AcDbEntity
  8
0
100
AcDbLine
 10
0.0
 20
48.0
 30
0.0
 11
170.0
 21
48.0
 31
0.0
  0
LINE
  5
1BD
330
1B5
100
AcDbEntity
  8
0
100
AcDbLine
 10
0.0
 20
62.0
 30
0.0
 11
170.0
 21
62.0
 31
0.0
  0
LINE
  5
1BE
330
1B5
100
AcDbEntity
  8
0
100
AcDbLine
 10
0.0
 20
74.0
 30
0.0
 11
170.0
 21
74.0
 31
0.0
  0
LINE
  5
1BF
330
1B5
100
AcDbEntity
  8
0
100
AcDbLine
 10
52.0
 20
0.0
 30
0.0
 11
52.0
 21
62.0
 31
0.0
  0
TEXT
  5
1C0
330
1B5
100
AcDbEntity
  8
0
100
AcDbText
 10
2.0
 20
87.5
 30
0.0
 40
2.2
  1
PROJE
  7
GYM
 11
2.0
 21
87.5
 31
0.0
100
AcDbText
 73
2
  0
TEXT
  5
1C1
330
1B5
100
AcDbEntity
  8
0
100
AcDbText
 10
2.0
 20
70.5
 30
0.0
 40
2.2
  1
DİSİPLİN
  7
GYM
 11
2.0
 21
70.5
 31
0.0
100
AcDbText
 73
2
  0
TEXT
  5
1C2
330
1B5
100
AcDbEntity
  8
0
100
AcDbText
 10
2.0
 20
58.5
 30
0.0
 40
2.2
  1
PAFTA ADI
  7
GYM
 11
2.0
 21
58.5
 31
0.0
100
AcDbText
 73
2
  0
TEXT
  5
1C3
330
1B5
100
AcDbEntity
  8
0
100
AcDbText
 10
2.0
 20
46.5
 30
0.0
 40
2.2
  1
PAFTA NO
  7
GYM
 11
2.0
 21
46.5
 31
0.0
100
AcDbText
 73
2
  0
TEXT
  5
1C4
330
1B5
100
AcDbEntity
  8
0
100
AcDbText
 10
54.0
 20
46.5
 30
0.0
 40
2.2
  1
ÖLÇEK
  7
GYM
 11
54.0
 21
46.5
 31
0.0
100
AcDbText
 73
2
  0
TEXT
  5
1C5
330
1B5
100
AcDbEntity
  8
0
100
AcDbText
 10
2.0
 20
34.5
 30
0.0
 40
2.2
  1
TARİH
  7
GYM
 11
2.0
 21
34.5
 31
0.0
100
AcDbText
 73
2
  0
TEXT
  5
1C6
330
1B5
100
AcDbEntity
  8
0
100
AcDbText
 10
54.0
 20
34.5
 30
0.0
 40
2.2
  1
REVİZYON
  7
GYM
 11
54.0
 21
34.5
 31
0.0
100
AcDbText
 73
2
  0
TEXT
  5
1C7
330
1B5
100
AcDbEntity
  8
0
100
AcDbText
 10
2.0
 20
22.5
 30
0.0
 40
2.2
  1
BİRİM
  7
GYM
 11
2.0
 21
22.5
 31
0.0
100
AcDbText
 73
2
  0
TEXT
  5
1C8
330
1B5
100
AcDbEntity
  8
0
100
AcDbText
 10
54.0
 20
22.5
 30
0.0
 40
2.2
  1
DURUM
  7
GYM
 11
54.0
 21
22.5
 31
0.0
100
AcDbText
 73
2
  0
ATTDEF
  5
1C9
330
1B5
100
AcDbEntity
  8
0
100
AcDbText
 10
2.0
 20
79.0
 30
0.0
 40
3.2
  1

  7
GYM-B
100
AcDbAttributeDefinition
  3
Proje adi
  2
PROJE
 70
0
  0
ATTDEF
  5
1CA
330
1B5
100
AcDbEntity
  8
0
100
AcDbText
 10
2.0
 20
65.5
 30
0.0
 40
3.4
  1

  7
GYM-B
100
AcDbAttributeDefinition
  3
Disiplin
  2
DISIPLIN
 70
0
  0
ATTDEF
  5
1CB
330
1B5
100
AcDbEntity
  8
0
100
AcDbText
 10
2.0
 20
53.5
 30
0.0
 40
3.4
  1

  7
GYM-B
100
AcDbAttributeDefinition
  3
Pafta adi
  2
PAFTA_ADI
 70
0
  0
ATTDEF
  5
1CC
330
1B5
100
AcDbEntity
  8
0
100
AcDbText
 10
2.0
 20
41.0
 30
0.0
 40
3.6
  1

  7
GYM-B
100
AcDbAttributeDefinition
  3
Pafta no
  2
PAFTA_NO
 70
0
  0
ATTDEF
  5
1CD
330
1B5
100
AcDbEntity
  8
0
100
AcDbText
 10
54.0
 20
41.5
 30
0.0
 40
3.4
  1

  7
GYM-B
100
AcDbAttributeDefinition
  3
Olcek
  2
OLCEK
 70
0
  0
ATTDEF
  5
1CE
330
1B5
100
AcDbEntity
  8
0
100
AcDbText
 10
2.0
 20
29.5
 30
0.0
 40
3.0
  1

  7
GYM
100
AcDbAttributeDefinition
  3
Tarih
  2
TARIH
 70
0
  0
ATTDEF
  5
1CF
330
1B5
100
AcDbEntity
  8
0
100
AcDbText
 10
54.0
 20
29.5
 30
0.0
 40
3.0
  1

  7
GYM
100
AcDbAttributeDefinition
  3
Revizyon
  2
REV
 70
0
  0
ATTDEF
  5
1D0
330
1B5
100
AcDbEntity
  8
0
100
AcDbText
 10
2.0
 20
17.5
 30
0.0
 40
3.0
  1

  7
GYM
100
AcDbAttributeDefinition
  3
Birim
  2
BIRIM
 70
0
  0
ATTDEF
  5
1D1
330
1B5
100
AcDbEntity
  8
0
100
AcDbText
 10
54.0
 20
17.5
 30
0.0
 40
3.0
  1

  7
GYM
100
AcDbAttributeDefinition
  3
Durum
  2
DURUM
 70
0
  0
ATTDEF
  5
1D2
330
1B5
100
AcDbEntity
  8
0
100
AcDbText
 10
2.0
 20
6.0
 30
0.0
 40
2.2
  1

  7
GYM
100
AcDbAttributeDefinition
  3
Alt not
  2
NOT
 70
0
  0
ENDBLK
  5
1B7
330
1B5
100
AcDbEntity
  8
0
100
AcDbBlockEnd
  0
BLOCK
  5
29F
330
29E
100
AcDbEntity
  8
0
100
AcDbBlockBegin
  2
*Paper_Space
 70
0
 10
0.0
 20
0.0
 30
0.0
  3
*Paper_Space
  1

  0
ENDBLK
  5
2A0
330
29E
100
AcDbEntity
  8
0
100
AcDbBlockEnd
  0
ENDSEC
  0
SECTION
  2
ENTITIES
  0
HATCH
  5
1D3
330
17
100
AcDbEntity
  8
A-DUVAR-MEVCUT
 62
7
100
AcDbHatch
 10
0.0
 20
0.0
 30
0.0
210
0.0
220
0.0
230
1.0
  2
ANSI31
 70
0
 71
0
 91
54
 92
3
 72
0
 73
1
 93
4
 10
11012.0
 20
4959.0
 10
11563.0
 20
1104.0
 10
11760.987843861418
 20
1132.2986516128772
 10
11209.987843861418
 20
4987.298651612877
 97
0
 92
3
 72
0
 73
1
 93
8
 10
11353.0
 20
1092.9972899728996
 10
11563.0
 20
1104.0
 10
11532.984435797665
 20
1314.0
 10
11735.017041536825
 20
1314.0
 10
11773.000000000002
 20
1048.2571599354897
 10
11773.000000000002
 20
914.7283865325666
 10
11377.373726007741
 20
894.0000000000001
 10
11353.0
 20
894.0000000000001
 97
0
 92
3
 72
0
 73
1
 93
4
 10
11563.0
 20
1104.0
 10
10456.0
 20
1046.0
 10
10466.464418275433
 20
846.2739477430229
 10
11573.464418275433
 20
904.273947743023
 97
0
 92
3
 72
0
 73
1
 93
8
 10
10432.290322580646
 20
1256.0
 10
10456.0
 20
1046.0
 10
10666.0
 20
1057.0027100271004
 10
10666.0
 20
856.7283865325664
 10
10278.391571086133
 20
836.4200858306655
 10
10275.474858017116
 20
862.2538301562389
 10
10245.999999999998
 20
838.7256540197681
 10
10245.999999999998
 20
1256.0
 97
0
 92
3
 72
0
 73
1
 93
4
 10
10456.0
 20
1046.0
 10
10400.0
 20
1542.0
 10
10201.26265515171
 20
1519.561912678419
 10
10257.262655151708
 20
1023.561912678419
 97
0
 92
3
 72
0
 73
1
 93
4
 10
10190.0
 20
1332.0
 10
10190.0
 20
1534.6056338028168
 10
10400.0
 20
1542.0
 10
10423.709677419354
 20
1332.0
 97
0
 92
3
 72
0
 73
1
 93
4
 10
10400.0
 20
1542.0
 10
10116.0
 20
1532.0
 10
10123.037891965963
 20
1332.1238681666184
 10
10407.037891965965
 20
1342.1238681666184
 97
0
 92
3
 72
0
 73
1
 93
4
 10
10326.0
 20
1322.0
 10
10129.891050583657
 20
1322.0
 10
10116.0
 20
1532.0
 10
10326.0
 20
1539.3943661971832
 97
0
 92
3
 72
0
 73
1
 93
4
 10
10116.0
 20
1532.0
 10
10150.0
 20
1018.0
 10
10349.563876747898
 20
1031.2007233646473
 10
10315.563876747896
 20
1545.2007233646473
 97
0
 92
3
 72
0
 73
1
 93
9
 10
9940.0
 20
850.3684210526313
 10
10150.0
 20
1018.0
 10
10136.108949416343
 20
1228.0
 10
10360.000000000002
 20
1228.0
 10
10360.000000000002
 20
840.6958662073632
 10
10278.391571086133
 20
836.4200858306655
 10
10275.474858017116
 20
862.2538301562389
 10
10207.508521337872
 20
808.0
 10
9940.0
 20
808.0
 97
0
 92
3
 72
0
 73
1
 93
4
 10
10150.0
 20
1018.0
 10
9527.474361478948
 20
521.0716394261786
 10
9652.246089880457
 20
364.7641994506611
 10
10274.771728401509
 20
861.6925600244824
 97
0
 92
3
 72
0
 73
1
 93
7
 10
9317.474361478948
 20
322.8175156779498
 10
9531.0
 20
498.0
 10
9527.474361478948
 20
521.0716394261786
 10
9737.47436147895
 20
688.7032183735473
 10
9737.47436147895
 20
408.70047795159434
 10
9618.476961910823
 20
311.0716394261786
 10
9317.474361478948
 20
311.0716394261786
 97
0
 92
3
 72
0
 73
1
 93
4
 10
9527.474361478948
 20
521.0716394261786
 10
9531.0
 20
498.0
 10
9728.704946926084
 20
528.2118182331842
 10
9725.17930840503
 20
551.2834576593629
 97
0
 92
3
 72
0
 73
1
 93
7
 10
9321.0
 20
325.71004942339334
 10
9531.0
 20
498.0
 10
9527.474361478948
 20
521.0716394261786
 10
9741.000000000002
 20
691.5175438596508
 10
9741.000000000002
 20
411.59301169703787
 10
9590.355505823089
 20
288.0
 10
9321.0
 20
288.0
 97
0
 92
3
 72
0
 73
1
 93
4
 10
9531.0
 20
498.0
 10
8924.0
 20
0.0
 10
9050.855515126294
 20
-154.62107968204927
 10
9657.855515126295
 20
343.3789203179507
 97
0
 92
3
 72
0
 73
1
 93
6
 10
9134.0
 20
-86.40698830296292
 10
8995.54426084317
 20
-200.0
 10
8713.999999999998
 20
-200.0
 10
8713.999999999998
 20
0.0
 10
8924.0
 20
0.0
 10
9134.0
 20
172.28995057660666
 97
0
 92
3
 72
0
 73
1
 93
4
 10
8924.0
 20
0.0
 10
3241.0
 20
0.0
 10
3241.0
 20
-200.0
 10
8924.0
 20
-200.0
 97
0
 92
3
 72
0
 73
1
 93
7
 10
3067.59807073955
 20
210.00000000000003
 10
3241.0
 20
0.0
 10
3451.0
 20
0.0
 10
3451.0
 20
-200.0
 10
3146.774746134474
 20
-200.0
 10
3031.0
 20
-59.7899297203219
 10
3031.0
 20
210.00000000000003
 97
0
 92
3
 72
0
 73
1
 93
4
 10
3241.0
 20
0.0
 10
1957.0
 20
1555.0
 10
1802.7801289360564
 20
1427.6570325105442
 10
3086.7801289360564
 20
-127.34296748945576
 97
0
 92
3
 72
0
 73
1
 93
3
 10
1858.5625000000002
 20
1345.0
 10
1957.0
 20
1555.0
 10
2130.4019292604503
 20
1345.0
 97
0
 92
3
 72
0
 73
1
 93
4
 10
1957.0
 20
1555.0
 10
1732.0
 20
1075.0
 10
1913.0917871917736
 20
990.113224753856
 10
2138.0917871917736
 20
1470.113224753856
 97
0
 92
3
 72
0
 73
1
 93
8
 10
1522.0
 20
904.1138679392159
 10
1522.0
 20
1106.3269731136168
 10
1732.0
 20
1075.0
 10
1830.4375
 20
1285.0
 10
1942.0
 20
1285.0
 10
1942.0
 20
1051.7840787447387
 10
1854.4449630884037
 20
865.0
 10
1784.1993589181156
 20
865.0
 97
0
 92
3
 72
0
 73
1
 93
4
 10
1732.0
 20
1075.0
 10
579.0
 20
1247.0
 10
549.4913166103382
 20
1049.1888840216288
 10
1702.4913166103383
 20
877.1888840216285
 97
0
 92
3
 72
0
 73
1
 93
8
 10
557.2603254067584
 20
1457.0
 10
579.0
 20
1247.0
 10
788.9999999999999
 20
1215.6730268863832
 10
788.9999999999999
 20
1037.0000000000002
 10
631.1993589181169
 20
1037.0000000000002
 10
396.03925716451874
 20
1072.0802580239542
 10
368.99999999999994
 20
1333.2729442435636
 10
368.99999999999994
 20
1457.0
 97
0
 92
3
 72
0
 73
1
 93
4
 10
579.0
 20
1247.0
 10
0.0
 20
6840.0
 10
-198.93685178484313
 20
6819.405607512351
 10
380.06314821515684
 20
1226.4056075123506
 97
0
 92
3
 72
0
 73
1
 93
8
 10
210.00000000000003
 20
6856.822183098591
 10
0.0
 20
6840.0
 10
21.739674593241546
 20
6630.0
 10
-179.32915524458733
 20
6630.0
 10
-210.00000000000003
 20
6926.272944243563
 10
-210.00000000000003
 20
7023.818482028591
 10
116.8374111595709
 20
7050.0
 10
210.00000000000003
 20
7050.0
 97
0
 92
3
 72
0
 73
1
 93
4
 10
0.0
 20
6840.0
 10
1136.0
 20
6931.0
 10
1120.030030252932
 20
7130.361380578782
 10
-15.969969747067918
 20
7039.361380578782
 97
0
 92
3
 72
0
 73
1
 93
4
 10
1094.7578070784177
 20
7141.0
 10
1136.0
 20
6931.0
 10
925.9999999999999
 20
6914.177816901409
 10
925.9999999999999
 20
7141.0
 97
0
 92
3
 72
0
 73
1
 93
4
 10
1136.0
 20
6931.0
 10
853.0
 20
8372.0
 10
656.7488561317356
 20
8333.457964111924
 10
939.7488561317356
 20
6892.457964111923
 97
0
 92
3
 72
0
 73
1
 93
8
 10
1063.0
 20
8394.482397544683
 10
853.0
 20
8372.0
 10
894.2421929215824
 20
8161.999999999999
 10
690.4217248643342
 20
8161.999999999999
 10
643.0
 20
8403.465390563622
 10
643.0
 20
8550.660500632073
 10
935.7310067435882
 20
8582.0
 10
1063.0
 20
8582.0
 97
0
 92
3
 72
0
 73
1
 93
4
 10
853.0
 20
8372.0
 10
6392.0
 20
8965.0
 10
6370.709855153229
 20
9163.863595794714
 10
831.7098551532288
 20
8570.863595794714
 97
0
 92
3
 72
0
 73
1
 93
4
 10
6359.198641765704
 20
9175.0
 10
6392.0
 20
8965.0
 10
6182.0
 20
8942.517602455317
 10
6182.0
 20
9175.0
 97
0
 92
3
 72
0
 73
1
 93
4
 10
6392.0
 20
8965.0
 10
5840.0
 20
12499.0
 10
5642.395994417228
 20
12468.13485821118
 10
6194.395994417228
 20
8934.13485821118
 97
0
 92
3
 72
0
 73
1
 93
8
 10
6050.0
 20
12524.490729295429
 10
5840.0
 20
12499.0
 10
5872.801358234296
 20
12289.0
 10
5670.3763118288225
 20
12289.0
 10
5630.0
 20
12547.496170295395
 10
5630.0
 20
12674.977300792238
 10
5910.288835632195
 20
12709.000000000002
 10
6050.0
 20
12709.000000000002
 97
0
 92
3
 72
0
 73
1
 93
4
 10
5840.0
 20
12499.0
 10
9885.0
 20
12990.0
 10
9860.900012490618
 20
13188.542666956117
 10
5815.900012490618
 20
12697.542666956117
 97
0
 92
3
 72
0
 73
1
 93
8
 10
9915.163545863948
 20
12780.0
 10
9885.0
 20
12990.0
 10
9674.999999999998
 20
12964.509270704573
 10
9674.999999999998
 20
13165.977300792238
 10
9955.28883563219
 20
13200.000000000002
 10
10056.889049383766
 20
13200.000000000002
 10
10095.0
 20
12934.669800907774
 10
10095.0
 20
12780.0
 97
0
 92
3
 72
0
 73
1
 93
4
 10
9885.0
 20
12990.0
 10
10491.0
 20
8771.0
 10
10688.968256487675
 20
8799.435355162725
 10
10082.968256487675
 20
13018.435355162725
 97
0
 92
3
 72
0
 73
1
 93
12
 10
10500.33895997822
 20
8561.0
 10
10473.0
 20
8753.0
 10
10280.999999999998
 20
8725.328358208955
 10
10280.999999999998
 20
8741.192926045016
 10
10491.0
 20
8771.0
 10
10460.83645413605
 20
8981.000000000002
 10
10662.889049383766
 20
8981.000000000002
 10
10701.0
 20
8715.669800907763
 10
10701.0
 20
8598.802467784564
 10
10697.05334444655
 20
8598.242285622866
 10
10701.0
 20
8570.525142510405
 10
10701.0
 20
8561.0
 97
0
 92
3
 72
0
 73
1
 93
4
 10
10491.0
 20
8771.0
 10
8314.0
 20
8462.0
 10
8342.105982352688
 20
8263.984713327505
 10
10519.105982352688
 20
8572.984713327505
 97
0
 92
3
 72
0
 73
1
 93
6
 10
8524.0
 20
8472.104011194031
 10
8329.0
 20
8444.0
 10
8356.211774325431
 20
8251.999999999998
 10
8346.090657960824
 20
8251.999999999998
 10
8314.0
 20
8462.0
 10
8524.0
 20
8491.807073954984
 97
0
 92
3
 72
0
 73
1
 93
4
 10
8314.0
 20
8462.0
 10
8485.619871377283
 20
7338.926330609138
 10
8683.324818303365
 20
7369.138148842318
 10
8511.704946926082
 20
8492.21181823318
 97
0
 92
3
 72
0
 73
1
 93
3
 10
8455.856993208843
 20
7548.926330609138
 10
8485.619871377283
 20
7338.926330609138
 10
8453.52921341646
 20
7548.926330609138
 97
0
 92
3
 72
0
 73
1
 93
4
 10
8485.619871377283
 20
7338.926330609138
 10
8329.0
 20
8444.0
 10
8130.978919110447
 20
8415.934869974772
 10
8287.59879048773
 20
7310.861200583909
 97
0
 92
3
 72
0
 73
1
 93
6
 10
8539.000000000002
 20
8474.265858208955
 10
8329.0
 20
8444.0
 10
8358.76287816844
 20
8234.0
 10
8348.841285786037
 20
8234.0
 10
8314.0
 20
8462.0
 10
8539.000000000002
 20
8493.936150666053
 97
0
 92
3
 72
0
 73
1
 93
4
 10
8329.0
 20
8444.0
 10
10473.0
 20
8753.0
 10
10444.47015377885
 20
8950.954661159058
 10
8300.47015377885
 20
8641.954661159058
 97
0
 92
3
 72
0
 73
1
 93
9
 10
10502.901987476178
 20
8543.0
 10
10473.0
 20
8753.0
 10
10263.0
 20
8722.734141791045
 10
10263.0
 20
8738.638033991732
 10
10491.0
 20
8771.0
 10
10463.42190092439
 20
8963.000000000002
 10
10665.474496172104
 20
8963.000000000002
 10
10683.000000000002
 20
8840.986632590924
 10
10683.000000000002
 20
8543.0
 97
0
 92
3
 72
0
 73
1
 93
4
 10
10473.0
 20
8753.0
 10
10996.0
 20
5080.0
 10
11194.002815856207
 20
5108.193703428477
 10
10671.002815856207
 20
8781.193703428477
 97
0
 92
3
 72
0
 73
1
 93
9
 10
11024.720881971467
 20
4870.0
 10
11012.0
 20
4959.0
 10
10786.0
 20
4926.849813432836
 10
10786.0
 20
5050.167675826735
 10
10996.0
 20
5080.0
 10
10966.098012523822
 20
5290.0
 10
11168.115341555387
 20
5290.0
 10
11206.000000000002
 20
5023.9381444224355
 10
11206.000000000002
 20
4870.0
 97
0
 92
3
 72
0
 73
1
 93
4
 10
10996.0
 20
5080.0
 10
8876.816417249951
 20
4778.951563698759
 10
8904.945738004097
 20
4580.939591045814
 10
11024.129320754146
 20
4881.988027347056
 97
0
 92
3
 72
0
 73
1
 93
4
 10
9086.816417249953
 20
4685.128268312143
 10
8895.31676560147
 20
4657.886013763268
 10
8876.816417249951
 20
4778.951563698759
 10
9086.816417249953
 20
4808.783887872024
 97
0
 92
3
 72
0
 73
1
 93
4
 10
8876.816417249951
 20
4778.951563698759
 10
8895.31676560147
 20
4657.886013763268
 10
9093.021712527552
 20
4688.097831996447
 10
9074.521364176037
 20
4809.163381931938
 97
0
 92
3
 72
0
 73
1
 93
4
 10
9105.31676560147
 20
4687.760080927448
 10
8895.31676560147
 20
4657.886013763268
 10
8876.816417249951
 20
4778.951563698759
 10
9105.31676560147
 20
4811.412023059362
 97
0
 92
3
 72
0
 73
1
 93
4
 10
8895.31676560147
 20
4657.886013763268
 10
11012.0
 20
4959.0
 10
10983.83209939104
 20
5157.006488215118
 10
8867.14886499251
 20
4855.8925019783865
 97
0
 92
3
 72
0
 73
1
 93
12
 10
11042.015564202336
 20
4749.0
 10
11012.0
 20
4959.0
 10
10802.0
 20
4929.12593283582
 10
10802.0
 20
5052.440614811364
 10
10996.0
 20
5080.0
 10
10983.327252926763
 20
5169.0
 10
11185.344581958327
 20
5169.0
 10
11222.000000000002
 20
4911.571031611727
 10
11222.000000000002
 20
4910.097276145374
 10
11221.041789687317
 20
4909.961154046925
 10
11222.000000000002
 20
4903.257159935488
 10
11222.000000000002
 20
4749.0
 97
0
 75
1
 76
1
 52
0.0
 41
40.0
 77
0
 78
1
 53
45.0
 43
0.0
 44
0.0
 45
-89.802561212
 46
89.802561212
 79
0
 98
0
  0
LWPOLYLINE
  5
1D4
330
17
100
AcDbEntity
  8
A-DUVAR-MEVCUT
100
AcDbPolyline
 90
20
 70
1
 10
11221.041789687317
 20
4909.961154046925
 10
11791.94357246707
 20
915.7209133646261
 10
10278.391571086133
 20
836.4200858306655
 10
10275.474858017116
 20
862.2538301562389
 10
9742.65370688754
 20
436.93168320192984
 10
9745.910178518421
 20
415.6214612887566
 10
8995.54426084317
 20
-200.0
 10
3146.774746134474
 20
-200.0
 10
2003.9752161359186
 20
1183.997873168032
 10
1849.8539797375236
 20
855.2059021847891
 10
396.03925716451874
 20
1072.0802580239542
 10
-220.01508228569227
 20
7023.016217514508
 10
896.5425895206677
 20
7112.458777491954
 10
614.6874321583966
 20
8547.629384414333
 10
6162.003123047353
 20
9141.519654263971
 10
5610.458344374851
 20
12672.605248156402
 10
10055.147988562738
 20
13212.121345881063
 10
10717.450955181876
 20
8601.137490821404
 10
10697.05334444655
 20
8598.242285622866
 10
11222.20568803915
 20
4910.126495918052
  0
LWPOLYLINE
  5
1D5
330
17
100
AcDbEntity
  8
A-DUVAR-MEVCUT
100
AcDbPolyline
 90
27
 70
1
 10
11012.0
 20
4959.0
 10
11563.0
 20
1104.0
 10
10456.0
 20
1046.0
 10
10400.0
 20
1542.0
 10
10116.0
 20
1532.0
 10
10150.0
 20
1018.0
 10
9527.474361478948
 20
521.0716394261786
 10
9531.0
 20
498.0
 10
8924.0
 20
0.0
 10
3241.0
 20
0.0
 10
1957.0
 20
1555.0
 10
1732.0
 20
1075.0
 10
579.0
 20
1247.0
 10
0.0
 20
6840.0
 10
1136.0
 20
6931.0
 10
853.0
 20
8372.0
 10
6392.0
 20
8965.0
 10
5840.0
 20
12499.0
 10
9885.0
 20
12990.0
 10
10491.0
 20
8771.0
 10
8314.0
 20
8462.0
 10
8485.619871377283
 20
7338.926330609138
 10
8329.0
 20
8444.0
 10
10473.0
 20
8753.0
 10
10996.0
 20
5080.0
 10
8876.816417249951
 20
4778.951563698759
 10
8895.31676560147
 20
4657.886013763268
  0
LWPOLYLINE
  5
1D6
330
17
100
AcDbEntity
  8
A-DUVAR-YENI
100
AcDbPolyline
 90
4
 70
1
 10
9403.2945233589
 20
8580.48245868865
 10
9631.663521129563
 20
6976.659650253371
 10
8558.618017955989
 20
6823.868254075919
 10
8331.290416828891
 20
8427.839347413073
  0
LWPOLYLINE
  5
1D7
330
17
100
AcDbEntity
  8
A-DUVAR-YENI
100
AcDbPolyline
 90
4
 70
1
 10
10475.81937034285
 20
8733.19971841438
 10
10704.188368113513
 20
7129.376909979101
 10
9632.653535208845
 20
6976.800618770513
 10
9404.284537438181
 20
8580.623427205792
  0
LWPOLYLINE
  5
1D8
330
17
100
AcDbEntity
  8
A-DUVAR-YENI
100
AcDbPolyline
 90
6
 70
1
 10
11377.47369286883
 20
2402.010733195394
 10
11563.0
 20
1104.0
 10
10456.0
 20
1046.0
 10
10400.0
 20
1542.0
 10
10381.784184140935
 20
1541.3585980331316
 10
10281.133393026086
 20
2245.2408863981773
  0
LWPOLYLINE
  5
1D9
330
17
100
AcDbEntity
  8
A-DUVAR-YENI
100
AcDbPolyline
 90
7
 70
1
 10
10280.14346247828
 20
2245.099332484359
 10
10380.77907299047
 20
1541.323206795439
 10
10116.0
 20
1532.0
 10
10150.0
 20
1018.0
 10
9496.833088269086
 20
496.61237747795593
 10
9463.168921723629
 20
491.7986109561521
 10
9233.851581337667
 20
2095.4860984044726
  0
LWPOLYLINE
  5
1DA
330
17
100
AcDbEntity
  8
A-DUVAR-YENI
100
AcDbPolyline
 90
4
 70
1
 10
10473.0
 20
8753.0
 10
8329.0
 20
8444.0
 10
8849.0
 20
4775.0
 10
10996.0
 20
5080.0
  0
LWPOLYLINE
  5
1DB
330
17
100
AcDbEntity
  8
A-DUVAR-YENI
100
AcDbPolyline
 90
8
 70
1
 10
11012.0
 20
4959.0
 10
8868.0
 20
4654.0
 10
9466.0
 20
472.0
 10
10150.0
 20
1018.0
 10
10116.0
 20
1532.0
 10
10400.0
 20
1542.0
 10
10456.0
 20
1046.0
 10
11563.0
 20
1104.0
  0
LWPOLYLINE
  5
1DC
330
17
100
AcDbEntity
  8
A-CEPHE
100
AcDbPolyline
 90
4
 70
1
 10
-44.75971561960937
 20
6835.355879238037
 10
44.75971561960937
 20
6844.644120761963
 10
624.7597156196093
 20
1254.644120761963
 10
535.2402843803906
 20
1245.355879238037
  0
LWPOLYLINE
  5
1DD
330
17
100
AcDbEntity
  8
A-CEPHE
100
AcDbPolyline
 90
4
 70
1
 10
3274.788301671717
 20
28.544247525511032
 10
3205.2116983282835
 20
-28.544247525511032
 10
1925.2116983282833
 20
1531.455752474489
 10
1994.7883016717165
 20
1588.544247525511
  0
LINE
  5
1DE
330
17
100
AcDbEntity
  8
A-KAPI
100
AcDbLine
 10
239.99999999999994
 20
3500.0
 30
0.0
 11
240.00000000000006
 21
5100.0
 31
0.0
  0
ARC
  5
1DF
330
17
100
AcDbEntity
  8
A-KAPI
100
AcDbCircle
 10
239.99999999999994
 20
3500.0
 30
0.0
 40
1600.0
100
AcDbArc
 50
0.0
 51
88.0
  0
LINE
  5
1E0
330
17
100
AcDbEntity
  8
A-KAPI
100
AcDbLine
 10
8787.37210456797
 20
6654.379369066292
 30
0.0
 11
8912.62789543203
 21
7545.620630933707
 31
0.0
  0
ARC
  5
1E1
330
17
100
AcDbEntity
  8
A-KAPI
100
AcDbCircle
 10
8787.37210456797
 20
6654.379369066292
 30
0.0
 40
900.0
100
AcDbArc
 50
-8.0
 51
80.0
  0
LINE
  5
1E2
330
17
100
AcDbEntity
  8
A-KAPI
100
AcDbLine
 10
9037.37210456797
 20
2954.3793690662933
 30
0.0
 11
9162.62789543203
 21
3845.6206309337063
 31
0.0
  0
ARC
  5
1E3
330
17
100
AcDbEntity
  8
A-KAPI
100
AcDbCircle
 10
9037.37210456797
 20
2954.3793690662933
 30
0.0
 40
900.0
100
AcDbArc
 50
-8.0
 51
80.0
  0
LINE
  5
1E4
330
17
100
AcDbEntity
  8
A-KAPI
100
AcDbLine
 10
2850.0
 20
100.0
 30
0.0
 11
3850.0
 21
100.0
 31
0.0
  0
ARC
  5
1E5
330
17
100
AcDbEntity
  8
A-KAPI
100
AcDbCircle
 10
2850.0
 20
100.0
 30
0.0
 40
1000.0
100
AcDbArc
 50
-90.0
 51
-2.0
  0
TEXT
  5
1E6
330
17
100
AcDbEntity
  8
A-YAZI
100
AcDbText
 10
8050.000000000001
 20
11100.0
 30
0.0
 40
260.0
  1
DİNLENME SALONU
  7
GYM-B
 72
1
 11
8050.000000000001
 21
11100.0
 31
0.0
100
AcDbText
 73
2
  0
TEXT
  5
1E7
330
17
100
AcDbEntity
  8
A-YAZI
100
AcDbText
 10
8050.000000000001
 20
10800.0
 30
0.0
 40
195.0
  1
17,33 m²
  7
GYM
 72
1
 11
8050.000000000001
 21
10800.0
 31
0.0
100
AcDbText
 73
2
  0
TEXT
  5
1E8
330
17
100
AcDbEntity
  8
A-YAZI
100
AcDbText
 10
1550.0
 20
2350.0
 30
0.0
 40
260.0
  1
GİRİŞ
  7
GYM-B
 72
1
 11
1550.0
 21
2350.0
 31
0.0
100
AcDbText
 73
2
  0
TEXT
  5
1E9
330
17
100
AcDbEntity
  8
A-YAZI
100
AcDbText
 10
1550.0
 20
2050.0
 30
0.0
 40
195.0
  1
15,65 m²
  7
GYM
 72
1
 11
1550.0
 21
2050.0
 31
0.0
100
AcDbText
 73
2
  0
TEXT
  5
1EA
330
17
100
AcDbEntity
  8
A-YAZI
100
AcDbText
 10
5300.0
 20
1620.0
 30
0.0
 40
260.0
  1
ARENA
  7
GYM-B
 72
1
 11
5300.0
 21
1620.0
 31
0.0
100
AcDbText
 73
2
  0
TEXT
  5
1EB
330
17
100
AcDbEntity
  8
A-YAZI
100
AcDbText
 10
5300.0
 20
1320.0
 30
0.0
 40
195.0
  1
31,76 m²
  7
GYM
 72
1
 11
5300.0
 21
1320.0
 31
0.0
100
AcDbText
 73
2
  0
TEXT
  5
1EC
330
17
100
AcDbEntity
  8
A-YAZI
100
AcDbText
 10
6400.0
 20
7450.0
 30
0.0
 40
260.0
  1
FONKSİYONEL
  7
GYM-B
 72
1
 11
6400.0
 21
7450.0
 31
0.0
100
AcDbText
 73
2
  0
TEXT
  5
1ED
330
17
100
AcDbEntity
  8
A-YAZI
100
AcDbText
 10
6400.0
 20
7150.0
 30
0.0
 40
195.0
  1
22,31 m²
  7
GYM
 72
1
 11
6400.0
 21
7150.0
 31
0.0
100
AcDbText
 73
2
  0
TEXT
  5
1EE
330
17
100
AcDbEntity
  8
A-YAZI
100
AcDbText
 10
9777.090537939453
 20
5951.439090029158
 30
0.0
 40
190.0
  1
ERKEK
  7
GYM-B
 72
1
 11
9777.090537939453
 21
5951.439090029158
 31
0.0
100
AcDbText
 73
2
  0
TEXT
  5
1EF
330
17
100
AcDbEntity
  8
A-YAZI
100
AcDbText
 10
9777.090537939453
 20
5721.439090029158
 30
0.0
 40
145.0
  1
4,48 m²
  7
GYM
 72
1
 11
9777.090537939453
 21
5721.439090029158
 31
0.0
100
AcDbText
 73
2
  0
TEXT
  5
1F0
330
17
100
AcDbEntity
  8
A-YAZI
100
AcDbText
 10
8981.236644451756
 20
7702.249498833222
 30
0.0
 40
190.0
  1
DUŞ
  7
GYM-B
 72
1
 11
8981.236644451756
 21
7702.249498833222
 31
0.0
100
AcDbText
 73
2
  0
TEXT
  5
1F1
330
17
100
AcDbEntity
  8
A-YAZI
100
AcDbText
 10
8981.236644451756
 20
7472.249498833222
 30
0.0
 40
145.0
  1
1,76 m²
  7
GYM
 72
1
 11
8981.236644451756
 21
7472.249498833222
 31
0.0
100
AcDbText
 73
2
  0
TEXT
  5
1F2
330
17
100
AcDbEntity
  8
A-YAZI
100
AcDbText
 10
10054.236452775847
 20
7855.000168592446
 30
0.0
 40
190.0
  1
WC
  7
GYM-B
 72
1
 11
10054.236452775847
 21
7855.000168592446
 31
0.0
100
AcDbText
 73
2
  0
TEXT
  5
1F3
330
17
100
AcDbEntity
  8
A-YAZI
100
AcDbText
 10
10054.236452775847
 20
7625.000168592446
 30
0.0
 40
145.0
  1
1,75 m²
  7
GYM
 72
1
 11
10054.236452775847
 21
7625.000168592446
 31
0.0
100
AcDbText
 73
2
  0
TEXT
  5
1F4
330
17
100
AcDbEntity
  8
A-YAZI
100
AcDbText
 10
10122.70128582356
 20
3528.5003347183065
 30
0.0
 40
190.0
  1
KADIN
  7
GYM-B
 72
1
 11
10122.70128582356
 21
3528.5003347183065
 31
0.0
100
AcDbText
 73
2
  0
TEXT
  5
1F5
330
17
100
AcDbEntity
  8
A-YAZI
100
AcDbText
 10
10122.70128582356
 20
3298.5003347183065
 30
0.0
 40
145.0
  1
5,59 m²
  7
GYM
 72
1
 11
10122.70128582356
 21
3298.5003347183065
 31
0.0
100
AcDbText
 73
2
  0
TEXT
  5
1F6
330
17
100
AcDbEntity
  8
A-YAZI
100
AcDbText
 10
10890.775743481887
 20
1893.6204431990889
 30
0.0
 40
190.0
  1
DUŞ
  7
GYM-B
 72
1
 11
10890.775743481887
 21
1893.6204431990889
 31
0.0
100
AcDbText
 73
2
  0
TEXT
  5
1F7
330
17
100
AcDbEntity
  8
A-YAZI
100
AcDbText
 10
10890.775743481887
 20
1663.6204431990889
 30
0.0
 40
145.0
  1
1,39 m²
  7
GYM
 72
1
 11
10890.775743481887
 21
1663.6204431990889
 31
0.0
100
AcDbText
 73
2
  0
TEXT
  5
1F8
330
17
100
AcDbEntity
  8
A-YAZI
100
AcDbText
 10
9742.08799617408
 20
1275.0
 30
0.0
 40
190.0
  1
WC
  7
GYM-B
 72
1
 11
9742.08799617408
 21
1275.0
 31
0.0
100
AcDbText
 73
2
  0
TEXT
  5
1F9
330
17
100
AcDbEntity
  8
A-YAZI
100
AcDbText
 10
9742.08799617408
 20
1045.0
 30
0.0
 40
145.0
  1
1,29 m²
  7
GYM
 72
1
 11
9742.08799617408
 21
1045.0
 31
0.0
100
AcDbText
 73
2
  0
LWPOLYLINE
  5
1FA
330
17
100
AcDbEntity
  8
A-EKIPMAN
100
AcDbPolyline
 90
6
 70
1
 10
5300.0
 20
6369.8866062908955
 10
3550.7268861881466
 20
5359.943303145447
 10
3550.726886188147
 20
3340.056696854551
 10
5300.0
 20
2330.113393709103
 10
7049.273113811852
 20
3340.056696854551
 10
7049.273113811852
 20
5359.943303145447
  0
TEXT
  5
1FB
330
17
100
AcDbEntity
  8
A-EKIPMAN
100
AcDbText
 10
5300.0
 20
6249.8866062908955
 30
0.0
 40
150.0
  1
A
  7
GYM-B
 72
1
 11
5300.0
 21
6249.8866062908955
 31
0.0
100
AcDbText
 73
2
  0
LWPOLYLINE
  5
1FC
330
17
100
AcDbEntity
  8
A-EKIPMAN
100
AcDbPolyline
 90
4
 70
1
 10
8301.894904209083
 20
7552.853396183233
 10
7689.028694387702
 20
7459.071687629958
 10
8058.105095790916
 20
5047.146603816769
 10
8670.971305612298
 20
5140.928312370045
  0
TEXT
  5
1FD
330
17
100
AcDbEntity
  8
A-EKIPMAN
100
AcDbText
 10
8180.0
 20
7432.853396183233
 30
0.0
 40
150.0
  1
B
  7
GYM-B
 72
1
 11
8180.0
 21
7432.853396183233
 31
0.0
100
AcDbText
 73
2
  0
LWPOLYLINE
  5
1FE
330
17
100
AcDbEntity
  8
A-EKIPMAN
100
AcDbPolyline
 90
4
 70
1
 10
4960.450952775313
 20
8673.312023866585
 10
2653.5869223862783
 20
8426.779378366522
 10
2839.549047224686
 20
6686.687976133415
 10
5146.413077613722
 20
6933.220621633476
  0
TEXT
  5
1FF
330
17
100
AcDbEntity
  8
A-EKIPMAN
100
AcDbText
 10
3900.0
 20
8553.312023866585
 30
0.0
 40
150.0
  1
C
  7
GYM-B
 72
1
 11
3900.0
 21
8553.312023866585
 31
0.0
100
AcDbText
 73
2
  0
LWPOLYLINE
  5
200
330
17
100
AcDbEntity
  8
A-EKIPMAN
100
AcDbPolyline
 90
4
 70
1
 10
6991.3334006138
 20
8468.458756179605
 10
6949.890412792668
 20
8856.250554391556
 10
5408.666599386201
 20
8691.541243820395
 10
5450.109587207332
 20
8303.749445608444
  0
TEXT
  5
201
330
17
100
AcDbEntity
  8
A-EKIPMAN
100
AcDbText
 10
6200.0
 20
8736.250554391556
 30
0.0
 40
150.0
  1
D1
  7
GYM-B
 72
1
 11
6200.0
 21
8736.250554391556
 31
0.0
100
AcDbText
 73
2
  0
LWPOLYLINE
  5
202
330
17
100
AcDbEntity
  8
A-EKIPMAN
100
AcDbPolyline
 90
4
 70
1
 10
8815.529172236098
 20
5045.578622224938
 10
8430.016556380711
 20
4986.586902328521
 10
8664.470827763902
 20
3454.421377775062
 10
9049.98344361929
 20
3513.413097671477
  0
TEXT
  5
203
330
17
100
AcDbEntity
  8
A-EKIPMAN
100
AcDbText
 10
8740.0
 20
4925.578622224938
 30
0.0
 40
150.0
  1
D2
  7
GYM-B
 72
1
 11
8740.0
 21
4925.578622224938
 31
0.0
100
AcDbText
 73
2
  0
LWPOLYLINE
  5
204
330
17
100
AcDbEntity
  8
A-EKIPMAN
100
AcDbPolyline
 90
4
 70
1
 10
9188.613047645062
 20
1272.1591293973195
 10
8961.721817274232
 20
2754.899959610345
 10
8131.386952354939
 20
2627.8408706026808
 10
8358.278182725768
 20
1145.100040389655
  0
TEXT
  5
205
330
17
100
AcDbEntity
  8
A-EKIPMAN
100
AcDbText
 10
8660.0
 20
2634.899959610345
 30
0.0
 40
150.0
  1
E
  7
GYM-B
 72
1
 11
8660.0
 21
2634.899959610345
 31
0.0
100
AcDbText
 73
2
  0
LWPOLYLINE
  5
206
330
17
100
AcDbEntity
  8
A-EKIPMAN
100
AcDbPolyline
 90
4
 70
1
 10
5925.000000000001
 20
90.00000000000003
 10
5925.000000000001
 20
830.0000000000001
 10
3475.0
 20
830.0000000000001
 10
3475.0
 20
90.00000000000003
  0
TEXT
  5
207
330
17
100
AcDbEntity
  8
A-EKIPMAN
100
AcDbText
 10
4700.0
 20
710.0000000000001
 30
0.0
 40
150.0
  1
F1
  7
GYM-B
 72
1
 11
4700.0
 21
710.0000000000001
 31
0.0
100
AcDbText
 73
2
  0
LWPOLYLINE
  5
208
330
17
100
AcDbEntity
  8
A-EKIPMAN
100
AcDbPolyline
 90
4
 70
1
 10
8525.0
 20
109.99999999999999
 10
8525.0
 20
850.0
 10
6074.999999999999
 20
850.0
 10
6074.999999999999
 20
109.99999999999999
  0
TEXT
  5
209
330
17
100
AcDbEntity
  8
A-EKIPMAN
100
AcDbText
 10
7300.0
 20
730.0
 30
0.0
 40
150.0
  1
F2
  7
GYM-B
 72
1
 11
7300.0
 21
730.0
 31
0.0
100
AcDbText
 73
2
  0
LWPOLYLINE
  5
20A
330
17
100
AcDbEntity
  8
A-MOBILYA
100
AcDbPolyline
 90
4
 70
1
 10
1977.7854600735045
 20
7277.398025003915
 10
1331.3462280841266
 20
7209.454523879941
 10
1582.2145399264941
 20
4822.601974996084
 10
2228.653771915873
 20
4890.545476120059
  0
LWPOLYLINE
  5
20B
330
17
100
AcDbEntity
  8
A-MOBILYA
100
AcDbPolyline
 90
4
 70
1
 10
8998.134742635326
 20
5391.342922434176
 10
9047.361053955077
 20
5044.821970291523
 10
10730.462821505105
 20
5283.921196701751
 10
10681.236510185354
 20
5630.442148844404
  0
LWPOLYLINE
  5
20C
330
17
100
AcDbEntity
  8
A-MOBILYA
100
AcDbPolyline
 90
4
 70
1
 10
9058.451384514703
 20
6566.507550353343
 10
9103.458297721334
 20
6249.688394108631
 10
10341.033126802238
 20
6425.496648822033
 10
10296.026213595607
 20
6742.315805066745
  0
LWPOLYLINE
  5
20D
330
17
100
AcDbEntity
  8
A-MOBILYA
100
AcDbPolyline
 90
4
 70
1
 10
9561.810316158433
 20
4306.568802701193
 10
9215.334624425772
 20
4257.02493286472
 10
9455.976277917214
 20
2574.143001591791
 10
9802.451969649876
 20
2623.686871428264
  0
LWPOLYLINE
  5
20E
330
17
100
AcDbEntity
  8
A-MOBILYA
100
AcDbPolyline
 90
4
 70
1
 10
10737.02972948538
 20
4247.329199904846
 10
10420.251954186946
 20
4202.031947482927
 10
10597.194346460066
 20
2964.6187627234194
 10
10913.9721217585
 20
3009.916015145339
  0
INSERT
  5
20F
330
17
100
AcDbEntity
  8
G-KUZEY
100
AcDbBlockReference
  2
G_KUZEY
 10
12550.0
 20
12100.0
 30
0.0
  0
LINE
  5
211
330
17
100
AcDbEntity
  8
G-AKS-HAT
100
AcDbLine
 10
1445.4493803095138
 20
-4181.507221263104
 30
0.0
 11
-1199.7539656843408
 21
14640.092576370971
 31
0.0
  0
CIRCLE
  5
212
330
17
100
AcDbEntity
  8
G-AKS-BALON
100
AcDbCircle
 10
1503.9020827127415
 20
-4597.419810134564
 30
0.0
 40
420.0
  0
TEXT
  5
213
330
17
100
AcDbEntity
  8
G-AKS-BALON
100
AcDbText
 10
1503.9020827127415
 20
-4597.419810134564
 30
0.0
 40
399.0
  1
1
  7
GYM-B
 72
1
 11
1503.9020827127415
 21
-4597.419810134564
 31
0.0
100
AcDbText
 73
2
  0
CIRCLE
  5
214
330
17
100
AcDbEntity
  8
G-AKS-BALON
100
AcDbCircle
 10
-1258.2066680875682
 20
15056.00516524243
 30
0.0
 40
420.0
  0
TEXT
  5
215
330
17
100
AcDbEntity
  8
G-AKS-BALON
100
AcDbText
 10
-1258.2066680875682
 20
15056.00516524243
 30
0.0
 40
399.0
  1
1
  7
GYM-B
 72
1
 11
-1258.2066680875682
 21
15056.00516524243
 31
0.0
100
AcDbText
 73
2
  0
LINE
  5
216
330
17
100
AcDbEntity
  8
G-AKS-HAT
100
AcDbLine
 10
8080.89524319282
 20
-3248.956121070954
 30
0.0
 11
5435.691897198966
 21
15572.64367656312
 31
0.0
  0
CIRCLE
  5
217
330
17
100
AcDbEntity
  8
G-AKS-BALON
100
AcDbCircle
 10
8139.347945596049
 20
-3664.8687099424137
 30
0.0
 40
420.0
  0
TEXT
  5
218
330
17
100
AcDbEntity
  8
G-AKS-BALON
100
AcDbText
 10
8139.347945596049
 20
-3664.8687099424137
 30
0.0
 40
399.0
  1
2
  7
GYM-B
 72
1
 11
8139.347945596049
 21
-3664.8687099424137
 31
0.0
100
AcDbText
 73
2
  0
CIRCLE
  5
219
330
17
100
AcDbEntity
  8
G-AKS-BALON
100
AcDbCircle
 10
5377.239194795739
 20
15988.55626543458
 30
0.0
 40
420.0
  0
TEXT
  5
21A
330
17
100
AcDbEntity
  8
G-AKS-BALON
100
AcDbText
 10
5377.239194795739
 20
15988.55626543458
 30
0.0
 40
399.0
  1
2
  7
GYM-B
 72
1
 11
5377.239194795739
 21
15988.55626543458
 31
0.0
100
AcDbText
 73
2
  0
LINE
  5
21B
330
17
100
AcDbEntity
  8
G-AKS-HAT
100
AcDbLine
 10
9933.2610962113
 20
-2988.6230779135294
 30
0.0
 11
7288.057750217445
 21
15832.976719720547
 31
0.0
  0
CIRCLE
  5
21C
330
17
100
AcDbEntity
  8
G-AKS-BALON
100
AcDbCircle
 10
9991.713798614528
 20
-3404.535666784989
 30
0.0
 40
420.0
  0
TEXT
  5
21D
330
17
100
AcDbEntity
  8
G-AKS-BALON
100
AcDbText
 10
9991.713798614528
 20
-3404.535666784989
 30
0.0
 40
399.0
  1
3
  7
GYM-B
 72
1
 11
9991.713798614528
 21
-3404.535666784989
 31
0.0
100
AcDbText
 73
2
  0
CIRCLE
  5
21E
330
17
100
AcDbEntity
  8
G-AKS-BALON
100
AcDbCircle
 10
7229.605047814218
 20
16248.889308592006
 30
0.0
 40
420.0
  0
TEXT
  5
21F
330
17
100
AcDbEntity
  8
G-AKS-BALON
100
AcDbText
 10
7229.605047814218
 20
16248.889308592006
 30
0.0
 40
399.0
  1
3
  7
GYM-B
 72
1
 11
7229.605047814218
 21
16248.889308592006
 31
0.0
100
AcDbText
 73
2
  0
LINE
  5
220
330
17
100
AcDbEntity
  8
G-AKS-HAT
100
AcDbLine
 10
12090.078939181847
 20
-2685.5020979614374
 30
0.0
 11
9444.875593187991
 21
16136.097699672639
 31
0.0
  0
CIRCLE
  5
221
330
17
100
AcDbEntity
  8
G-AKS-BALON
100
AcDbCircle
 10
12148.531641585076
 20
-3101.4146868328967
 30
0.0
 40
420.0
  0
TEXT
  5
222
330
17
100
AcDbEntity
  8
G-AKS-BALON
100
AcDbText
 10
12148.531641585076
 20
-3101.4146868328967
 30
0.0
 40
399.0
  1
4
  7
GYM-B
 72
1
 11
12148.531641585076
 21
-3101.4146868328967
 31
0.0
100
AcDbText
 73
2
  0
CIRCLE
  5
223
330
17
100
AcDbEntity
  8
G-AKS-BALON
100
AcDbCircle
 10
9386.422890784763
 20
16552.0102885441
 30
0.0
 40
420.0
  0
TEXT
  5
224
330
17
100
AcDbEntity
  8
G-AKS-BALON
100
AcDbText
 10
9386.422890784763
 20
16552.0102885441
 30
0.0
 40
399.0
  1
4
  7
GYM-B
 72
1
 11
9386.422890784763
 21
16552.0102885441
 31
0.0
100
AcDbText
 73
2
  0
LINE
  5
225
330
17
100
AcDbEntity
  8
G-AKS-HAT
100
AcDbLine
 10
-2220.978537539913
 20
-1104.5367470788183
 30
0.0
 11
14675.644186311685
 21
1270.12871418268
 31
0.0
  0
CIRCLE
  5
226
330
17
100
AcDbEntity
  8
G-AKS-BALON
100
AcDbCircle
 10
-2636.891126411372
 20
-1162.9894494820458
 30
0.0
 40
420.0
  0
TEXT
  5
227
330
17
100
AcDbEntity
  8
G-AKS-BALON
100
AcDbText
 10
-2636.891126411372
 20
-1162.9894494820458
 30
0.0
 40
399.0
  1
A
  7
GYM-B
 72
1
 11
-2636.891126411372
 21
-1162.9894494820458
 31
0.0
100
AcDbText
 73
2
  0
CIRCLE
  5
228
330
17
100
AcDbEntity
  8
G-AKS-BALON
100
AcDbCircle
 10
15091.556775183144
 20
1328.5814165859074
 30
0.0
 40
420.0
  0
TEXT
  5
229
330
17
100
AcDbEntity
  8
G-AKS-BALON
100
AcDbText
 10
15091.556775183144
 20
1328.5814165859074
 30
0.0
 40
399.0
  1
A
  7
GYM-B
 72
1
 11
15091.556775183144
 21
1328.5814165859074
 31
0.0
100
AcDbText
 73
2
  0
LINE
  5
22A
330
17
100
AcDbEntity
  8
G-AKS-HAT
100
AcDbLine
 10
-2808.597449340076
 20
3076.5890662444203
 30
0.0
 11
14088.025274511521
 21
5451.254527505918
 31
0.0
  0
CIRCLE
  5
22B
330
17
100
AcDbEntity
  8
G-AKS-BALON
100
AcDbCircle
 10
-3224.5100382115356
 20
3018.136363841193
 30
0.0
 40
420.0
  0
TEXT
  5
22C
330
17
100
AcDbEntity
  8
G-AKS-BALON
100
AcDbText
 10
-3224.5100382115356
 20
3018.136363841193
 30
0.0
 40
399.0
  1
B
  7
GYM-B
 72
1
 11
-3224.5100382115356
 21
3018.136363841193
 31
0.0
100
AcDbText
 73
2
  0
CIRCLE
  5
22D
330
17
100
AcDbEntity
  8
G-AKS-BALON
100
AcDbCircle
 10
14503.93786338298
 20
5509.707229909146
 30
0.0
 40
420.0
  0
TEXT
  5
22E
330
17
100
AcDbEntity
  8
G-AKS-BALON
100
AcDbText
 10
14503.93786338298
 20
5509.707229909146
 30
0.0
 40
399.0
  1
B
  7
GYM-B
 72
1
 11
14503.93786338298
 21
5509.707229909146
 31
0.0
100
AcDbText
 73
2
  0
LINE
  5
22F
330
17
100
AcDbEntity
  8
G-AKS-HAT
100
AcDbLine
 10
-3334.3653799888307
 20
6817.62228098317
 30
0.0
 11
13562.257343862766
 21
9192.287742244667
 31
0.0
  0
CIRCLE
  5
230
330
17
100
AcDbEntity
  8
G-AKS-BALON
100
AcDbCircle
 10
-3750.2779688602905
 20
6759.169578579943
 30
0.0
 40
420.0
  0
TEXT
  5
231
330
17
100
AcDbEntity
  8
G-AKS-BALON
100
AcDbText
 10
-3750.2779688602905
 20
6759.169578579943
 30
0.0
 40
399.0
  1
C
  7
GYM-B
 72
1
 11
-3750.2779688602905
 21
6759.169578579943
 31
0.0
100
AcDbText
 73
2
  0
CIRCLE
  5
232
330
17
100
AcDbEntity
  8
G-AKS-BALON
100
AcDbCircle
 10
13978.169932734225
 20
9250.740444647896
 30
0.0
 40
420.0
  0
TEXT
  5
233
330
17
100
AcDbEntity
  8
G-AKS-BALON
100
AcDbText
 10
13978.169932734225
 20
9250.740444647896
 30
0.0
 40
399.0
  1
C
  7
GYM-B
 72
1
 11
13978.169932734225
 21
9250.740444647896
 31
0.0
100
AcDbText
 73
2
  0
LINE
  5
234
330
17
100
AcDbEntity
  8
G-AKS-HAT
100
AcDbLine
 10
-3454.702316990934
 20
7673.864079012395
 30
0.0
 11
13441.920406860661
 21
10048.529540273894
 31
0.0
  0
CIRCLE
  5
235
330
17
100
AcDbEntity
  8
G-AKS-BALON
100
AcDbCircle
 10
-3870.6149058623937
 20
7615.411376609169
 30
0.0
 40
420.0
  0
TEXT
  5
236
330
17
100
AcDbEntity
  8
G-AKS-BALON
100
AcDbText
 10
-3870.6149058623937
 20
7615.411376609169
 30
0.0
 40
399.0
  1
D
  7
GYM-B
 72
1
 11
-3870.6149058623937
 21
7615.411376609169
 31
0.0
100
AcDbText
 73
2
  0
CIRCLE
  5
237
330
17
100
AcDbEntity
  8
G-AKS-BALON
100
AcDbCircle
 10
13857.83299573212
 20
10106.98224267712
 30
0.0
 40
420.0
  0
TEXT
  5
238
330
17
100
AcDbEntity
  8
G-AKS-BALON
100
AcDbText
 10
13857.83299573212
 20
10106.98224267712
 30
0.0
 40
399.0
  1
D
  7
GYM-B
 72
1
 11
13857.83299573212
 21
10106.98224267712
 31
0.0
100
AcDbText
 73
2
  0
LINE
  5
239
330
17
100
AcDbEntity
  8
G-AKS-HAT
100
AcDbLine
 10
-3934.326043535215
 20
11086.564221002654
 30
0.0
 11
12962.296680316382
 21
13461.229682264151
 31
0.0
  0
CIRCLE
  5
23A
330
17
100
AcDbEntity
  8
G-AKS-BALON
100
AcDbCircle
 10
-4350.238632406675
 20
11028.111518599426
 30
0.0
 40
420.0
  0
TEXT
  5
23B
330
17
100
AcDbEntity
  8
G-AKS-BALON
100
AcDbText
 10
-4350.238632406675
 20
11028.111518599426
 30
0.0
 40
399.0
  1
E
  7
GYM-B
 72
1
 11
-4350.238632406675
 21
11028.111518599426
 31
0.0
100
AcDbText
 73
2
  0
CIRCLE
  5
23C
330
17
100
AcDbEntity
  8
G-AKS-BALON
100
AcDbCircle
 10
13378.20926918784
 20
13519.682384667378
 30
0.0
 40
420.0
  0
TEXT
  5
23D
330
17
100
AcDbEntity
  8
G-AKS-BALON
100
AcDbText
 10
13378.20926918784
 20
13519.682384667378
 30
0.0
 40
399.0
  1
E
  7
GYM-B
 72
1
 11
13378.20926918784
 21
13519.682384667378
 31
0.0
100
AcDbText
 73
2
  0
LWPOLYLINE
  5
23E
330
17
100
AcDbEntity
  8
M-HAVA-BESLEME
100
AcDbPolyline
 90
22
 70
1
 10
60.0
 20
6950.0
 10
1060.0
 20
6950.0
 10
1060.0
 20
7350.0
 10
1860.0
 20
7350.0
 10
1860.0
 20
4950.0
 10
4059.9999999999995
 20
4950.0
 10
4059.9999999999995
 20
7350.0
 10
7960.000000000001
 20
7350.0
 10
7960.000000000001
 20
9250.0
 10
8260.0
 20
9250.0
 10
8260.0
 20
10100.0
 10
8760.0
 20
10100.0
 10
8760.0
 20
8750.0
 10
8460.0
 20
8750.0
 10
8460.0
 20
6850.0
 10
4560.0
 20
6850.0
 10
4560.0
 20
4450.0
 10
1360.0
 20
4450.0
 10
1360.0
 20
6450.0
 10
560.0
 20
6450.0
 10
560.0
 20
6300.0
 10
60.0
 20
6300.0
  0
LWPOLYLINE
  5
23F
330
17
100
AcDbEntity
  8
M-HAVA-BESLEME
100
AcDbPolyline
 90
12
 70
0
 10
310.0
 20
6300.0
 10
310.0
 20
6700.0
 10
1310.0
 20
6700.0
 10
1310.0
 20
7100.0
 10
1610.0
 20
7100.0
 10
1610.0
 20
4700.0
 10
4310.0
 20
4700.0
 10
4310.0
 20
7100.0
 10
8210.0
 20
7100.0
 10
8210.0
 20
9000.0
 10
8510.0
 20
9000.0
 10
8510.0
 20
10100.0
  0
TEXT
  5
240
330
17
100
AcDbEntity
  8
M-YAZI
100
AcDbText
 10
2150.0000000000005
 20
5280.0
 30
0.0
 40
160.0
  1
500×150 · 1000 m³/h
  7
GYM
 72
1
 11
2150.0000000000005
 21
5280.0
 31
0.0
100
AcDbText
 73
2
  0
LWPOLYLINE
  5
241
330
17
100
AcDbEntity
  8
M-HAVA-EGZOZ
100
AcDbPolyline
 90
24
 70
1
 10
810.0
 20
2200.0
 10
1410.0
 20
2200.0
 10
1410.0
 20
2100.0
 10
2610.0000000000005
 20
2100.0
 10
2610.0000000000005
 20
1800.0
 10
3110.0000000000005
 20
1800.0
 10
3110.0000000000005
 20
1400.0
 10
5810.000000000001
 20
1400.0
 10
5810.000000000001
 20
700.0
 10
8010.000000000002
 20
700.0
 10
8010.000000000002
 20
1400.0
 10
8410.0
 20
1400.0
 10
8410.0
 20
300.0
 10
5410.0
 20
300.0
 10
5410.0
 20
1000.0
 10
2710.0
 20
1000.0
 10
2710.0
 20
1400.0000000000002
 10
2210.0
 20
1400.0000000000002
 10
2210.0
 20
1700.0
 10
1010.0
 20
1700.0
 10
1010.0
 20
1800.0
 10
410.0
 20
1800.0
 10
410.0
 20
2500.0
 10
810.0
 20
2500.0
  0
LWPOLYLINE
  5
242
330
17
100
AcDbEntity
  8
M-HAVA-EGZOZ
100
AcDbPolyline
 90
12
 70
0
 10
610.0
 20
2500.0
 10
610.0
 20
2000.0
 10
1210.0
 20
2000.0
 10
1210.0
 20
1900.0
 10
2410.0
 20
1900.0
 10
2410.0
 20
1600.0
 10
2910.0
 20
1600.0
 10
2910.0
 20
1200.0
 10
5610.0
 20
1200.0
 10
5610.0
 20
500.0
 10
8210.0
 20
500.0
 10
8210.0
 20
1400.0
  0
TEXT
  5
243
330
17
100
AcDbEntity
  8
M-YAZI
100
AcDbText
 10
2860.0000000000005
 20
2130.0
 30
0.0
 40
160.0
  1
400×150 · 760 m³/h
  7
GYM
 72
1
 11
2860.0000000000005
 21
2130.0
 31
0.0
100
AcDbText
 73
2
  0
LWPOLYLINE
  5
244
330
17
100
AcDbEntity
  8
M-HAVA-ISLAK
100
AcDbPolyline
 90
36
 70
1
 10
10390.0
 20
7420.0
 10
9230.0
 20
7420.0
 10
9230.0
 20
8020.0
 10
8990.0
 20
8020.0
 10
8990.0
 20
5480.0
 10
9490.0
 20
5480.0
 10
9490.0
 20
4920.0
 10
8790.000000000002
 20
4920.0
 10
8790.000000000002
 20
1680.0000000000002
 10
9730.0
 20
1680.0000000000002
 10
9730.0
 20
1920.0
 10
9630.0
 20
1920.0
 10
9630.0
 20
2580.0
 10
10990.0
 20
2580.0
 10
10990.0
 20
1980.0
 10
11130.0
 20
1980.0
 10
11130.0
 20
2400.0
 10
11290.000000000002
 20
2400.0
 10
11290.000000000002
 20
1819.9999999999998
 10
10830.0
 20
1819.9999999999998
 10
10830.0
 20
2420.0
 10
9790.000000000002
 20
2420.0
 10
9790.000000000002
 20
2080.0
 10
9890.0
 20
2080.0
 10
9890.0
 20
1520.0
 10
8630.0
 20
1520.0
 10
8630.0
 20
5080.0
 10
9330.0
 20
5080.0
 10
9330.0
 20
5320.0
 10
8830.0
 20
5320.0
 10
8830.0
 20
8180.0
 10
9390.0
 20
8180.0
 10
9390.0
 20
7580.0
 10
10230.0
 20
7580.0
 10
10230.0
 20
8100.0
 10
10390.0
 20
8100.0
  0
LWPOLYLINE
  5
245
330
17
100
AcDbEntity
  8
M-HAVA-ISLAK
100
AcDbPolyline
 90
18
 70
0
 10
10310.0
 20
8100.0
 10
10310.0
 20
7500.0
 10
9310.0
 20
7500.0
 10
9310.0
 20
8100.0
 10
8910.0
 20
8100.0
 10
8910.0
 20
5400.0
 10
9410.0
 20
5400.0
 10
9410.0
 20
5000.0
 10
8710.0
 20
5000.0
 10
8710.0
 20
1600.0
 10
9810.0
 20
1600.0
 10
9810.0
 20
2000.0
 10
9710.0
 20
2000.0
 10
9710.0
 20
2500.0
 10
10910.0
 20
2500.0
 10
10910.0
 20
1900.0
 10
11210.0
 20
1900.0
 10
11210.0
 20
2400.0
  0
TEXT
  5
246
330
17
100
AcDbEntity
  8
M-YAZI
100
AcDbText
 10
8910.0
 20
6610.0
 30
0.0
 40
160.0
  1
Ø160 · 240 m³/h
  7
GYM
 72
1
 11
8910.0
 21
6610.0
 31
0.0
100
AcDbText
 73
2
  0
LINE
  5
247
330
17
100
AcDbEntity
  8
M-HAVA-BRANSMAN
100
AcDbLine
 10
1950.0
 20
4700.0
 30
0.0
 11
1950.0
 21
4700.0
 31
0.0
  0
LINE
  5
248
330
17
100
AcDbEntity
  8
M-HAVA-BRANSMAN
100
AcDbLine
 10
1950.0
 20
4700.0
 30
0.0
 11
1950.0
 21
4750.0
 31
0.0
  0
INSERT
  5
249
330
17
100
AcDbEntity
  8
M-HAVA-MENFEZ
100
AcDbBlockReference
 66
1
  2
M_MENFEZ_BESLEME
 10
1950.0
 20
4750.0
 30
0.0
  0
ATTRIB
  5
24B
330
17
100
AcDbEntity
  8
0
100
AcDbText
 10
1950.0
 20
4890.0
 30
0.0
 40
120.0
  1
M1
  7
GYM
 11
1950.0
 21
4890.0
 31
0.0
100
AcDbAttribute
  2
KOD
 70
0
  0
ATTRIB
  5
24C
330
17
100
AcDbEntity
  8
0
100
AcDbText
 10
1950.0
 20
4550.0
 30
0.0
 40
105.0
  1
250 m³/h
  7
GYM
 11
1950.0
 21
4550.0
 31
0.0
100
AcDbAttribute
  2
DEBI
 70
0
  0
SEQEND
  5
24A
330
249
100
AcDbEntity
  8
M-HAVA-MENFEZ
  0
LINE
  5
24D
330
17
100
AcDbEntity
  8
M-HAVA-BRANSMAN
100
AcDbLine
 10
4310.0
 20
5150.0
 30
0.0
 11
4300.0
 21
5150.0
 31
0.0
  0
LINE
  5
24E
330
17
100
AcDbEntity
  8
M-HAVA-BRANSMAN
100
AcDbLine
 10
4300.0
 20
5150.0
 30
0.0
 11
4300.0
 21
5150.0
 31
0.0
  0
INSERT
  5
24F
330
17
100
AcDbEntity
  8
M-HAVA-MENFEZ
100
AcDbBlockReference
 66
1
  2
M_MENFEZ_BESLEME
 10
4300.0
 20
5150.0
 30
0.0
  0
ATTRIB
  5
251
330
17
100
AcDbEntity
  8
0
100
AcDbText
 10
4300.0
 20
5290.0
 30
0.0
 40
120.0
  1
M2
  7
GYM
 11
4300.0
 21
5290.0
 31
0.0
100
AcDbAttribute
  2
KOD
 70
0
  0
ATTRIB
  5
252
330
17
100
AcDbEntity
  8
0
100
AcDbText
 10
4300.0
 20
4950.0
 30
0.0
 40
105.0
  1
250 m³/h
  7
GYM
 11
4300.0
 21
4950.0
 31
0.0
100
AcDbAttribute
  2
DEBI
 70
0
  0
SEQEND
  5
250
330
24F
100
AcDbEntity
  8
M-HAVA-MENFEZ
  0
LINE
  5
253
330
17
100
AcDbEntity
  8
M-HAVA-BRANSMAN
100
AcDbLine
 10
7450.0
 20
7100.0
 30
0.0
 11
7450.0
 21
7100.0
 31
0.0
  0
LINE
  5
254
330
17
100
AcDbEntity
  8
M-HAVA-BRANSMAN
100
AcDbLine
 10
7450.0
 20
7100.0
 30
0.0
 11
7450.0
 21
7150.0
 31
0.0
  0
INSERT
  5
255
330
17
100
AcDbEntity
  8
M-HAVA-MENFEZ
100
AcDbBlockReference
 66
1
  2
M_MENFEZ_BESLEME
 10
7450.0
 20
7150.0
 30
0.0
  0
ATTRIB
  5
257
330
17
100
AcDbEntity
  8
0
100
AcDbText
 10
7450.0
 20
7290.0
 30
0.0
 40
120.0
  1
M3
  7
GYM
 11
7450.0
 21
7290.0
 31
0.0
100
AcDbAttribute
  2
KOD
 70
0
  0
ATTRIB
  5
258
330
17
100
AcDbEntity
  8
0
100
AcDbText
 10
7450.0
 20
6950.0
 30
0.0
 40
105.0
  1
250 m³/h
  7
GYM
 11
7450.0
 21
6950.0
 31
0.0
100
AcDbAttribute
  2
DEBI
 70
0
  0
SEQEND
  5
256
330
255
100
AcDbEntity
  8
M-HAVA-MENFEZ
  0
LINE
  5
259
330
17
100
AcDbEntity
  8
M-HAVA-BRANSMAN
100
AcDbLine
 10
8510.0
 20
10050.0
 30
0.0
 11
8550.0
 21
10050.0
 31
0.0
  0
LINE
  5
25A
330
17
100
AcDbEntity
  8
M-HAVA-BRANSMAN
100
AcDbLine
 10
8550.0
 20
10050.0
 30
0.0
 11
8550.0
 21
10050.0
 31
0.0
  0
INSERT
  5
25B
330
17
100
AcDbEntity
  8
M-HAVA-MENFEZ
100
AcDbBlockReference
 66
1
  2
M_MENFEZ_BESLEME
 10
8550.0
 20
10050.0
 30
0.0
  0
ATTRIB
  5
25D
330
17
100
AcDbEntity
  8
0
100
AcDbText
 10
8550.0
 20
10190.0
 30
0.0
 40
120.0
  1
M4
  7
GYM
 11
8550.0
 21
10190.0
 31
0.0
100
AcDbAttribute
  2
KOD
 70
0
  0
ATTRIB
  5
25E
330
17
100
AcDbEntity
  8
0
100
AcDbText
 10
8550.0
 20
9850.0
 30
0.0
 40
105.0
  1
250 m³/h
  7
GYM
 11
8550.0
 21
9850.0
 31
0.0
100
AcDbAttribute
  2
DEBI
 70
0
  0
SEQEND
  5
25C
330
25B
100
AcDbEntity
  8
M-HAVA-MENFEZ
  0
LINE
  5
25F
330
17
100
AcDbEntity
  8
M-HAVA-BRANSMAN
100
AcDbLine
 10
2900.0
 20
1600.0
 30
0.0
 11
2900.0
 21
1600.0
 31
0.0
  0
LINE
  5
260
330
17
100
AcDbEntity
  8
M-HAVA-BRANSMAN
100
AcDbLine
 10
2900.0
 20
1600.0
 30
0.0
 11
2900.0
 21
1600.0
 31
0.0
  0
INSERT
  5
261
330
17
100
AcDbEntity
  8
M-HAVA-MENFEZ
100
AcDbBlockReference
 66
1
  2
M_MENFEZ_EGZOZ
 10
2900.0
 20
1600.0
 30
0.0
  0
ATTRIB
  5
263
330
17
100
AcDbEntity
  8
0
100
AcDbText
 10
2900.0
 20
1740.0
 30
0.0
 40
120.0
  1
E1
  7
GYM
 11
2900.0
 21
1740.0
 31
0.0
100
AcDbAttribute
  2
KOD
 70
0
  0
ATTRIB
  5
264
330
17
100
AcDbEntity
  8
0
100
AcDbText
 10
2900.0
 20
1400.0
 30
0.0
 40
105.0
  1
255 m³/h
  7
GYM
 11
2900.0
 21
1400.0
 31
0.0
100
AcDbAttribute
  2
DEBI
 70
0
  0
SEQEND
  5
262
330
261
100
AcDbEntity
  8
M-HAVA-MENFEZ
  0
LINE
  5
265
330
17
100
AcDbEntity
  8
M-HAVA-BRANSMAN
100
AcDbLine
 10
5600.0
 20
1200.0
 30
0.0
 11
5600.0
 21
1200.0
 31
0.0
  0
LINE
  5
266
330
17
100
AcDbEntity
  8
M-HAVA-BRANSMAN
100
AcDbLine
 10
5600.0
 20
1200.0
 30
0.0
 11
5600.0
 21
1200.0
 31
0.0
  0
INSERT
  5
267
330
17
100
AcDbEntity
  8
M-HAVA-MENFEZ
100
AcDbBlockReference
 66
1
  2
M_MENFEZ_EGZOZ
 10
5600.0
 20
1200.0
 30
0.0
  0
ATTRIB
  5
269
330
17
100
AcDbEntity
  8
0
100
AcDbText
 10
5600.0
 20
1340.0
 30
0.0
 40
120.0
  1
E2
  7
GYM
 11
5600.0
 21
1340.0
 31
0.0
100
AcDbAttribute
  2
KOD
 70
0
  0
ATTRIB
  5
26A
330
17
100
AcDbEntity
  8
0
100
AcDbText
 10
5600.0
 20
1000.0
 30
0.0
 40
105.0
  1
255 m³/h
  7
GYM
 11
5600.0
 21
1000.0
 31
0.0
100
AcDbAttribute
  2
DEBI
 70
0
  0
SEQEND
  5
268
330
267
100
AcDbEntity
  8
M-HAVA-MENFEZ
  0
LINE
  5
26B
330
17
100
AcDbEntity
  8
M-HAVA-BRANSMAN
100
AcDbLine
 10
8210.0
 20
1400.0
 30
0.0
 11
8200.0
 21
1400.0
 31
0.0
  0
LINE
  5
26C
330
17
100
AcDbEntity
  8
M-HAVA-BRANSMAN
100
AcDbLine
 10
8200.0
 20
1400.0
 30
0.0
 11
8200.0
 21
1400.0
 31
0.0
  0
INSERT
  5
26D
330
17
100
AcDbEntity
  8
M-HAVA-MENFEZ
100
AcDbBlockReference
 66
1
  2
M_MENFEZ_EGZOZ
 10
8200.0
 20
1400.0
 30
0.0
  0
ATTRIB
  5
26F
330
17
100
AcDbEntity
  8
0
100
AcDbText
 10
8200.0
 20
1540.0
 30
0.0
 40
120.0
  1
E3
  7
GYM
 11
8200.0
 21
1540.0
 31
0.0
100
AcDbAttribute
  2
KOD
 70
0
  0
ATTRIB
  5
270
330
17
100
AcDbEntity
  8
0
100
AcDbText
 10
8200.0
 20
1200.0
 30
0.0
 40
105.0
  1
250 m³/h
  7
GYM
 11
8200.0
 21
1200.0
 31
0.0
100
AcDbAttribute
  2
DEBI
 70
0
  0
SEQEND
  5
26E
330
26D
100
AcDbEntity
  8
M-HAVA-MENFEZ
  0
LINE
  5
271
330
17
100
AcDbEntity
  8
M-HAVA-BRANSMAN
100
AcDbLine
 10
9310.0
 20
8050.000000000001
 30
0.0
 11
9450.0
 21
8050.000000000001
 31
0.0
  0
LINE
  5
272
330
17
100
AcDbEntity
  8
M-HAVA-BRANSMAN
100
AcDbLine
 10
9450.0
 20
8050.000000000001
 30
0.0
 11
9450.0
 21
8050.000000000001
 31
0.0
  0
INSERT
  5
273
330
17
100
AcDbEntity
  8
M-HAVA-MENFEZ
100
AcDbBlockReference
 66
1
  2
M_VALF
 10
9450.0
 20
8050.000000000001
 30
0.0
  0
ATTRIB
  5
275
330
17
100
AcDbEntity
  8
0
100
AcDbText
 10
9450.0
 20
8200.0
 30
0.0
 40
120.0
  1
V1
  7
GYM
 11
9450.0
 21
8200.0
 31
0.0
100
AcDbAttribute
  2
KOD
 70
0
  0
ATTRIB
  5
276
330
17
100
AcDbEntity
  8
0
100
AcDbText
 10
9450.0
 20
7850.000000000001
 30
0.0
 40
105.0
  1
80 m³/h
  7
GYM
 11
9450.0
 21
7850.000000000001
 31
0.0
100
AcDbAttribute
  2
DEBI
 70
0
  0
SEQEND
  5
274
330
273
100
AcDbEntity
  8
M-HAVA-MENFEZ
  0
LINE
  5
277
330
17
100
AcDbEntity
  8
M-HAVA-BRANSMAN
100
AcDbLine
 10
10310.0
 20
8100.0
 30
0.0
 11
10350.0
 21
8100.0
 31
0.0
  0
LINE
  5
278
330
17
100
AcDbEntity
  8
M-HAVA-BRANSMAN
100
AcDbLine
 10
10350.0
 20
8100.0
 30
0.0
 11
10350.0
 21
8100.0
 31
0.0
  0
INSERT
  5
279
330
17
100
AcDbEntity
  8
M-HAVA-MENFEZ
100
AcDbBlockReference
 66
1
  2
M_VALF
 10
10350.0
 20
8100.0
 30
0.0
  0
ATTRIB
  5
27B
330
17
100
AcDbEntity
  8
0
100
AcDbText
 10
10350.0
 20
8250.0
 30
0.0
 40
120.0
  1
V2
  7
GYM
 11
10350.0
 21
8250.0
 31
0.0
100
AcDbAttribute
  2
KOD
 70
0
  0
ATTRIB
  5
27C
330
17
100
AcDbEntity
  8
0
100
AcDbText
 10
10350.0
 20
7900.0
 30
0.0
 40
105.0
  1
40 m³/h
  7
GYM
 11
10350.0
 21
7900.0
 31
0.0
100
AcDbAttribute
  2
DEBI
 70
0
  0
SEQEND
  5
27A
330
279
100
AcDbEntity
  8
M-HAVA-MENFEZ
  0
LINE
  5
27D
330
17
100
AcDbEntity
  8
M-HAVA-BRANSMAN
100
AcDbLine
 10
10910.0
 20
1900.0
 30
0.0
 11
10750.0
 21
1900.0
 31
0.0
  0
LINE
  5
27E
330
17
100
AcDbEntity
  8
M-HAVA-BRANSMAN
100
AcDbLine
 10
10750.0
 20
1900.0
 30
0.0
 11
10750.0
 21
1850.0
 31
0.0
  0
INSERT
  5
27F
330
17
100
AcDbEntity
  8
M-HAVA-MENFEZ
100
AcDbBlockReference
 66
1
  2
M_VALF
 10
10750.0
 20
1850.0
 30
0.0
  0
ATTRIB
  5
281
330
17
100
AcDbEntity
  8
0
100
AcDbText
 10
10750.0
 20
2000.0
 30
0.0
 40
120.0
  1
V3
  7
GYM
 11
10750.0
 21
2000.0
 31
0.0
100
AcDbAttribute
  2
KOD
 70
0
  0
ATTRIB
  5
282
330
17
100
AcDbEntity
  8
0
100
AcDbText
 10
10750.0
 20
1650.0
 30
0.0
 40
105.0
  1
80 m³/h
  7
GYM
 11
10750.0
 21
1650.0
 31
0.0
100
AcDbAttribute
  2
DEBI
 70
0
  0
SEQEND
  5
280
330
27F
100
AcDbEntity
  8
M-HAVA-MENFEZ
  0
LINE
  5
283
330
17
100
AcDbEntity
  8
M-HAVA-BRANSMAN
100
AcDbLine
 10
9810.0
 20
1600.0
 30
0.0
 11
9850.0
 21
1600.0
 31
0.0
  0
LINE
  5
284
330
17
100
AcDbEntity
  8
M-HAVA-BRANSMAN
100
AcDbLine
 10
9850.0
 20
1600.0
 30
0.0
 11
9850.0
 21
1350.0
 31
0.0
  0
INSERT
  5
285
330
17
100
AcDbEntity
  8
M-HAVA-MENFEZ
100
AcDbBlockReference
 66
1
  2
M_VALF
 10
9850.0
 20
1350.0
 30
0.0
  0
ATTRIB
  5
287
330
17
100
AcDbEntity
  8
0
100
AcDbText
 10
9850.0
 20
1500.0
 30
0.0
 40
120.0
  1
V4
  7
GYM
 11
9850.0
 21
1500.0
 31
0.0
100
AcDbAttribute
  2
KOD
 70
0
  0
ATTRIB
  5
288
330
17
100
AcDbEntity
  8
0
100
AcDbText
 10
9850.0
 20
1150.0
 30
0.0
 40
105.0
  1
40 m³/h
  7
GYM
 11
9850.0
 21
1150.0
 31
0.0
100
AcDbAttribute
  2
DEBI
 70
0
  0
SEQEND
  5
286
330
285
100
AcDbEntity
  8
M-HAVA-MENFEZ
  0
INSERT
  5
289
330
17
100
AcDbEntity
  8
M-HAVA-CIHAZ
100
AcDbBlockReference
 66
1
  2
M_FAN
 10
1200.0
 20
7050.0
 30
0.0
 50
101.1
  0
ATTRIB
  5
28B
330
17
100
AcDbEntity
  8
0
100
AcDbText
 10
993.9285405616286
 20
7009.570387029559
 30
0.0
 40
120.0
  1
F-TH
  7
GYM
 11
993.9285405616286
 21
7009.570387029559
 31
0.0
100
AcDbAttribute
  2
KOD
 70
0
  0
ATTRIB
  5
28C
330
17
100
AcDbEntity
  8
0
100
AcDbText
 10
1464.9490192779062
 20
7101.980930961995
 30
0.0
 40
105.0
  1
1.000 m³/h / 250 Pa
  7
GYM
 11
1464.9490192779062
 21
7101.980930961995
 31
0.0
100
AcDbAttribute
  2
TANIM
 70
0
  0
SEQEND
  5
28A
330
289
100
AcDbEntity
  8
M-HAVA-CIHAZ
  0
INSERT
  5
28D
330
17
100
AcDbEntity
  8
M-HAVA-CIHAZ
100
AcDbBlockReference
 66
1
  2
M_FAN
 10
1250.0
 20
1950.0
 30
0.0
 50
95.9
  0
ATTRIB
  5
28F
330
17
100
AcDbEntity
  8
0
100
AcDbText
 10
1041.1124084053934
 20
1928.4135672746781
 30
0.0
 40
120.0
  1
F-EG
  7
GYM
 11
1041.1124084053934
 21
1928.4135672746781
 31
0.0
100
AcDbAttribute
  2
KOD
 70
0
  0
ATTRIB
  5
290
330
17
100
AcDbEntity
  8
0
100
AcDbText
 10
1518.569760621637
 20
1977.7539849325567
 30
0.0
 40
105.0
  1
760 m³/h / 200 Pa
  7
GYM
 11
1518.569760621637
 21
1977.7539849325567
 31
0.0
100
AcDbAttribute
  2
TANIM
 70
0
  0
SEQEND
  5
28E
330
28D
100
AcDbEntity
  8
M-HAVA-CIHAZ
  0
INSERT
  5
291
330
17
100
AcDbEntity
  8
M-HAVA-CIHAZ
100
AcDbBlockReference
 66
1
  2
M_FAN
 10
9450.0
 20
5400.0
 30
0.0
 50
8.1
  0
ATTRIB
  5
293
330
17
100
AcDbEntity
  8
0
100
AcDbText
 10
9420.410741293108
 20
5607.904968120477
 30
0.0
 40
119.99999999999999
  1
F-IS
  7
GYM
 11
9420.410741293108
 21
5607.904968120477
 31
0.0
100
AcDbAttribute
  2
KOD
 70
0
  0
ATTRIB
  5
294
330
17
100
AcDbEntity
  8
0
100
AcDbText
 10
9488.043332623147
 20
5132.6936124165295
 30
0.0
 40
104.99999999999999
  1
240 m³/h, sessiz tip
  7
GYM
 11
9488.043332623147
 21
5132.6936124165295
 31
0.0
100
AcDbAttribute
  2
TANIM
 70
0
  0
SEQEND
  5
292
330
291
100
AcDbEntity
  8
M-HAVA-CIHAZ
  0
INSERT
  5
295
330
17
100
AcDbEntity
  8
M-HAVA-CIHAZ
100
AcDbBlockReference
 66
1
  2
M_PANJUR
 10
300.0
 20
6250.0
 30
0.0
  0
ATTRIB
  5
297
330
17
100
AcDbEntity
  8
0
100
AcDbText
 10
300.0
 20
6400.0
 30
0.0
 40
120.0
  1
TH
  7
GYM
 11
300.0
 21
6400.0
 31
0.0
100
AcDbAttribute
  2
KOD
 70
0
  0
SEQEND
  5
296
330
295
100
AcDbEntity
  8
M-HAVA-CIHAZ
  0
INSERT
  5
298
330
17
100
AcDbEntity
  8
M-HAVA-CIHAZ
100
AcDbBlockReference
 66
1
  2
M_PANJUR
 10
420.0
 20
2450.0
 30
0.0
  0
ATTRIB
  5
29A
330
17
100
AcDbEntity
  8
0
100
AcDbText
 10
420.0
 20
2600.0
 30
0.0
 40
120.0
  1
EG
  7
GYM
 11
420.0
 21
2600.0
 31
0.0
100
AcDbAttribute
  2
KOD
 70
0
  0
SEQEND
  5
299
330
298
100
AcDbEntity
  8
M-HAVA-CIHAZ
  0
INSERT
  5
29B
330
17
100
AcDbEntity
  8
M-HAVA-CIHAZ
100
AcDbBlockReference
 66
1
  2
M_PANJUR
 10
11450.0
 20
2400.0
 30
0.0
  0
ATTRIB
  5
29D
330
17
100
AcDbEntity
  8
0
100
AcDbText
 10
11450.0
 20
2550.0
 30
0.0
 40
120.0
  1
EI
  7
GYM
 11
11450.0
 21
2550.0
 31
0.0
100
AcDbAttribute
  2
KOD
 70
0
  0
SEQEND
  5
29C
330
29B
100
AcDbEntity
  8
M-HAVA-CIHAZ
  0
VIEWPORT
  5
2A2
330
29E
100
AcDbEntity
 67
1
  8
VIEWPORTS
100
AcDbViewport
 10
420.5
 20
297.0
 30
0.0
 40
925.1
 41
653.4000000000001
 68
1
 69
1
 12
420.5
 22
297.0
 13
0.0
 23
0.0
 14
10.0
 24
10.0
 15
10.0
 25
10.0
 16
0.0
 26
0.0
 36
1.0
 17
0.0
 27
0.0
 37
0.0
 42
50.0
 43
0.0
 44
0.0
 45
653.4000000000001
 50
0.0
 51
0.0
 72
100
 90
557088
  1

281
0
 71
0
 74
0
110
0.0
120
0.0
130
0.0
111
1.0
121
0.0
131
0.0
112
0.0
122
1.0
132
0.0
 79
0
146
0.0
282
0
  0
LWPOLYLINE
  5
2A3
330
29E
100
AcDbEntity
 67
1
  8
G-CERCEVE
370
13
100
AcDbPolyline
 90
4
 70
1
 10
0.0
 20
0.0
 10
10.0
 20
0.0
 10
10.0
 20
10.0
 10
0.0
 20
10.0
  0
LWPOLYLINE
  5
2A4
330
29E
100
AcDbEntity
 67
1
  8
G-CERCEVE
370
13
100
AcDbPolyline
 90
4
 70
1
 10
831.0
 20
0.0
 10
841.0
 20
0.0
 10
841.0
 20
10.0
 10
831.0
 20
10.0
  0
LWPOLYLINE
  5
2A5
330
29E
100
AcDbEntity
 67
1
  8
G-CERCEVE
370
13
100
AcDbPolyline
 90
4
 70
1
 10
831.0
 20
584.0
 10
841.0
 20
584.0
 10
841.0
 20
594.0
 10
831.0
 20
594.0
  0
LWPOLYLINE
  5
2A6
330
29E
100
AcDbEntity
 67
1
  8
G-CERCEVE
370
13
100
AcDbPolyline
 90
4
 70
1
 10
0.0
 20
584.0
 10
10.0
 20
584.0
 10
10.0
 20
594.0
 10
0.0
 20
594.0
  0
LWPOLYLINE
  5
2A7
330
29E
100
AcDbEntity
 67
1
  8
G-CERCEVE
370
70
100
AcDbPolyline
 90
4
 70
1
 10
20.0
 20
10.0
 10
831.0
 20
10.0
 10
831.0
 20
584.0
 10
20.0
 20
584.0
  0
LWPOLYLINE
  5
2A8
330
29E
100
AcDbEntity
 67
1
  8
G-PAFTA-ZON
370
13
100
AcDbPolyline
 90
4
 70
1
 10
25.0
 20
15.0
 10
826.0
 20
15.0
 10
826.0
 20
579.0
 10
25.0
 20
579.0
  0
TEXT
  5
2A9
330
29E
100
AcDbEntity
 67
1
  8
G-PAFTA-ZON
100
AcDbText
 10
50.03125
 20
12.5
 30
0.0
 40
3.5
  1
1
  7
GYM
 72
1
 11
50.03125
 21
12.5
 31
0.0
100
AcDbText
 73
2
  0
TEXT
  5
2AA
330
29E
100
AcDbEntity
 67
1
  8
G-PAFTA-ZON
100
AcDbText
 10
50.03125
 20
581.5
 30
0.0
 40
3.5
  1
1
  7
GYM
 72
1
 11
50.03125
 21
581.5
 31
0.0
100
AcDbText
 73
2
  0
LINE
  5
2AB
330
29E
100
AcDbEntity
 67
1
  8
G-PAFTA-ZON
370
13
100
AcDbLine
 10
75.0625
 20
10.0
 30
0.0
 11
75.0625
 21
15.0
 31
0.0
  0
LINE
  5
2AC
330
29E
100
AcDbEntity
 67
1
  8
G-PAFTA-ZON
370
13
100
AcDbLine
 10
75.0625
 20
579.0
 30
0.0
 11
75.0625
 21
584.0
 31
0.0
  0
TEXT
  5
2AD
330
29E
100
AcDbEntity
 67
1
  8
G-PAFTA-ZON
100
AcDbText
 10
100.09375
 20
12.5
 30
0.0
 40
3.5
  1
2
  7
GYM
 72
1
 11
100.09375
 21
12.5
 31
0.0
100
AcDbText
 73
2
  0
TEXT
  5
2AE
330
29E
100
AcDbEntity
 67
1
  8
G-PAFTA-ZON
100
AcDbText
 10
100.09375
 20
581.5
 30
0.0
 40
3.5
  1
2
  7
GYM
 72
1
 11
100.09375
 21
581.5
 31
0.0
100
AcDbText
 73
2
  0
LINE
  5
2AF
330
29E
100
AcDbEntity
 67
1
  8
G-PAFTA-ZON
370
13
100
AcDbLine
 10
125.125
 20
10.0
 30
0.0
 11
125.125
 21
15.0
 31
0.0
  0
LINE
  5
2B0
330
29E
100
AcDbEntity
 67
1
  8
G-PAFTA-ZON
370
13
100
AcDbLine
 10
125.125
 20
579.0
 30
0.0
 11
125.125
 21
584.0
 31
0.0
  0
TEXT
  5
2B1
330
29E
100
AcDbEntity
 67
1
  8
G-PAFTA-ZON
100
AcDbText
 10
150.15625
 20
12.5
 30
0.0
 40
3.5
  1
3
  7
GYM
 72
1
 11
150.15625
 21
12.5
 31
0.0
100
AcDbText
 73
2
  0
TEXT
  5
2B2
330
29E
100
AcDbEntity
 67
1
  8
G-PAFTA-ZON
100
AcDbText
 10
150.15625
 20
581.5
 30
0.0
 40
3.5
  1
3
  7
GYM
 72
1
 11
150.15625
 21
581.5
 31
0.0
100
AcDbText
 73
2
  0
LINE
  5
2B3
330
29E
100
AcDbEntity
 67
1
  8
G-PAFTA-ZON
370
13
100
AcDbLine
 10
175.1875
 20
10.0
 30
0.0
 11
175.1875
 21
15.0
 31
0.0
  0
LINE
  5
2B4
330
29E
100
AcDbEntity
 67
1
  8
G-PAFTA-ZON
370
13
100
AcDbLine
 10
175.1875
 20
579.0
 30
0.0
 11
175.1875
 21
584.0
 31
0.0
  0
TEXT
  5
2B5
330
29E
100
AcDbEntity
 67
1
  8
G-PAFTA-ZON
100
AcDbText
 10
200.21875
 20
12.5
 30
0.0
 40
3.5
  1
4
  7
GYM
 72
1
 11
200.21875
 21
12.5
 31
0.0
100
AcDbText
 73
2
  0
TEXT
  5
2B6
330
29E
100
AcDbEntity
 67
1
  8
G-PAFTA-ZON
100
AcDbText
 10
200.21875
 20
581.5
 30
0.0
 40
3.5
  1
4
  7
GYM
 72
1
 11
200.21875
 21
581.5
 31
0.0
100
AcDbText
 73
2
  0
LINE
  5
2B7
330
29E
100
AcDbEntity
 67
1
  8
G-PAFTA-ZON
370
13
100
AcDbLine
 10
225.25
 20
10.0
 30
0.0
 11
225.25
 21
15.0
 31
0.0
  0
LINE
  5
2B8
330
29E
100
AcDbEntity
 67
1
  8
G-PAFTA-ZON
370
13
100
AcDbLine
 10
225.25
 20
579.0
 30
0.0
 11
225.25
 21
584.0
 31
0.0
  0
TEXT
  5
2B9
330
29E
100
AcDbEntity
 67
1
  8
G-PAFTA-ZON
100
AcDbText
 10
250.28125
 20
12.5
 30
0.0
 40
3.5
  1
5
  7
GYM
 72
1
 11
250.28125
 21
12.5
 31
0.0
100
AcDbText
 73
2
  0
TEXT
  5
2BA
330
29E
100
AcDbEntity
 67
1
  8
G-PAFTA-ZON
100
AcDbText
 10
250.28125
 20
581.5
 30
0.0
 40
3.5
  1
5
  7
GYM
 72
1
 11
250.28125
 21
581.5
 31
0.0
100
AcDbText
 73
2
  0
LINE
  5
2BB
330
29E
100
AcDbEntity
 67
1
  8
G-PAFTA-ZON
370
13
100
AcDbLine
 10
275.3125
 20
10.0
 30
0.0
 11
275.3125
 21
15.0
 31
0.0
  0
LINE
  5
2BC
330
29E
100
AcDbEntity
 67
1
  8
G-PAFTA-ZON
370
13
100
AcDbLine
 10
275.3125
 20
579.0
 30
0.0
 11
275.3125
 21
584.0
 31
0.0
  0
TEXT
  5
2BD
330
29E
100
AcDbEntity
 67
1
  8
G-PAFTA-ZON
100
AcDbText
 10
300.34375
 20
12.5
 30
0.0
 40
3.5
  1
6
  7
GYM
 72
1
 11
300.34375
 21
12.5
 31
0.0
100
AcDbText
 73
2
  0
TEXT
  5
2BE
330
29E
100
AcDbEntity
 67
1
  8
G-PAFTA-ZON
100
AcDbText
 10
300.34375
 20
581.5
 30
0.0
 40
3.5
  1
6
  7
GYM
 72
1
 11
300.34375
 21
581.5
 31
0.0
100
AcDbText
 73
2
  0
LINE
  5
2BF
330
29E
100
AcDbEntity
 67
1
  8
G-PAFTA-ZON
370
13
100
AcDbLine
 10
325.375
 20
10.0
 30
0.0
 11
325.375
 21
15.0
 31
0.0
  0
LINE
  5
2C0
330
29E
100
AcDbEntity
 67
1
  8
G-PAFTA-ZON
370
13
100
AcDbLine
 10
325.375
 20
579.0
 30
0.0
 11
325.375
 21
584.0
 31
0.0
  0
TEXT
  5
2C1
330
29E
100
AcDbEntity
 67
1
  8
G-PAFTA-ZON
100
AcDbText
 10
350.40625
 20
12.5
 30
0.0
 40
3.5
  1
7
  7
GYM
 72
1
 11
350.40625
 21
12.5
 31
0.0
100
AcDbText
 73
2
  0
TEXT
  5
2C2
330
29E
100
AcDbEntity
 67
1
  8
G-PAFTA-ZON
100
AcDbText
 10
350.40625
 20
581.5
 30
0.0
 40
3.5
  1
7
  7
GYM
 72
1
 11
350.40625
 21
581.5
 31
0.0
100
AcDbText
 73
2
  0
LINE
  5
2C3
330
29E
100
AcDbEntity
 67
1
  8
G-PAFTA-ZON
370
13
100
AcDbLine
 10
375.4375
 20
10.0
 30
0.0
 11
375.4375
 21
15.0
 31
0.0
  0
LINE
  5
2C4
330
29E
100
AcDbEntity
 67
1
  8
G-PAFTA-ZON
370
13
100
AcDbLine
 10
375.4375
 20
579.0
 30
0.0
 11
375.4375
 21
584.0
 31
0.0
  0
TEXT
  5
2C5
330
29E
100
AcDbEntity
 67
1
  8
G-PAFTA-ZON
100
AcDbText
 10
400.46875
 20
12.5
 30
0.0
 40
3.5
  1
8
  7
GYM
 72
1
 11
400.46875
 21
12.5
 31
0.0
100
AcDbText
 73
2
  0
TEXT
  5
2C6
330
29E
100
AcDbEntity
 67
1
  8
G-PAFTA-ZON
100
AcDbText
 10
400.46875
 20
581.5
 30
0.0
 40
3.5
  1
8
  7
GYM
 72
1
 11
400.46875
 21
581.5
 31
0.0
100
AcDbText
 73
2
  0
LINE
  5
2C7
330
29E
100
AcDbEntity
 67
1
  8
G-PAFTA-ZON
370
13
100
AcDbLine
 10
425.5
 20
10.0
 30
0.0
 11
425.5
 21
15.0
 31
0.0
  0
LINE
  5
2C8
330
29E
100
AcDbEntity
 67
1
  8
G-PAFTA-ZON
370
13
100
AcDbLine
 10
425.5
 20
579.0
 30
0.0
 11
425.5
 21
584.0
 31
0.0
  0
TEXT
  5
2C9
330
29E
100
AcDbEntity
 67
1
  8
G-PAFTA-ZON
100
AcDbText
 10
450.53125
 20
12.5
 30
0.0
 40
3.5
  1
9
  7
GYM
 72
1
 11
450.53125
 21
12.5
 31
0.0
100
AcDbText
 73
2
  0
TEXT
  5
2CA
330
29E
100
AcDbEntity
 67
1
  8
G-PAFTA-ZON
100
AcDbText
 10
450.53125
 20
581.5
 30
0.0
 40
3.5
  1
9
  7
GYM
 72
1
 11
450.53125
 21
581.5
 31
0.0
100
AcDbText
 73
2
  0
LINE
  5
2CB
330
29E
100
AcDbEntity
 67
1
  8
G-PAFTA-ZON
370
13
100
AcDbLine
 10
475.5625
 20
10.0
 30
0.0
 11
475.5625
 21
15.0
 31
0.0
  0
LINE
  5
2CC
330
29E
100
AcDbEntity
 67
1
  8
G-PAFTA-ZON
370
13
100
AcDbLine
 10
475.5625
 20
579.0
 30
0.0
 11
475.5625
 21
584.0
 31
0.0
  0
TEXT
  5
2CD
330
29E
100
AcDbEntity
 67
1
  8
G-PAFTA-ZON
100
AcDbText
 10
500.59375
 20
12.5
 30
0.0
 40
3.5
  1
10
  7
GYM
 72
1
 11
500.59375
 21
12.5
 31
0.0
100
AcDbText
 73
2
  0
TEXT
  5
2CE
330
29E
100
AcDbEntity
 67
1
  8
G-PAFTA-ZON
100
AcDbText
 10
500.59375
 20
581.5
 30
0.0
 40
3.5
  1
10
  7
GYM
 72
1
 11
500.59375
 21
581.5
 31
0.0
100
AcDbText
 73
2
  0
LINE
  5
2CF
330
29E
100
AcDbEntity
 67
1
  8
G-PAFTA-ZON
370
13
100
AcDbLine
 10
525.625
 20
10.0
 30
0.0
 11
525.625
 21
15.0
 31
0.0
  0
LINE
  5
2D0
330
29E
100
AcDbEntity
 67
1
  8
G-PAFTA-ZON
370
13
100
AcDbLine
 10
525.625
 20
579.0
 30
0.0
 11
525.625
 21
584.0
 31
0.0
  0
TEXT
  5
2D1
330
29E
100
AcDbEntity
 67
1
  8
G-PAFTA-ZON
100
AcDbText
 10
550.65625
 20
12.5
 30
0.0
 40
3.5
  1
11
  7
GYM
 72
1
 11
550.65625
 21
12.5
 31
0.0
100
AcDbText
 73
2
  0
TEXT
  5
2D2
330
29E
100
AcDbEntity
 67
1
  8
G-PAFTA-ZON
100
AcDbText
 10
550.65625
 20
581.5
 30
0.0
 40
3.5
  1
11
  7
GYM
 72
1
 11
550.65625
 21
581.5
 31
0.0
100
AcDbText
 73
2
  0
LINE
  5
2D3
330
29E
100
AcDbEntity
 67
1
  8
G-PAFTA-ZON
370
13
100
AcDbLine
 10
575.6875
 20
10.0
 30
0.0
 11
575.6875
 21
15.0
 31
0.0
  0
LINE
  5
2D4
330
29E
100
AcDbEntity
 67
1
  8
G-PAFTA-ZON
370
13
100
AcDbLine
 10
575.6875
 20
579.0
 30
0.0
 11
575.6875
 21
584.0
 31
0.0
  0
TEXT
  5
2D5
330
29E
100
AcDbEntity
 67
1
  8
G-PAFTA-ZON
100
AcDbText
 10
600.71875
 20
12.5
 30
0.0
 40
3.5
  1
12
  7
GYM
 72
1
 11
600.71875
 21
12.5
 31
0.0
100
AcDbText
 73
2
  0
TEXT
  5
2D6
330
29E
100
AcDbEntity
 67
1
  8
G-PAFTA-ZON
100
AcDbText
 10
600.71875
 20
581.5
 30
0.0
 40
3.5
  1
12
  7
GYM
 72
1
 11
600.71875
 21
581.5
 31
0.0
100
AcDbText
 73
2
  0
LINE
  5
2D7
330
29E
100
AcDbEntity
 67
1
  8
G-PAFTA-ZON
370
13
100
AcDbLine
 10
625.75
 20
10.0
 30
0.0
 11
625.75
 21
15.0
 31
0.0
  0
LINE
  5
2D8
330
29E
100
AcDbEntity
 67
1
  8
G-PAFTA-ZON
370
13
100
AcDbLine
 10
625.75
 20
579.0
 30
0.0
 11
625.75
 21
584.0
 31
0.0
  0
TEXT
  5
2D9
330
29E
100
AcDbEntity
 67
1
  8
G-PAFTA-ZON
100
AcDbText
 10
650.78125
 20
12.5
 30
0.0
 40
3.5
  1
13
  7
GYM
 72
1
 11
650.78125
 21
12.5
 31
0.0
100
AcDbText
 73
2
  0
TEXT
  5
2DA
330
29E
100
AcDbEntity
 67
1
  8
G-PAFTA-ZON
100
AcDbText
 10
650.78125
 20
581.5
 30
0.0
 40
3.5
  1
13
  7
GYM
 72
1
 11
650.78125
 21
581.5
 31
0.0
100
AcDbText
 73
2
  0
LINE
  5
2DB
330
29E
100
AcDbEntity
 67
1
  8
G-PAFTA-ZON
370
13
100
AcDbLine
 10
675.8125
 20
10.0
 30
0.0
 11
675.8125
 21
15.0
 31
0.0
  0
LINE
  5
2DC
330
29E
100
AcDbEntity
 67
1
  8
G-PAFTA-ZON
370
13
100
AcDbLine
 10
675.8125
 20
579.0
 30
0.0
 11
675.8125
 21
584.0
 31
0.0
  0
TEXT
  5
2DD
330
29E
100
AcDbEntity
 67
1
  8
G-PAFTA-ZON
100
AcDbText
 10
700.84375
 20
12.5
 30
0.0
 40
3.5
  1
14
  7
GYM
 72
1
 11
700.84375
 21
12.5
 31
0.0
100
AcDbText
 73
2
  0
TEXT
  5
2DE
330
29E
100
AcDbEntity
 67
1
  8
G-PAFTA-ZON
100
AcDbText
 10
700.84375
 20
581.5
 30
0.0
 40
3.5
  1
14
  7
GYM
 72
1
 11
700.84375
 21
581.5
 31
0.0
100
AcDbText
 73
2
  0
LINE
  5
2DF
330
29E
100
AcDbEntity
 67
1
  8
G-PAFTA-ZON
370
13
100
AcDbLine
 10
725.875
 20
10.0
 30
0.0
 11
725.875
 21
15.0
 31
0.0
  0
LINE
  5
2E0
330
29E
100
AcDbEntity
 67
1
  8
G-PAFTA-ZON
370
13
100
AcDbLine
 10
725.875
 20
579.0
 30
0.0
 11
725.875
 21
584.0
 31
0.0
  0
TEXT
  5
2E1
330
29E
100
AcDbEntity
 67
1
  8
G-PAFTA-ZON
100
AcDbText
 10
750.90625
 20
12.5
 30
0.0
 40
3.5
  1
15
  7
GYM
 72
1
 11
750.90625
 21
12.5
 31
0.0
100
AcDbText
 73
2
  0
TEXT
  5
2E2
330
29E
100
AcDbEntity
 67
1
  8
G-PAFTA-ZON
100
AcDbText
 10
750.90625
 20
581.5
 30
0.0
 40
3.5
  1
15
  7
GYM
 72
1
 11
750.90625
 21
581.5
 31
0.0
100
AcDbText
 73
2
  0
LINE
  5
2E3
330
29E
100
AcDbEntity
 67
1
  8
G-PAFTA-ZON
370
13
100
AcDbLine
 10
775.9375
 20
10.0
 30
0.0
 11
775.9375
 21
15.0
 31
0.0
  0
LINE
  5
2E4
330
29E
100
AcDbEntity
 67
1
  8
G-PAFTA-ZON
370
13
100
AcDbLine
 10
775.9375
 20
579.0
 30
0.0
 11
775.9375
 21
584.0
 31
0.0
  0
TEXT
  5
2E5
330
29E
100
AcDbEntity
 67
1
  8
G-PAFTA-ZON
100
AcDbText
 10
800.96875
 20
12.5
 30
0.0
 40
3.5
  1
16
  7
GYM
 72
1
 11
800.96875
 21
12.5
 31
0.0
100
AcDbText
 73
2
  0
TEXT
  5
2E6
330
29E
100
AcDbEntity
 67
1
  8
G-PAFTA-ZON
100
AcDbText
 10
800.96875
 20
581.5
 30
0.0
 40
3.5
  1
16
  7
GYM
 72
1
 11
800.96875
 21
581.5
 31
0.0
100
AcDbText
 73
2
  0
TEXT
  5
2E7
330
29E
100
AcDbEntity
 67
1
  8
G-PAFTA-ZON
100
AcDbText
 10
22.5
 20
40.63636363636364
 30
0.0
 40
3.5
  1
A
  7
GYM
 72
1
 11
22.5
 21
40.63636363636364
 31
0.0
100
AcDbText
 73
2
  0
TEXT
  5
2E8
330
29E
100
AcDbEntity
 67
1
  8
G-PAFTA-ZON
100
AcDbText
 10
828.5
 20
40.63636363636364
 30
0.0
 40
3.5
  1
A
  7
GYM
 72
1
 11
828.5
 21
40.63636363636364
 31
0.0
100
AcDbText
 73
2
  0
LINE
  5
2E9
330
29E
100
AcDbEntity
 67
1
  8
G-PAFTA-ZON
370
13
100
AcDbLine
 10
20.0
 20
66.27272727272728
 30
0.0
 11
25.0
 21
66.27272727272728
 31
0.0
  0
LINE
  5
2EA
330
29E
100
AcDbEntity
 67
1
  8
G-PAFTA-ZON
370
13
100
AcDbLine
 10
826.0
 20
66.27272727272728
 30
0.0
 11
831.0
 21
66.27272727272728
 31
0.0
  0
TEXT
  5
2EB
330
29E
100
AcDbEntity
 67
1
  8
G-PAFTA-ZON
100
AcDbText
 10
22.5
 20
91.90909090909092
 30
0.0
 40
3.5
  1
B
  7
GYM
 72
1
 11
22.5
 21
91.90909090909092
 31
0.0
100
AcDbText
 73
2
  0
TEXT
  5
2EC
330
29E
100
AcDbEntity
 67
1
  8
G-PAFTA-ZON
100
AcDbText
 10
828.5
 20
91.90909090909092
 30
0.0
 40
3.5
  1
B
  7
GYM
 72
1
 11
828.5
 21
91.90909090909092
 31
0.0
100
AcDbText
 73
2
  0
LINE
  5
2ED
330
29E
100
AcDbEntity
 67
1
  8
G-PAFTA-ZON
370
13
100
AcDbLine
 10
20.0
 20
117.54545454545455
 30
0.0
 11
25.0
 21
117.54545454545455
 31
0.0
  0
LINE
  5
2EE
330
29E
100
AcDbEntity
 67
1
  8
G-PAFTA-ZON
370
13
100
AcDbLine
 10
826.0
 20
117.54545454545455
 30
0.0
 11
831.0
 21
117.54545454545455
 31
0.0
  0
TEXT
  5
2EF
330
29E
100
AcDbEntity
 67
1
  8
G-PAFTA-ZON
100
AcDbText
 10
22.5
 20
143.1818181818182
 30
0.0
 40
3.5
  1
C
  7
GYM
 72
1
 11
22.5
 21
143.1818181818182
 31
0.0
100
AcDbText
 73
2
  0
TEXT
  5
2F0
330
29E
100
AcDbEntity
 67
1
  8
G-PAFTA-ZON
100
AcDbText
 10
828.5
 20
143.1818181818182
 30
0.0
 40
3.5
  1
C
  7
GYM
 72
1
 11
828.5
 21
143.1818181818182
 31
0.0
100
AcDbText
 73
2
  0
LINE
  5
2F1
330
29E
100
AcDbEntity
 67
1
  8
G-PAFTA-ZON
370
13
100
AcDbLine
 10
20.0
 20
168.8181818181818
 30
0.0
 11
25.0
 21
168.8181818181818
 31
0.0
  0
LINE
  5
2F2
330
29E
100
AcDbEntity
 67
1
  8
G-PAFTA-ZON
370
13
100
AcDbLine
 10
826.0
 20
168.8181818181818
 30
0.0
 11
831.0
 21
168.8181818181818
 31
0.0
  0
TEXT
  5
2F3
330
29E
100
AcDbEntity
 67
1
  8
G-PAFTA-ZON
100
AcDbText
 10
22.5
 20
194.45454545454544
 30
0.0
 40
3.5
  1
D
  7
GYM
 72
1
 11
22.5
 21
194.45454545454544
 31
0.0
100
AcDbText
 73
2
  0
TEXT
  5
2F4
330
29E
100
AcDbEntity
 67
1
  8
G-PAFTA-ZON
100
AcDbText
 10
828.5
 20
194.45454545454544
 30
0.0
 40
3.5
  1
D
  7
GYM
 72
1
 11
828.5
 21
194.45454545454544
 31
0.0
100
AcDbText
 73
2
  0
LINE
  5
2F5
330
29E
100
AcDbEntity
 67
1
  8
G-PAFTA-ZON
370
13
100
AcDbLine
 10
20.0
 20
220.0909090909091
 30
0.0
 11
25.0
 21
220.0909090909091
 31
0.0
  0
LINE
  5
2F6
330
29E
100
AcDbEntity
 67
1
  8
G-PAFTA-ZON
370
13
100
AcDbLine
 10
826.0
 20
220.0909090909091
 30
0.0
 11
831.0
 21
220.0909090909091
 31
0.0
  0
TEXT
  5
2F7
330
29E
100
AcDbEntity
 67
1
  8
G-PAFTA-ZON
100
AcDbText
 10
22.5
 20
245.72727272727272
 30
0.0
 40
3.5
  1
E
  7
GYM
 72
1
 11
22.5
 21
245.72727272727272
 31
0.0
100
AcDbText
 73
2
  0
TEXT
  5
2F8
330
29E
100
AcDbEntity
 67
1
  8
G-PAFTA-ZON
100
AcDbText
 10
828.5
 20
245.72727272727272
 30
0.0
 40
3.5
  1
E
  7
GYM
 72
1
 11
828.5
 21
245.72727272727272
 31
0.0
100
AcDbText
 73
2
  0
LINE
  5
2F9
330
29E
100
AcDbEntity
 67
1
  8
G-PAFTA-ZON
370
13
100
AcDbLine
 10
20.0
 20
271.3636363636364
 30
0.0
 11
25.0
 21
271.3636363636364
 31
0.0
  0
LINE
  5
2FA
330
29E
100
AcDbEntity
 67
1
  8
G-PAFTA-ZON
370
13
100
AcDbLine
 10
826.0
 20
271.3636363636364
 30
0.0
 11
831.0
 21
271.3636363636364
 31
0.0
  0
TEXT
  5
2FB
330
29E
100
AcDbEntity
 67
1
  8
G-PAFTA-ZON
100
AcDbText
 10
22.5
 20
297.0
 30
0.0
 40
3.5
  1
F
  7
GYM
 72
1
 11
22.5
 21
297.0
 31
0.0
100
AcDbText
 73
2
  0
TEXT
  5
2FC
330
29E
100
AcDbEntity
 67
1
  8
G-PAFTA-ZON
100
AcDbText
 10
828.5
 20
297.0
 30
0.0
 40
3.5
  1
F
  7
GYM
 72
1
 11
828.5
 21
297.0
 31
0.0
100
AcDbText
 73
2
  0
LINE
  5
2FD
330
29E
100
AcDbEntity
 67
1
  8
G-PAFTA-ZON
370
13
100
AcDbLine
 10
20.0
 20
322.6363636363636
 30
0.0
 11
25.0
 21
322.6363636363636
 31
0.0
  0
LINE
  5
2FE
330
29E
100
AcDbEntity
 67
1
  8
G-PAFTA-ZON
370
13
100
AcDbLine
 10
826.0
 20
322.6363636363636
 30
0.0
 11
831.0
 21
322.6363636363636
 31
0.0
  0
TEXT
  5
2FF
330
29E
100
AcDbEntity
 67
1
  8
G-PAFTA-ZON
100
AcDbText
 10
22.5
 20
348.27272727272725
 30
0.0
 40
3.5
  1
G
  7
GYM
 72
1
 11
22.5
 21
348.27272727272725
 31
0.0
100
AcDbText
 73
2
  0
TEXT
  5
300
330
29E
100
AcDbEntity
 67
1
  8
G-PAFTA-ZON
100
AcDbText
 10
828.5
 20
348.27272727272725
 30
0.0
 40
3.5
  1
G
  7
GYM
 72
1
 11
828.5
 21
348.27272727272725
 31
0.0
100
AcDbText
 73
2
  0
LINE
  5
301
330
29E
100
AcDbEntity
 67
1
  8
G-PAFTA-ZON
370
13
100
AcDbLine
 10
20.0
 20
373.90909090909093
 30
0.0
 11
25.0
 21
373.90909090909093
 31
0.0
  0
LINE
  5
302
330
29E
100
AcDbEntity
 67
1
  8
G-PAFTA-ZON
370
13
100
AcDbLine
 10
826.0
 20
373.90909090909093
 30
0.0
 11
831.0
 21
373.90909090909093
 31
0.0
  0
TEXT
  5
303
330
29E
100
AcDbEntity
 67
1
  8
G-PAFTA-ZON
100
AcDbText
 10
22.5
 20
399.54545454545456
 30
0.0
 40
3.5
  1
H
  7
GYM
 72
1
 11
22.5
 21
399.54545454545456
 31
0.0
100
AcDbText
 73
2
  0
TEXT
  5
304
330
29E
100
AcDbEntity
 67
1
  8
G-PAFTA-ZON
100
AcDbText
 10
828.5
 20
399.54545454545456
 30
0.0
 40
3.5
  1
H
  7
GYM
 72
1
 11
828.5
 21
399.54545454545456
 31
0.0
100
AcDbText
 73
2
  0
LINE
  5
305
330
29E
100
AcDbEntity
 67
1
  8
G-PAFTA-ZON
370
13
100
AcDbLine
 10
20.0
 20
425.1818181818182
 30
0.0
 11
25.0
 21
425.1818181818182
 31
0.0
  0
LINE
  5
306
330
29E
100
AcDbEntity
 67
1
  8
G-PAFTA-ZON
370
13
100
AcDbLine
 10
826.0
 20
425.1818181818182
 30
0.0
 11
831.0
 21
425.1818181818182
 31
0.0
  0
TEXT
  5
307
330
29E
100
AcDbEntity
 67
1
  8
G-PAFTA-ZON
100
AcDbText
 10
22.5
 20
450.8181818181818
 30
0.0
 40
3.5
  1
J
  7
GYM
 72
1
 11
22.5
 21
450.8181818181818
 31
0.0
100
AcDbText
 73
2
  0
TEXT
  5
308
330
29E
100
AcDbEntity
 67
1
  8
G-PAFTA-ZON
100
AcDbText
 10
828.5
 20
450.8181818181818
 30
0.0
 40
3.5
  1
J
  7
GYM
 72
1
 11
828.5
 21
450.8181818181818
 31
0.0
100
AcDbText
 73
2
  0
LINE
  5
309
330
29E
100
AcDbEntity
 67
1
  8
G-PAFTA-ZON
370
13
100
AcDbLine
 10
20.0
 20
476.45454545454544
 30
0.0
 11
25.0
 21
476.45454545454544
 31
0.0
  0
LINE
  5
30A
330
29E
100
AcDbEntity
 67
1
  8
G-PAFTA-ZON
370
13
100
AcDbLine
 10
826.0
 20
476.45454545454544
 30
0.0
 11
831.0
 21
476.45454545454544
 31
0.0
  0
TEXT
  5
30B
330
29E
100
AcDbEntity
 67
1
  8
G-PAFTA-ZON
100
AcDbText
 10
22.5
 20
502.09090909090907
 30
0.0
 40
3.5
  1
K
  7
GYM
 72
1
 11
22.5
 21
502.09090909090907
 31
0.0
100
AcDbText
 73
2
  0
TEXT
  5
30C
330
29E
100
AcDbEntity
 67
1
  8
G-PAFTA-ZON
100
AcDbText
 10
828.5
 20
502.09090909090907
 30
0.0
 40
3.5
  1
K
  7
GYM
 72
1
 11
828.5
 21
502.09090909090907
 31
0.0
100
AcDbText
 73
2
  0
LINE
  5
30D
330
29E
100
AcDbEntity
 67
1
  8
G-PAFTA-ZON
370
13
100
AcDbLine
 10
20.0
 20
527.7272727272727
 30
0.0
 11
25.0
 21
527.7272727272727
 31
0.0
  0
LINE
  5
30E
330
29E
100
AcDbEntity
 67
1
  8
G-PAFTA-ZON
370
13
100
AcDbLine
 10
826.0
 20
527.7272727272727
 30
0.0
 11
831.0
 21
527.7272727272727
 31
0.0
  0
TEXT
  5
30F
330
29E
100
AcDbEntity
 67
1
  8
G-PAFTA-ZON
100
AcDbText
 10
22.5
 20
553.3636363636364
 30
0.0
 40
3.5
  1
L
  7
GYM
 72
1
 11
22.5
 21
553.3636363636364
 31
0.0
100
AcDbText
 73
2
  0
TEXT
  5
310
330
29E
100
AcDbEntity
 67
1
  8
G-PAFTA-ZON
100
AcDbText
 10
828.5
 20
553.3636363636364
 30
0.0
 40
3.5
  1
L
  7
GYM
 72
1
 11
828.5
 21
553.3636363636364
 31
0.0
100
AcDbText
 73
2
  0
LINE
  5
311
330
29E
100
AcDbEntity
 67
1
  8
G-CERCEVE
370
70
100
AcDbLine
 10
420.5
 20
0.0
 30
0.0
 11
420.5
 21
20.0
 31
0.0
  0
LINE
  5
312
330
29E
100
AcDbEntity
 67
1
  8
G-CERCEVE
370
70
100
AcDbLine
 10
420.5
 20
574.0
 30
0.0
 11
420.5
 21
594.0
 31
0.0
  0
LWPOLYLINE
  5
313
330
29E
100
AcDbEntity
 67
1
  8
G-CERCEVE
370
70
100
AcDbPolyline
 90
3
 70
1
 10
420.5
 20
593.0
 10
417.9
 20
586.0
 10
423.1
 20
586.0
  0
LINE
  5
314
330
29E
100
AcDbEntity
 67
1
  8
G-CERCEVE
370
70
100
AcDbLine
 10
0.0
 20
297.0
 30
0.0
 11
30.0
 21
297.0
 31
0.0
  0
LINE
  5
315
330
29E
100
AcDbEntity
 67
1
  8
G-CERCEVE
370
70
100
AcDbLine
 10
821.0
 20
297.0
 30
0.0
 11
841.0
 21
297.0
 31
0.0
  0
LWPOLYLINE
  5
316
330
29E
100
AcDbEntity
 67
1
  8
G-CERCEVE
370
70
100
AcDbPolyline
 90
3
 70
1
 10
1.0
 20
297.0
 10
8.0
 20
294.4
 10
8.0
 20
299.6
  0
TEXT
  5
317
330
29E
100
AcDbEntity
 67
1
  8
G-CERCEVE
100
AcDbText
 10
829.0
 20
5.0
 30
0.0
 40
2.5
  1
A1
  7
GYM
 72
2
 11
829.0
 21
5.0
 31
0.0
100
AcDbText
 73
2
  0
LWPOLYLINE
  5
318
330
29E
100
AcDbEntity
 67
1
  8
G-CERCEVE
370
35
100
AcDbPolyline
 90
4
 70
1
 10
450.5
 20
2.0
 10
550.5
 20
2.0
 10
550.5
 20
6.0
 10
450.5
 20
6.0
  0
LINE
  5
319
330
29E
100
AcDbEntity
 67
1
  8
G-CERCEVE
370
35
100
AcDbLine
 10
450.5
 20
2.0
 30
0.0
 11
450.5
 21
6.0
 31
0.0
  0
LINE
  5
31A
330
29E
100
AcDbEntity
 67
1
  8
G-CERCEVE
370
35
100
AcDbLine
 10
460.5
 20
2.0
 30
0.0
 11
460.5
 21
6.0
 31
0.0
  0
LINE
  5
31B
330
29E
100
AcDbEntity
 67
1
  8
G-CERCEVE
370
35
100
AcDbLine
 10
470.5
 20
2.0
 30
0.0
 11
470.5
 21
6.0
 31
0.0
  0
LINE
  5
31C
330
29E
100
AcDbEntity
 67
1
  8
G-CERCEVE
370
35
100
AcDbLine
 10
480.5
 20
2.0
 30
0.0
 11
480.5
 21
6.0
 31
0.0
  0
LINE
  5
31D
330
29E
100
AcDbEntity
 67
1
  8
G-CERCEVE
370
35
100
AcDbLine
 10
490.5
 20
2.0
 30
0.0
 11
490.5
 21
6.0
 31
0.0
  0
LINE
  5
31E
330
29E
100
AcDbEntity
 67
1
  8
G-CERCEVE
370
35
100
AcDbLine
 10
500.5
 20
2.0
 30
0.0
 11
500.5
 21
6.0
 31
0.0
  0
LINE
  5
31F
330
29E
100
AcDbEntity
 67
1
  8
G-CERCEVE
370
35
100
AcDbLine
 10
510.5
 20
2.0
 30
0.0
 11
510.5
 21
6.0
 31
0.0
  0
LINE
  5
320
330
29E
100
AcDbEntity
 67
1
  8
G-CERCEVE
370
35
100
AcDbLine
 10
520.5
 20
2.0
 30
0.0
 11
520.5
 21
6.0
 31
0.0
  0
LINE
  5
321
330
29E
100
AcDbEntity
 67
1
  8
G-CERCEVE
370
35
100
AcDbLine
 10
530.5
 20
2.0
 30
0.0
 11
530.5
 21
6.0
 31
0.0
  0
LINE
  5
322
330
29E
100
AcDbEntity
 67
1
  8
G-CERCEVE
370
35
100
AcDbLine
 10
540.5
 20
2.0
 30
0.0
 11
540.5
 21
6.0
 31
0.0
  0
LINE
  5
323
330
29E
100
AcDbEntity
 67
1
  8
G-CERCEVE
370
35
100
AcDbLine
 10
550.5
 20
2.0
 30
0.0
 11
550.5
 21
6.0
 31
0.0
  0
TEXT
  5
324
330
29E
100
AcDbEntity
 67
1
  8
G-CERCEVE
100
AcDbText
 10
554.5
 20
4.0
 30
0.0
 40
1.8
  1
100 mm
  7
GYM
 11
554.5
 21
4.0
 31
0.0
100
AcDbText
 73
2
  0
LWPOLYLINE
  5
325
330
29E
100
AcDbEntity
 67
1
  8
G-ANTET
370
100
100
AcDbPolyline
 90
4
 70
1
 10
651.0
 20
15.0
 10
831.0
 20
15.0
 10
831.0
 20
107.0
 10
651.0
 20
107.0
  0
LINE
  5
326
330
29E
100
AcDbEntity
 67
1
  8
G-ANTET
370
35
100
AcDbLine
 10
651.0
 20
25.0
 30
0.0
 11
831.0
 21
25.0
 31
0.0
  0
LINE
  5
327
330
29E
100
AcDbEntity
 67
1
  8
G-ANTET
370
35
100
AcDbLine
 10
651.0
 20
35.0
 30
0.0
 11
831.0
 21
35.0
 31
0.0
  0
LINE
  5
328
330
29E
100
AcDbEntity
 67
1
  8
G-ANTET
370
35
100
AcDbLine
 10
651.0
 20
45.0
 30
0.0
 11
831.0
 21
45.0
 31
0.0
  0
LINE
  5
329
330
29E
100
AcDbEntity
 67
1
  8
G-ANTET
370
35
100
AcDbLine
 10
651.0
 20
57.0
 30
0.0
 11
831.0
 21
57.0
 31
0.0
  0
LINE
  5
32A
330
29E
100
AcDbEntity
 67
1
  8
G-ANTET
370
35
100
AcDbLine
 10
651.0
 20
69.0
 30
0.0
 11
831.0
 21
69.0
 31
0.0
  0
LINE
  5
32B
330
29E
100
AcDbEntity
 67
1
  8
G-ANTET
370
35
100
AcDbLine
 10
651.0
 20
83.0
 30
0.0
 11
831.0
 21
83.0
 31
0.0
  0
LINE
  5
32C
330
29E
100
AcDbEntity
 67
1
  8
G-ANTET
370
35
100
AcDbLine
 10
711.0
 20
15.0
 30
0.0
 11
711.0
 21
45.0
 31
0.0
  0
LINE
  5
32D
330
29E
100
AcDbEntity
 67
1
  8
G-ANTET
370
35
100
AcDbLine
 10
771.0
 20
15.0
 30
0.0
 11
771.0
 21
45.0
 31
0.0
  0
LINE
  5
32E
330
29E
100
AcDbEntity
 67
1
  8
G-ANTET
370
35
100
AcDbLine
 10
769.0
 20
45.0
 30
0.0
 11
769.0
 21
69.0
 31
0.0
  0
TEXT
  5
32F
330
29E
100
AcDbEntity
 67
1
  8
G-ANTET
100
AcDbText
 10
652.6
 20
103.0
 30
0.0
 40
1.8
  1
İŞVEREN
  7
GYM
 11
652.6
 21
103.0
 31
0.0
100
AcDbText
 73
2
  0
TEXT
  5
330
330
29E
100
AcDbEntity
 67
1
  8
G-ANTET
100
AcDbText
 10
652.6
 20
98.0
 30
0.0
 40
2.5
  1
ÖZEL — MALTEPE / İDEALTEPE
  7
GYM
 11
652.6
 21
98.0
 31
0.0
100
AcDbText
 73
2
  0
TEXT
  5
331
330
29E
100
AcDbEntity
 67
1
  8
G-ANTET
100
AcDbText
 10
652.6
 20
93.0
 30
0.0
 40
1.8
  1
PROJE
  7
GYM
 11
652.6
 21
93.0
 31
0.0
100
AcDbText
 73
2
  0
TEXT
  5
332
330
29E
100
AcDbEntity
 67
1
  8
G-ANTET
100
AcDbText
 10
652.6
 20
87.2
 30
0.0
 40
3.5
  1
MOBİLYA MAĞAZASI → FONKSİYONEL ANTRENMAN STÜDYOSU
  7
GYM
 11
652.6
 21
87.2
 31
0.0
100
AcDbText
 73
2
  0
TEXT
  5
333
330
29E
100
AcDbEntity
 67
1
  8
G-ANTET
100
AcDbText
 10
652.6
 20
78.0
 30
0.0
 40
1.8
  1
YAPI / MAHAL
  7
GYM
 11
652.6
 21
78.0
 31
0.0
100
AcDbText
 73
2
  0
TEXT
  5
334
330
29E
100
AcDbEntity
 67
1
  8
G-ANTET
100
AcDbText
 10
652.6
 20
72.0
 30
0.0
 40
2.5
  1
İdealtepe Mah. · zemin kat dükkân · 103,78 m² iç alan
  7
GYM
 11
652.6
 21
72.0
 31
0.0
100
AcDbText
 73
2
  0
TEXT
  5
335
330
29E
100
AcDbEntity
 67
1
  8
G-ANTET
100
AcDbText
 10
771.4
 20
78.0
 30
0.0
 40
1.8
  1
DİSİPLİN
  7
GYM
 11
771.4
 21
78.0
 31
0.0
100
AcDbText
 73
2
  0
TEXT
  5
336
330
29E
100
AcDbEntity
 67
1
  8
G-ANTET
100
AcDbText
 10
771.4
 20
72.0
 30
0.0
 40
2.5
  1
MEKANİK TESİSAT
  7
GYM
 11
771.4
 21
72.0
 31
0.0
100
AcDbText
 73
2
  0
LINE
  5
337
330
29E
100
AcDbEntity
 67
1
  8
G-ANTET
370
35
100
AcDbLine
 10
769.0
 20
69.0
 30
0.0
 11
769.0
 21
83.0
 31
0.0
  0
TEXT
  5
338
330
29E
100
AcDbEntity
 67
1
  8
G-ANTET
100
AcDbText
 10
652.6
 20
65.0
 30
0.0
 40
1.8
  1
PAFTA ADI
  7
GYM
 11
652.6
 21
65.0
 31
0.0
100
AcDbText
 73
2
  0
TEXT
  5
339
330
29E
100
AcDbEntity
 67
1
  8
G-ANTET
100
AcDbText
 10
652.6
 20
59.8
 30
0.0
 40
3.5
  1
HAVALANDIRMA PLANI
  7
GYM
 11
652.6
 21
59.8
 31
0.0
100
AcDbText
 73
2
  0
TEXT
  5
33A
330
29E
100
AcDbEntity
 67
1
  8
G-ANTET
100
AcDbText
 10
771.4
 20
59.8
 30
0.0
 40
1.8
  1
Kanal güzergâhı · menfez debileri
  7
GYM
 11
771.4
 21
59.8
 31
0.0
100
AcDbText
 73
2
  0
TEXT
  5
33B
330
29E
100
AcDbEntity
 67
1
  8
G-ANTET
100
AcDbText
 10
652.6
 20
53.0
 30
0.0
 40
1.8
  1
PROJE MÜELLİFİ · ODA SİCİL NO
  7
GYM
 11
652.6
 21
53.0
 31
0.0
100
AcDbText
 73
2
  0
TEXT
  5
33C
330
29E
100
AcDbEntity
 67
1
  8
G-ANTET
100
AcDbText
 10
652.6
 20
47.8
 30
0.0
 40
2.5
  1
—   Oda sicil no: —
  7
GYM
 11
652.6
 21
47.8
 31
0.0
100
AcDbText
 73
2
  0
TEXT
  5
33D
330
29E
100
AcDbEntity
 67
1
  8
G-ANTET
100
AcDbText
 10
652.6
 20
42.0
 30
0.0
 40
1.8
  1
ÇİZEN
  7
GYM
 11
652.6
 21
42.0
 31
0.0
100
AcDbText
 73
2
  0
TEXT
  5
33E
330
29E
100
AcDbEntity
 67
1
  8
G-ANTET
100
AcDbText
 10
652.6
 20
37.6
 30
0.0
 40
2.5
  1
CC
  7
GYM
 11
652.6
 21
37.6
 31
0.0
100
AcDbText
 73
2
  0
TEXT
  5
33F
330
29E
100
AcDbEntity
 67
1
  8
G-ANTET
100
AcDbText
 10
712.6
 20
42.0
 30
0.0
 40
1.8
  1
KONTROL
  7
GYM
 11
712.6
 21
42.0
 31
0.0
100
AcDbText
 73
2
  0
TEXT
  5
340
330
29E
100
AcDbEntity
 67
1
  8
G-ANTET
100
AcDbText
 10
712.6
 20
37.6
 30
0.0
 40
2.5
  1
—
  7
GYM
 11
712.6
 21
37.6
 31
0.0
100
AcDbText
 73
2
  0
TEXT
  5
341
330
29E
100
AcDbEntity
 67
1
  8
G-ANTET
100
AcDbText
 10
772.6
 20
42.0
 30
0.0
 40
1.8
  1
ONAY
  7
GYM
 11
772.6
 21
42.0
 31
0.0
100
AcDbText
 73
2
  0
TEXT
  5
342
330
29E
100
AcDbEntity
 67
1
  8
G-ANTET
100
AcDbText
 10
772.6
 20
37.6
 30
0.0
 40
2.5
  1
—
  7
GYM
 11
772.6
 21
37.6
 31
0.0
100
AcDbText
 73
2
  0
TEXT
  5
343
330
29E
100
AcDbEntity
 67
1
  8
G-ANTET
100
AcDbText
 10
652.6
 20
32.0
 30
0.0
 40
1.8
  1
TARİH
  7
GYM
 11
652.6
 21
32.0
 31
0.0
100
AcDbText
 73
2
  0
TEXT
  5
344
330
29E
100
AcDbEntity
 67
1
  8
G-ANTET
100
AcDbText
 10
652.6
 20
27.6
 30
0.0
 40
2.5
  1
17 Eylül 2026
  7
GYM
 11
652.6
 21
27.6
 31
0.0
100
AcDbText
 73
2
  0
TEXT
  5
345
330
29E
100
AcDbEntity
 67
1
  8
G-ANTET
100
AcDbText
 10
712.6
 20
32.0
 30
0.0
 40
1.8
  1
ÖLÇEK
  7
GYM
 11
712.6
 21
32.0
 31
0.0
100
AcDbText
 73
2
  0
TEXT
  5
346
330
29E
100
AcDbEntity
 67
1
  8
G-ANTET
100
AcDbText
 10
712.6
 20
27.6
 30
0.0
 40
3.5
  1
1:50
  7
GYM
 11
712.6
 21
27.6
 31
0.0
100
AcDbText
 73
2
  0
TEXT
  5
347
330
29E
100
AcDbEntity
 67
1
  8
G-ANTET
100
AcDbText
 10
772.6
 20
32.0
 30
0.0
 40
1.8
  1
BİRİM
  7
GYM
 11
772.6
 21
32.0
 31
0.0
100
AcDbText
 73
2
  0
TEXT
  5
348
330
29E
100
AcDbEntity
 67
1
  8
G-ANTET
100
AcDbText
 10
772.6
 20
27.6
 30
0.0
 40
2.5
  1
milimetre (mm)
  7
GYM
 11
772.6
 21
27.6
 31
0.0
100
AcDbText
 73
2
  0
TEXT
  5
349
330
29E
100
AcDbEntity
 67
1
  8
G-ANTET
100
AcDbText
 10
652.6
 20
22.0
 30
0.0
 40
1.8
  1
DURUM
  7
GYM
 11
652.6
 21
22.0
 31
0.0
100
AcDbText
 73
2
  0
TEXT
  5
34A
330
29E
100
AcDbEntity
 67
1
  8
G-ANTET
100
AcDbText
 10
652.6
 20
17.6
 30
0.0
 40
2.5
  1
ÖN TASARIM
  7
GYM
 11
652.6
 21
17.6
 31
0.0
100
AcDbText
 73
2
  0
TEXT
  5
34B
330
29E
100
AcDbEntity
 67
1
  8
G-ANTET
100
AcDbText
 10
712.6
 20
22.0
 30
0.0
 40
1.8
  1
PAFTA NO
  7
GYM
 11
712.6
 21
22.0
 31
0.0
100
AcDbText
 73
2
  0
TEXT
  5
34C
330
29E
100
AcDbEntity
 67
1
  8
G-ANTET
100
AcDbText
 10
712.6
 20
17.6
 30
0.0
 40
5.0
  1
M-01
  7
GYM
 11
712.6
 21
17.6
 31
0.0
100
AcDbText
 73
2
  0
TEXT
  5
34D
330
29E
100
AcDbEntity
 67
1
  8
G-ANTET
100
AcDbText
 10
772.6
 20
22.0
 30
0.0
 40
1.8
  1
REV
  7
GYM
 11
772.6
 21
22.0
 31
0.0
100
AcDbText
 73
2
  0
TEXT
  5
34E
330
29E
100
AcDbEntity
 67
1
  8
G-ANTET
100
AcDbText
 10
772.6
 20
17.6
 30
0.0
 40
5.0
  1
H
  7
GYM
 11
772.6
 21
17.6
 31
0.0
100
AcDbText
 73
2
  0
TEXT
  5
34F
330
29E
100
AcDbEntity
 67
1
  8
G-ANTET
100
AcDbText
 10
801.0
 20
18.0
 30
0.0
 40
1.8
  1
SONRAKİ: M-02
  7
GYM
 11
801.0
 21
18.0
 31
0.0
100
AcDbText
 73
2
  0
LWPOLYLINE
  5
350
330
29E
100
AcDbEntity
 67
1
  8
G-ANTET
370
50
100
AcDbPolyline
 90
4
 70
1
 10
651.0
 20
107.0
 10
831.0
 20
107.0
 10
831.0
 20
143.0
 10
651.0
 20
143.0
  0
LINE
  5
351
330
29E
100
AcDbEntity
 67
1
  8
G-ANTET
370
18
100
AcDbLine
 10
651.0
 20
107.0
 30
0.0
 11
831.0
 21
107.0
 31
0.0
  0
LINE
  5
352
330
29E
100
AcDbEntity
 67
1
  8
G-ANTET
370
18
100
AcDbLine
 10
651.0
 20
113.0
 30
0.0
 11
831.0
 21
113.0
 31
0.0
  0
LINE
  5
353
330
29E
100
AcDbEntity
 67
1
  8
G-ANTET
370
18
100
AcDbLine
 10
651.0
 20
119.0
 30
0.0
 11
831.0
 21
119.0
 31
0.0
  0
LINE
  5
354
330
29E
100
AcDbEntity
 67
1
  8
G-ANTET
370
18
100
AcDbLine
 10
651.0
 20
125.0
 30
0.0
 11
831.0
 21
125.0
 31
0.0
  0
LINE
  5
355
330
29E
100
AcDbEntity
 67
1
  8
G-ANTET
370
18
100
AcDbLine
 10
651.0
 20
131.0
 30
0.0
 11
831.0
 21
131.0
 31
0.0
  0
LINE
  5
356
330
29E
100
AcDbEntity
 67
1
  8
G-ANTET
370
18
100
AcDbLine
 10
651.0
 20
137.0
 30
0.0
 11
831.0
 21
137.0
 31
0.0
  0
LINE
  5
357
330
29E
100
AcDbEntity
 67
1
  8
G-ANTET
370
18
100
AcDbLine
 10
663.0
 20
107.0
 30
0.0
 11
663.0
 21
143.0
 31
0.0
  0
LINE
  5
358
330
29E
100
AcDbEntity
 67
1
  8
G-ANTET
370
18
100
AcDbLine
 10
687.0
 20
107.0
 30
0.0
 11
687.0
 21
143.0
 31
0.0
  0
LINE
  5
359
330
29E
100
AcDbEntity
 67
1
  8
G-ANTET
370
18
100
AcDbLine
 10
777.0
 20
107.0
 30
0.0
 11
777.0
 21
143.0
 31
0.0
  0
LINE
  5
35A
330
29E
100
AcDbEntity
 67
1
  8
G-ANTET
370
18
100
AcDbLine
 10
795.0
 20
107.0
 30
0.0
 11
795.0
 21
143.0
 31
0.0
  0
LINE
  5
35B
330
29E
100
AcDbEntity
 67
1
  8
G-ANTET
370
18
100
AcDbLine
 10
813.0
 20
107.0
 30
0.0
 11
813.0
 21
143.0
 31
0.0
  0
TEXT
  5
35C
330
29E
100
AcDbEntity
 67
1
  8
G-ANTET
100
AcDbText
 10
652.2
 20
140.0
 30
0.0
 40
1.8
  1
REV
  7
GYM
 11
652.2
 21
140.0
 31
0.0
100
AcDbText
 73
2
  0
TEXT
  5
35D
330
29E
100
AcDbEntity
 67
1
  8
G-ANTET
100
AcDbText
 10
664.2
 20
140.0
 30
0.0
 40
1.8
  1
TARİH
  7
GYM
 11
664.2
 21
140.0
 31
0.0
100
AcDbText
 73
2
  0
TEXT
  5
35E
330
29E
100
AcDbEntity
 67
1
  8
G-ANTET
100
AcDbText
 10
688.2
 20
140.0
 30
0.0
 40
1.8
  1
AÇIKLAMA
  7
GYM
 11
688.2
 21
140.0
 31
0.0
100
AcDbText
 73
2
  0
TEXT
  5
35F
330
29E
100
AcDbEntity
 67
1
  8
G-ANTET
100
AcDbText
 10
778.2
 20
140.0
 30
0.0
 40
1.8
  1
ÇZ
  7
GYM
 11
778.2
 21
140.0
 31
0.0
100
AcDbText
 73
2
  0
TEXT
  5
360
330
29E
100
AcDbEntity
 67
1
  8
G-ANTET
100
AcDbText
 10
796.2
 20
140.0
 30
0.0
 40
1.8
  1
KT
  7
GYM
 11
796.2
 21
140.0
 31
0.0
100
AcDbText
 73
2
  0
TEXT
  5
361
330
29E
100
AcDbEntity
 67
1
  8
G-ANTET
100
AcDbText
 10
814.2
 20
140.0
 30
0.0
 40
1.8
  1
ON
  7
GYM
 11
814.2
 21
140.0
 31
0.0
100
AcDbText
 73
2
  0
TEXT
  5
362
330
29E
100
AcDbEntity
 67
1
  8
G-ANTET
100
AcDbText
 10
652.2
 20
134.0
 30
0.0
 40
1.8
  1
A
  7
GYM
 11
652.2
 21
134.0
 31
0.0
100
AcDbText
 73
2
  0
TEXT
  5
363
330
29E
100
AcDbEntity
 67
1
  8
G-ANTET
100
AcDbText
 10
664.2
 20
134.0
 30
0.0
 40
1.8
  1
17.09.2026
  7
GYM
 11
664.2
 21
134.0
 31
0.0
100
AcDbText
 73
2
  0
TEXT
  5
364
330
29E
100
AcDbEntity
 67
1
  8
G-ANTET
100
AcDbText
 10
688.2
 20
134.0
 30
0.0
 40
1.8
  1
İlk yayın — ön tasarım
  7
GYM
 11
688.2
 21
134.0
 31
0.0
100
AcDbText
 73
2
  0
TEXT
  5
365
330
29E
100
AcDbEntity
 67
1
  8
G-ANTET
100
AcDbText
 10
778.2
 20
134.0
 30
0.0
 40
1.8
  1
CC
  7
GYM
 11
778.2
 21
134.0
 31
0.0
100
AcDbText
 73
2
  0
TEXT
  5
366
330
29E
100
AcDbEntity
 67
1
  8
G-ANTET
100
AcDbText
 10
796.2
 20
134.0
 30
0.0
 40
1.8
  1
—
  7
GYM
 11
796.2
 21
134.0
 31
0.0
100
AcDbText
 73
2
  0
TEXT
  5
367
330
29E
100
AcDbEntity
 67
1
  8
G-ANTET
100
AcDbText
 10
814.2
 20
134.0
 30
0.0
 40
1.8
  1
—
  7
GYM
 11
814.2
 21
134.0
 31
0.0
100
AcDbText
 73
2
  0
TEXT
  5
368
330
29E
100
AcDbEntity
 67
1
  8
G-ANTET
100
AcDbText
 10
652.2
 20
128.0
 30
0.0
 40
1.8
  1
B
  7
GYM
 11
652.2
 21
128.0
 31
0.0
100
AcDbText
 73
2
  0
TEXT
  5
369
330
29E
100
AcDbEntity
 67
1
  8
G-ANTET
100
AcDbText
 10
664.2
 20
128.0
 30
0.0
 40
1.8
  1
18.09.2026
  7
GYM
 11
664.2
 21
128.0
 31
0.0
100
AcDbText
 73
2
  0
TEXT
  5
36A
330
29E
100
AcDbEntity
 67
1
  8
G-ANTET
100
AcDbText
 10
688.2
 20
128.0
 30
0.0
 40
1.8
  1
Aks sistemi, zincir ölçü, ISO 5457/7200 pafta
  7
GYM
 11
688.2
 21
128.0
 31
0.0
100
AcDbText
 73
2
  0
TEXT
  5
36B
330
29E
100
AcDbEntity
 67
1
  8
G-ANTET
100
AcDbText
 10
778.2
 20
128.0
 30
0.0
 40
1.8
  1
CC
  7
GYM
 11
778.2
 21
128.0
 31
0.0
100
AcDbText
 73
2
  0
TEXT
  5
36C
330
29E
100
AcDbEntity
 67
1
  8
G-ANTET
100
AcDbText
 10
796.2
 20
128.0
 30
0.0
 40
1.8
  1
—
  7
GYM
 11
796.2
 21
128.0
 31
0.0
100
AcDbText
 73
2
  0
TEXT
  5
36D
330
29E
100
AcDbEntity
 67
1
  8
G-ANTET
100
AcDbText
 10
814.2
 20
128.0
 30
0.0
 40
1.8
  1
—
  7
GYM
 11
814.2
 21
128.0
 31
0.0
100
AcDbText
 73
2
  0
TEXT
  5
36E
330
29E
100
AcDbEntity
 67
1
  8
G-ANTET
100
AcDbText
 10
652.2
 20
122.0
 30
0.0
 40
1.8
  1
C
  7
GYM
 11
652.2
 21
122.0
 31
0.0
100
AcDbText
 73
2
  0
TEXT
  5
36F
330
29E
100
AcDbEntity
 67
1
  8
G-ANTET
100
AcDbText
 10
664.2
 20
122.0
 30
0.0
 40
1.8
  1
18.09.2026
  7
GYM
 11
664.2
 21
122.0
 31
0.0
100
AcDbText
 73
2
  0
TEXT
  5
370
330
29E
100
AcDbEntity
 67
1
  8
G-ANTET
100
AcDbText
 10
688.2
 20
122.0
 30
0.0
 40
1.8
  1
A1 pafta, tekil DXF, ADP şeması CAD'de
  7
GYM
 11
688.2
 21
122.0
 31
0.0
100
AcDbText
 73
2
  0
TEXT
  5
371
330
29E
100
AcDbEntity
 67
1
  8
G-ANTET
100
AcDbText
 10
778.2
 20
122.0
 30
0.0
 40
1.8
  1
CC
  7
GYM
 11
778.2
 21
122.0
 31
0.0
100
AcDbText
 73
2
  0
TEXT
  5
372
330
29E
100
AcDbEntity
 67
1
  8
G-ANTET
100
AcDbText
 10
796.2
 20
122.0
 30
0.0
 40
1.8
  1
—
  7
GYM
 11
796.2
 21
122.0
 31
0.0
100
AcDbText
 73
2
  0
TEXT
  5
373
330
29E
100
AcDbEntity
 67
1
  8
G-ANTET
100
AcDbText
 10
814.2
 20
122.0
 30
0.0
 40
1.8
  1
—
  7
GYM
 11
814.2
 21
122.0
 31
0.0
100
AcDbText
 73
2
  0
TEXT
  5
374
330
29E
100
AcDbEntity
 67
1
  8
G-ANTET
100
AcDbText
 10
652.2
 20
116.0
 30
0.0
 40
1.8
  1
D
  7
GYM
 11
652.2
 21
116.0
 31
0.0
100
AcDbText
 73
2
  0
TEXT
  5
375
330
29E
100
AcDbEntity
 67
1
  8
G-ANTET
100
AcDbText
 10
664.2
 20
116.0
 30
0.0
 40
1.8
  1
18.09.2026
  7
GYM
 11
664.2
 21
116.0
 31
0.0
100
AcDbText
 73
2
  0
TEXT
  5
376
330
29E
100
AcDbEntity
 67
1
  8
G-ANTET
100
AcDbText
 10
688.2
 20
116.0
 30
0.0
 40
1.8
  1
ADP çok hatlı şema (faz ayrımı), B eğrisi, ana RCD
  7
GYM
 11
688.2
 21
116.0
 31
0.0
100
AcDbText
 73
2
  0
TEXT
  5
377
330
29E
100
AcDbEntity
 67
1
  8
G-ANTET
100
AcDbText
 10
778.2
 20
116.0
 30
0.0
 40
1.8
  1
CC
  7
GYM
 11
778.2
 21
116.0
 31
0.0
100
AcDbText
 73
2
  0
TEXT
  5
378
330
29E
100
AcDbEntity
 67
1
  8
G-ANTET
100
AcDbText
 10
796.2
 20
116.0
 30
0.0
 40
1.8
  1
—
  7
GYM
 11
796.2
 21
116.0
 31
0.0
100
AcDbText
 73
2
  0
TEXT
  5
379
330
29E
100
AcDbEntity
 67
1
  8
G-ANTET
100
AcDbText
 10
814.2
 20
116.0
 30
0.0
 40
1.8
  1
—
  7
GYM
 11
814.2
 21
116.0
 31
0.0
100
AcDbText
 73
2
  0
VIEWPORT
  5
37A
330
29E
100
AcDbEntity
 67
1
  8
G-VIEWPORT
100
AcDbViewport
 10
337.0
 20
297.0
 30
0.0
 40
616.0
 41
556.0
 68
1
 69
3
 12
5781.402523373163
 22
6494.971236472614
 13
0.0
 23
0.0
 14
10.0
 24
10.0
 15
10.0
 25
10.0
 16
0.0
 26
0.0
 36
1.0
 17
0.0
 27
0.0
 37
0.0
 42
50.0
 43
0.0
 44
0.0
 45
27800.0
 50
0.0
 51
0.0
 72
100
331
A3
331
A4
331
A5
331
A6
331
A7
331
A8
331
A9
331
AA
331
AC
331
AD
331
AE
331
AF
331
B0
331
B1
331
B2
331
B3
331
B4
331
B5
331
B6
331
B7
331
B8
331
B9
331
BA
331
BB
331
BC
331
BD
331
BE
331
BF
331
C0
331
C1
331
C2
331
C3
331
C4
331
C5
331
C6
331
C7
331
C8
331
C9
331
CA
331
CB
331
CC
331
CD
331
CE
331
CF
331
D0
331
D1
331
D2
331
D3
331
D4
 90
0
  1

281
0
 71
0
 74
0
110
0.0
120
0.0
130
0.0
111
1.0
121
0.0
131
0.0
112
0.0
122
1.0
132
0.0
 79
0
146
0.0
282
0
  0
LWPOLYLINE
  5
37B
330
29E
100
AcDbEntity
 67
1
  8
G-CERCEVE
370
18
100
AcDbPolyline
 90
4
 70
1
 10
29.0
 20
19.0
 10
645.0
 20
19.0
 10
645.0
 20
575.0
 10
29.0
 20
575.0
  0
CIRCLE
  5
37C
330
29E
100
AcDbEntity
 67
1
  8
G-ANTET
370
35
100
AcDbCircle
 10
628.0
 20
558.0
 30
0.0
 40
9.0
  0
LWPOLYLINE
  5
37D
330
29E
100
AcDbEntity
 67
1
  8
G-ANTET
370
50
100
AcDbPolyline
 90
4
 70
1
 10
628.0
 20
565.74
 10
624.94
 20
553.32
 10
628.0
 20
556.38
 10
631.06
 20
553.32
  0
HATCH
  5
37E
330
29E
100
AcDbEntity
 67
1
  8
G-ANTET
 62
7
100
AcDbHatch
 10
0.0
 20
0.0
 30
0.0
210
0.0
220
0.0
230
1.0
  2
SOLID
 70
1
 71
0
 91
1
 92
3
 72
0
 73
1
 93
3
 10
628.0
 20
565.74
 10
624.94
 20
553.32
 10
628.0
 20
556.38
 97
0
 75
0
 76
1
 98
0
  0
TEXT
  5
37F
330
29E
100
AcDbEntity
 67
1
  8
G-ANTET
100
AcDbText
 10
628.0
 20
545.0
 30
0.0
 40
3.5
  1
K
  7
GYM
 72
1
 11
628.0
 21
545.0
 31
0.0
100
AcDbText
 73
2
  0
HATCH
  5
380
330
29E
100
AcDbEntity
 67
1
  8
G-ANTET
 62
7
100
AcDbHatch
 10
0.0
 20
0.0
 30
0.0
210
0.0
220
0.0
230
1.0
  2
SOLID
 70
1
 71
0
 91
1
 92
3
 72
0
 73
1
 93
4
 10
37.0
 20
27.0
 10
57.0
 20
27.0
 10
57.0
 20
29.2
 10
37.0
 20
29.2
 97
0
 75
0
 76
1
 98
0
  0
LWPOLYLINE
  5
381
330
29E
100
AcDbEntity
 67
1
  8
G-ANTET
370
18
100
AcDbPolyline
 90
4
 70
1
 10
37.0
 20
27.0
 10
57.0
 20
27.0
 10
57.0
 20
29.2
 10
37.0
 20
29.2
  0
HATCH
  5
382
330
29E
100
AcDbEntity
 67
1
  8
G-ANTET
 62
0
100
AcDbHatch
 10
0.0
 20
0.0
 30
0.0
210
0.0
220
0.0
230
1.0
  2
SOLID
 70
1
 71
0
 91
1
 92
3
 72
0
 73
1
 93
4
 10
57.0
 20
27.0
 10
77.0
 20
27.0
 10
77.0
 20
29.2
 10
57.0
 20
29.2
 97
0
 75
0
 76
1
 98
0
  0
LWPOLYLINE
  5
383
330
29E
100
AcDbEntity
 67
1
  8
G-ANTET
370
18
100
AcDbPolyline
 90
4
 70
1
 10
57.0
 20
27.0
 10
77.0
 20
27.0
 10
77.0
 20
29.2
 10
57.0
 20
29.2
  0
HATCH
  5
384
330
29E
100
AcDbEntity
 67
1
  8
G-ANTET
 62
7
100
AcDbHatch
 10
0.0
 20
0.0
 30
0.0
210
0.0
220
0.0
230
1.0
  2
SOLID
 70
1
 71
0
 91
1
 92
3
 72
0
 73
1
 93
4
 10
77.0
 20
27.0
 10
97.0
 20
27.0
 10
97.0
 20
29.2
 10
77.0
 20
29.2
 97
0
 75
0
 76
1
 98
0
  0
LWPOLYLINE
  5
385
330
29E
100
AcDbEntity
 67
1
  8
G-ANTET
370
18
100
AcDbPolyline
 90
4
 70
1
 10
77.0
 20
27.0
 10
97.0
 20
27.0
 10
97.0
 20
29.2
 10
77.0
 20
29.2
  0
HATCH
  5
386
330
29E
100
AcDbEntity
 67
1
  8
G-ANTET
 62
0
100
AcDbHatch
 10
0.0
 20
0.0
 30
0.0
210
0.0
220
0.0
230
1.0
  2
SOLID
 70
1
 71
0
 91
1
 92
3
 72
0
 73
1
 93
4
 10
97.0
 20
27.0
 10
117.0
 20
27.0
 10
117.0
 20
29.2
 10
97.0
 20
29.2
 97
0
 75
0
 76
1
 98
0
  0
LWPOLYLINE
  5
387
330
29E
100
AcDbEntity
 67
1
  8
G-ANTET
370
18
100
AcDbPolyline
 90
4
 70
1
 10
97.0
 20
27.0
 10
117.0
 20
27.0
 10
117.0
 20
29.2
 10
97.0
 20
29.2
  0
HATCH
  5
388
330
29E
100
AcDbEntity
 67
1
  8
G-ANTET
 62
7
100
AcDbHatch
 10
0.0
 20
0.0
 30
0.0
210
0.0
220
0.0
230
1.0
  2
SOLID
 70
1
 71
0
 91
1
 92
3
 72
0
 73
1
 93
4
 10
117.0
 20
27.0
 10
137.0
 20
27.0
 10
137.0
 20
29.2
 10
117.0
 20
29.2
 97
0
 75
0
 76
1
 98
0
  0
LWPOLYLINE
  5
389
330
29E
100
AcDbEntity
 67
1
  8
G-ANTET
370
18
100
AcDbPolyline
 90
4
 70
1
 10
117.0
 20
27.0
 10
137.0
 20
27.0
 10
137.0
 20
29.2
 10
117.0
 20
29.2
  0
TEXT
  5
38A
330
29E
100
AcDbEntity
 67
1
  8
G-ANTET
100
AcDbText
 10
37.0
 20
23.8
 30
0.0
 40
1.8
  1
0
  7
GYM
 72
1
 11
37.0
 21
23.8
 31
0.0
100
AcDbText
 73
2
  0
TEXT
  5
38B
330
29E
100
AcDbEntity
 67
1
  8
G-ANTET
100
AcDbText
 10
57.0
 20
23.8
 30
0.0
 40
1.8
  1
1
  7
GYM
 72
1
 11
57.0
 21
23.8
 31
0.0
100
AcDbText
 73
2
  0
TEXT
  5
38C
330
29E
100
AcDbEntity
 67
1
  8
G-ANTET
100
AcDbText
 10
77.0
 20
23.8
 30
0.0
 40
1.8
  1
2
  7
GYM
 72
1
 11
77.0
 21
23.8
 31
0.0
100
AcDbText
 73
2
  0
TEXT
  5
38D
330
29E
100
AcDbEntity
 67
1
  8
G-ANTET
100
AcDbText
 10
97.0
 20
23.8
 30
0.0
 40
1.8
  1
3
  7
GYM
 72
1
 11
97.0
 21
23.8
 31
0.0
100
AcDbText
 73
2
  0
TEXT
  5
38E
330
29E
100
AcDbEntity
 67
1
  8
G-ANTET
100
AcDbText
 10
117.0
 20
23.8
 30
0.0
 40
1.8
  1
4
  7
GYM
 72
1
 11
117.0
 21
23.8
 31
0.0
100
AcDbText
 73
2
  0
TEXT
  5
38F
330
29E
100
AcDbEntity
 67
1
  8
G-ANTET
100
AcDbText
 10
137.0
 20
23.8
 30
0.0
 40
1.8
  1
5
  7
GYM
 72
1
 11
137.0
 21
23.8
 31
0.0
100
AcDbText
 73
2
  0
TEXT
  5
390
330
29E
100
AcDbEntity
 67
1
  8
G-ANTET
100
AcDbText
 10
140.0
 20
28.1
 30
0.0
 40
1.8
  1
m
  7
GYM
 11
140.0
 21
28.1
 31
0.0
100
AcDbText
 73
2
  0
TEXT
  5
391
330
29E
100
AcDbEntity
 67
1
  8
G-ANTET
100
AcDbText
 10
37.0
 20
31.0
 30
0.0
 40
1.8
  1
ÖLÇEK 1:50
  7
GYM
 11
37.0
 21
31.0
 31
0.0
100
AcDbText
 73
2
  0
LWPOLYLINE
  5
392
330
29E
100
AcDbEntity
 67
1
  8
G-ANTET
 62
1
370
50
100
AcDbPolyline
 90
4
 70
1
 10
573.0
 20
27.0
 10
643.0
 20
27.0
 10
643.0
 20
36.0
 10
573.0
 20
36.0
  0
TEXT
  5
393
330
29E
100
AcDbEntity
 67
1
  8
G-ANTET
 62
1
100
AcDbText
 10
608.0
 20
31.5
 30
0.0
 40
1.8
  1
ÖN TASARIM — UYGULAMA İÇİN DEĞİLDİR
  7
GYM
 72
1
 11
608.0
 21
31.5
 31
0.0
100
AcDbText
 73
2
  0
TEXT
  5
394
330
29E
100
AcDbEntity
 67
1
  8
G-YAZI
100
AcDbText
 10
31.0
 20
577.2
 30
0.0
 40
1.8
  1
ÖLÇÜ ALINMAZ — YAZILI ÖLÇÜLER GEÇERLİDİR
  7
GYM
 11
31.0
 21
577.2
 31
0.0
100
AcDbText
 73
2
  0
TEXT
  5
395
330
29E
100
AcDbEntity
 67
1
  8
G-YAZI
100
AcDbText
 10
651.0
 20
573.0
 30
0.0
 40
3.5
  1
ANAHTAR PLAN
  7
GYM
 11
651.0
 21
573.0
 31
0.0
100
AcDbText
 73
2
  0
LINE
  5
396
330
29E
100
AcDbEntity
 67
1
  8
G-YAZI
370
35
100
AcDbLine
 10
651.0
 20
570.6
 30
0.0
 11
831.0
 21
570.6
 31
0.0
  0
LWPOLYLINE
  5
397
330
29E
100
AcDbEntity
 67
1
  8
G-ANTET
370
35
100
AcDbPolyline
 90
4
 70
1
 10
651.0
 20
518.0
 10
831.0
 20
518.0
 10
831.0
 20
566.0
 10
651.0
 20
566.0
  0
LWPOLYLINE
  5
398
330
29E
100
AcDbEntity
 67
1
  8
G-ANTET
370
35
100
AcDbPolyline
 90
28
 70
1
 10
757.1062355658198
 20
537.270207852194
 10
758.8029253271748
 20
525.3995381062356
 10
755.3941493456505
 20
525.2209391839876
 10
755.2217090069284
 20
526.7482678983833
 10
754.3471901462664
 20
526.7174749807544
 10
754.4518860662048
 20
525.1347190146266
 10
752.5349479953162
 20
523.6045316071629
 10
752.545804464973
 20
523.5334872979215
 10
750.676674364896
 20
522.0
 10
733.1770592763664
 20
522.0
 10
729.2232486528098
 20
526.788298691301
 10
728.5304080061586
 20
525.3102386451117
 10
724.9799846035412
 20
525.8398768283295
 10
723.1970746728252
 20
543.0623556581986
 10
726.6951501154734
 20
543.342571208622
 10
725.8237105465743
 20
547.7798306389531
 10
742.8799076212471
 20
549.6058506543495
 10
741.1801385681293
 20
560.4880677444188
 10
753.6358737490377
 20
562.0
 10
755.5019245573518
 20
549.008468052348
 10
748.7983063895304
 20
548.0569668976135
 10
749.3267740458115
 20
544.5986953983345
 10
748.8444957659738
 20
548.0015396458814
 10
755.4464973056197
 20
548.9530408006159
 10
757.0569668976135
 20
537.6428021555042
 10
750.53138234719
 20
536.7157861853696
 10
750.5883503174795
 20
536.3429900346829
 10
757.1062355658198
 20
537.270207852194
  0
LWPOLYLINE
  5
399
330
29E
100
AcDbEntity
 67
1
  8
G-ANTET
370
13
100
AcDbPolyline
 90
5
 70
1
 10
755.4464973056197
 20
548.9530408006159
 10
748.8444957659738
 20
548.0015396458814
 10
750.445727482679
 20
536.7036181678214
 10
757.0569668976135
 20
537.6428021555042
 10
755.4464973056197
 20
548.9530408006159
  0
LWPOLYLINE
  5
39A
330
29E
100
AcDbEntity
 67
1
  8
G-ANTET
370
13
100
AcDbPolyline
 90
9
 70
1
 10
757.1062355658198
 20
537.270207852194
 10
750.504234026174
 20
536.3310238645112
 10
752.3456505003849
 20
523.4534257120862
 10
754.4518860662048
 20
525.1347190146266
 10
754.3471901462664
 20
526.7174749807544
 10
755.2217090069284
 20
526.7482678983833
 10
755.3941493456505
 20
525.2209391839876
 10
758.8029253271748
 20
525.3995381062356
 10
757.1062355658198
 20
537.270207852194
  0
TEXT
  5
39B
330
29E
100
AcDbEntity
 67
1
  8
G-YAZI
100
AcDbText
 10
651.0
 20
514.0
 30
0.0
 40
3.5
  1
LEJANT
  7
GYM
 11
651.0
 21
514.0
 31
0.0
100
AcDbText
 73
2
  0
LINE
  5
39C
330
29E
100
AcDbEntity
 67
1
  8
G-YAZI
370
35
100
AcDbLine
 10
651.0
 20
511.6
 30
0.0
 11
831.0
 21
511.6
 31
0.0
  0
LINE
  5
39D
330
29E
100
AcDbEntity
 67
1
  8
G-ANTET
  6
Continuous
 62
8
370
35
100
AcDbLine
 10
651.0
 20
507.0
 30
0.0
 11
663.0
 21
507.0
 31
0.0
  0
TEXT
  5
39E
330
29E
100
AcDbEntity
 67
1
  8
G-YAZI
100
AcDbText
 10
666.0
 20
507.0
 30
0.0
 40
1.8
  1
Mimari — mevcut duvar (korunuyor)
  7
GYM
 11
666.0
 21
507.0
 31
0.0
100
AcDbText
 73
2
  0
LINE
  5
39F
330
29E
100
AcDbEntity
 67
1
  8
G-ANTET
  6
Continuous
 62
1
370
35
100
AcDbLine
 10
651.0
 20
502.4
 30
0.0
 11
663.0
 21
502.4
 31
0.0
  0
TEXT
  5
3A0
330
29E
100
AcDbEntity
 67
1
  8
G-YAZI
100
AcDbText
 10
666.0
 20
502.4
 30
0.0
 40
1.8
  1
Mimari — yeni alçıpan bölme
  7
GYM
 11
666.0
 21
502.4
 31
0.0
100
AcDbText
 73
2
  0
LINE
  5
3A1
330
29E
100
AcDbEntity
 67
1
  8
G-ANTET
  6
Continuous
 62
5
370
25
100
AcDbLine
 10
651.0
 20
497.79999999999995
 30
0.0
 11
663.0
 21
497.79999999999995
 31
0.0
  0
TEXT
  5
3A2
330
29E
100
AcDbEntity
 67
1
  8
G-YAZI
100
AcDbText
 10
666.0
 20
497.79999999999995
 30
0.0
 40
1.8
  1
Mimari — cephe doğraması
  7
GYM
 11
666.0
 21
497.79999999999995
 31
0.0
100
AcDbText
 73
2
  0
LINE
  5
3A3
330
29E
100
AcDbEntity
 67
1
  8
G-ANTET
  6
Continuous
 62
8
370
18
100
AcDbLine
 10
651.0
 20
493.19999999999993
 30
0.0
 11
663.0
 21
493.19999999999993
 31
0.0
  0
TEXT
  5
3A4
330
29E
100
AcDbEntity
 67
1
  8
G-YAZI
100
AcDbText
 10
666.0
 20
493.19999999999993
 30
0.0
 40
1.8
  1
Mimari — kapı ve açılım
  7
GYM
 11
666.0
 21
493.19999999999993
 31
0.0
100
AcDbText
 73
2
  0
LINE
  5
3A5
330
29E
100
AcDbEntity
 67
1
  8
G-ANTET
  6
Continuous
 62
9
370
18
100
AcDbLine
 10
651.0
 20
488.5999999999999
 30
0.0
 11
663.0
 21
488.5999999999999
 31
0.0
  0
TEXT
  5
3A6
330
29E
100
AcDbEntity
 67
1
  8
G-YAZI
100
AcDbText
 10
666.0
 20
488.5999999999999
 30
0.0
 40
1.8
  1
Mimari — spor ekipmanı (işverence temin)
  7
GYM
 11
666.0
 21
488.5999999999999
 31
0.0
100
AcDbText
 73
2
  0
LINE
  5
3A7
330
29E
100
AcDbEntity
 67
1
  8
G-ANTET
  6
Continuous
 62
9
370
18
100
AcDbLine
 10
651.0
 20
483.9999999999999
 30
0.0
 11
663.0
 21
483.9999999999999
 31
0.0
  0
TEXT
  5
3A8
330
29E
100
AcDbEntity
 67
1
  8
G-YAZI
100
AcDbText
 10
666.0
 20
483.9999999999999
 30
0.0
 40
1.8
  1
Mimari — sabit mobilya
  7
GYM
 11
666.0
 21
483.9999999999999
 31
0.0
100
AcDbText
 73
2
  0
LINE
  5
3A9
330
29E
100
AcDbEntity
 67
1
  8
G-ANTET
  6
Continuous
 62
7
370
13
100
AcDbLine
 10
651.0
 20
479.39999999999986
 30
0.0
 11
663.0
 21
479.39999999999986
 31
0.0
  0
TEXT
  5
3AA
330
29E
100
AcDbEntity
 67
1
  8
G-YAZI
100
AcDbText
 10
666.0
 20
479.39999999999986
 30
0.0
 40
1.8
  1
Mimari — mahal adı ve alan
  7
GYM
 11
666.0
 21
479.39999999999986
 31
0.0
100
AcDbText
 73
2
  0
LINE
  5
3AB
330
29E
100
AcDbEntity
 67
1
  8
G-ANTET
  6
Continuous
 62
3
370
35
100
AcDbLine
 10
651.0
 20
474.79999999999984
 30
0.0
 11
663.0
 21
474.79999999999984
 31
0.0
  0
TEXT
  5
3AC
330
29E
100
AcDbEntity
 67
1
  8
G-YAZI
100
AcDbText
 10
666.0
 20
474.79999999999984
 30
0.0
 40
1.8
  1
Mekanik — taze hava kanalı
  7
GYM
 11
666.0
 21
474.79999999999984
 31
0.0
100
AcDbText
 73
2
  0
LINE
  5
3AD
330
29E
100
AcDbEntity
 67
1
  8
G-ANTET
  6
Continuous
 62
1
370
35
100
AcDbLine
 10
651.0
 20
470.1999999999998
 30
0.0
 11
663.0
 21
470.1999999999998
 31
0.0
  0
TEXT
  5
3AE
330
29E
100
AcDbEntity
 67
1
  8
G-YAZI
100
AcDbText
 10
666.0
 20
470.1999999999998
 30
0.0
 40
1.8
  1
Mekanik — egzoz kanalı
  7
GYM
 11
666.0
 21
470.1999999999998
 31
0.0
100
AcDbText
 73
2
  0
LINE
  5
3AF
330
29E
100
AcDbEntity
 67
1
  8
G-ANTET
  6
Continuous
 62
6
370
25
100
AcDbLine
 10
651.0
 20
465.5999999999998
 30
0.0
 11
663.0
 21
465.5999999999998
 31
0.0
  0
TEXT
  5
3B0
330
29E
100
AcDbEntity
 67
1
  8
G-YAZI
100
AcDbText
 10
666.0
 20
465.5999999999998
 30
0.0
 40
1.8
  1
Mekanik — ıslak hacim egzoz kanalı
  7
GYM
 11
666.0
 21
465.5999999999998
 31
0.0
100
AcDbText
 73
2
  0
LINE
  5
3B1
330
29E
100
AcDbEntity
 67
1
  8
G-ANTET
  6
Continuous
 62
3
370
25
100
AcDbLine
 10
651.0
 20
460.9999999999998
 30
0.0
 11
663.0
 21
460.9999999999998
 31
0.0
  0
TEXT
  5
3B2
330
29E
100
AcDbEntity
 67
1
  8
G-YAZI
100
AcDbText
 10
666.0
 20
460.9999999999998
 30
0.0
 40
1.8
  1
Mekanik — menfez ve valf
  7
GYM
 11
666.0
 21
460.9999999999998
 31
0.0
100
AcDbText
 73
2
  0
LINE
  5
3B3
330
29E
100
AcDbEntity
 67
1
  8
G-ANTET
  6
DASHED
 62
3
370
18
100
AcDbLine
 10
651.0
 20
456.39999999999975
 30
0.0
 11
663.0
 21
456.39999999999975
 31
0.0
  0
TEXT
  5
3B4
330
29E
100
AcDbEntity
 67
1
  8
G-YAZI
100
AcDbText
 10
666.0
 20
456.39999999999975
 30
0.0
 40
1.8
  1
Mekanik — menfez branşmanı
  7
GYM
 11
666.0
 21
456.39999999999975
 31
0.0
100
AcDbText
 73
2
  0
LINE
  5
3B5
330
29E
100
AcDbEntity
 67
1
  8
G-ANTET
  6
Continuous
 62
2
370
35
100
AcDbLine
 10
651.0
 20
451.7999999999997
 30
0.0
 11
663.0
 21
451.7999999999997
 31
0.0
  0
TEXT
  5
3B6
330
29E
100
AcDbEntity
 67
1
  8
G-YAZI
100
AcDbText
 10
666.0
 20
451.7999999999997
 30
0.0
 40
1.8
  1
Mekanik — fan ve panjur
  7
GYM
 11
666.0
 21
451.7999999999997
 31
0.0
100
AcDbText
 73
2
  0
LINE
  5
3B7
330
29E
100
AcDbEntity
 67
1
  8
G-ANTET
  6
Continuous
 62
7
370
13
100
AcDbLine
 10
651.0
 20
447.1999999999997
 30
0.0
 11
663.0
 21
447.1999999999997
 31
0.0
  0
TEXT
  5
3B8
330
29E
100
AcDbEntity
 67
1
  8
G-YAZI
100
AcDbText
 10
666.0
 20
447.1999999999997
 30
0.0
 40
1.8
  1
Mekanik — etiket ve not
  7
GYM
 11
666.0
 21
447.1999999999997
 31
0.0
100
AcDbText
 73
2
  0
TEXT
  5
3B9
330
29E
100
AcDbEntity
 67
1
  8
G-YAZI
100
AcDbText
 10
651.0
 20
437.5999999999997
 30
0.0
 40
3.5
  1
GENEL NOTLAR
  7
GYM
 11
651.0
 21
437.5999999999997
 31
0.0
100
AcDbText
 73
2
  0
LINE
  5
3BA
330
29E
100
AcDbEntity
 67
1
  8
G-YAZI
370
35
100
AcDbLine
 10
651.0
 20
435.1999999999997
 30
0.0
 11
831.0
 21
435.1999999999997
 31
0.0
  0
TEXT
  5
3BB
330
29E
100
AcDbEntity
 67
1
  8
G-YAZI
100
AcDbText
 10
651.0
 20
430.5999999999997
 30
0.0
 40
1.8
  1
1. Kanallar galvaniz sac, TS EN 1507 sinif B.
  7
GYM
 11
651.0
 21
430.5999999999997
 31
0.0
100
AcDbText
 73
2
  0
TEXT
  5
3BC
330
29E
100
AcDbEntity
 67
1
  8
G-YAZI
100
AcDbText
 10
651.0
 20
425.79999999999967
 30
0.0
 40
1.8
  1
2. Besleme ve egzoz hatti 19 mm izoleli.
  7
GYM
 11
651.0
 21
425.79999999999967
 31
0.0
100
AcDbText
 73
2
  0
TEXT
  5
3BD
330
29E
100
AcDbEntity
 67
1
  8
G-YAZI
100
AcDbText
 10
651.0
 20
420.99999999999966
 30
0.0
 40
1.8
  1
3. Her bransman basi debi ayar damperi.
  7
GYM
 11
651.0
 21
420.99999999999966
 31
0.0
100
AcDbText
 73
2
  0
TEXT
  5
3BE
330
29E
100
AcDbEntity
 67
1
  8
G-YAZI
100
AcDbText
 10
651.0
 20
416.19999999999965
 30
0.0
 40
1.8
  1
4. Devreye almada balanslama ve olcum raporu.
  7
GYM
 11
651.0
 21
416.19999999999965
 31
0.0
100
AcDbText
 73
2
  0
ENDSEC
  0
SECTION
  2
OBJECTS
  0
DICTIONARY
  5
A
330
0
100
AcDbDictionary
281
1
  3
ACAD_COLOR
350
B
  3
ACAD_GROUP
350
C
  3
ACAD_LAYOUT
350
D
  3
ACAD_MATERIAL
350
E
  3
ACAD_MLEADERSTYLE
350
F
  3
ACAD_MLINESTYLE
350
10
  3
ACAD_PLOTSETTINGS
350
11
  3
ACAD_PLOTSTYLENAME
350
12
  3
ACAD_SCALELIST
350
14
  3
ACAD_TABLESTYLE
350
15
  3
ACAD_VISUALSTYLE
350
16
  3
EZDXF_META
350
2D
  0
DICTIONARY
  5
B
330
A
100
AcDbDictionary
281
1
  0
DICTIONARY
  5
C
330
A
100
AcDbDictionary
281
1
  0
DICTIONARY
  5
D
330
A
100
AcDbDictionary
281
1
  3
Model
350
1A
  3
M-01 HAVALANDIRMA PLANI
350
2A1
  0
DICTIONARY
  5
E
330
A
100
AcDbDictionary
281
1
  3
ByBlock
350
1F
  3
ByLayer
350
20
  3
Global
350
21
  0
DICTIONARY
  5
F
330
A
100
AcDbDictionary
281
1
  3
Standard
350
2C
  0
DICTIONARY
  5
10
330
A
100
AcDbDictionary
281
1
  3
Standard
350
22
  0
DICTIONARY
  5
11
330
A
100
AcDbDictionary
281
1
  0
ACDBDICTIONARYWDFLT
  5
12
330
A
100
AcDbDictionary
281
1
  3
Normal
350
13
100
AcDbDictionaryWithDefault
340
13
  0
ACDBPLACEHOLDER
  5
13
330
12
  0
DICTIONARY
  5
14
330
A
100
AcDbDictionary
281
1
  0
DICTIONARY
  5
15
330
A
100
AcDbDictionary
281
1
  0
DICTIONARY
  5
16
330
A
100
AcDbDictionary
281
1
  3
2dWireframe
350
5A
  3
Basic
350
5B
  3
Brighten
350
5C
  3
ColorChange
350
5D
  3
Conceptual
350
5E
  3
Dim
350
5F
  3
EdgeColorOff
350
60
  3
Facepattern
350
61
  3
Flat
350
62
  3
FlatWithEdges
350
63
  3
Gouraud
350
64
  3
GouraudWithEdges
350
65
  3
Hidden
350
66
  3
JitterOff
350
67
  3
Linepattern
350
68
  3
Modeling
350
69
  3
OverhangOff
350
6A
  3
Realistic
350
6B
  3
Shaded
350
6C
  3
Shaded with edges
350
6D
  3
Shades of Gray
350
6E
  3
Sketchy
350
6F
  3
Thicken
350
70
  3
Wireframe
350
71
  3
X-Ray
350
72
  0
LAYOUT
  5
1A
330
D
100
AcDbPlotSettings
  1

  4
A3
  6

 40
7.5
 41
20.0
 42
7.5
 43
20.0
 44
420.0
 45
297.0
 46
0.0
 47
0.0
 48
0.0
 49
0.0
140
0.0
141
0.0
142
1.0
143
1.0
 70
1024
 72
1
 73
0
 74
5
  7

 75
16
 76
0
 77
2
 78
300
147
1.0
148
0.0
149
0.0
100
AcDbLayout
  1
Model
 70
1
 71
0
 10
0.0
 20
0.0
 11
420.0
 21
297.0
 12
0.0
 22
0.0
 32
0.0
 14
1e+20
 24
1e+20
 34
1e+20
 15
-1e+20
 25
-1e+20
 35
-1e+20
146
0.0
 13
0.0
 23
0.0
 33
0.0
 16
1.0
 26
0.0
 36
0.0
 17
0.0
 27
1.0
 37
0.0
 76
1
330
17
  0
MATERIAL
  5
1F
102
{ACAD_REACTORS
330
E
102
}
330
E
100
AcDbMaterial
  1
ByBlock
  2

 70
0
 40
1.0
 71
1
 41
1.0
 91
-1023410177
 42
1.0
 72
1
  3

 73
1
 74
1
 75
1
 44
0.5
 73
0
 45
1.0
 46
1.0
 77
1
  4

 78
1
 79
1
170
1
 48
1.0
171
1
  6

172
1
173
1
174
1
140
1.0
141
1.0
175
1
  7

176
1
177
1
178
1
143
1.0
179
1
  8

270
1
271
1
272
1
145
1.0
146
1.0
273
1
  9

274
1
275
1
276
1
 42
1.0
 72
1
  3

 73
1
 74
1
 75
1
 94
63
  0
MATERIAL
  5
20
102
{ACAD_REACTORS
330
E
102
}
330
E
100
AcDbMaterial
  1
ByLayer
  2

 70
0
 40
1.0
 71
1
 41
1.0
 91
-1023410177
 42
1.0
 72
1
  3

 73
1
 74
1
 75
1
 44
0.5
 73
0
 45
1.0
 46
1.0
 77
1
  4

 78
1
 79
1
170
1
 48
1.0
171
1
  6

172
1
173
1
174
1
140
1.0
141
1.0
175
1
  7

176
1
177
1
178
1
143
1.0
179
1
  8

270
1
271
1
272
1
145
1.0
146
1.0
273
1
  9

274
1
275
1
276
1
 42
1.0
 72
1
  3

 73
1
 74
1
 75
1
 94
63
  0
MATERIAL
  5
21
102
{ACAD_REACTORS
330
E
102
}
330
E
100
AcDbMaterial
  1
Global
  2

 70
0
 40
1.0
 71
1
 41
1.0
 91
-1023410177
 42
1.0
 72
1
  3

 73
1
 74
1
 75
1
 44
0.5
 73
0
 45
1.0
 46
1.0
 77
1
  4

 78
1
 79
1
170
1
 48
1.0
171
1
  6

172
1
173
1
174
1
140
1.0
141
1.0
175
1
  7

176
1
177
1
178
1
143
1.0
179
1
  8

270
1
271
1
272
1
145
1.0
146
1.0
273
1
  9

274
1
275
1
276
1
 42
1.0
 72
1
  3

 73
1
 74
1
 75
1
 94
63
  0
MLINESTYLE
  5
22
102
{ACAD_REACTORS
330
10
102
}
330
10
100
AcDbMlineStyle
  2
Standard
 70
0
  3

 62
256
 51
90.0
 52
90.0
 71
2
 49
0.5
 62
256
  6
BYLAYER
 49
-0.5
 62
256
  6
BYLAYER
  0
MLEADERSTYLE
  5
2C
102
{ACAD_REACTORS
330
F
102
}
330
F
100
AcDbMLeaderStyle
179
2
170
2
171
1
172
0
 90
2
 40
0.0
 41
0.0
173
1
 91
-1056964608
 92
-2
290
1
 42
2.0
291
1
 43
8.0
  3
Standard
 44
4.0
300

342
29
174
1
175
1
176
0
178
1
 93
-1056964608
 45
4.0
292
0
297
0
 46
4.0
 94
-1056964608
 47
1.0
 49
1.0
140
1.0
294
1
141
0.0
177
0
142
1.0
295
0
296
0
143
3.75
271
0
272
9
273
9
  0
DICTIONARY
  5
2D
330
A
100
AcDbDictionary
280
1
281
1
  3
CREATED_BY_EZDXF
350
2E
  3
WRITTEN_BY_EZDXF
350
3C2
  0
DICTIONARYVAR
  5
2E
330
2D
100
DictionaryVariables
280
0
  1
1.4.4 @ 2026-09-18T11:29:04.855367+00:00
  0
VISUALSTYLE
  5
5A
102
{ACAD_REACTORS
330
16
102
}
330
16
100
AcDbVisualStyle
  2
2dWireframe
 70
4
 90
0
 40
0.6
 62
7
290
0
291
0
  0
VISUALSTYLE
  5
5B
102
{ACAD_REACTORS
330
16
102
}
330
16
100
AcDbVisualStyle
  2
Basic
 70
7
 90
1
 40
0.6
 62
7
290
0
291
1
  0
VISUALSTYLE
  5
5C
102
{ACAD_REACTORS
330
16
102
}
330
16
100
AcDbVisualStyle
  2
Brighten
 70
12
 90
2
 40
0.6
 62
7
290
0
291
1
  0
VISUALSTYLE
  5
5D
102
{ACAD_REACTORS
330
16
102
}
330
16
100
AcDbVisualStyle
  2
ColorChange
 70
16
 90
2
 40
0.6
 62
8
290
0
291
1
  0
VISUALSTYLE
  5
5E
102
{ACAD_REACTORS
330
16
102
}
330
16
100
AcDbVisualStyle
  2
Conceptual
 70
9
 90
3
 40
0.6
 62
7
290
0
291
0
  0
VISUALSTYLE
  5
5F
102
{ACAD_REACTORS
330
16
102
}
330
16
100
AcDbVisualStyle
  2
Dim
 70
11
 90
2
 40
0.6
 62
7
290
0
291
1
  0
VISUALSTYLE
  5
60
102
{ACAD_REACTORS
330
16
102
}
330
16
100
AcDbVisualStyle
  2
EdgeColorOff
 70
22
 90
2
 40
0.6
 62
7
290
0
291
1
  0
VISUALSTYLE
  5
61
102
{ACAD_REACTORS
330
16
102
}
330
16
100
AcDbVisualStyle
  2
Facepattern
 70
15
 90
2
 40
0.6
 62
7
290
0
291
1
  0
VISUALSTYLE
  5
62
102
{ACAD_REACTORS
330
16
102
}
330
16
100
AcDbVisualStyle
  2
Flat
 70
0
 90
2
 40
0.6
 62
7
290
0
291
1
  0
VISUALSTYLE
  5
63
102
{ACAD_REACTORS
330
16
102
}
330
16
100
AcDbVisualStyle
  2
FlatWithEdges
 70
1
 90
2
 40
0.6
 62
7
290
0
291
1
  0
VISUALSTYLE
  5
64
102
{ACAD_REACTORS
330
16
102
}
330
16
100
AcDbVisualStyle
  2
Gouraud
 70
2
 90
2
 40
0.6
 62
7
290
0
291
1
  0
VISUALSTYLE
  5
65
102
{ACAD_REACTORS
330
16
102
}
330
16
100
AcDbVisualStyle
  2
GouraudWithEdges
 70
3
 90
2
 40
0.6
 62
7
290
0
291
1
  0
VISUALSTYLE
  5
66
102
{ACAD_REACTORS
330
16
102
}
330
16
100
AcDbVisualStyle
  2
Hidden
 70
6
 90
1
 40
0.6
 62
7
290
0
291
0
  0
VISUALSTYLE
  5
67
102
{ACAD_REACTORS
330
16
102
}
330
16
100
AcDbVisualStyle
  2
JitterOff
 70
20
 90
2
 40
0.6
 62
7
290
0
291
1
  0
VISUALSTYLE
  5
68
102
{ACAD_REACTORS
330
16
102
}
330
16
100
AcDbVisualStyle
  2
Linepattern
 70
14
 90
2
 40
0.6
 62
7
290
0
291
1
  0
VISUALSTYLE
  5
69
102
{ACAD_REACTORS
330
16
102
}
330
16
100
AcDbVisualStyle
  2
Modeling
 70
10
 90
2
 40
0.6
 62
7
290
0
291
0
  0
VISUALSTYLE
  5
6A
102
{ACAD_REACTORS
330
16
102
}
330
16
100
AcDbVisualStyle
  2
OverhangOff
 70
21
 90
2
 40
0.6
 62
7
290
0
291
1
  0
VISUALSTYLE
  5
6B
102
{ACAD_REACTORS
330
16
102
}
330
16
100
AcDbVisualStyle
  2
Realistic
 70
8
 90
2
 40
0.6
 62
7
290
0
291
0
  0
VISUALSTYLE
  5
6C
102
{ACAD_REACTORS
330
16
102
}
330
16
100
AcDbVisualStyle
  2
Shaded
 70
27
 90
2
 40
0.6
 62
7
290
0
291
0
  0
VISUALSTYLE
  5
6D
102
{ACAD_REACTORS
330
16
102
}
330
16
100
AcDbVisualStyle
  2
Shaded with edges
 70
26
 90
2
 40
0.6
 62
7
290
0
291
0
  0
VISUALSTYLE
  5
6E
102
{ACAD_REACTORS
330
16
102
}
330
16
100
AcDbVisualStyle
  2
Shades of Gray
 70
23
 90
2
 40
0.6
 62
7
290
0
291
0
  0
VISUALSTYLE
  5
6F
102
{ACAD_REACTORS
330
16
102
}
330
16
100
AcDbVisualStyle
  2
Sketchy
 70
24
 90
1
 40
0.6
 62
7
290
0
291
0
  0
VISUALSTYLE
  5
70
102
{ACAD_REACTORS
330
16
102
}
330
16
100
AcDbVisualStyle
  2
Thicken
 70
13
 90
2
 40
0.6
 62
7
290
0
291
1
  0
VISUALSTYLE
  5
71
102
{ACAD_REACTORS
330
16
102
}
330
16
100
AcDbVisualStyle
  2
Wireframe
 70
5
 90
0
 40
0.6
 62
7
290
0
291
0
  0
VISUALSTYLE
  5
72
102
{ACAD_REACTORS
330
16
102
}
330
16
100
AcDbVisualStyle
  2
X-Ray
 70
25
 90
2
 40
0.5
 62
7
290
0
291
0
  0
LAYOUT
  5
2A1
330
D
100
AcDbPlotSettings
  1

  2
DWG to PDF.pc3
  4
ezdxf_(841.00_x_594.00_MM)
  6

 40
0.0
 41
0.0
 42
0.0
 43
0.0
 44
841.0
 45
594.0
 46
0.0
 47
0.0
 48
0.0
 49
0.0
140
0.0
141
0.0
142
1.0
143
1.0
 70
672
 72
1
 73
0
 74
5
  7

 75
16
 76
0
 77
2
 78
300
147
1.0
148
0.0
149
0.0
100
AcDbLayout
  1
M-01 HAVALANDIRMA PLANI
 70
1
 71
3
 10
-0.0
 20
-0.0
 11
841.0
 21
594.0
 12
0.0
 22
0.0
 32
0.0
 14
1e+20
 24
1e+20
 34
1e+20
 15
-1e+20
 25
-1e+20
 35
-1e+20
146
0.0
 13
0.0
 23
0.0
 33
0.0
 16
1.0
 26
0.0
 36
0.0
 17
0.0
 27
1.0
 37
0.0
 76
1
330
29E
331
2A2
  0
DICTIONARYVAR
  5
3C2
330
2D
100
DictionaryVariables
280
0
  1
1.4.4 @ 2026-09-18T11:29:04.894859+00:00
  0
ENDSEC
  0
EOF
