  0
SECTION
  2
HEADER
  9
$ACADVER
  1
AC1024
  9
$ACADMAINTVER
 70
6
  9
$DWGCODEPAGE
  3
ANSI_1252
  9
$LASTSAVEDBY
  1
ezdxf
  9
$INSBASE
 10
0.0
 20
0.0
 30
0.0
  9
$EXTMIN
 10
1e+20
 20
1e+20
 30
1e+20
  9
$EXTMAX
 10
-1e+20
 20
-1e+20
 30
-1e+20
  9
$LIMMIN
 10
0.0
 20
0.0
  9
$LIMMAX
 10
420.0
 20
297.0
  9
$ORTHOMODE
 70
0
  9
$REGENMODE
 70
1
  9
$FILLMODE
 70
1
  9
$QTEXTMODE
 70
0
  9
$MIRRTEXT
 70
1
  9
$LTSCALE
 40
1.0
  9
$ATTMODE
 70
1
  9
$TEXTSIZE
 40
2.5
  9
$TRACEWID
 40
1.0
  9
$TEXTSTYLE
  7
OpenSans
  9
$CLAYER
  8
0
  9
$CELTYPE
  6
ByLayer
  9
$CECOLOR
 62
256
  9
$CELTSCALE
 40
1.0
  9
$DISPSILH
 70
0
  9
$DIMSCALE
 40
75.0
  9
$DIMASZ
 40
0.175
  9
$DIMEXO
 40
0.125
  9
$DIMDLI
 40
3.75
  9
$DIMRND
 40
0.0
  9
$DIMDLE
 40
0.0
  9
$DIMEXE
 40
0.375
  9
$DIMTP
 40
0.0
  9
$DIMTM
 40
0.0
  9
$DIMTXT
 40
0.25
  9
$DIMCEN
 40
2.5
  9
$DIMTSZ
 40
0.0
  9
$DIMTOL
 70
0
  9
$DIMLIM
 70
0
  9
$DIMTIH
 70
0
  9
$DIMTOH
 70
0
  9
$DIMSE1
 70
0
  9
$DIMSE2
 70
0
  9
$DIMTAD
 70
1
  9
$DIMZIN
 70
12
  9
$DIMBLK
  1
ARCHTICK
  9
$DIMASO
 70
1
  9
$DIMSHO
 70
1
  9
$DIMPOST
  1

  9
$DIMAPOST
  1

  9
$DIMALT
 70
0
  9
$DIMALTD
 70
3
  9
$DIMALTF
 40
0.03937007874
  9
$DIMLFAC
 40
100.0
  9
$DIMTOFL
 70
1
  9
$DIMTVP
 40
0.0
  9
$DIMTIX
 70
0
  9
$DIMSOXD
 70
0
  9
$DIMSAH
 70
0
  9
$DIMBLK1
  1

  9
$DIMBLK2
  1

  9
$DIMSTYLE
  2
GYM-50
  9
$DIMCLRD
 70
0
  9
$DIMCLRE
 70
0
  9
$DIMCLRT
 70
0
  9
$DIMTFAC
 40
0.5
  9
$DIMGAP
 40
0.1
  9
$DIMJUST
 70
0
  9
$DIMSD1
 70
0
  9
$DIMSD2
 70
0
  9
$DIMTOLJ
 70
0
  9
$DIMTZIN
 70
8
  9
$DIMALTZ
 70
0
  9
$DIMALTTZ
 70
0
  9
$DIMUPT
 70
1
  9
$DIMDEC
 70
2
  9
$DIMTDEC
 70
2
  9
$DIMALTU
 70
2
  9
$DIMALTTD
 70
3
  9
$DIMTXSTY
  7
OpenSansCondensed-Light
  9
$DIMAUNIT
 70
0
  9
$DIMADEC
 70
2
  9
$DIMALTRND
 40
0.0
  9
$DIMAZIN
 70
3
  9
$DIMDSEP
 70
46
  9
$DIMATFIT
 70
3
  9
$DIMFRAC
 70
0
  9
$DIMLDRBLK
  1

  9
$DIMLUNIT
 70
2
  9
$DIMLWD
 70
-2
  9
$DIMLWE
 70
-2
  9
$DIMTMOVE
 70
2
  9
$DIMFXL
 40
1.0
  9
$DIMFXLON
 70
0
  9
$DIMJOGANG
 40
0.785398163397
  9
$DIMTFILL
 70
0
  9
$DIMTFILLCLR
 70
0
  9
$DIMARCSYM
 70
0
  9
$DIMLTYPE
  6

  9
$DIMLTEX1
  6

  9
$DIMLTEX2
  6

  9
$DIMTXTDIRECTION
 70
0
  9
$LUNITS
 70
2
  9
$LUPREC
 70
2
  9
$SKETCHINC
 40
1.0
  9
$FILLETRAD
 40
10.0
  9
$AUNITS
 70
0
  9
$AUPREC
 70
2
  9
$MENU
  1
.
  9
$ELEVATION
 40
0.0
  9
$PELEVATION
 40
0.0
  9
$THICKNESS
 40
0.0
  9
$LIMCHECK
 70
0
  9
$CHAMFERA
 40
0.0
  9
$CHAMFERB
 40
0.0
  9
$CHAMFERC
 40
0.0
  9
$CHAMFERD
 40
0.0
  9
$SKPOLY
 70
0
  9
$TDCREATE
 40
2461302.5608680556
  9
$TDUCREATE
 40
2458532.153996898
  9
$TDUPDATE
 40
2461302.5608680556
  9
$TDUUPDATE
 40
2458532.1544311
  9
$TDINDWG
 40
0.0
  9
$TDUSRTIMER
 40
0.0
  9
$USRTIMER
 70
1
  9
$ANGBASE
 50
0.0
  9
$ANGDIR
 70
0
  9
$PDMODE
 70
0
  9
$PDSIZE
 40
0.0
  9
$PLINEWID
 40
0.0
  9
$SPLFRAME
 70
0
  9
$SPLINETYPE
 70
6
  9
$SPLINESEGS
 70
8
  9
$HANDSEED
  5
431
  9
$SURFTAB1
 70
6
  9
$SURFTAB2
 70
6
  9
$SURFTYPE
 70
6
  9
$SURFU
 70
6
  9
$SURFV
 70
6
  9
$UCSBASE
  2

  9
$UCSNAME
  2

  9
$UCSORG
 10
0.0
 20
0.0
 30
0.0
  9
$UCSXDIR
 10
1.0
 20
0.0
 30
0.0
  9
$UCSYDIR
 10
0.0
 20
1.0
 30
0.0
  9
$UCSORTHOREF
  2

  9
$UCSORTHOVIEW
 70
0
  9
$UCSORGTOP
 10
0.0
 20
0.0
 30
0.0
  9
$UCSORGBOTTOM
 10
0.0
 20
0.0
 30
0.0
  9
$UCSORGLEFT
 10
0.0
 20
0.0
 30
0.0
  9
$UCSORGRIGHT
 10
0.0
 20
0.0
 30
0.0
  9
$UCSORGFRONT
 10
0.0
 20
0.0
 30
0.0
  9
$UCSORGBACK
 10
0.0
 20
0.0
 30
0.0
  9
$PUCSBASE
  2

  9
$PUCSNAME
  2

  9
$PUCSORG
 10
0.0
 20
0.0
 30
0.0
  9
$PUCSXDIR
 10
1.0
 20
0.0
 30
0.0
  9
$PUCSYDIR
 10
0.0
 20
1.0
 30
0.0
  9
$PUCSORTHOREF
  2

  9
$PUCSORTHOVIEW
 70
0
  9
$PUCSORGTOP
 10
0.0
 20
0.0
 30
0.0
  9
$PUCSORGBOTTOM
 10
0.0
 20
0.0
 30
0.0
  9
$PUCSORGLEFT
 10
0.0
 20
0.0
 30
0.0
  9
$PUCSORGRIGHT
 10
0.0
 20
0.0
 30
0.0
  9
$PUCSORGFRONT
 10
0.0
 20
0.0
 30
0.0
  9
$PUCSORGBACK
 10
0.0
 20
0.0
 30
0.0
  9
$USERI1
 70
0
  9
$USERI2
 70
0
  9
$USERI3
 70
0
  9
$USERI4
 70
0
  9
$USERI5
 70
0
  9
$USERR1
 40
0.0
  9
$USERR2
 40
0.0
  9
$USERR3
 40
0.0
  9
$USERR4
 40
0.0
  9
$USERR5
 40
0.0
  9
$WORLDVIEW
 70
1
  9
$SHADEDGE
 70
3
  9
$SHADEDIF
 70
70
  9
$TILEMODE
 70
1
  9
$MAXACTVP
 70
64
  9
$PINSBASE
 10
0.0
 20
0.0
 30
0.0
  9
$PLIMCHECK
 70
0
  9
$PEXTMIN
 10
1e+20
 20
1e+20
 30
1e+20
  9
$PEXTMAX
 10
-1e+20
 20
-1e+20
 30
-1e+20
  9
$PLIMMIN
 10
-0.0
 20
-0.0
  9
$PLIMMAX
 10
594.0
 20
420.0
  9
$UNITMODE
 70
0
  9
$VISRETAIN
 70
1
  9
$PLINEGEN
 70
0
  9
$PSLTSCALE
 70
1
  9
$TREEDEPTH
 70
3020
  9
$CMLSTYLE
  2
Standard
  9
$CMLJUST
 70
0
  9
$CMLSCALE
 40
20.0
  9
$PROXYGRAPHICS
 70
1
  9
$MEASUREMENT
 70
1
  9
$CELWEIGHT
370
-1
  9
$ENDCAPS
280
0
  9
$JOINSTYLE
280
0
  9
$LWDISPLAY
290
1
  9
$INSUNITS
 70
4
  9
$HYPERLINKBASE
  1

  9
$STYLESHEET
  1

  9
$XEDIT
290
1
  9
$CEPSNTYPE
380
0
  9
$PSTYLEMODE
290
1
  9
$FINGERPRINTGUID
  2
{3DE5EE2A-1BA8-450D-96A1-C1567C129DF2}
  9
$VERSIONGUID
  2
{E0BF0CA5-072C-4152-8FFE-C8C489D7C3A6}
  9
$EXTNAMES
290
1
  9
$PSVPSCALE
 40
0.0
  9
$OLESTARTUP
290
0
  9
$SORTENTS
280
127
  9
$INDEXCTL
280
0
  9
$HIDETEXT
280
1
  9
$XCLIPFRAME
280
1
  9
$HALOGAP
280
0
  9
$OBSCOLOR
 70
257
  9
$OBSLTYPE
280
0
  9
$INTERSECTIONDISPLAY
280
0
  9
$INTERSECTIONCOLOR
 70
257
  9
$DIMASSOC
280
2
  9
$PROJECTNAME
  1

  9
$CAMERADISPLAY
290
0
  9
$LENSLENGTH
 40
50.0
  9
$CAMERAHEIGHT
 40
0.0
  9
$STEPSPERSEC
 40
24.0
  9
$STEPSIZE
 40
100.0
  9
$3DDWFPREC
 40
2.0
  9
$PSOLWIDTH
 40
0.005
  9
$PSOLHEIGHT
 40
0.08
  9
$LOFTANG1
 40
1.570796326795
  9
$LOFTANG2
 40
1.570796326795
  9
$LOFTMAG1
 40
0.0
  9
$LOFTMAG2
 40
0.0
  9
$LOFTPARAM
 70
7
  9
$LOFTNORMALS
280
1
  9
$LATITUDE
 40
37.795
  9
$LONGITUDE
 40
-122.394
  9
$NORTHDIRECTION
 40
0.0
  9
$TIMEZONE
 70
-8000
  9
$LIGHTGLYPHDISPLAY
280
1
  9
$TILEMODELIGHTSYNCH
280
1
  9
$CMATERIAL
347
20
  9
$SOLIDHIST
280
0
  9
$SHOWHIST
280
1
  9
$DWFFRAME
280
2
  9
$DGNFRAME
280
2
  9
$REALWORLDSCALE
290
1
  9
$INTERFERECOLOR
 62
256
  9
$CSHADOW
280
0
  9
$SHADOWPLANELOCATION
 40
0.0
  0
ENDSEC
  0
SECTION
  2
CLASSES
  0
CLASS
  1
ACDBDICTIONARYWDFLT
  2
AcDbDictionaryWithDefault
  3
ObjectDBX Classes
 90
0
 91
0
280
0
281
0
  0
CLASS
  1
SUN
  2
AcDbSun
  3
SCENEOE
 90
1153
 91
0
280
0
281
0
  0
CLASS
  1
VISUALSTYLE
  2
AcDbVisualStyle
  3
ObjectDBX Classes
 90
4095
 91
0
280
0
281
0
  0
CLASS
  1
MATERIAL
  2
AcDbMaterial
  3
ObjectDBX Classes
 90
1153
 91
0
280
0
281
0
  0
CLASS
  1
SCALE
  2
AcDbScale
  3
ObjectDBX Classes
 90
1153
 91
0
280
0
281
0
  0
CLASS
  1
TABLESTYLE
  2
AcDbTableStyle
  3
ObjectDBX Classes
 90
4095
 91
0
280
0
281
0
  0
CLASS
  1
MLEADERSTYLE
  2
AcDbMLeaderStyle
  3
ACDB_MLEADERSTYLE_CLASS
 90
4095
 91
0
280
0
281
0
  0
CLASS
  1
DICTIONARYVAR
  2
AcDbDictionaryVar
  3
ObjectDBX Classes
 90
0
 91
0
280
0
281
0
  0
CLASS
  1
CELLSTYLEMAP
  2
AcDbCellStyleMap
  3
ObjectDBX Classes
 90
1152
 91
0
280
0
281
0
  0
CLASS
  1
MENTALRAYRENDERSETTINGS
  2
AcDbMentalRayRenderSettings
  3
SCENEOE
 90
1024
 91
0
280
0
281
0
  0
CLASS
  1
ACDBDETAILVIEWSTYLE
  2
AcDbDetailViewStyle
  3
ObjectDBX Classes
 90
1025
 91
0
280
0
281
0
  0
CLASS
  1
ACDBSECTIONVIEWSTYLE
  2
AcDbSectionViewStyle
  3
ObjectDBX Classes
 90
1025
 91
0
280
0
281
0
  0
CLASS
  1
RASTERVARIABLES
  2
AcDbRasterVariables
  3
ISM
 90
0
 91
0
280
0
281
0
  0
CLASS
  1
LAYOUT
  2
AcDbLayout
  3
ObjectDBX Classes
 90
0
 91
0
280
0
281
0
  0
CLASS
  1
ACDBPLACEHOLDER
  2
AcDbPlaceHolder
  3
ObjectDBX Classes
 90
0
 91
0
280
0
281
0
  0
ENDSEC
  0
SECTION
  2
TABLES
  0
TABLE
  2
VPORT
  5
8
330
0
100
AcDbSymbolTable
 70
1
  0
VPORT
  5
42D
330
8
100
AcDbSymbolTableRecord
100
AcDbViewportTableRecord
  2
*Active
 70
0
 10
0.0
 20
0.0
 11
1.0
 21
1.0
 12
9730.771282951151
 22
6816.297626416486
 13
0.0
 23
0.0
 14
0.5
 24
0.5
 15
0.5
 25
0.5
 16
0.0
 26
0.0
 36
1.0
 17
0.0
 27
0.0
 37
0.0
 40
6000.0
 41
1.34
 42
50.0
 43
0.0
 44
0.0
 50
0.0
 51
0.0
 71
0
 72
1000
 73
1
 74
3
 75
0
 76
0
 77
0
 78
0
281
0
 65
1
110
0.0
120
0.0
130
0.0
111
1.0
121
0.0
131
0.0
112
0.0
122
1.0
132
0.0
 79
0
146
0.0
  0
ENDTAB
  0
TABLE
  2
LTYPE
  5
2
330
0
100
AcDbSymbolTable
 70
21
  0
LTYPE
  5
24
330
2
100
AcDbSymbolTableRecord
100
AcDbLinetypeTableRecord
  2
ByBlock
 70
0
  3

 72
65
 73
0
 40
0.0
  0
LTYPE
  5
25
330
2
100
AcDbSymbolTableRecord
100
AcDbLinetypeTableRecord
  2
ByLayer
 70
0
  3

 72
65
 73
0
 40
0.0
  0
LTYPE
  5
26
330
2
100
AcDbSymbolTableRecord
100
AcDbLinetypeTableRecord
  2
Continuous
 70
0
  3

 72
65
 73
0
 40
0.0
  0
LTYPE
  5
2F
330
2
100
AcDbSymbolTableRecord
100
AcDbLinetypeTableRecord
  2
CENTER
 70
0
  3
Center ____ _ ____ _ ____ _ ____ _ ____ _ ____
 72
65
 73
4
 40
5.08
 49
3.175
 74
0
 49
-0.635
 74
0
 49
0.635
 74
0
 49
-0.635
 74
0
  0
LTYPE
  5
30
330
2
100
AcDbSymbolTableRecord
100
AcDbLinetypeTableRecord
  2
CENTERX2
 70
0
  3
Center (2x) ________  __  ________  __  ________
 72
65
 73
4
 40
8.89
 49
6.35
 74
0
 49
-0.635
 74
0
 49
1.27
 74
0
 49
-0.635
 74
0
  0
LTYPE
  5
31
330
2
100
AcDbSymbolTableRecord
100
AcDbLinetypeTableRecord
  2
CENTER2
 70
0
  3
Center (.5x) ____ _ ____ _ ____ _ ____ _ ____
 72
65
 73
4
 40
2.54
 49
1.587
 74
0
 49
-0.318
 74
0
 49
0.318
 74
0
 49
-0.318
 74
0
  0
LTYPE
  5
32
330
2
100
AcDbSymbolTableRecord
100
AcDbLinetypeTableRecord
  2
DASHED
 70
0
  3
Dashed __ __ __ __ __ __ __ __ __ __ __ __ __ _
 72
65
 73
2
 40
1.524
 49
1.27
 74
0
 49
-0.254
 74
0
  0
LTYPE
  5
33
330
2
100
AcDbSymbolTableRecord
100
AcDbLinetypeTableRecord
  2
DASHEDX2
 70
0
  3
Dashed (2x) ____  ____  ____  ____  ____  ____
 72
65
 73
2
 40
3.048
 49
2.54
 74
0
 49
-0.508
 74
0
  0
LTYPE
  5
34
330
2
100
AcDbSymbolTableRecord
100
AcDbLinetypeTableRecord
  2
DASHED2
 70
0
  3
Dashed (.5x) _ _ _ _ _ _ _ _ _ _ _ _ _ _
 72
65
 73
2
 40
0.762
 49
0.635
 74
0
 49
-0.127
 74
0
  0
LTYPE
  5
35
330
2
100
AcDbSymbolTableRecord
100
AcDbLinetypeTableRecord
  2
PHANTOM
 70
0
  3
Phantom ______  __  __  ______  __  __  ______
 72
65
 73
6
 40
6.35
 49
3.175
 74
0
 49
-0.635
 74
0
 49
0.635
 74
0
 49
-0.635
 74
0
 49
0.635
 74
0
 49
-0.635
 74
0
  0
LTYPE
  5
36
330
2
100
AcDbSymbolTableRecord
100
AcDbLinetypeTableRecord
  2
PHANTOMX2
 70
0
  3
Phantom (2x)____________    ____    ____    ____________
 72
65
 73
6
 40
10.795
 49
6.35
 74
0
 49
-0.635
 74
0
 49
1.27
 74
0
 49
-0.635
 74
0
 49
1.27
 74
0
 49
-0.635
 74
0
  0
LTYPE
  5
37
330
2
100
AcDbSymbolTableRecord
100
AcDbLinetypeTableRecord
  2
PHANTOM2
 70
0
  3
Phantom (.5x) ___ _ _ ___ _ _ ___ _ _ ___ _ _ ___
 72
65
 73
6
 40
3.175
 49
1.587
 74
0
 49
-0.318
 74
0
 49
0.318
 74
0
 49
-0.318
 74
0
 49
0.318
 74
0
 49
-0.318
 74
0
  0
LTYPE
  5
38
330
2
100
AcDbSymbolTableRecord
100
AcDbLinetypeTableRecord
  2
DASHDOT
 70
0
  3
Dash dot __ . __ . __ . __ . __ . __ . __ . __
 72
65
 73
4
 40
3.556
 49
2.54
 74
0
 49
-0.508
 74
0
 49
0.0
 74
0
 49
-0.508
 74
0
  0
LTYPE
  5
39
330
2
100
AcDbSymbolTableRecord
100
AcDbLinetypeTableRecord
  2
DASHDOTX2
 70
0
  3
Dash dot (2x) ____  .  ____  .  ____  .  ____
 72
65
 73
4
 40
6.096
 49
5.08
 74
0
 49
-0.508
 74
0
 49
0.0
 74
0
 49
-0.508
 74
0
  0
LTYPE
  5
3A
330
2
100
AcDbSymbolTableRecord
100
AcDbLinetypeTableRecord
  2
DASHDOT2
 70
0
  3
Dash dot (.5x) _ . _ . _ . _ . _ . _ . _ . _
 72
65
 73
4
 40
1.778
 49
1.27
 74
0
 49
-0.254
 74
0
 49
0.0
 74
0
 49
-0.254
 74
0
  0
LTYPE
  5
3B
330
2
100
AcDbSymbolTableRecord
100
AcDbLinetypeTableRecord
  2
DOT
 70
0
  3
Dot .  .  .  .  .  .  .  .  .  .  .  .  .  .  .  .
 72
65
 73
2
 40
0.508
 49
0.0
 74
0
 49
-0.508
 74
0
  0
LTYPE
  5
3C
330
2
100
AcDbSymbolTableRecord
100
AcDbLinetypeTableRecord
  2
DOTX2
 70
0
  3
Dot (2x) .    .    .    .    .    .    .    . 
 72
65
 73
2
 40
1.016
 49
0.0
 74
0
 49
-1.016
 74
0
  0
LTYPE
  5
3D
330
2
100
AcDbSymbolTableRecord
100
AcDbLinetypeTableRecord
  2
DOT2
 70
0
  3
Dot (.5) . . . . . . . . . . . . . . . . . . . 
 72
65
 73
2
 40
0.254
 49
0.0
 74
0
 49
-0.254
 74
0
  0
LTYPE
  5
3E
330
2
100
AcDbSymbolTableRecord
100
AcDbLinetypeTableRecord
  2
DIVIDE
 70
0
  3
Divide __ . . __ . . __ . . __ . . __ . . __
 72
65
 73
6
 40
4.064
 49
2.54
 74
0
 49
-0.508
 74
0
 49
0.0
 74
0
 49
-0.508
 74
0
 49
0.0
 74
0
 49
-0.508
 74
0
  0
LTYPE
  5
3F
330
2
100
AcDbSymbolTableRecord
100
AcDbLinetypeTableRecord
  2
DIVIDEX2
 70
0
  3
Divide (2x) ____  . .  ____  . .  ____  . .  ____
 72
65
 73
6
 40
6.604
 49
5.08
 74
0
 49
-0.508
 74
0
 49
0.0
 74
0
 49
-0.508
 74
0
 49
0.0
 74
0
 49
-0.508
 74
0
  0
LTYPE
  5
40
330
2
100
AcDbSymbolTableRecord
100
AcDbLinetypeTableRecord
  2
DIVIDE2
 70
0
  3
Divide(.5x) _ . _ . _ . _ . _ . _ . _ . _
 72
65
 73
6
 40
2.032
 49
1.27
 74
0
 49
-0.254
 74
0
 49
0.0
 74
0
 49
-0.254
 74
0
 49
0.0
 74
0
 49
-0.254
 74
0
  0
ENDTAB
  0
TABLE
  2
LAYER
  5
1
330
0
100
AcDbSymbolTable
 70
100
  0
LAYER
  5
27
330
1
100
AcDbSymbolTableRecord
100
AcDbLayerTableRecord
  2
0
 70
0
 62
7
  6
Continuous
370
-3
390
13
347
21
  0
LAYER
  5
28
330
1
100
AcDbSymbolTableRecord
100
AcDbLayerTableRecord
  2
Defpoints
 70
0
 62
7
  6
Continuous
290
0
370
-3
390
13
347
21
  0
LAYER
  5
8A
330
1
100
AcDbSymbolTableRecord
100
AcDbLayerTableRecord
  2
A-DUVAR-MEVCUT
 70
0
 62
8
  6
Continuous
370
35
390
13
347
21
1001
AcAecLayerStandard
1000

1000
Mimari — mevcut duvar (korunuyor)
  0
LAYER
  5
8C
330
1
100
AcDbSymbolTableRecord
100
AcDbLayerTableRecord
  2
A-DUVAR-YENI
 70
0
 62
1
  6
Continuous
370
35
390
13
347
21
1001
AcAecLayerStandard
1000

1000
Mimari — yeni alçıpan bölme
  0
LAYER
  5
8D
330
1
100
AcDbSymbolTableRecord
100
AcDbLayerTableRecord
  2
A-CEPHE
 70
0
 62
5
  6
Continuous
370
25
390
13
347
21
1001
AcAecLayerStandard
1000

1000
Mimari — cephe doğraması
  0
LAYER
  5
8E
330
1
100
AcDbSymbolTableRecord
100
AcDbLayerTableRecord
  2
A-KAPI
 70
0
 62
8
  6
Continuous
370
18
390
13
347
21
1001
AcAecLayerStandard
1000

1000
Mimari — kapı ve açılım
  0
LAYER
  5
8F
330
1
100
AcDbSymbolTableRecord
100
AcDbLayerTableRecord
  2
A-EKIPMAN
 70
0
 62
9
  6
Continuous
370
18
390
13
347
21
1001
AcAecLayerStandard
1000

1000
Mimari — spor ekipmanı (işverence temin)
  0
LAYER
  5
90
330
1
100
AcDbSymbolTableRecord
100
AcDbLayerTableRecord
  2
A-MOBILYA
 70
0
 62
9
  6
Continuous
370
18
390
13
347
21
1001
AcAecLayerStandard
1000

1000
Mimari — sabit mobilya
  0
LAYER
  5
91
330
1
100
AcDbSymbolTableRecord
100
AcDbLayerTableRecord
  2
A-BOLGE
 70
0
 62
254
  6
Continuous
370
13
390
13
347
21
1001
AcAecLayerStandard
1000

1000
Mimari — zemin bölge taraması
  0
LAYER
  5
92
330
1
100
AcDbSymbolTableRecord
100
AcDbLayerTableRecord
  2
A-YAZI
 70
0
 62
7
  6
Continuous
370
13
390
13
347
21
1001
AcAecLayerStandard
1000

1000
Mimari — mahal adı ve alan
  0
LAYER
  5
93
330
1
100
AcDbSymbolTableRecord
100
AcDbLayerTableRecord
  2
A-MAHAL
 70
0
 62
250
  6
Continuous
370
18
390
13
347
21
1001
AcAecLayerStandard
1000

1000
Mimari — mahal numarası ve kapı kodu balonu
  0
LAYER
  5
94
330
1
100
AcDbSymbolTableRecord
100
AcDbLayerTableRecord
  2
A-KESIT-HAT
 70
0
 62
1
  6
DASHDOT
370
35
390
13
347
21
1001
AcAecLayerStandard
1000

1000
Mimari — kesit ve görünüş hattı
  0
LAYER
  5
95
330
1
100
AcDbSymbolTableRecord
100
AcDbLayerTableRecord
  2
A-ZEMIN-SINIR
 70
0
 62
30
  6
Continuous
370
25
390
13
347
21
1001
AcAecLayerStandard
1000

1000
Mimari — zemin kaplama tipi sınırı
  0
LAYER
  5
96
330
1
100
AcDbSymbolTableRecord
100
AcDbLayerTableRecord
  2
A-ZEMIN-YAZI
 70
0
 62
30
  6
Continuous
370
13
390
13
347
21
1001
AcAecLayerStandard
1000

1000
Mimari — zemin kaplama tipi ve kotu
  0
LAYER
  5
97
330
1
100
AcDbSymbolTableRecord
100
AcDbLayerTableRecord
  2
A-ZEMIN-DERZ
 70
0
 62
253
  6
Continuous
370
13
390
13
347
21
1001
AcAecLayerStandard
1000

1000
Mimari — kauçuk karo derz ızgarası
  0
LAYER
  5
98
330
1
100
AcDbSymbolTableRecord
100
AcDbLayerTableRecord
  2
A-TAVAN-SINIR
 70
0
 62
150
  6
Continuous
370
25
390
13
347
21
1001
AcAecLayerStandard
1000

1000
Mimari — asma tavan tipi sınırı
  0
LAYER
  5
99
330
1
100
AcDbSymbolTableRecord
100
AcDbLayerTableRecord
  2
A-TAVAN-YAZI
 70
0
 62
150
  6
Continuous
370
13
390
13
347
21
1001
AcAecLayerStandard
1000

1000
Mimari — asma tavan tipi ve kotu
  0
LAYER
  5
9A
330
1
100
AcDbSymbolTableRecord
100
AcDbLayerTableRecord
  2
A-TAVAN-KAPAK
 70
0
 62
150
  6
Continuous
370
18
390
13
347
21
1001
AcAecLayerStandard
1000

1000
Mimari — revizyon kapağı 300×300
  0
LAYER
  5
9B
330
1
100
AcDbSymbolTableRecord
100
AcDbLayerTableRecord
  2
A-KESIT-KESILEN
 70
0
 62
7
  6
Continuous
370
70
390
13
347
21
1001
AcAecLayerStandard
1000

1000
Kesit — kesilen eleman çeperi
  0
LAYER
  5
9C
330
1
100
AcDbSymbolTableRecord
100
AcDbLayerTableRecord
  2
A-KESIT-GORUNEN
 70
0
 62
7
  6
Continuous
370
35
390
13
347
21
1001
AcAecLayerStandard
1000

1000
Kesit — kesit düzlemi arkasında görünen
  0
LAYER
  5
9D
330
1
100
AcDbSymbolTableRecord
100
AcDbLayerTableRecord
  2
A-KESIT-ARKA
 70
0
 62
8
  6
Continuous
370
18
390
13
347
21
1001
AcAecLayerStandard
1000

1000
Kesit — arkada kalan / ikincil eleman
  0
LAYER
  5
9E
330
1
100
AcDbSymbolTableRecord
100
AcDbLayerTableRecord
  2
A-KESIT-TARAMA
 70
0
 62
253
  6
Continuous
370
13
390
13
347
21
1001
AcAecLayerStandard
1000

1000
Kesit — malzeme taraması
  0
LAYER
  5
9F
330
1
100
AcDbSymbolTableRecord
100
AcDbLayerTableRecord
  2
A-KESIT-YAPISAL
 70
0
 62
8
  6
Continuous
370
50
390
13
347
21
1001
AcAecLayerStandard
1000

1000
Kesit — mevcut betonarme döşeme ve duvar
  0
LAYER
  5
A0
330
1
100
AcDbSymbolTableRecord
100
AcDbLayerTableRecord
  2
A-KATMAN-CIZGI
 70
0
 62
251
  6
Continuous
370
13
390
13
347
21
1001
AcAecLayerStandard
1000

1000
Detay — katman ayrım çizgisi
  0
LAYER
  5
A1
330
1
100
AcDbSymbolTableRecord
100
AcDbLayerTableRecord
  2
A-KATMAN-YALITIM
 70
0
 62
6
  6
Continuous
370
35
390
13
347
21
1001
AcAecLayerStandard
1000

1000
Detay — su yalıtımı ve bandı
  0
LAYER
  5
A2
330
1
100
AcDbSymbolTableRecord
100
AcDbLayerTableRecord
  2
A-KOT-ISARET
 70
0
 62
250
  6
Continuous
370
25
390
13
347
21
1001
AcAecLayerStandard
1000

1000
Kot işareti ve değeri
  0
LAYER
  5
A3
330
1
100
AcDbSymbolTableRecord
100
AcDbLayerTableRecord
  2
A-GORUNUS-SINIR
 70
0
 62
7
  6
Continuous
370
50
390
13
347
21
1001
AcAecLayerStandard
1000

1000
İç görünüş — eleman dış sınırı
  0
LAYER
  5
A4
330
1
100
AcDbSymbolTableRecord
100
AcDbLayerTableRecord
  2
A-GORUNUS-IC
 70
0
 62
8
  6
Continuous
370
25
390
13
347
21
1001
AcAecLayerStandard
1000

1000
İç görünüş — iç bölüntü ve donatı
  0
LAYER
  5
A5
330
1
100
AcDbSymbolTableRecord
100
AcDbLayerTableRecord
  2
A-GORUNUS-DERZ
 70
0
 62
254
  6
Continuous
370
13
390
13
347
21
1001
AcAecLayerStandard
1000

1000
İç görünüş — seramik derz ızgarası
  0
LAYER
  5
A6
330
1
100
AcDbSymbolTableRecord
100
AcDbLayerTableRecord
  2
A-DETAY-CAGRI
 70
0
 62
1
  6
Continuous
370
25
390
13
347
21
1001
AcAecLayerStandard
1000

1000
Detay çağrı balonu ve kopuş çizgisi
  0
LAYER
  5
A7
330
1
100
AcDbSymbolTableRecord
100
AcDbLayerTableRecord
  2
A-TESISAT-KESIT
 70
0
 62
4
  6
Continuous
370
35
390
13
347
21
1001
AcAecLayerStandard
1000

1000
Kesit — tavan içi tesisat gövdesi
  0
LAYER
  5
A8
330
1
100
AcDbSymbolTableRecord
100
AcDbLayerTableRecord
  2
A-YANGIN-KACIS
 70
0
 62
3
  6
Continuous
370
50
390
13
347
21
1001
AcAecLayerStandard
1000

1000
Mimari — kaçış yolu ve çıkış
  0
LAYER
  5
A9
330
1
100
AcDbSymbolTableRecord
100
AcDbLayerTableRecord
  2
A-YANGIN-EKIP
 70
0
 62
1
  6
Continuous
370
35
390
13
347
21
1001
AcAecLayerStandard
1000

1000
Mimari — söndürücü, dolap, ihbar
  0
LAYER
  5
AA
330
1
100
AcDbSymbolTableRecord
100
AcDbLayerTableRecord
  2
M-HAVA-BESLEME
 70
0
 62
3
  6
Continuous
370
35
390
13
347
21
1001
AcAecLayerStandard
1000

1000
Mekanik — taze hava kanalı
  0
LAYER
  5
AB
330
1
100
AcDbSymbolTableRecord
100
AcDbLayerTableRecord
  2
M-HAVA-EGZOZ
 70
0
 62
1
  6
Continuous
370
35
390
13
347
21
1001
AcAecLayerStandard
1000

1000
Mekanik — egzoz kanalı
  0
LAYER
  5
AC
330
1
100
AcDbSymbolTableRecord
100
AcDbLayerTableRecord
  2
M-HAVA-ISLAK
 70
0
 62
6
  6
Continuous
370
25
390
13
347
21
1001
AcAecLayerStandard
1000

1000
Mekanik — ıslak hacim egzoz kanalı
  0
LAYER
  5
AD
330
1
100
AcDbSymbolTableRecord
100
AcDbLayerTableRecord
  2
M-HAVA-MENFEZ
 70
0
 62
3
  6
Continuous
370
25
390
13
347
21
1001
AcAecLayerStandard
1000

1000
Mekanik — menfez ve valf
  0
LAYER
  5
AE
330
1
100
AcDbSymbolTableRecord
100
AcDbLayerTableRecord
  2
M-HAVA-BRANSMAN
 70
0
 62
3
  6
DASHED
370
18
390
13
347
21
1001
AcAecLayerStandard
1000

1000
Mekanik — menfez branşmanı
  0
LAYER
  5
AF
330
1
100
AcDbSymbolTableRecord
100
AcDbLayerTableRecord
  2
M-HAVA-CIHAZ
 70
0
 62
2
  6
Continuous
370
35
390
13
347
21
1001
AcAecLayerStandard
1000

1000
Mekanik — fan ve panjur
  0
LAYER
  5
B0
330
1
100
AcDbSymbolTableRecord
100
AcDbLayerTableRecord
  2
M-KLIMA-IC
 70
0
 62
4
  6
Continuous
370
35
390
13
347
21
1001
AcAecLayerStandard
1000

1000
Mekanik — klima iç ünite
  0
LAYER
  5
B1
330
1
100
AcDbSymbolTableRecord
100
AcDbLayerTableRecord
  2
M-KLIMA-DIS
 70
0
 62
4
  6
Continuous
370
35
390
13
347
21
1001
AcAecLayerStandard
1000

1000
Mekanik — klima dış ünite platformu
  0
LAYER
  5
B2
330
1
100
AcDbSymbolTableRecord
100
AcDbLayerTableRecord
  2
M-KLIMA-BAKIR
 70
0
 62
4
  6
Continuous
370
25
390
13
347
21
1001
AcAecLayerStandard
1000

1000
Mekanik — soğutucu akışkan bakır hattı
  0
LAYER
  5
B3
330
1
100
AcDbSymbolTableRecord
100
AcDbLayerTableRecord
  2
M-KLIMA-DRENAJ
 70
0
 62
4
  6
DASHED
370
18
390
13
347
21
1001
AcAecLayerStandard
1000

1000
Mekanik — klima drenaj hattı
  0
LAYER
  5
B4
330
1
100
AcDbSymbolTableRecord
100
AcDbLayerTableRecord
  2
M-SIHHI-TEMIZ
 70
0
 62
5
  6
Continuous
370
25
390
13
347
21
1001
AcAecLayerStandard
1000

1000
Mekanik — temiz su PPRC
  0
LAYER
  5
B5
330
1
100
AcDbSymbolTableRecord
100
AcDbLayerTableRecord
  2
M-SIHHI-SICAK
 70
0
 62
30
  6
DASHED
370
25
390
13
347
21
1001
AcAecLayerStandard
1000

1000
Mekanik — sıcak su PPRC izoleli
  0
LAYER
  5
B6
330
1
100
AcDbSymbolTableRecord
100
AcDbLayerTableRecord
  2
M-SIHHI-PIS
 70
0
 62
8
  6
Continuous
370
35
390
13
347
21
1001
AcAecLayerStandard
1000

1000
Mekanik — pis su PVC
  0
LAYER
  5
B7
330
1
100
AcDbSymbolTableRecord
100
AcDbLayerTableRecord
  2
M-SIHHI-CIHAZ
 70
0
 62
8
  6
Continuous
370
25
390
13
347
21
1001
AcAecLayerStandard
1000

1000
Mekanik — vitrifiye ve su ısıtıcı
  0
LAYER
  5
B8
330
1
100
AcDbSymbolTableRecord
100
AcDbLayerTableRecord
  2
M-YAZI
 70
0
 62
7
  6
Continuous
370
13
390
13
347
21
1001
AcAecLayerStandard
1000

1000
Mekanik — etiket ve not
  0
LAYER
  5
B9
330
1
100
AcDbSymbolTableRecord
100
AcDbLayerTableRecord
  2
E-AYD-ARMATUR
 70
0
 62
2
  6
Continuous
370
25
390
13
347
21
1001
AcAecLayerStandard
1000

1000
Elektrik — lineer LED armatür
  0
LAYER
  5
BA
330
1
100
AcDbSymbolTableRecord
100
AcDbLayerTableRecord
  2
E-AYD-DOWNLIGHT
 70
0
 62
2
  6
Continuous
370
25
390
13
347
21
1001
AcAecLayerStandard
1000

1000
Elektrik — IP44 downlight
  0
LAYER
  5
BB
330
1
100
AcDbSymbolTableRecord
100
AcDbLayerTableRecord
  2
E-AYD-ACIL
 70
0
 62
3
  6
Continuous
370
25
390
13
347
21
1001
AcAecLayerStandard
1000

1000
Elektrik — acil aydınlatma / yönlendirme
  0
LAYER
  5
BC
330
1
100
AcDbSymbolTableRecord
100
AcDbLayerTableRecord
  2
E-AYD-ANAHTAR
 70
0
 62
2
  6
Continuous
370
18
390
13
347
21
1001
AcAecLayerStandard
1000

1000
Elektrik — anahtar ve sensör
  0
LAYER
  5
BD
330
1
100
AcDbSymbolTableRecord
100
AcDbLayerTableRecord
  2
E-KUVVET-PRIZ
 70
0
 62
5
  6
Continuous
370
25
390
13
347
21
1001
AcAecLayerStandard
1000

1000
Elektrik — priz
  0
LAYER
  5
BE
330
1
100
AcDbSymbolTableRecord
100
AcDbLayerTableRecord
  2
E-KUVVET-CIHAZ
 70
0
 62
5
  6
Continuous
370
25
390
13
347
21
1001
AcAecLayerStandard
1000

1000
Elektrik — klima/ısıtıcı/fan beslemesi
  0
LAYER
  5
BF
330
1
100
AcDbSymbolTableRecord
100
AcDbLayerTableRecord
  2
E-ZAYIF-KAMERA
 70
0
 62
6
  6
Continuous
370
25
390
13
347
21
1001
AcAecLayerStandard
1000

1000
Elektrik — IP kamera
  0
LAYER
  5
C0
330
1
100
AcDbSymbolTableRecord
100
AcDbLayerTableRecord
  2
E-ZAYIF-SES
 70
0
 62
6
  6
Continuous
370
25
390
13
347
21
1001
AcAecLayerStandard
1000

1000
Elektrik — tavan hoparlörü
  0
LAYER
  5
C1
330
1
100
AcDbSymbolTableRecord
100
AcDbLayerTableRecord
  2
E-ZAYIF-VERI
 70
0
 62
6
  6
Continuous
370
25
390
13
347
21
1001
AcAecLayerStandard
1000

1000
Elektrik — veri prizi ve rack
  0
LAYER
  5
C2
330
1
100
AcDbSymbolTableRecord
100
AcDbLayerTableRecord
  2
E-ZAYIF-YANGIN
 70
0
 62
1
  6
Continuous
370
25
390
13
347
21
1001
AcAecLayerStandard
1000

1000
Elektrik — dedektör, buton, siren
  0
LAYER
  5
C3
330
1
100
AcDbSymbolTableRecord
100
AcDbLayerTableRecord
  2
E-ZAYIF-LINYE
 70
0
 62
6
  6
DASHED
370
13
390
13
347
21
1001
AcAecLayerStandard
1000

1000
Elektrik — yangın algılama çevrimi
  0
LAYER
  5
C4
330
1
100
AcDbSymbolTableRecord
100
AcDbLayerTableRecord
  2
E-AYD-LINYE
 70
0
 62
2
  6
Continuous
370
25
390
13
347
21
1001
AcAecLayerStandard
1000

1000
Elektrik — aydınlatma linyesi (ortogonal)
  0
LAYER
  5
C5
330
1
100
AcDbSymbolTableRecord
100
AcDbLayerTableRecord
  2
E-AYD-SORTI
 70
0
 62
2
  6
DASHED
370
18
390
13
347
21
1001
AcAecLayerStandard
1000

1000
Elektrik — anahtar kumanda sortisi
  0
LAYER
  5
C6
330
1
100
AcDbSymbolTableRecord
100
AcDbLayerTableRecord
  2
E-KUVVET-LINYE
 70
0
 62
5
  6
Continuous
370
25
390
13
347
21
1001
AcAecLayerStandard
1000

1000
Elektrik — priz ve kuvvet linyesi
  0
LAYER
  5
C7
330
1
100
AcDbSymbolTableRecord
100
AcDbLayerTableRecord
  2
E-KUVVET-KOLON
 70
0
 62
5
  6
Continuous
370
50
390
13
347
21
1001
AcAecLayerStandard
1000

1000
Elektrik — kolon (ana besleme) hattı
  0
LAYER
  5
C8
330
1
100
AcDbSymbolTableRecord
100
AcDbLayerTableRecord
  2
E-KUVVET-BUAT
 70
0
 62
5
  6
Continuous
370
18
390
13
347
21
1001
AcAecLayerStandard
1000

1000
Elektrik — buat ve geçiş kutusu
  0
LAYER
  5
C9
330
1
100
AcDbSymbolTableRecord
100
AcDbLayerTableRecord
  2
E-ZAYIF-TAVA
 70
0
 62
6
  6
Continuous
370
18
390
13
347
21
1001
AcAecLayerStandard
1000

1000
Elektrik — zayıf akım kablo kanalı
  0
LAYER
  5
CA
330
1
100
AcDbSymbolTableRecord
100
AcDbLayerTableRecord
  2
E-TOPRAK-ELEKTROT
 70
0
 62
3
  6
Continuous
370
50
390
13
347
21
1001
AcAecLayerStandard
1000

1000
Elektrik — çubuk elektrot
  0
LAYER
  5
CB
330
1
100
AcDbSymbolTableRecord
100
AcDbLayerTableRecord
  2
E-TOPRAK-SERIT
 70
0
 62
3
  6
Continuous
370
50
390
13
347
21
1001
AcAecLayerStandard
1000

1000
Elektrik — elektrot bağlantı şeridi
  0
LAYER
  5
CC
330
1
100
AcDbSymbolTableRecord
100
AcDbLayerTableRecord
  2
E-TOPRAK-ILETKEN
 70
0
 62
3
  6
DASHDOT
370
35
390
13
347
21
1001
AcAecLayerStandard
1000

1000
Elektrik — topraklama iletkeni
  0
LAYER
  5
CD
330
1
100
AcDbSymbolTableRecord
100
AcDbLayerTableRecord
  2
E-TOPRAK-BARA
 70
0
 62
3
  6
Continuous
370
50
390
13
347
21
1001
AcAecLayerStandard
1000

1000
Elektrik — ATB / EPDB barası
  0
LAYER
  5
CE
330
1
100
AcDbSymbolTableRecord
100
AcDbLayerTableRecord
  2
E-TOPRAK-YAZI
 70
0
 62
3
  6
Continuous
370
13
390
13
347
21
1001
AcAecLayerStandard
1000

1000
Elektrik — topraklama etiketi
  0
LAYER
  5
CF
330
1
100
AcDbSymbolTableRecord
100
AcDbLayerTableRecord
  2
E-TEKHAT-TEL
 70
0
 62
7
  6
Continuous
370
35
390
13
347
21
1001
AcAecLayerStandard
1000

1000
Tek hat — iletken
  0
LAYER
  5
D0
330
1
100
AcDbSymbolTableRecord
100
AcDbLayerTableRecord
  2
E-TEKHAT-SEMBOL
 70
0
 62
7
  6
Continuous
370
35
390
13
347
21
1001
AcAecLayerStandard
1000

1000
Tek hat — IEC 60617 sembolü
  0
LAYER
  5
D1
330
1
100
AcDbSymbolTableRecord
100
AcDbLayerTableRecord
  2
E-TEKHAT-BARA
 70
0
 62
7
  6
Continuous
370
70
390
13
347
21
1001
AcAecLayerStandard
1000

1000
Tek hat — bara
  0
LAYER
  5
D2
330
1
100
AcDbSymbolTableRecord
100
AcDbLayerTableRecord
  2
E-TEKHAT-SINIR
 70
0
 62
8
  6
DASHDOT
370
35
390
13
347
21
1001
AcAecLayerStandard
1000

1000
Tek hat — pano sınırı
  0
LAYER
  5
D3
330
1
100
AcDbSymbolTableRecord
100
AcDbLayerTableRecord
  2
E-TEKHAT-GRUP
 70
0
 62
8
  6
Continuous
370
25
390
13
347
21
1001
AcAecLayerStandard
1000

1000
Tek hat — kaçak akım grubu parantezi
  0
LAYER
  5
D4
330
1
100
AcDbSymbolTableRecord
100
AcDbLayerTableRecord
  2
E-TEKHAT-TABLO
 70
0
 62
7
  6
Continuous
370
18
390
13
347
21
1001
AcAecLayerStandard
1000

1000
Tek hat — veri matrisi
  0
LAYER
  5
D5
330
1
100
AcDbSymbolTableRecord
100
AcDbLayerTableRecord
  2
E-TEKHAT-YAZI
 70
0
 62
7
  6
Continuous
370
18
390
13
347
21
1001
AcAecLayerStandard
1000

1000
Tek hat — etiket ve not
  0
LAYER
  5
D6
330
1
100
AcDbSymbolTableRecord
100
AcDbLayerTableRecord
  2
E-TEKHAT-YEDEK
 70
0
 62
8
  6
DASHED
370
25
390
13
347
21
1001
AcAecLayerStandard
1000

1000
Tek hat — yedek / boş modül
  0
LAYER
  5
D7
330
1
100
AcDbSymbolTableRecord
100
AcDbLayerTableRecord
  2
E-SEMA-TEL
 70
0
 62
7
  6
Continuous
370
25
390
13
347
21
1001
AcAecLayerStandard
1000

1000
Şema — iletken
  0
LAYER
  5
D8
330
1
100
AcDbSymbolTableRecord
100
AcDbLayerTableRecord
  2
E-SEMA-SEMBOL
 70
0
 62
7
  6
Continuous
370
35
390
13
347
21
1001
AcAecLayerStandard
1000

1000
Şema — IEC 60617 sembolü
  0
LAYER
  5
D9
330
1
100
AcDbSymbolTableRecord
100
AcDbLayerTableRecord
  2
E-SEMA-RAY
 70
0
 62
7
  6
Continuous
370
35
390
13
347
21
1001
AcAecLayerStandard
1000

1000
Şema — potansiyel rayı (L1/L2/L3/N)
  0
LAYER
  5
DA
330
1
100
AcDbSymbolTableRecord
100
AcDbLayerTableRecord
  2
E-SEMA-PE
 70
0
 62
7
  6
DASHDOT
370
35
390
13
347
21
1001
AcAecLayerStandard
1000

1000
Şema — PE rayı ve koruma iletkeni
  0
LAYER
  5
DB
330
1
100
AcDbSymbolTableRecord
100
AcDbLayerTableRecord
  2
E-SEMA-KLEMENS
 70
0
 62
7
  6
Continuous
370
25
390
13
347
21
1001
AcAecLayerStandard
1000

1000
Şema — klemens
  0
LAYER
  5
DC
330
1
100
AcDbSymbolTableRecord
100
AcDbLayerTableRecord
  2
E-SEMA-YUK
 70
0
 62
8
  6
DASHED
370
18
390
13
347
21
1001
AcAecLayerStandard
1000

1000
Şema — saha cihazı
  0
LAYER
  5
DD
330
1
100
AcDbSymbolTableRecord
100
AcDbLayerTableRecord
  2
E-SEMA-ZON
 70
0
 62
8
  6
Continuous
370
18
390
13
347
21
1001
AcAecLayerStandard
1000

1000
Şema — kenar ızgarası
  0
LAYER
  5
DE
330
1
100
AcDbSymbolTableRecord
100
AcDbLayerTableRecord
  2
E-SEMA-ANTET
 70
0
 62
7
  6
Continuous
370
50
390
13
347
21
1001
AcAecLayerStandard
1000

1000
Şema — antet ve çerçeve
  0
LAYER
  5
DF
330
1
100
AcDbSymbolTableRecord
100
AcDbLayerTableRecord
  2
E-SEMA-YAZI
 70
0
 62
7
  6
Continuous
370
18
390
13
347
21
1001
AcAecLayerStandard
1000

1000
Şema — etiket ve tel numarası
  0
LAYER
  5
E0
330
1
100
AcDbSymbolTableRecord
100
AcDbLayerTableRecord
  2
E-PANO
 70
0
 62
7
  6
Continuous
370
50
390
13
347
21
1001
AcAecLayerStandard
1000

1000
Elektrik — ana dağıtım panosu
  0
LAYER
  5
E1
330
1
100
AcDbSymbolTableRecord
100
AcDbLayerTableRecord
  2
E-YAZI
 70
0
 62
7
  6
Continuous
370
13
390
13
347
21
1001
AcAecLayerStandard
1000

1000
Elektrik — etiket ve not
  0
LAYER
  5
E2
330
1
100
AcDbSymbolTableRecord
100
AcDbLayerTableRecord
  2
G-OLCU
 70
0
 62
7
  6
Continuous
370
13
390
13
347
21
1001
AcAecLayerStandard
1000

1000
Genel — ölçülendirme
  0
LAYER
  5
E3
330
1
100
AcDbSymbolTableRecord
100
AcDbLayerTableRecord
  2
G-YAZI
 70
0
 62
7
  6
Continuous
370
18
390
13
347
21
1001
AcAecLayerStandard
1000

1000
Genel — başlık ve açıklama
  0
LAYER
  5
E4
330
1
100
AcDbSymbolTableRecord
100
AcDbLayerTableRecord
  2
G-ANTET
 70
0
 62
7
  6
Continuous
370
25
390
13
347
21
1001
AcAecLayerStandard
1000

1000
Genel — antet ve revizyon tablosu
  0
LAYER
  5
E5
330
1
100
AcDbSymbolTableRecord
100
AcDbLayerTableRecord
  2
G-CERCEVE
 70
0
 62
7
  6
Continuous
370
70
390
13
347
21
1001
AcAecLayerStandard
1000

1000
Genel — pafta çizim çerçevesi (ISO 5457)
  0
LAYER
  5
E6
330
1
100
AcDbSymbolTableRecord
100
AcDbLayerTableRecord
  2
G-PAFTA-ZON
 70
0
 62
8
  6
Continuous
370
13
390
13
347
21
1001
AcAecLayerStandard
1000

1000
Genel — kenar ızgarası / bölge referansı
  0
LAYER
  5
E7
330
1
100
AcDbSymbolTableRecord
100
AcDbLayerTableRecord
  2
G-VIEWPORT
 70
0
 62
251
  6
Continuous
290
0
370
13
390
13
347
21
1001
AcAecLayerStandard
1000

1000
Genel — görüntü penceresi (basılmaz)
  0
LAYER
  5
E8
330
1
100
AcDbSymbolTableRecord
100
AcDbLayerTableRecord
  2
G-AKS-HAT
 70
0
 62
8
  6
DASHDOT
370
18
390
13
347
21
1001
AcAecLayerStandard
1000

1000
Genel — aks çizgisi
  0
LAYER
  5
E9
330
1
100
AcDbSymbolTableRecord
100
AcDbLayerTableRecord
  2
G-AKS-BALON
 70
0
 62
8
  6
Continuous
370
25
390
13
347
21
1001
AcAecLayerStandard
1000

1000
Genel — aks balonu
  0
LAYER
  5
EA
330
1
100
AcDbSymbolTableRecord
100
AcDbLayerTableRecord
  2
G-OLCU-ZINCIR
 70
0
 62
7
  6
Continuous
370
13
390
13
347
21
1001
AcAecLayerStandard
1000

1000
Genel — zincir ölçü
  0
LAYER
  5
EB
330
1
100
AcDbSymbolTableRecord
100
AcDbLayerTableRecord
  2
G-KESIT-ISARET
 70
0
 62
1
  6
Continuous
370
50
390
13
347
21
1001
AcAecLayerStandard
1000

1000
Genel — kesit ve detay işareti
  0
LAYER
  5
EC
330
1
100
AcDbSymbolTableRecord
100
AcDbLayerTableRecord
  2
G-KUZEY
 70
0
 62
7
  6
Continuous
370
25
390
13
347
21
1001
AcAecLayerStandard
1000

1000
Genel — kuzey oku ve ölçek
  0
ENDTAB
  0
TABLE
  2
STYLE
  5
5
330
0
100
AcDbSymbolTable
 70
28
  0
STYLE
  5
29
330
5
100
AcDbSymbolTableRecord
100
AcDbTextStyleTableRecord
  2
Standard
 70
0
 40
0.0
 41
1.0
 50
0.0
 71
0
 42
2.5
  3
txt
  4

  0
STYLE
  5
41
330
5
100
AcDbSymbolTableRecord
100
AcDbTextStyleTableRecord
  2
OpenSans-Light
 70
0
 40
0.0
 41
1.0
 50
0.0
 71
0
 42
2.5
  3
OpenSans-Light.ttf
  4

  0
STYLE
  5
42
330
5
100
AcDbSymbolTableRecord
100
AcDbTextStyleTableRecord
  2
OpenSans-Light-Italic
 70
0
 40
0.0
 41
1.0
 50
0.0
 71
0
 42
2.5
  3
OpenSans-LightItalic.ttf
  4

  0
STYLE
  5
43
330
5
100
AcDbSymbolTableRecord
100
AcDbTextStyleTableRecord
  2
OpenSans
 70
0
 40
0.0
 41
1.0
 50
0.0
 71
0
 42
2.5
  3
OpenSans-Regular.ttf
  4

  0
STYLE
  5
44
330
5
100
AcDbSymbolTableRecord
100
AcDbTextStyleTableRecord
  2
OpenSans-Italic
 70
0
 40
0.0
 41
1.0
 50
0.0
 71
0
 42
2.5
  3
OpenSans-Italic.ttf
  4

  0
STYLE
  5
45
330
5
100
AcDbSymbolTableRecord
100
AcDbTextStyleTableRecord
  2
OpenSans-SemiBold
 70
0
 40
0.0
 41
1.0
 50
0.0
 71
0
 42
2.5
  3
OpenSans-SemiBold.ttf
  4

  0
STYLE
  5
46
330
5
100
AcDbSymbolTableRecord
100
AcDbTextStyleTableRecord
  2
OpenSans-SemiBoldItalic
 70
0
 40
0.0
 41
1.0
 50
0.0
 71
0
 42
2.5
  3
OpenSans-SemiBoldItalic.ttf
  4

  0
STYLE
  5
47
330
5
100
AcDbSymbolTableRecord
100
AcDbTextStyleTableRecord
  2
OpenSans-Bold
 70
0
 40
0.0
 41
1.0
 50
0.0
 71
0
 42
2.5
  3
OpenSans-Bold.ttf
  4

  0
STYLE
  5
48
330
5
100
AcDbSymbolTableRecord
100
AcDbTextStyleTableRecord
  2
OpenSans-BoldItalic
 70
0
 40
0.0
 41
1.0
 50
0.0
 71
0
 42
2.5
  3
OpenSans-BoldItalic.ttf
  4

  0
STYLE
  5
49
330
5
100
AcDbSymbolTableRecord
100
AcDbTextStyleTableRecord
  2
OpenSans-ExtraBold
 70
0
 40
0.0
 41
1.0
 50
0.0
 71
0
 42
2.5
  3
OpenSans-ExtraBold.ttf
  4

  0
STYLE
  5
4A
330
5
100
AcDbSymbolTableRecord
100
AcDbTextStyleTableRecord
  2
OpenSans-ExtraBoldItalic
 70
0
 40
0.0
 41
1.0
 50
0.0
 71
0
 42
2.5
  3
OpenSans-ExtraBoldItalic.ttf
  4

  0
STYLE
  5
4B
330
5
100
AcDbSymbolTableRecord
100
AcDbTextStyleTableRecord
  2
OpenSansCondensed-Bold
 70
0
 40
0.0
 41
1.0
 50
0.0
 71
0
 42
2.5
  3
OpenSansCondensed-Bold.ttf
  4

  0
STYLE
  5
4C
330
5
100
AcDbSymbolTableRecord
100
AcDbTextStyleTableRecord
  2
OpenSansCondensed-Light
 70
0
 40
0.0
 41
1.0
 50
0.0
 71
0
 42
2.5
  3
OpenSansCondensed-Light.ttf
  4

  0
STYLE
  5
4D
330
5
100
AcDbSymbolTableRecord
100
AcDbTextStyleTableRecord
  2
OpenSansCondensed-Italic
 70
0
 40
0.0
 41
1.0
 50
0.0
 71
0
 42
2.5
  3
OpenSansCondensed-LightItalic.ttf
  4

  0
STYLE
  5
4E
330
5
100
AcDbSymbolTableRecord
100
AcDbTextStyleTableRecord
  2
LiberationSans
 70
0
 40
0.0
 41
1.0
 50
0.0
 71
0
 42
2.5
  3
LiberationSans-Regular.ttf
  4

  0
STYLE
  5
4F
330
5
100
AcDbSymbolTableRecord
100
AcDbTextStyleTableRecord
  2
LiberationSans-Bold
 70
0
 40
0.0
 41
1.0
 50
0.0
 71
0
 42
2.5
  3
LiberationSans-Bold.ttf
  4

  0
STYLE
  5
50
330
5
100
AcDbSymbolTableRecord
100
AcDbTextStyleTableRecord
  2
LiberationSans-BoldItalic
 70
0
 40
0.0
 41
1.0
 50
0.0
 71
0
 42
2.5
  3
LiberationSans-BoldItalic.ttf
  4

  0
STYLE
  5
51
330
5
100
AcDbSymbolTableRecord
100
AcDbTextStyleTableRecord
  2
LiberationSans-Italic
 70
0
 40
0.0
 41
1.0
 50
0.0
 71
0
 42
2.5
  3
LiberationSans-Italic.ttf
  4

  0
STYLE
  5
52
330
5
100
AcDbSymbolTableRecord
100
AcDbTextStyleTableRecord
  2
LiberationSerif
 70
0
 40
0.0
 41
1.0
 50
0.0
 71
0
 42
2.5
  3
LiberationSerif-Regular.ttf
  4

  0
STYLE
  5
53
330
5
100
AcDbSymbolTableRecord
100
AcDbTextStyleTableRecord
  2
LiberationSerif-Bold
 70
0
 40
0.0
 41
1.0
 50
0.0
 71
0
 42
2.5
  3
LiberationSerif-Bold.ttf
  4

  0
STYLE
  5
54
330
5
100
AcDbSymbolTableRecord
100
AcDbTextStyleTableRecord
  2
LiberationSerif-BoldItalic
 70
0
 40
0.0
 41
1.0
 50
0.0
 71
0
 42
2.5
  3
LiberationSerif-BoldItalic.ttf
  4

  0
STYLE
  5
55
330
5
100
AcDbSymbolTableRecord
100
AcDbTextStyleTableRecord
  2
LiberationSerif-Italic
 70
0
 40
0.0
 41
1.0
 50
0.0
 71
0
 42
2.5
  3
LiberationSerif-Italic.ttf
  4

  0
STYLE
  5
56
330
5
100
AcDbSymbolTableRecord
100
AcDbTextStyleTableRecord
  2
LiberationMono
 70
0
 40
0.0
 41
1.0
 50
0.0
 71
0
 42
2.5
  3
LiberationMono-Regular.ttf
  4

  0
STYLE
  5
57
330
5
100
AcDbSymbolTableRecord
100
AcDbTextStyleTableRecord
  2
LiberationMono-Bold
 70
0
 40
0.0
 41
1.0
 50
0.0
 71
0
 42
2.5
  3
LiberationMono-Bold.ttf
  4

  0
STYLE
  5
58
330
5
100
AcDbSymbolTableRecord
100
AcDbTextStyleTableRecord
  2
LiberationMono-BoldItalic
 70
0
 40
0.0
 41
1.0
 50
0.0
 71
0
 42
2.5
  3
LiberationMono-BoldItalic.ttf
  4

  0
STYLE
  5
59
330
5
100
AcDbSymbolTableRecord
100
AcDbTextStyleTableRecord
  2
LiberationMono-Italic
 70
0
 40
0.0
 41
1.0
 50
0.0
 71
0
 42
2.5
  3
LiberationMono-Italic.ttf
  4

  0
STYLE
  5
ED
330
5
100
AcDbSymbolTableRecord
100
AcDbTextStyleTableRecord
  2
GYM
 70
0
 40
0.0
 41
1.0
 50
0.0
 71
0
 42
2.5
  3
arial.ttf
  4

  0
STYLE
  5
EE
330
5
100
AcDbSymbolTableRecord
100
AcDbTextStyleTableRecord
  2
GYM-B
 70
0
 40
0.0
 41
1.0
 50
0.0
 71
0
 42
2.5
  3
arialbd.ttf
  4

  0
ENDTAB
  0
TABLE
  2
VIEW
  5
7
330
0
100
AcDbSymbolTable
 70
0
  0
ENDTAB
  0
TABLE
  2
UCS
  5
6
330
0
100
AcDbSymbolTable
 70
0
  0
ENDTAB
  0
TABLE
  2
APPID
  5
3
330
0
100
AcDbSymbolTable
 70
4
  0
APPID
  5
2A
330
3
100
AcDbSymbolTableRecord
100
AcDbRegAppTableRecord
  2
ACAD
 70
0
  0
APPID
  5
8B
330
3
100
AcDbSymbolTableRecord
100
AcDbRegAppTableRecord
  2
AcAecLayerStandard
 70
0
  0
APPID
  5
42E
330
3
100
AcDbSymbolTableRecord
100
AcDbRegAppTableRecord
  2
HATCHBACKGROUNDCOLOR
 70
0
  0
APPID
  5
42F
330
3
100
AcDbSymbolTableRecord
100
AcDbRegAppTableRecord
  2
EZDXF
 70
0
  0
ENDTAB
  0
TABLE
  2
DIMSTYLE
  5
4
330
0
100
AcDbSymbolTable
 70
19
100
AcDbDimStyleTable
  0
DIMSTYLE
105
2B
330
4
100
AcDbSymbolTableRecord
100
AcDbDimStyleTableRecord
  2
Standard
 70
0
 40
1.0
 41
2.5
 42
0.625
 43
3.75
 44
1.25
 45
0.0
 46
0.0
 47
0.0
 48
0.0
 49
2.5
140
2.5
141
2.5
142
0.0
143
0.03937007874
144
1.0
145
0.0
146
1.0
147
0.625
148
0.0
 69
0
 70
0
 71
0
 72
0
 73
0
 74
0
 75
0
 76
0
 77
1
 78
8
 79
3
170
0
171
3
172
1
173
0
174
0
175
0
176
0
177
0
178
0
179
2
271
2
272
2
273
2
274
3
275
0
276
0
277
2
278
44
279
0
280
0
281
0
282
0
283
0
284
8
285
0
286
0
288
0
289
3
290
0
371
-2
372
-2
  0
DIMSTYLE
105
73
330
4
100
AcDbSymbolTableRecord
100
AcDbDimStyleTableRecord
  2
EZDXF
 70
0
 40
1.0
 41
0.175
 42
0.125
 43
3.75
 44
0.375
 45
0.0
 46
0.0
 47
0.0
 48
0.0
 49
2.5
140
0.25
141
2.5
142
0.0
143
0.03937007874
144
100.0
145
0.0
146
0.5
147
0.1
148
0.0
 69
0
 70
0
 71
0
 72
0
 73
0
 74
0
 75
0
 76
0
 77
1
 78
12
 79
3
170
0
171
3
172
1
173
0
174
0
175
0
176
0
177
0
178
0
179
2
271
2
272
2
273
2
274
3
275
0
276
0
277
2
278
46
279
2
280
0
281
0
282
0
283
0
284
8
285
0
286
0
288
1
289
3
290
0
340
4C
342
74
371
-2
372
-2
  0
DIMSTYLE
105
7C
330
4
100
AcDbSymbolTableRecord
100
AcDbDimStyleTableRecord
  2
EZ_M_100_H25_CM
 70
0
 40
1.0
 41
0.25
 42
0.125
 43
3.75
 44
0.375
 45
0.0
 46
0.0
 47
0.0
 48
0.0
 49
2.5
140
0.25
141
2.5
142
0.125
143
0.03937007874
144
100.0
145
0.0
146
0.5
147
0.1
148
0.0
 69
0
 70
0
 71
0
 72
0
 73
0
 74
0
 75
0
 76
0
 77
1
 78
12
 79
3
170
0
171
3
172
1
173
0
174
0
175
0
176
0
177
0
178
0
179
2
271
2
272
2
273
2
274
3
275
0
276
0
277
2
278
46
279
2
280
0
281
0
282
0
283
0
284
8
285
0
286
0
288
1
289
3
290
0
340
4C
371
-2
372
-2
  0
DIMSTYLE
105
7D
330
4
100
AcDbSymbolTableRecord
100
AcDbDimStyleTableRecord
  2
EZ_M_50_H25_CM
 70
0
 40
1.0
 41
0.125
 42
0.0625
 43
3.75
 44
0.1875
 45
0.0
 46
0.0
 47
0.0
 48
0.0
 49
2.5
140
0.125
141
2.5
142
0.0625
143
0.03937007874
144
100.0
145
0.0
146
0.5
147
0.05
148
0.0
 69
0
 70
0
 71
0
 72
0
 73
0
 74
0
 75
0
 76
0
 77
1
 78
12
 79
3
170
0
171
3
172
1
173
0
174
0
175
0
176
0
177
0
178
0
179
2
271
2
272
2
273
2
274
3
275
0
276
0
277
2
278
46
279
2
280
0
281
0
282
0
283
0
284
8
285
0
286
0
288
1
289
3
290
0
340
4C
371
-2
372
-2
  0
DIMSTYLE
105
7E
330
4
100
AcDbSymbolTableRecord
100
AcDbDimStyleTableRecord
  2
EZ_M_25_H25_CM
 70
0
 40
1.0
 41
0.0625
 42
0.03125
 43
3.75
 44
0.09375
 45
0.0
 46
0.0
 47
0.0
 48
0.0
 49
2.5
140
0.0625
141
2.5
142
0.03125
143
0.03937007874
144
100.0
145
0.0
146
0.5
147
0.025
148
0.0
 69
0
 70
0
 71
0
 72
0
 73
0
 74
0
 75
0
 76
0
 77
1
 78
12
 79
3
170
0
171
3
172
1
173
0
174
0
175
0
176
0
177
0
178
0
179
2
271
2
272
2
273
2
274
3
275
0
276
0
277
2
278
46
279
2
280
0
281
0
282
0
283
0
284
8
285
0
286
0
288
1
289
3
290
0
340
4C
371
-2
372
-2
  0
DIMSTYLE
105
7F
330
4
100
AcDbSymbolTableRecord
100
AcDbDimStyleTableRecord
  2
EZ_M_20_H25_CM
 70
0
 40
1.0
 41
0.05
 42
0.025
 43
3.75
 44
0.07500000000000001
 45
0.0
 46
0.0
 47
0.0
 48
0.0
 49
2.5
140
0.05
141
2.5
142
0.025
143
0.03937007874
144
100.0
145
0.0
146
0.5
147
0.020000000000000004
148
0.0
 69
0
 70
0
 71
0
 72
0
 73
0
 74
0
 75
0
 76
0
 77
1
 78
12
 79
3
170
0
171
3
172
1
173
0
174
0
175
0
176
0
177
0
178
0
179
2
271
2
272
2
273
2
274
3
275
0
276
0
277
2
278
46
279
2
280
0
281
0
282
0
283
0
284
8
285
0
286
0
288
1
289
3
290
0
340
4C
371
-2
372
-2
  0
DIMSTYLE
105
80
330
4
100
AcDbSymbolTableRecord
100
AcDbDimStyleTableRecord
  2
EZ_M_10_H25_CM
 70
0
 40
1.0
 41
0.025
 42
0.0125
 43
3.75
 44
0.037500000000000006
 45
0.0
 46
0.0
 47
0.0
 48
0.0
 49
2.5
140
0.025
141
2.5
142
0.0125
143
0.03937007874
144
100.0
145
0.0
146
0.5
147
0.010000000000000002
148
0.0
 69
0
 70
0
 71
0
 72
0
 73
0
 74
0
 75
0
 76
0
 77
1
 78
12
 79
3
170
0
171
3
172
1
173
0
174
0
175
0
176
0
177
0
178
0
179
2
271
2
272
2
273
2
274
3
275
0
276
0
277
2
278
46
279
2
280
0
281
0
282
0
283
0
284
8
285
0
286
0
288
1
289
3
290
0
340
4C
371
-2
372
-2
  0
DIMSTYLE
105
81
330
4
100
AcDbSymbolTableRecord
100
AcDbDimStyleTableRecord
  2
EZ_M_5_H25_CM
 70
0
 40
1.0
 41
0.0125
 42
0.00625
 43
3.75
 44
0.018750000000000003
 45
0.0
 46
0.0
 47
0.0
 48
0.0
 49
2.5
140
0.0125
141
2.5
142
0.00625
143
0.03937007874
144
100.0
145
0.0
146
0.5
147
0.005000000000000001
148
0.0
 69
0
 70
0
 71
0
 72
0
 73
0
 74
0
 75
0
 76
0
 77
1
 78
12
 79
3
170
0
171
3
172
1
173
0
174
0
175
0
176
0
177
0
178
0
179
2
271
2
272
2
273
2
274
3
275
0
276
0
277
2
278
46
279
2
280
0
281
0
282
0
283
0
284
8
285
0
286
0
288
1
289
3
290
0
340
4C
371
-2
372
-2
  0
DIMSTYLE
105
82
330
4
100
AcDbSymbolTableRecord
100
AcDbDimStyleTableRecord
  2
EZ_M_1_H25_CM
 70
0
 40
1.0
 41
0.0025
 42
0.00125
 43
3.75
 44
0.00375
 45
0.0
 46
0.0
 47
0.0
 48
0.0
 49
2.5
140
0.0025
141
2.5
142
0.00125
143
0.03937007874
144
100.0
145
0.0
146
0.5
147
0.001
148
0.0
 69
0
 70
0
 71
0
 72
0
 73
0
 74
0
 75
0
 76
0
 77
1
 78
12
 79
3
170
0
171
3
172
1
173
0
174
0
175
0
176
0
177
0
178
0
179
2
271
2
272
2
273
2
274
3
275
0
276
0
277
2
278
46
279
2
280
0
281
0
282
0
283
0
284
8
285
0
286
0
288
1
289
3
290
0
340
4C
371
-2
372
-2
  0
DIMSTYLE
105
83
330
4
100
AcDbSymbolTableRecord
100
AcDbDimStyleTableRecord
  2
EZ_RADIUS
 70
0
 40
1.0
 41
0.25
 42
0.125
 43
3.75
 44
0.375
 45
0.0
 46
0.0
 47
0.0
 48
0.0
 49
2.5
140
0.25
141
0.0
142
0.0
143
0.03937007874
144
100.0
145
0.0
146
0.5
147
0.1
148
0.0
 69
0
 70
0
 71
0
 72
0
 73
0
 74
0
 75
0
 76
0
 77
1
 78
12
 79
3
170
0
171
3
172
0
173
0
174
0
175
0
176
0
177
0
178
0
179
2
271
2
272
2
273
2
274
3
275
0
276
0
277
2
278
46
279
1
280
0
281
0
282
0
283
0
284
8
285
0
286
0
288
1
289
3
290
0
340
4C
342
84
371
-2
372
-2
  0
DIMSTYLE
105
88
330
4
100
AcDbSymbolTableRecord
100
AcDbDimStyleTableRecord
  2
EZ_RADIUS_INSIDE
 70
0
 40
1.0
 41
0.25
 42
0.125
 43
3.75
 44
0.375
 45
0.0
 46
0.0
 47
0.0
 48
0.0
 49
2.5
140
0.25
141
0.0
142
0.0
143
0.03937007874
144
100.0
145
0.0
146
0.5
147
0.1
148
0.0
 69
0
 70
0
 71
0
 72
0
 73
0
 74
0
 75
0
 76
0
 77
0
 78
12
 79
3
170
0
171
3
172
0
173
0
174
1
175
0
176
0
177
0
178
0
179
2
271
2
272
2
273
2
274
3
275
0
276
0
277
2
278
46
279
0
280
0
281
0
282
0
283
0
284
8
285
0
286
0
288
1
289
0
290
0
340
4C
342
84
371
-2
372
-2
  0
DIMSTYLE
105
89
330
4
100
AcDbSymbolTableRecord
100
AcDbDimStyleTableRecord
  2
EZ_CURVED
 70
0
 40
1.0
 41
0.25
 42
0.125
 43
3.75
 44
0.375
 45
0.0
 46
0.0
 47
0.0
 48
0.0
 49
2.5
140
0.25
141
2.5
142
0.0
143
0.03937007874
144
100.0
145
0.0
146
0.5
147
0.1
148
0.0
 69
0
 70
0
 71
0
 72
0
 73
0
 74
0
 75
0
 76
0
 77
1
 78
12
 79
2
 90
2
170
0
171
3
172
1
173
0
174
0
175
0
176
0
177
0
178
0
179
2
271
2
272
2
273
2
274
3
275
0
276
0
277
2
278
46
279
2
280
0
281
0
282
0
283
0
284
8
285
0
286
0
288
1
289
3
290
0
340
4C
371
-2
372
-2
  0
DIMSTYLE
105
EF
330
4
100
AcDbSymbolTableRecord
100
AcDbDimStyleTableRecord
  2
GYM-5
 70
0
 40
5.0
 41
2.5
 42
1.5
 43
7.0
 44
1.25
 45
0.0
 46
0.0
 47
0.0
 48
0.0
 49
2.5
140
2.5
141
2.5
142
0.0
143
0.03937007874
144
1.0
145
0.0
146
1.0
147
0.9
148
0.0
 69
0
 70
0
 71
0
 72
0
 73
0
 74
0
 75
0
 76
0
 77
1
 78
8
 79
3
170
0
171
3
172
1
173
0
174
0
175
0
176
7
177
7
178
7
179
2
271
0
272
2
273
2
274
3
275
0
276
0
277
2
278
44
279
0
280
0
281
0
282
0
283
0
284
8
285
0
286
0
288
0
289
3
290
0
340
ED
342
74
371
18
372
13
  0
DIMSTYLE
105
F0
330
4
100
AcDbSymbolTableRecord
100
AcDbDimStyleTableRecord
  2
GYM-10
 70
0
 40
10.0
 41
2.5
 42
1.5
 43
7.0
 44
1.25
 45
0.0
 46
0.0
 47
0.0
 48
0.0
 49
2.5
140
2.5
141
2.5
142
0.0
143
0.03937007874
144
1.0
145
0.0
146
1.0
147
0.9
148
0.0
 69
0
 70
0
 71
0
 72
0
 73
0
 74
0
 75
0
 76
0
 77
1
 78
8
 79
3
170
0
171
3
172
1
173
0
174
0
175
0
176
7
177
7
178
7
179
2
271
0
272
2
273
2
274
3
275
0
276
0
277
2
278
44
279
0
280
0
281
0
282
0
283
0
284
8
285
0
286
0
288
0
289
3
290
0
340
ED
342
74
371
18
372
13
  0
DIMSTYLE
105
F1
330
4
100
AcDbSymbolTableRecord
100
AcDbDimStyleTableRecord
  2
GYM-20
 70
0
 40
20.0
 41
2.5
 42
1.5
 43
7.0
 44
1.25
 45
0.0
 46
0.0
 47
0.0
 48
0.0
 49
2.5
140
2.5
141
2.5
142
0.0
143
0.03937007874
144
1.0
145
0.0
146
1.0
147
0.9
148
0.0
 69
0
 70
0
 71
0
 72
0
 73
0
 74
0
 75
0
 76
0
 77
1
 78
8
 79
3
170
0
171
3
172
1
173
0
174
0
175
0
176
7
177
7
178
7
179
2
271
0
272
2
273
2
274
3
275
0
276
0
277
2
278
44
279
0
280
0
281
0
282
0
283
0
284
8
285
0
286
0
288
0
289
3
290
0
340
ED
342
74
371
18
372
13
  0
DIMSTYLE
105
F2
330
4
100
AcDbSymbolTableRecord
100
AcDbDimStyleTableRecord
  2
GYM-25
 70
0
 40
25.0
 41
2.5
 42
1.5
 43
7.0
 44
1.25
 45
0.0
 46
0.0
 47
0.0
 48
0.0
 49
2.5
140
2.5
141
2.5
142
0.0
143
0.03937007874
144
1.0
145
0.0
146
1.0
147
0.9
148
0.0
 69
0
 70
0
 71
0
 72
0
 73
0
 74
0
 75
0
 76
0
 77
1
 78
8
 79
3
170
0
171
3
172
1
173
0
174
0
175
0
176
7
177
7
178
7
179
2
271
0
272
2
273
2
274
3
275
0
276
0
277
2
278
44
279
0
280
0
281
0
282
0
283
0
284
8
285
0
286
0
288
0
289
3
290
0
340
ED
342
74
371
18
372
13
  0
DIMSTYLE
105
F3
330
4
100
AcDbSymbolTableRecord
100
AcDbDimStyleTableRecord
  2
GYM-50
 70
0
 40
50.0
 41
2.5
 42
1.5
 43
7.0
 44
1.25
 45
0.0
 46
0.0
 47
0.0
 48
0.0
 49
2.5
140
2.5
141
2.5
142
0.0
143
0.03937007874
144
1.0
145
0.0
146
1.0
147
0.9
148
0.0
 69
0
 70
0
 71
0
 72
0
 73
0
 74
0
 75
0
 76
0
 77
1
 78
8
 79
3
170
0
171
3
172
1
173
0
174
0
175
0
176
7
177
7
178
7
179
2
271
0
272
2
273
2
274
3
275
0
276
0
277
2
278
44
279
0
280
0
281
0
282
0
283
0
284
8
285
0
286
0
288
0
289
3
290
0
340
ED
342
74
371
18
372
13
  0
DIMSTYLE
105
F4
330
4
100
AcDbSymbolTableRecord
100
AcDbDimStyleTableRecord
  2
GYM-75
 70
0
 40
75.0
 41
2.5
 42
1.5
 43
7.0
 44
1.25
 45
0.0
 46
0.0
 47
0.0
 48
0.0
 49
2.5
140
2.5
141
2.5
142
0.0
143
0.03937007874
144
1.0
145
0.0
146
1.0
147
0.9
148
0.0
 69
0
 70
0
 71
0
 72
0
 73
0
 74
0
 75
0
 76
0
 77
1
 78
8
 79
3
170
0
171
3
172
1
173
0
174
0
175
0
176
7
177
7
178
7
179
2
271
0
272
2
273
2
274
3
275
0
276
0
277
2
278
44
279
0
280
0
281
0
282
0
283
0
284
8
285
0
286
0
288
0
289
3
290
0
340
ED
342
74
371
18
372
13
  0
DIMSTYLE
105
F5
330
4
100
AcDbSymbolTableRecord
100
AcDbDimStyleTableRecord
  2
GYM-100
 70
0
 40
100.0
 41
2.5
 42
1.5
 43
7.0
 44
1.25
 45
0.0
 46
0.0
 47
0.0
 48
0.0
 49
2.5
140
2.5
141
2.5
142
0.0
143
0.03937007874
144
1.0
145
0.0
146
1.0
147
0.9
148
0.0
 69
0
 70
0
 71
0
 72
0
 73
0
 74
0
 75
0
 76
0
 77
1
 78
8
 79
3
170
0
171
3
172
1
173
0
174
0
175
0
176
7
177
7
178
7
179
2
271
0
272
2
273
2
274
3
275
0
276
0
277
2
278
44
279
0
280
0
281
0
282
0
283
0
284
8
285
0
286
0
288
0
289
3
290
0
340
ED
342
74
371
18
372
13
  0
ENDTAB
  0
TABLE
  2
BLOCK_RECORD
  5
9
330
0
100
AcDbSymbolTable
 70
46
  0
BLOCK_RECORD
  5
17
330
9
100
AcDbSymbolTableRecord
100
AcDbBlockTableRecord
  2
*Model_Space
340
1A
 70
0
280
1
281
0
  0
BLOCK_RECORD
  5
74
330
9
100
AcDbSymbolTableRecord
100
AcDbBlockTableRecord
  2
_ARCHTICK
340
0
 70
0
280
1
281
0
  0
BLOCK_RECORD
  5
78
330
9
100
AcDbSymbolTableRecord
100
AcDbBlockTableRecord
  2
_CLOSEDFILLED
340
0
 70
0
280
1
281
0
  0
BLOCK_RECORD
  5
84
330
9
100
AcDbSymbolTableRecord
100
AcDbBlockTableRecord
  2
_CLOSEDBLANK
340
0
 70
0
280
1
281
0
  0
BLOCK_RECORD
  5
F6
330
9
100
AcDbSymbolTableRecord
100
AcDbBlockTableRecord
  2
M_MENFEZ_BESLEME
340
0
 70
0
280
1
281
0
  0
BLOCK_RECORD
  5
FF
330
9
100
AcDbSymbolTableRecord
100
AcDbBlockTableRecord
  2
M_MENFEZ_EGZOZ
340
0
 70
0
280
1
281
0
  0
BLOCK_RECORD
  5
107
330
9
100
AcDbSymbolTableRecord
100
AcDbBlockTableRecord
  2
M_VALF
340
0
 70
0
280
1
281
0
  0
BLOCK_RECORD
  5
10F
330
9
100
AcDbSymbolTableRecord
100
AcDbBlockTableRecord
  2
M_FAN
340
0
 70
0
280
1
281
0
  0
BLOCK_RECORD
  5
11A
330
9
100
AcDbSymbolTableRecord
100
AcDbBlockTableRecord
  2
M_PANJUR
340
0
 70
0
280
1
281
0
  0
BLOCK_RECORD
  5
124
330
9
100
AcDbSymbolTableRecord
100
AcDbBlockTableRecord
  2
M_KLIMA_IC
340
0
 70
0
280
1
281
0
  0
BLOCK_RECORD
  5
12B
330
9
100
AcDbSymbolTableRecord
100
AcDbBlockTableRecord
  2
M_KLIMA_DIS
340
0
 70
0
280
1
281
0
  0
BLOCK_RECORD
  5
132
330
9
100
AcDbSymbolTableRecord
100
AcDbBlockTableRecord
  2
M_ISITICI
340
0
 70
0
280
1
281
0
  0
BLOCK_RECORD
  5
13B
330
9
100
AcDbSymbolTableRecord
100
AcDbBlockTableRecord
  2
M_KLOZET
340
0
 70
0
280
1
281
0
  0
BLOCK_RECORD
  5
141
330
9
100
AcDbSymbolTableRecord
100
AcDbBlockTableRecord
  2
M_LAVABO
340
0
 70
0
280
1
281
0
  0
BLOCK_RECORD
  5
147
330
9
100
AcDbSymbolTableRecord
100
AcDbBlockTableRecord
  2
M_DUS
340
0
 70
0
280
1
281
0
  0
BLOCK_RECORD
  5
14E
330
9
100
AcDbSymbolTableRecord
100
AcDbBlockTableRecord
  2
M_SUZGEC
340
0
 70
0
280
1
281
0
  0
BLOCK_RECORD
  5
153
330
9
100
AcDbSymbolTableRecord
100
AcDbBlockTableRecord
  2
M_SAYAC
340
0
 70
0
280
1
281
0
  0
BLOCK_RECORD
  5
159
330
9
100
AcDbSymbolTableRecord
100
AcDbBlockTableRecord
  2
E_ARMATUR_LINEER
340
0
 70
0
280
1
281
0
  0
BLOCK_RECORD
  5
15F
330
9
100
AcDbSymbolTableRecord
100
AcDbBlockTableRecord
  2
E_DOWNLIGHT
340
0
 70
0
280
1
281
0
  0
BLOCK_RECORD
  5
166
330
9
100
AcDbSymbolTableRecord
100
AcDbBlockTableRecord
  2
E_ACIL
340
0
 70
0
280
1
281
0
  0
BLOCK_RECORD
  5
16C
330
9
100
AcDbSymbolTableRecord
100
AcDbBlockTableRecord
  2
E_YONLENDIRME
340
0
 70
0
280
1
281
0
  0
BLOCK_RECORD
  5
173
330
9
100
AcDbSymbolTableRecord
100
AcDbBlockTableRecord
  2
E_PRIZ
340
0
 70
0
280
1
281
0
  0
BLOCK_RECORD
  5
17C
330
9
100
AcDbSymbolTableRecord
100
AcDbBlockTableRecord
  2
E_PRIZ_IP44
340
0
 70
0
280
1
281
0
  0
BLOCK_RECORD
  5
185
330
9
100
AcDbSymbolTableRecord
100
AcDbBlockTableRecord
  2
E_ANAHTAR
340
0
 70
0
280
1
281
0
  0
BLOCK_RECORD
  5
18B
330
9
100
AcDbSymbolTableRecord
100
AcDbBlockTableRecord
  2
E_SENSOR
340
0
 70
0
280
1
281
0
  0
BLOCK_RECORD
  5
191
330
9
100
AcDbSymbolTableRecord
100
AcDbBlockTableRecord
  2
E_KAMERA
340
0
 70
0
280
1
281
0
  0
BLOCK_RECORD
  5
196
330
9
100
AcDbSymbolTableRecord
100
AcDbBlockTableRecord
  2
E_HOPARLOR
340
0
 70
0
280
1
281
0
  0
BLOCK_RECORD
  5
19D
330
9
100
AcDbSymbolTableRecord
100
AcDbBlockTableRecord
  2
E_VERI
340
0
 70
0
280
1
281
0
  0
BLOCK_RECORD
  5
1A3
330
9
100
AcDbSymbolTableRecord
100
AcDbBlockTableRecord
  2
E_DEDEKTOR
340
0
 70
0
280
1
281
0
  0
BLOCK_RECORD
  5
1A9
330
9
100
AcDbSymbolTableRecord
100
AcDbBlockTableRecord
  2
E_YANGIN_BUTON
340
0
 70
0
280
1
281
0
  0
BLOCK_RECORD
  5
1AF
330
9
100
AcDbSymbolTableRecord
100
AcDbBlockTableRecord
  2
E_PANO
340
0
 70
0
280
1
281
0
  0
BLOCK_RECORD
  5
1BC
330
9
100
AcDbSymbolTableRecord
100
AcDbBlockTableRecord
  2
G_KUZEY
340
0
 70
0
280
1
281
0
  0
BLOCK_RECORD
  5
20E
330
9
100
AcDbSymbolTableRecord
100
AcDbBlockTableRecord
  2
*D1
340
0
 70
0
280
1
281
0
  0
BLOCK_RECORD
  5
21D
330
9
100
AcDbSymbolTableRecord
100
AcDbBlockTableRecord
  2
*D2
340
0
 70
0
280
1
281
0
  0
BLOCK_RECORD
  5
22C
330
9
100
AcDbSymbolTableRecord
100
AcDbBlockTableRecord
  2
*D3
340
0
 70
0
280
1
281
0
  0
BLOCK_RECORD
  5
23B
330
9
100
AcDbSymbolTableRecord
100
AcDbBlockTableRecord
  2
*D4
340
0
 70
0
280
1
281
0
  0
BLOCK_RECORD
  5
24A
330
9
100
AcDbSymbolTableRecord
100
AcDbBlockTableRecord
  2
*D5
340
0
 70
0
280
1
281
0
  0
BLOCK_RECORD
  5
259
330
9
100
AcDbSymbolTableRecord
100
AcDbBlockTableRecord
  2
*D6
340
0
 70
0
280
1
281
0
  0
BLOCK_RECORD
  5
268
330
9
100
AcDbSymbolTableRecord
100
AcDbBlockTableRecord
  2
*D7
340
0
 70
0
280
1
281
0
  0
BLOCK_RECORD
  5
277
330
9
100
AcDbSymbolTableRecord
100
AcDbBlockTableRecord
  2
*D8
340
0
 70
0
280
1
281
0
  0
BLOCK_RECORD
  5
286
330
9
100
AcDbSymbolTableRecord
100
AcDbBlockTableRecord
  2
*D9
340
0
 70
0
280
1
281
0
  0
BLOCK_RECORD
  5
295
330
9
100
AcDbSymbolTableRecord
100
AcDbBlockTableRecord
  2
*D10
340
0
 70
0
280
1
281
0
  0
BLOCK_RECORD
  5
2A4
330
9
100
AcDbSymbolTableRecord
100
AcDbBlockTableRecord
  2
*D11
340
0
 70
0
280
1
281
0
  0
BLOCK_RECORD
  5
2B3
330
9
100
AcDbSymbolTableRecord
100
AcDbBlockTableRecord
  2
*D12
340
0
 70
0
280
1
281
0
  0
BLOCK_RECORD
  5
2C2
330
9
100
AcDbSymbolTableRecord
100
AcDbBlockTableRecord
  2
*D13
340
0
 70
0
280
1
281
0
  0
BLOCK_RECORD
  5
2E6
330
9
100
AcDbSymbolTableRecord
100
AcDbBlockTableRecord
  2
*Paper_Space
340
2E9
 70
0
280
1
281
0
  0
ENDTAB
  0
ENDSEC
  0
SECTION
  2
BLOCKS
  0
BLOCK
  5
18
330
17
100
AcDbEntity
  8
0
100
AcDbBlockBegin
  2
*Model_Space
 70
0
 10
0.0
 20
0.0
 30
0.0
  3
*Model_Space
  1

  0
ENDBLK
  5
19
330
17
100
AcDbEntity
  8
0
100
AcDbBlockEnd
  0
BLOCK
  5
75
330
74
100
AcDbEntity
  8
0
100
AcDbBlockBegin
  2
_ARCHTICK
 70
0
 10
0.0
 20
0.0
 30
0.0
  3
_ARCHTICK
  1

  0
LWPOLYLINE
  5
77
330
74
100
AcDbEntity
  8
0
  6
BYBLOCK
 62
0
100
AcDbPolyline
 90
2
 70
0
 43
0.15
 10
-0.5
 20
-0.5
 10
0.5
 20
0.5
  0
ENDBLK
  5
76
330
74
100
AcDbEntity
  8
0
100
AcDbBlockEnd
  0
BLOCK
  5
79
330
78
100
AcDbEntity
  8
0
100
AcDbBlockBegin
  2
_CLOSEDFILLED
 70
0
 10
0.0
 20
0.0
 30
0.0
  3
_CLOSEDFILLED
  1

  0
SOLID
  5
7B
330
78
100
AcDbEntity
  8
0
  6
BYBLOCK
 62
0
100
AcDbTrace
 10
-1.0
 20
0.16439898372402537
 30
0.0
 11
0.0
 21
0.0
 31
0.0
 12
-1.0
 22
-0.16439898372402537
 32
0.0
 13
-1.0
 23
-0.16439898372402537
 33
0.0
  0
ENDBLK
  5
7A
330
78
100
AcDbEntity
  8
0
100
AcDbBlockEnd
  0
BLOCK
  5
85
330
84
100
AcDbEntity
  8
0
100
AcDbBlockBegin
  2
_CLOSEDBLANK
 70
0
 10
0.0
 20
0.0
 30
0.0
  3
_CLOSEDBLANK
  1

  0
LWPOLYLINE
  5
87
330
84
100
AcDbEntity
  8
0
  6
BYBLOCK
 62
0
100
AcDbPolyline
 90
3
 70
1
 10
-1.0
 20
0.16439898372402537
 10
0.0
 20
0.0
 10
-1.0
 20
-0.16439898372402537
  0
ENDBLK
  5
86
330
84
100
AcDbEntity
  8
0
100
AcDbBlockEnd
  0
BLOCK
  5
F7
330
F6
100
AcDbEntity
  8
0
100
AcDbBlockBegin
  2
M_MENFEZ_BESLEME
 70
2
 10
0.0
 20
0.0
 30
0.0
  3
M_MENFEZ_BESLEME
  1

  0
LWPOLYLINE
  5
F9
330
F6
100
AcDbEntity
  8
0
100
AcDbPolyline
 90
4
 70
1
 10
-150.0
 20
-75.0
 10
150.0
 20
-75.0
 10
150.0
 20
75.0
 10
-150.0
 20
75.0
  0
LINE
  5
FA
330
F6
100
AcDbEntity
  8
0
100
AcDbLine
 10
-150.0
 20
-40.0
 30
0.0
 11
150.0
 21
-40.0
 31
0.0
  0
LINE
  5
FB
330
F6
100
AcDbEntity
  8
0
100
AcDbLine
 10
-150.0
 20
0.0
 30
0.0
 11
150.0
 21
0.0
 31
0.0
  0
LINE
  5
FC
330
F6
100
AcDbEntity
  8
0
100
AcDbLine
 10
-150.0
 20
40.0
 30
0.0
 11
150.0
 21
40.0
 31
0.0
  0
ATTDEF
  5
FD
330
F6
100
AcDbEntity
  8
0
100
AcDbText
 10
0.0
 20
140.0
 30
0.0
 40
120.0
  1

  7
GYM
100
AcDbAttributeDefinition
  3
Menfez kodu
  2
KOD
 70
0
  0
ATTDEF
  5
FE
330
F6
100
AcDbEntity
  8
0
100
AcDbText
 10
0.0
 20
-200.0
 30
0.0
 40
105.0
  1

  7
GYM
100
AcDbAttributeDefinition
  3
Debi (m3/h)
  2
DEBI
 70
0
  0
ENDBLK
  5
F8
330
F6
100
AcDbEntity
  8
0
100
AcDbBlockEnd
  0
BLOCK
  5
100
330
FF
100
AcDbEntity
  8
0
100
AcDbBlockBegin
  2
M_MENFEZ_EGZOZ
 70
2
 10
0.0
 20
0.0
 30
0.0
  3
M_MENFEZ_EGZOZ
  1

  0
LWPOLYLINE
  5
102
330
FF
100
AcDbEntity
  8
0
100
AcDbPolyline
 90
4
 70
1
 10
-150.0
 20
-75.0
 10
150.0
 20
-75.0
 10
150.0
 20
75.0
 10
-150.0
 20
75.0
  0
LINE
  5
103
330
FF
100
AcDbEntity
  8
0
100
AcDbLine
 10
-150.0
 20
-75.0
 30
0.0
 11
150.0
 21
75.0
 31
0.0
  0
LINE
  5
104
330
FF
100
AcDbEntity
  8
0
100
AcDbLine
 10
-150.0
 20
75.0
 30
0.0
 11
150.0
 21
-75.0
 31
0.0
  0
ATTDEF
  5
105
330
FF
100
AcDbEntity
  8
0
100
AcDbText
 10
0.0
 20
140.0
 30
0.0
 40
120.0
  1

  7
GYM
100
AcDbAttributeDefinition
  3
Menfez kodu
  2
KOD
 70
0
  0
ATTDEF
  5
106
330
FF
100
AcDbEntity
  8
0
100
AcDbText
 10
0.0
 20
-200.0
 30
0.0
 40
105.0
  1

  7
GYM
100
AcDbAttributeDefinition
  3
Debi (m3/h)
  2
DEBI
 70
0
  0
ENDBLK
  5
101
330
FF
100
AcDbEntity
  8
0
100
AcDbBlockEnd
  0
BLOCK
  5
108
330
107
100
AcDbEntity
  8
0
100
AcDbBlockBegin
  2
M_VALF
 70
2
 10
0.0
 20
0.0
 30
0.0
  3
M_VALF
  1

  0
CIRCLE
  5
10A
330
107
100
AcDbEntity
  8
0
100
AcDbCircle
 10
0.0
 20
0.0
 30
0.0
 40
90.0
  0
LINE
  5
10B
330
107
100
AcDbEntity
  8
0
100
AcDbLine
 10
-90.0
 20
0.0
 30
0.0
 11
90.0
 21
0.0
 31
0.0
  0
LINE
  5
10C
330
107
100
AcDbEntity
  8
0
100
AcDbLine
 10
0.0
 20
-90.0
 30
0.0
 11
0.0
 21
90.0
 31
0.0
  0
ATTDEF
  5
10D
330
107
100
AcDbEntity
  8
0
100
AcDbText
 10
0.0
 20
150.0
 30
0.0
 40
120.0
  1

  7
GYM
100
AcDbAttributeDefinition
  3
Valf kodu
  2
KOD
 70
0
  0
ATTDEF
  5
10E
330
107
100
AcDbEntity
  8
0
100
AcDbText
 10
0.0
 20
-200.0
 30
0.0
 40
105.0
  1

  7
GYM
100
AcDbAttributeDefinition
  3
Debi (m3/h)
  2
DEBI
 70
0
  0
ENDBLK
  5
109
330
107
100
AcDbEntity
  8
0
100
AcDbBlockEnd
  0
BLOCK
  5
110
330
10F
100
AcDbEntity
  8
0
100
AcDbBlockBegin
  2
M_FAN
 70
2
 10
0.0
 20
0.0
 30
0.0
  3
M_FAN
  1

  0
LWPOLYLINE
  5
112
330
10F
100
AcDbEntity
  8
0
100
AcDbPolyline
 90
4
 70
1
 10
-250.0
 20
-140.0
 10
250.0
 20
-140.0
 10
250.0
 20
140.0
 10
-250.0
 20
140.0
  0
CIRCLE
  5
113
330
10F
100
AcDbEntity
  8
0
100
AcDbCircle
 10
0.0
 20
0.0
 30
0.0
 40
105.0
  0
LINE
  5
114
330
10F
100
AcDbEntity
  8
0
100
AcDbLine
 10
0.0
 20
0.0
 30
0.0
 11
105.0
 21
0.0
 31
0.0
  0
LINE
  5
115
330
10F
100
AcDbEntity
  8
0
100
AcDbLine
 10
0.0
 20
0.0
 30
0.0
 11
6.429395695523604e-15
 21
105.0
 31
0.0
  0
LINE
  5
116
330
10F
100
AcDbEntity
  8
0
100
AcDbLine
 10
0.0
 20
0.0
 30
0.0
 11
-105.0
 21
1.2858791391047208e-14
 31
0.0
  0
LINE
  5
117
330
10F
100
AcDbEntity
  8
0
100
AcDbLine
 10
0.0
 20
0.0
 30
0.0
 11
-1.928818708657081e-14
 21
-105.0
 31
0.0
  0
ATTDEF
  5
118
330
10F
100
AcDbEntity
  8
0
100
AcDbText
 10
0.0
 20
210.0
 30
0.0
 40
120.0
  1

  7
GYM
100
AcDbAttributeDefinition
  3
Fan kodu
  2
KOD
 70
0
  0
ATTDEF
  5
119
330
10F
100
AcDbEntity
  8
0
100
AcDbText
 10
0.0
 20
-270.0
 30
0.0
 40
105.0
  1

  7
GYM
100
AcDbAttributeDefinition
  3
Fan tanimi
  2
TANIM
 70
0
  0
ENDBLK
  5
111
330
10F
100
AcDbEntity
  8
0
100
AcDbBlockEnd
  0
BLOCK
  5
11B
330
11A
100
AcDbEntity
  8
0
100
AcDbBlockBegin
  2
M_PANJUR
 70
2
 10
0.0
 20
0.0
 30
0.0
  3
M_PANJUR
  1

  0
LWPOLYLINE
  5
11D
330
11A
100
AcDbEntity
  8
0
100
AcDbPolyline
 90
4
 70
1
 10
-140.0
 20
-90.0
 10
140.0
 20
-90.0
 10
140.0
 20
90.0
 10
-140.0
 20
90.0
  0
LINE
  5
11E
330
11A
100
AcDbEntity
  8
0
100
AcDbLine
 10
-140.0
 20
-64.0
 30
0.0
 11
140.0
 21
-64.0
 31
0.0
  0
LINE
  5
11F
330
11A
100
AcDbEntity
  8
0
100
AcDbLine
 10
-140.0
 20
-32.0
 30
0.0
 11
140.0
 21
-32.0
 31
0.0
  0
LINE
  5
120
330
11A
100
AcDbEntity
  8
0
100
AcDbLine
 10
-140.0
 20
0.0
 30
0.0
 11
140.0
 21
0.0
 31
0.0
  0
LINE
  5
121
330
11A
100
AcDbEntity
  8
0
100
AcDbLine
 10
-140.0
 20
32.0
 30
0.0
 11
140.0
 21
32.0
 31
0.0
  0
LINE
  5
122
330
11A
100
AcDbEntity
  8
0
100
AcDbLine
 10
-140.0
 20
64.0
 30
0.0
 11
140.0
 21
64.0
 31
0.0
  0
ATTDEF
  5
123
330
11A
100
AcDbEntity
  8
0
100
AcDbText
 10
0.0
 20
150.0
 30
0.0
 40
120.0
  1

  7
GYM
100
AcDbAttributeDefinition
  3
Panjur kodu
  2
KOD
 70
0
  0
ENDBLK
  5
11C
330
11A
100
AcDbEntity
  8
0
100
AcDbBlockEnd
  0
BLOCK
  5
125
330
124
100
AcDbEntity
  8
0
100
AcDbBlockBegin
  2
M_KLIMA_IC
 70
2
 10
0.0
 20
0.0
 30
0.0
  3
M_KLIMA_IC
  1

  0
LWPOLYLINE
  5
127
330
124
100
AcDbEntity
  8
0
100
AcDbPolyline
 90
4
 70
1
 10
-450.0
 20
-140.0
 10
450.0
 20
-140.0
 10
450.0
 20
140.0
 10
-450.0
 20
140.0
  0
LINE
  5
128
330
124
100
AcDbEntity
  8
0
100
AcDbLine
 10
-450.0
 20
-60.0
 30
0.0
 11
450.0
 21
-60.0
 31
0.0
  0
ATTDEF
  5
129
330
124
100
AcDbEntity
  8
0
100
AcDbText
 10
0.0
 20
215.0
 30
0.0
 40
120.0
  1

  7
GYM
100
AcDbAttributeDefinition
  3
Unite kodu
  2
KOD
 70
0
  0
ATTDEF
  5
12A
330
124
100
AcDbEntity
  8
0
100
AcDbText
 10
0.0
 20
-270.0
 30
0.0
 40
105.0
  1

  7
GYM
100
AcDbAttributeDefinition
  3
Kapasite (BTU)
  2
KAPASITE
 70
0
  0
ENDBLK
  5
126
330
124
100
AcDbEntity
  8
0
100
AcDbBlockEnd
  0
BLOCK
  5
12C
330
12B
100
AcDbEntity
  8
0
100
AcDbBlockBegin
  2
M_KLIMA_DIS
 70
2
 10
0.0
 20
0.0
 30
0.0
  3
M_KLIMA_DIS
  1

  0
LWPOLYLINE
  5
12E
330
12B
100
AcDbEntity
  8
0
100
AcDbPolyline
 90
4
 70
1
 10
-500.0
 20
-350.0
 10
500.0
 20
-350.0
 10
500.0
 20
350.0
 10
-500.0
 20
350.0
  0
CIRCLE
  5
12F
330
12B
100
AcDbEntity
  8
0
100
AcDbCircle
 10
0.0
 20
0.0
 30
0.0
 40
230.0
  0
ATTDEF
  5
130
330
12B
100
AcDbEntity
  8
0
100
AcDbText
 10
0.0
 20
430.0
 30
0.0
 40
120.0
  1

  7
GYM
100
AcDbAttributeDefinition
  3
Platform
  2
KOD
 70
0
  0
ATTDEF
  5
131
330
12B
100
AcDbEntity
  8
0
100
AcDbText
 10
0.0
 20
-530.0
 30
0.0
 40
105.0
  1

  7
GYM
100
AcDbAttributeDefinition
  3
Unite adedi
  2
ADET
 70
0
  0
ENDBLK
  5
12D
330
12B
100
AcDbEntity
  8
0
100
AcDbBlockEnd
  0
BLOCK
  5
133
330
132
100
AcDbEntity
  8
0
100
AcDbBlockBegin
  2
M_ISITICI
 70
2
 10
0.0
 20
0.0
 30
0.0
  3
M_ISITICI
  1

  0
LWPOLYLINE
  5
135
330
132
100
AcDbEntity
  8
0
100
AcDbPolyline
 90
4
 70
1
 10
-200.0
 20
-150.0
 10
200.0
 20
-150.0
 10
200.0
 20
150.0
 10
-200.0
 20
150.0
  0
LINE
  5
136
330
132
100
AcDbEntity
  8
0
100
AcDbLine
 10
-90.0
 20
-150.0
 30
0.0
 11
-90.0
 21
150.0
 31
0.0
  0
LINE
  5
137
330
132
100
AcDbEntity
  8
0
100
AcDbLine
 10
0.0
 20
-150.0
 30
0.0
 11
0.0
 21
150.0
 31
0.0
  0
LINE
  5
138
330
132
100
AcDbEntity
  8
0
100
AcDbLine
 10
90.0
 20
-150.0
 30
0.0
 11
90.0
 21
150.0
 31
0.0
  0
ATTDEF
  5
139
330
132
100
AcDbEntity
  8
0
100
AcDbText
 10
0.0
 20
225.0
 30
0.0
 40
120.0
  1

  7
GYM
100
AcDbAttributeDefinition
  3
Isitici kodu
  2
KOD
 70
0
  0
ATTDEF
  5
13A
330
132
100
AcDbEntity
  8
0
100
AcDbText
 10
0.0
 20
-285.0
 30
0.0
 40
105.0
  1

  7
GYM
100
AcDbAttributeDefinition
  3
Guc (kW)
  2
GUC
 70
0
  0
ENDBLK
  5
134
330
132
100
AcDbEntity
  8
0
100
AcDbBlockEnd
  0
BLOCK
  5
13C
330
13B
100
AcDbEntity
  8
0
100
AcDbBlockBegin
  2
M_KLOZET
 70
2
 10
0.0
 20
0.0
 30
0.0
  3
M_KLOZET
  1

  0
ELLIPSE
  5
13E
330
13B
100
AcDbEntity
  8
0
100
AcDbEllipse
 10
0.0
 20
-40.0
 30
0.0
 11
160.0
 21
0.0
 31
0.0
 40
0.78
 41
0.0
 42
6.283185307179586
  0
LWPOLYLINE
  5
13F
330
13B
100
AcDbEntity
  8
0
100
AcDbPolyline
 90
4
 70
1
 10
-170.0
 20
150.0
 10
170.0
 20
150.0
 10
170.0
 20
260.0
 10
-170.0
 20
260.0
  0
ATTDEF
  5
140
330
13B
100
AcDbEntity
  8
0
100
AcDbText
 10
0.0
 20
330.0
 30
0.0
 40
120.0
  1

  7
GYM
100
AcDbAttributeDefinition
  3
Vitrifiye
  2
KOD
 70
0
  0
ENDBLK
  5
13D
330
13B
100
AcDbEntity
  8
0
100
AcDbBlockEnd
  0
BLOCK
  5
142
330
141
100
AcDbEntity
  8
0
100
AcDbBlockBegin
  2
M_LAVABO
 70
2
 10
0.0
 20
0.0
 30
0.0
  3
M_LAVABO
  1

  0
LWPOLYLINE
  5
144
330
141
100
AcDbEntity
  8
0
100
AcDbPolyline
 90
4
 70
1
 10
-230.0
 20
-140.0
 10
230.0
 20
-140.0
 10
230.0
 20
140.0
 10
-230.0
 20
140.0
  0
ELLIPSE
  5
145
330
141
100
AcDbEntity
  8
0
100
AcDbEllipse
 10
0.0
 20
0.0
 30
0.0
 11
170.0
 21
0.0
 31
0.0
 40
0.62
 41
0.0
 42
6.283185307179586
  0
ATTDEF
  5
146
330
141
100
AcDbEntity
  8
0
100
AcDbText
 10
0.0
 20
210.0
 30
0.0
 40
120.0
  1

  7
GYM
100
AcDbAttributeDefinition
  3
Vitrifiye
  2
KOD
 70
0
  0
ENDBLK
  5
143
330
141
100
AcDbEntity
  8
0
100
AcDbBlockEnd
  0
BLOCK
  5
148
330
147
100
AcDbEntity
  8
0
100
AcDbBlockBegin
  2
M_DUS
 70
2
 10
0.0
 20
0.0
 30
0.0
  3
M_DUS
  1

  0
LWPOLYLINE
  5
14A
330
147
100
AcDbEntity
  8
0
100
AcDbPolyline
 90
4
 70
1
 10
-450.0
 20
-450.0
 10
450.0
 20
-450.0
 10
450.0
 20
450.0
 10
-450.0
 20
450.0
  0
CIRCLE
  5
14B
330
147
100
AcDbEntity
  8
0
100
AcDbCircle
 10
0.0
 20
0.0
 30
0.0
 40
80.0
  0
LINE
  5
14C
330
147
100
AcDbEntity
  8
0
100
AcDbLine
 10
-450.0
 20
-450.0
 30
0.0
 11
450.0
 21
450.0
 31
0.0
  0
ATTDEF
  5
14D
330
147
100
AcDbEntity
  8
0
100
AcDbText
 10
0.0
 20
530.0
 30
0.0
 40
120.0
  1

  7
GYM
100
AcDbAttributeDefinition
  3
Dus teknesi
  2
KOD
 70
0
  0
ENDBLK
  5
149
330
147
100
AcDbEntity
  8
0
100
AcDbBlockEnd
  0
BLOCK
  5
14F
330
14E
100
AcDbEntity
  8
0
100
AcDbBlockBegin
  2
M_SUZGEC
 70
0
 10
0.0
 20
0.0
 30
0.0
  3
M_SUZGEC
  1

  0
LWPOLYLINE
  5
151
330
14E
100
AcDbEntity
  8
0
100
AcDbPolyline
 90
4
 70
1
 10
-75.0
 20
-75.0
 10
75.0
 20
-75.0
 10
75.0
 20
75.0
 10
-75.0
 20
75.0
  0
CIRCLE
  5
152
330
14E
100
AcDbEntity
  8
0
100
AcDbCircle
 10
0.0
 20
0.0
 30
0.0
 40
42.0
  0
ENDBLK
  5
150
330
14E
100
AcDbEntity
  8
0
100
AcDbBlockEnd
  0
BLOCK
  5
154
330
153
100
AcDbEntity
  8
0
100
AcDbBlockBegin
  2
M_SAYAC
 70
2
 10
0.0
 20
0.0
 30
0.0
  3
M_SAYAC
  1

  0
CIRCLE
  5
156
330
153
100
AcDbEntity
  8
0
100
AcDbCircle
 10
0.0
 20
0.0
 30
0.0
 40
130.0
  0
LINE
  5
157
330
153
100
AcDbEntity
  8
0
100
AcDbLine
 10
-130.0
 20
0.0
 30
0.0
 11
130.0
 21
0.0
 31
0.0
  0
ATTDEF
  5
158
330
153
100
AcDbEntity
  8
0
100
AcDbText
 10
0.0
 20
200.0
 30
0.0
 40
120.0
  1

  7
GYM
100
AcDbAttributeDefinition
  3
Sayac / ana kesme
  2
KOD
 70
0
  0
ENDBLK
  5
155
330
153
100
AcDbEntity
  8
0
100
AcDbBlockEnd
  0
BLOCK
  5
15A
330
159
100
AcDbEntity
  8
0
100
AcDbBlockBegin
  2
E_ARMATUR_LINEER
 70
2
 10
0.0
 20
0.0
 30
0.0
  3
E_ARMATUR_LINEER
  1

  0
LWPOLYLINE
  5
15C
330
159
100
AcDbEntity
  8
0
100
AcDbPolyline
 90
4
 70
1
 10
-600.0
 20
-55.0
 10
600.0
 20
-55.0
 10
600.0
 20
55.0
 10
-600.0
 20
55.0
  0
LINE
  5
15D
330
159
100
AcDbEntity
  8
0
100
AcDbLine
 10
-600.0
 20
0.0
 30
0.0
 11
600.0
 21
0.0
 31
0.0
  0
ATTDEF
  5
15E
330
159
100
AcDbEntity
  8
0
100
AcDbText
 10
0.0
 20
185.0
 30
0.0
 40
105.0
  1

  7
GYM
100
AcDbAttributeDefinition
  3
Linye kodu
  2
LINYE
 70
0
  0
ENDBLK
  5
15B
330
159
100
AcDbEntity
  8
0
100
AcDbBlockEnd
  0
BLOCK
  5
160
330
15F
100
AcDbEntity
  8
0
100
AcDbBlockBegin
  2
E_DOWNLIGHT
 70
2
 10
0.0
 20
0.0
 30
0.0
  3
E_DOWNLIGHT
  1

  0
CIRCLE
  5
162
330
15F
100
AcDbEntity
  8
0
100
AcDbCircle
 10
0.0
 20
0.0
 30
0.0
 40
90.0
  0
LINE
  5
163
330
15F
100
AcDbEntity
  8
0
100
AcDbLine
 10
-64.0
 20
-64.0
 30
0.0
 11
64.0
 21
64.0
 31
0.0
  0
LINE
  5
164
330
15F
100
AcDbEntity
  8
0
100
AcDbLine
 10
-64.0
 20
64.0
 30
0.0
 11
64.0
 21
-64.0
 31
0.0
  0
ATTDEF
  5
165
330
15F
100
AcDbEntity
  8
0
100
AcDbText
 10
0.0
 20
210.0
 30
0.0
 40
105.0
  1

  7
GYM
100
AcDbAttributeDefinition
  3
Linye kodu
  2
LINYE
 70
0
  0
ENDBLK
  5
161
330
15F
100
AcDbEntity
  8
0
100
AcDbBlockEnd
  0
BLOCK
  5
167
330
166
100
AcDbEntity
  8
0
100
AcDbBlockBegin
  2
E_ACIL
 70
2
 10
0.0
 20
0.0
 30
0.0
  3
E_ACIL
  1

  0
LWPOLYLINE
  5
169
330
166
100
AcDbEntity
  8
0
100
AcDbPolyline
 90
4
 70
1
 10
-100.0
 20
-100.0
 10
100.0
 20
-100.0
 10
100.0
 20
100.0
 10
-100.0
 20
100.0
  0
TEXT
  5
16A
330
166
100
AcDbEntity
  8
0
100
AcDbText
 10
0.0
 20
0.0
 30
0.0
 40
110.0
  1
E
  7
GYM-B
 72
1
 11
0.0
 21
0.0
 31
0.0
100
AcDbText
 73
2
  0
ATTDEF
  5
16B
330
166
100
AcDbEntity
  8
0
100
AcDbText
 10
0.0
 20
230.0
 30
0.0
 40
105.0
  1

  7
GYM
100
AcDbAttributeDefinition
  3
Armatur kodu
  2
KOD
 70
0
  0
ENDBLK
  5
168
330
166
100
AcDbEntity
  8
0
100
AcDbBlockEnd
  0
BLOCK
  5
16D
330
16C
100
AcDbEntity
  8
0
100
AcDbBlockBegin
  2
E_YONLENDIRME
 70
2
 10
0.0
 20
0.0
 30
0.0
  3
E_YONLENDIRME
  1

  0
LWPOLYLINE
  5
16F
330
16C
100
AcDbEntity
  8
0
100
AcDbPolyline
 90
4
 70
1
 10
-130.0
 20
-80.0
 10
130.0
 20
-80.0
 10
130.0
 20
80.0
 10
-130.0
 20
80.0
  0
LWPOLYLINE
  5
170
330
16C
100
AcDbEntity
  8
0
100
AcDbPolyline
 90
2
 70
0
 10
-70.0
 20
0.0
 10
30.0
 20
0.0
  0
LWPOLYLINE
  5
171
330
16C
100
AcDbEntity
  8
0
100
AcDbPolyline
 90
3
 70
1
 10
30.0
 20
45.0
 10
80.0
 20
0.0
 10
30.0
 20
-45.0
  0
ATTDEF
  5
172
330
16C
100
AcDbEntity
  8
0
100
AcDbText
 10
0.0
 20
205.0
 30
0.0
 40
105.0
  1

  7
GYM
100
AcDbAttributeDefinition
  3
Armatur kodu
  2
KOD
 70
0
  0
ENDBLK
  5
16E
330
16C
100
AcDbEntity
  8
0
100
AcDbBlockEnd
  0
BLOCK
  5
174
330
173
100
AcDbEntity
  8
0
100
AcDbBlockBegin
  2
E_PRIZ
 70
2
 10
0.0
 20
0.0
 30
0.0
  3
E_PRIZ
  1

  0
ARC
  5
176
330
173
100
AcDbEntity
  8
0
100
AcDbCircle
 10
0.0
 20
0.0
 30
0.0
 40
95.0
100
AcDbArc
 50
0.0
 51
180.0
  0
LINE
  5
177
330
173
100
AcDbEntity
  8
0
100
AcDbLine
 10
-95.0
 20
0.0
 30
0.0
 11
95.0
 21
0.0
 31
0.0
  0
LINE
  5
178
330
173
100
AcDbEntity
  8
0
100
AcDbLine
 10
0.0
 20
0.0
 30
0.0
 11
0.0
 21
150.0
 31
0.0
  0
LINE
  5
179
330
173
100
AcDbEntity
  8
0
100
AcDbLine
 10
-60.0
 20
150.0
 30
0.0
 11
60.0
 21
150.0
 31
0.0
  0
ATTDEF
  5
17A
330
173
100
AcDbEntity
  8
0
100
AcDbText
 10
195.0
 20
80.0
 30
0.0
 40
105.0
  1

  7
GYM
100
AcDbAttributeDefinition
  3
Priz kodu
  2
KOD
 70
0
  0
ATTDEF
  5
17B
330
173
100
AcDbEntity
  8
0
100
AcDbText
 10
195.0
 20
-80.0
 30
0.0
 40
105.0
  1

  7
GYM
100
AcDbAttributeDefinition
  3
Linye
  2
LINYE
 70
0
  0
ENDBLK
  5
175
330
173
100
AcDbEntity
  8
0
100
AcDbBlockEnd
  0
BLOCK
  5
17D
330
17C
100
AcDbEntity
  8
0
100
AcDbBlockBegin
  2
E_PRIZ_IP44
 70
2
 10
0.0
 20
0.0
 30
0.0
  3
E_PRIZ_IP44
  1

  0
ARC
  5
17F
330
17C
100
AcDbEntity
  8
0
100
AcDbCircle
 10
0.0
 20
0.0
 30
0.0
 40
95.0
100
AcDbArc
 50
0.0
 51
180.0
  0
LINE
  5
180
330
17C
100
AcDbEntity
  8
0
100
AcDbLine
 10
-95.0
 20
0.0
 30
0.0
 11
95.0
 21
0.0
 31
0.0
  0
LINE
  5
181
330
17C
100
AcDbEntity
  8
0
100
AcDbLine
 10
0.0
 20
0.0
 30
0.0
 11
0.0
 21
150.0
 31
0.0
  0
LINE
  5
182
330
17C
100
AcDbEntity
  8
0
100
AcDbLine
 10
-60.0
 20
150.0
 30
0.0
 11
60.0
 21
150.0
 31
0.0
  0
TEXT
  5
183
330
17C
100
AcDbEntity
  8
0
100
AcDbText
 10
0.0
 20
-120.0
 30
0.0
 40
70.0
  1
IP44
  7
GYM
 72
1
 11
0.0
 21
-120.0
 31
0.0
100
AcDbText
 73
2
  0
ATTDEF
  5
184
330
17C
100
AcDbEntity
  8
0
100
AcDbText
 10
205.0
 20
80.0
 30
0.0
 40
105.0
  1

  7
GYM
100
AcDbAttributeDefinition
  3
Priz kodu
  2
KOD
 70
0
  0
ENDBLK
  5
17E
330
17C
100
AcDbEntity
  8
0
100
AcDbBlockEnd
  0
BLOCK
  5
186
330
185
100
AcDbEntity
  8
0
100
AcDbBlockBegin
  2
E_ANAHTAR
 70
2
 10
0.0
 20
0.0
 30
0.0
  3
E_ANAHTAR
  1

  0
CIRCLE
  5
188
330
185
100
AcDbEntity
  8
0
100
AcDbCircle
 10
0.0
 20
0.0
 30
0.0
 40
60.0
  0
LINE
  5
189
330
185
100
AcDbEntity
  8
0
100
AcDbLine
 10
0.0
 20
0.0
 30
0.0
 11
130.0
 21
110.0
 31
0.0
  0
ATTDEF
  5
18A
330
185
100
AcDbEntity
  8
0
100
AcDbText
 10
0.0
 20
240.0
 30
0.0
 40
105.0
  1

  7
GYM
100
AcDbAttributeDefinition
  3
Anahtar kodu
  2
KOD
 70
0
  0
ENDBLK
  5
187
330
185
100
AcDbEntity
  8
0
100
AcDbBlockEnd
  0
BLOCK
  5
18C
330
18B
100
AcDbEntity
  8
0
100
AcDbBlockBegin
  2
E_SENSOR
 70
2
 10
0.0
 20
0.0
 30
0.0
  3
E_SENSOR
  1

  0
CIRCLE
  5
18E
330
18B
100
AcDbEntity
  8
0
100
AcDbCircle
 10
0.0
 20
0.0
 30
0.0
 40
95.0
  0
TEXT
  5
18F
330
18B
100
AcDbEntity
  8
0
100
AcDbText
 10
0.0
 20
0.0
 30
0.0
 40
100.0
  1
S
  7
GYM-B
 72
1
 11
0.0
 21
0.0
 31
0.0
100
AcDbText
 73
2
  0
ATTDEF
  5
190
330
18B
100
AcDbEntity
  8
0
100
AcDbText
 10
0.0
 20
230.0
 30
0.0
 40
105.0
  1

  7
GYM
100
AcDbAttributeDefinition
  3
Sensor kodu
  2
KOD
 70
0
  0
ENDBLK
  5
18D
330
18B
100
AcDbEntity
  8
0
100
AcDbBlockEnd
  0
BLOCK
  5
192
330
191
100
AcDbEntity
  8
0
100
AcDbBlockBegin
  2
E_KAMERA
 70
2
 10
0.0
 20
0.0
 30
0.0
  3
E_KAMERA
  1

  0
LWPOLYLINE
  5
194
330
191
100
AcDbEntity
  8
0
100
AcDbPolyline
 90
3
 70
1
 10
-110.0
 20
-85.0
 10
110.0
 20
0.0
 10
-110.0
 20
85.0
  0
ATTDEF
  5
195
330
191
100
AcDbEntity
  8
0
100
AcDbText
 10
0.0
 20
210.0
 30
0.0
 40
105.0
  1

  7
GYM
100
AcDbAttributeDefinition
  3
Kamera kodu
  2
KOD
 70
0
  0
ENDBLK
  5
193
330
191
100
AcDbEntity
  8
0
100
AcDbBlockEnd
  0
BLOCK
  5
197
330
196
100
AcDbEntity
  8
0
100
AcDbBlockBegin
  2
E_HOPARLOR
 70
2
 10
0.0
 20
0.0
 30
0.0
  3
E_HOPARLOR
  1

  0
CIRCLE
  5
199
330
196
100
AcDbEntity
  8
0
100
AcDbCircle
 10
0.0
 20
0.0
 30
0.0
 40
95.0
  0
ARC
  5
19A
330
196
100
AcDbEntity
  8
0
100
AcDbCircle
 10
0.0
 20
0.0
 30
0.0
 40
150.0
100
AcDbArc
 50
-45.0
 51
45.0
  0
ARC
  5
19B
330
196
100
AcDbEntity
  8
0
100
AcDbCircle
 10
0.0
 20
0.0
 30
0.0
 40
200.0
100
AcDbArc
 50
-35.0
 51
35.0
  0
ATTDEF
  5
19C
330
196
100
AcDbEntity
  8
0
100
AcDbText
 10
0.0
 20
330.0
 30
0.0
 40
105.0
  1

  7
GYM
100
AcDbAttributeDefinition
  3
Hoparlor kodu
  2
KOD
 70
0
  0
ENDBLK
  5
198
330
196
100
AcDbEntity
  8
0
100
AcDbBlockEnd
  0
BLOCK
  5
19E
330
19D
100
AcDbEntity
  8
0
100
AcDbBlockBegin
  2
E_VERI
 70
2
 10
0.0
 20
0.0
 30
0.0
  3
E_VERI
  1

  0
LWPOLYLINE
  5
1A0
330
19D
100
AcDbEntity
  8
0
100
AcDbPolyline
 90
4
 70
1
 10
-95.0
 20
-95.0
 10
95.0
 20
-95.0
 10
95.0
 20
95.0
 10
-95.0
 20
95.0
  0
TEXT
  5
1A1
330
19D
100
AcDbEntity
  8
0
100
AcDbText
 10
0.0
 20
0.0
 30
0.0
 40
105.0
  1
D
  7
GYM-B
 72
1
 11
0.0
 21
0.0
 31
0.0
100
AcDbText
 73
2
  0
ATTDEF
  5
1A2
330
19D
100
AcDbEntity
  8
0
100
AcDbText
 10
0.0
 20
230.0
 30
0.0
 40
105.0
  1

  7
GYM
100
AcDbAttributeDefinition
  3
Veri kodu
  2
KOD
 70
0
  0
ENDBLK
  5
19F
330
19D
100
AcDbEntity
  8
0
100
AcDbBlockEnd
  0
BLOCK
  5
1A4
330
1A3
100
AcDbEntity
  8
0
100
AcDbBlockBegin
  2
E_DEDEKTOR
 70
2
 10
0.0
 20
0.0
 30
0.0
  3
E_DEDEKTOR
  1

  0
CIRCLE
  5
1A6
330
1A3
100
AcDbEntity
  8
0
100
AcDbCircle
 10
0.0
 20
0.0
 30
0.0
 40
110.0
  0
CIRCLE
  5
1A7
330
1A3
100
AcDbEntity
  8
0
100
AcDbCircle
 10
0.0
 20
0.0
 30
0.0
 40
40.0
  0
ATTDEF
  5
1A8
330
1A3
100
AcDbEntity
  8
0
100
AcDbText
 10
0.0
 20
240.0
 30
0.0
 40
105.0
  1

  7
GYM
100
AcDbAttributeDefinition
  3
Dedektor kodu
  2
KOD
 70
0
  0
ENDBLK
  5
1A5
330
1A3
100
AcDbEntity
  8
0
100
AcDbBlockEnd
  0
BLOCK
  5
1AA
330
1A9
100
AcDbEntity
  8
0
100
AcDbBlockBegin
  2
E_YANGIN_BUTON
 70
2
 10
0.0
 20
0.0
 30
0.0
  3
E_YANGIN_BUTON
  1

  0
LWPOLYLINE
  5
1AC
330
1A9
100
AcDbEntity
  8
0
100
AcDbPolyline
 90
4
 70
1
 10
-95.0
 20
-95.0
 10
95.0
 20
-95.0
 10
95.0
 20
95.0
 10
-95.0
 20
95.0
  0
TEXT
  5
1AD
330
1A9
100
AcDbEntity
  8
0
100
AcDbText
 10
0.0
 20
0.0
 30
0.0
 40
105.0
  1
Y
  7
GYM-B
 72
1
 11
0.0
 21
0.0
 31
0.0
100
AcDbText
 73
2
  0
ATTDEF
  5
1AE
330
1A9
100
AcDbEntity
  8
0
100
AcDbText
 10
0.0
 20
230.0
 30
0.0
 40
105.0
  1

  7
GYM
100
AcDbAttributeDefinition
  3
Buton kodu
  2
KOD
 70
0
  0
ENDBLK
  5
1AB
330
1A9
100
AcDbEntity
  8
0
100
AcDbBlockEnd
  0
BLOCK
  5
1B0
330
1AF
100
AcDbEntity
  8
0
100
AcDbBlockBegin
  2
E_PANO
 70
2
 10
0.0
 20
0.0
 30
0.0
  3
E_PANO
  1

  0
LWPOLYLINE
  5
1B2
330
1AF
100
AcDbEntity
  8
0
100
AcDbPolyline
 90
4
 70
1
 10
-420.0
 20
-280.0
 10
420.0
 20
-280.0
 10
420.0
 20
280.0
 10
-420.0
 20
280.0
  0
LINE
  5
1B3
330
1AF
100
AcDbEntity
  8
0
100
AcDbLine
 10
-330.0
 20
-280.0
 30
0.0
 11
-330.0
 21
280.0
 31
0.0
  0
LINE
  5
1B4
330
1AF
100
AcDbEntity
  8
0
100
AcDbLine
 10
-220.0
 20
-280.0
 30
0.0
 11
-220.0
 21
280.0
 31
0.0
  0
LINE
  5
1B5
330
1AF
100
AcDbEntity
  8
0
100
AcDbLine
 10
-110.0
 20
-280.0
 30
0.0
 11
-110.0
 21
280.0
 31
0.0
  0
LINE
  5
1B6
330
1AF
100
AcDbEntity
  8
0
100
AcDbLine
 10
0.0
 20
-280.0
 30
0.0
 11
0.0
 21
280.0
 31
0.0
  0
LINE
  5
1B7
330
1AF
100
AcDbEntity
  8
0
100
AcDbLine
 10
110.0
 20
-280.0
 30
0.0
 11
110.0
 21
280.0
 31
0.0
  0
LINE
  5
1B8
330
1AF
100
AcDbEntity
  8
0
100
AcDbLine
 10
220.0
 20
-280.0
 30
0.0
 11
220.0
 21
280.0
 31
0.0
  0
LINE
  5
1B9
330
1AF
100
AcDbEntity
  8
0
100
AcDbLine
 10
330.0
 20
-280.0
 30
0.0
 11
330.0
 21
280.0
 31
0.0
  0
ATTDEF
  5
1BA
330
1AF
100
AcDbEntity
  8
0
100
AcDbText
 10
0.0
 20
380.0
 30
0.0
 40
120.0
  1

  7
GYM
100
AcDbAttributeDefinition
  3
Pano kodu
  2
KOD
 70
0
  0
ATTDEF
  5
1BB
330
1AF
100
AcDbEntity
  8
0
100
AcDbText
 10
0.0
 20
-470.0
 30
0.0
 40
105.0
  1

  7
GYM
100
AcDbAttributeDefinition
  3
Pano tanimi
  2
TANIM
 70
0
  0
ENDBLK
  5
1B1
330
1AF
100
AcDbEntity
  8
0
100
AcDbBlockEnd
  0
BLOCK
  5
1BD
330
1BC
100
AcDbEntity
  8
0
100
AcDbBlockBegin
  2
G_KUZEY
 70
0
 10
0.0
 20
0.0
 30
0.0
  3
G_KUZEY
  1

  0
CIRCLE
  5
1BF
330
1BC
100
AcDbEntity
  8
0
100
AcDbCircle
 10
0.0
 20
0.0
 30
0.0
 40
700.0
  0
LWPOLYLINE
  5
1C0
330
1BC
100
AcDbEntity
  8
0
100
AcDbPolyline
 90
4
 70
1
 10
0.0
 20
560.0
 10
-230.0
 20
-330.0
 10
0.0
 20
-140.0
 10
230.0
 20
-330.0
  0
TEXT
  5
1C1
330
1BC
100
AcDbEntity
  8
0
100
AcDbText
 10
0.0
 20
-960.0
 30
0.0
 40
260.0
  1
K
  7
GYM-B
 72
1
 11
0.0
 21
-960.0
 31
0.0
100
AcDbText
 73
2
  0
ENDBLK
  5
1BE
330
1BC
100
AcDbEntity
  8
0
100
AcDbBlockEnd
  0
BLOCK
  5
20F
330
20E
100
AcDbEntity
  8
0
100
AcDbBlockBegin
  2
*D1
 70
1
 10
0.0
 20
0.0
 30
0.0
  3
*D1
  1

  0
LINE
  5
211
330
20E
100
AcDbEntity
  8
0
 62
7
370
13
100
AcDbLine
 10
8347.45193996958
 20
4705.295184499257
 30
0.0
 11
8679.493979910487
 21
4756.715839025253
 31
0.0
  0
LINE
  5
212
330
20E
100
AcDbEntity
  8
0
 62
7
370
13
100
AcDbLine
 10
8032.347393335592
 20
6740.040899494275
 30
0.0
 11
8364.389433276498
 21
6791.461554020274
 31
0.0
  0
INSERT
  5
213
330
20E
100
AcDbEntity
  8
G-OLCU-ZINCIR
 62
7
100
AcDbBlockReference
  2
_ARCHTICK
 10
8654.788470986312
 20
4752.88989746826
 30
0.0
 41
50.0
 42
50.0
 50
278.80300479416894
  0
INSERT
  5
215
330
20E
100
AcDbEntity
  8
G-OLCU-ZINCIR
 62
7
100
AcDbBlockReference
  2
_ARCHTICK
 10
8339.683924352323
 20
6787.63561246328
 30
0.0
 41
50.0
 42
50.0
 50
98.80300479416896
  0
LINE
  5
217
330
20E
100
AcDbEntity
  8
0
 62
7
370
18
100
AcDbLine
 10
8654.788470986312
 20
4752.88989746826
 30
0.0
 11
8339.683924352323
 21
6787.63561246328
 31
0.0
  0
MTEXT
  5
218
330
20E
100
AcDbEntity
  8
G-OLCU-ZINCIR
 62
7
100
AcDbMText
 10
8454.742722319737
 20
5763.682135487741
 30
0.0
 40
50.0
 71
5
  1
2059
  7
GYM
 50
98.80300479416896
  0
POINT
  5
219
330
20E
100
AcDbEntity
  8
Defpoints
100
AcDbPoint
 10
8654.788470986312
 20
4752.88989746826
 30
0.0
  0
POINT
  5
21A
330
20E
100
AcDbEntity
  8
Defpoints
100
AcDbPoint
 10
8317.805329260571
 20
4700.704054630864
 30
0.0
  0
POINT
  5
21B
330
20E
100
AcDbEntity
  8
Defpoints
100
AcDbPoint
 10
8002.700782626583
 20
6735.449769625883
 30
0.0
  0
ENDBLK
  5
210
330
20E
100
AcDbEntity
  8
0
100
AcDbBlockEnd
  0
BLOCK
  5
21E
330
21D
100
AcDbEntity
  8
0
100
AcDbBlockBegin
  2
*D2
 70
1
 10
0.0
 20
0.0
 30
0.0
  3
*D2
  1

  0
LINE
  5
220
330
21D
100
AcDbEntity
  8
0
 62
7
370
13
100
AcDbLine
 10
8032.347393335592
 20
6740.040899494275
 30
0.0
 11
8364.3894332765
 21
6791.461554020267
 31
0.0
  0
LINE
  5
221
330
21D
100
AcDbEntity
  8
0
 62
7
370
13
100
AcDbLine
 10
8017.043627107619
 20
6838.862935190974
 30
0.0
 11
8349.085667048526
 21
6890.283589716966
 31
0.0
  0
INSERT
  5
222
330
21D
100
AcDbEntity
  8
G-OLCU-ZINCIR
 62
7
100
AcDbBlockReference
  2
_ARCHTICK
 10
8339.683924352325
 20
6787.635612463273
 30
0.0
 41
50.0
 42
50.0
 50
98.80300479416827
  0
INSERT
  5
224
330
21D
100
AcDbEntity
  8
G-OLCU-ZINCIR
 62
7
100
AcDbBlockReference
  2
_ARCHTICK
 10
8324.380158124352
 20
6886.457648159972
 30
0.0
 41
50.0
 42
50.0
 50
278.80300479416826
  0
LINE
  5
226
330
21D
100
AcDbEntity
  8
0
 62
7
370
18
100
AcDbLine
 10
8339.683924352325
 20
6787.635612463273
 30
0.0
 11
8324.380158124352
 21
6886.457648159972
 31
0.0
  0
MTEXT
  5
227
330
21D
100
AcDbEntity
  8
G-OLCU-ZINCIR
 62
7
100
AcDbMText
 10
8264.833056964582
 20
6826.640069276601
 30
0.0
 40
50.0
 71
5
  1
100
  7
GYM
 50
98.80300479416827
  0
POINT
  5
228
330
21D
100
AcDbEntity
  8
Defpoints
100
AcDbPoint
 10
8339.683924352325
 20
6787.635612463273
 30
0.0
  0
POINT
  5
229
330
21D
100
AcDbEntity
  8
Defpoints
100
AcDbPoint
 10
8002.700782626583
 20
6735.449769625883
 30
0.0
  0
POINT
  5
22A
330
21D
100
AcDbEntity
  8
Defpoints
100
AcDbPoint
 10
7987.39701639861
 20
6834.271805322582
 30
0.0
  0
ENDBLK
  5
21F
330
21D
100
AcDbEntity
  8
0
100
AcDbBlockEnd
  0
BLOCK
  5
22D
330
22C
100
AcDbEntity
  8
0
100
AcDbBlockBegin
  2
*D3
 70
1
 10
0.0
 20
0.0
 30
0.0
  3
*D3
  1

  0
LINE
  5
22F
330
22C
100
AcDbEntity
  8
0
 62
7
370
13
100
AcDbLine
 10
8017.043627107619
 20
6838.862935190974
 30
0.0
 11
8349.085667048526
 21
6890.283589716966
 31
0.0
  0
LINE
  5
230
330
22C
100
AcDbEntity
  8
0
 62
7
370
13
100
AcDbLine
 10
7774.019819407389
 20
8408.156862054542
 30
0.0
 11
8106.061859348297
 21
8459.577516580533
 31
0.0
  0
INSERT
  5
231
330
22C
100
AcDbEntity
  8
G-OLCU-ZINCIR
 62
7
100
AcDbBlockReference
  2
_ARCHTICK
 10
8324.380158124352
 20
6886.457648159972
 30
0.0
 41
50.0
 42
50.0
 50
278.80300479416894
  0
INSERT
  5
233
330
22C
100
AcDbEntity
  8
G-OLCU-ZINCIR
 62
7
100
AcDbBlockReference
  2
_ARCHTICK
 10
8081.356350424122
 20
8455.75157502354
 30
0.0
 41
50.0
 42
50.0
 50
98.80300479416894
  0
LINE
  5
235
330
22C
100
AcDbEntity
  8
0
 62
7
370
18
100
AcDbLine
 10
8324.380158124352
 20
6886.457648159972
 30
0.0
 11
8081.356350424122
 21
8455.75157502354
 31
0.0
  0
MTEXT
  5
236
330
22C
100
AcDbEntity
  8
G-OLCU-ZINCIR
 62
7
100
AcDbMText
 10
8160.374778924657
 20
7664.523992113727
 30
0.0
 40
50.0
 71
5
  1
1588
  7
GYM
 50
98.80300479416894
  0
POINT
  5
237
330
22C
100
AcDbEntity
  8
Defpoints
100
AcDbPoint
 10
8324.380158124352
 20
6886.457648159972
 30
0.0
  0
POINT
  5
238
330
22C
100
AcDbEntity
  8
Defpoints
100
AcDbPoint
 10
7987.39701639861
 20
6834.271805322582
 30
0.0
  0
POINT
  5
239
330
22C
100
AcDbEntity
  8
Defpoints
100
AcDbPoint
 10
7744.37320869838
 20
8403.56573218615
 30
0.0
  0
ENDBLK
  5
22E
330
22C
100
AcDbEntity
  8
0
100
AcDbBlockEnd
  0
BLOCK
  5
23C
330
23B
100
AcDbEntity
  8
0
100
AcDbBlockBegin
  2
*D4
 70
1
 10
0.0
 20
0.0
 30
0.0
  3
*D4
  1

  0
LINE
  5
23E
330
23B
100
AcDbEntity
  8
0
 62
7
370
13
100
AcDbLine
 10
8347.45193996958
 20
4705.295184499257
 30
0.0
 11
8881.683864945931
 21
4788.027344727687
 31
0.0
  0
LINE
  5
23F
330
23B
100
AcDbEntity
  8
0
 62
7
370
13
100
AcDbLine
 10
7774.019819407389
 20
8408.156862054544
 30
0.0
 11
8308.25174438374
 21
8490.889022282974
 31
0.0
  0
INSERT
  5
240
330
23B
100
AcDbEntity
  8
G-OLCU-ZINCIR
 62
7
100
AcDbBlockReference
  2
_ARCHTICK
 10
8856.978356021757
 20
4784.201403170693
 30
0.0
 41
50.0
 42
50.0
 50
278.80300479416894
  0
INSERT
  5
242
330
23B
100
AcDbEntity
  8
G-OLCU-ZINCIR
 62
7
100
AcDbBlockReference
  2
_ARCHTICK
 10
8283.546235459566
 20
8487.06308072598
 30
0.0
 41
50.0
 42
50.0
 50
98.80300479416893
  0
LINE
  5
244
330
23B
100
AcDbEntity
  8
0
 62
7
370
18
100
AcDbLine
 10
8856.978356021757
 20
4784.201403170693
 30
0.0
 11
8283.546235459566
 21
8487.06308072598
 31
0.0
  0
MTEXT
  5
245
330
23B
100
AcDbEntity
  8
G-OLCU-ZINCIR
 62
7
100
AcDbMText
 10
8527.76882039108
 20
6629.051622470308
 30
0.0
 40
50.0
 71
5
  1
3747
  7
GYM
 50
98.80300479416893
  0
POINT
  5
246
330
23B
100
AcDbEntity
  8
Defpoints
100
AcDbPoint
 10
8856.978356021757
 20
4784.201403170693
 30
0.0
  0
POINT
  5
247
330
23B
100
AcDbEntity
  8
Defpoints
100
AcDbPoint
 10
8317.805329260571
 20
4700.704054630864
 30
0.0
  0
POINT
  5
248
330
23B
100
AcDbEntity
  8
Defpoints
100
AcDbPoint
 10
7744.37320869838
 20
8403.56573218615
 30
0.0
  0
ENDBLK
  5
23D
330
23B
100
AcDbEntity
  8
0
100
AcDbBlockEnd
  0
BLOCK
  5
24B
330
24A
100
AcDbEntity
  8
0
100
AcDbBlockBegin
  2
*D5
 70
1
 10
0.0
 20
0.0
 30
0.0
  3
*D5
  1

  0
LINE
  5
24D
330
24A
100
AcDbEntity
  8
0
 62
7
370
13
100
AcDbLine
 10
8257.524910094506
 20
9141.243137645633
 30
0.0
 11
8206.09743002349
 21
9473.284120497969
 31
0.0
  0
LINE
  5
24E
330
24A
100
AcDbEntity
  8
0
 62
7
370
13
100
AcDbLine
 10
9295.152981508056
 20
9301.954012867556
 30
0.0
 11
9243.72550143704
 21
9633.994995719891
 31
0.0
  0
INSERT
  5
24F
330
24A
100
AcDbEntity
  8
G-OLCU-ZINCIR
 62
7
100
AcDbBlockReference
  2
_ARCHTICK
 10
8209.923879433536
 20
9448.578690226217
 30
0.0
 41
50.0
 42
50.0
 50
188.8041825834188
  0
INSERT
  5
251
330
24A
100
AcDbEntity
  8
G-OLCU-ZINCIR
 62
7
100
AcDbBlockReference
  2
_ARCHTICK
 10
9247.551950847086
 20
9609.28956544814
 30
0.0
 41
50.0
 42
50.0
 50
8.8041825834188
  0
LINE
  5
253
330
24A
100
AcDbEntity
  8
0
 62
7
370
18
100
AcDbLine
 10
8209.923879433536
 20
9448.578690226217
 30
0.0
 11
9247.551950847086
 21
9609.28956544814
 31
0.0
  0
MTEXT
  5
254
330
24A
100
AcDbEntity
  8
G-OLCU-ZINCIR
 62
7
100
AcDbMText
 10
8722.156422155032
 20
9571.427467904592
 30
0.0
 40
50.0
 71
5
  1
1050
  7
GYM
 50
8.8041825834188
  0
POINT
  5
255
330
24A
100
AcDbEntity
  8
Defpoints
100
AcDbPoint
 10
8209.923879433536
 20
9448.578690226217
 30
0.0
  0
POINT
  5
256
330
24A
100
AcDbEntity
  8
Defpoints
100
AcDbPoint
 10
8262.11664938656
 20
9111.596621319532
 30
0.0
  0
POINT
  5
257
330
24A
100
AcDbEntity
  8
Defpoints
100
AcDbPoint
 10
9299.74472080011
 20
9272.307496541454
 30
0.0
  0
ENDBLK
  5
24C
330
24A
100
AcDbEntity
  8
0
100
AcDbBlockEnd
  0
BLOCK
  5
25A
330
259
100
AcDbEntity
  8
0
100
AcDbBlockBegin
  2
*D6
 70
1
 10
0.0
 20
0.0
 30
0.0
  3
*D6
  1

  0
LINE
  5
25C
330
259
100
AcDbEntity
  8
0
 62
7
370
13
100
AcDbLine
 10
9295.152981508054
 20
9301.954012867556
 30
0.0
 11
9243.725501437033
 21
9633.994995719891
 31
0.0
  0
LINE
  5
25D
330
259
100
AcDbEntity
  8
0
 62
7
370
13
100
AcDbLine
 10
9393.974702595058
 20
9317.259810507741
 30
0.0
 11
9342.547222524037
 21
9649.300793360077
 31
0.0
  0
INSERT
  5
25E
330
259
100
AcDbEntity
  8
G-OLCU-ZINCIR
 62
7
100
AcDbBlockReference
  2
_ARCHTICK
 10
9247.551950847079
 20
9609.28956544814
 30
0.0
 41
50.0
 42
50.0
 50
8.804182583419967
  0
INSERT
  5
260
330
259
100
AcDbEntity
  8
G-OLCU-ZINCIR
 62
7
100
AcDbBlockReference
  2
_ARCHTICK
 10
9346.373671934083
 20
9624.595363088325
 30
0.0
 41
50.0
 42
50.0
 50
188.80418258341996
  0
LINE
  5
262
330
259
100
AcDbEntity
  8
0
 62
7
370
18
100
AcDbLine
 10
9247.551950847079
 20
9609.28956544814
 30
0.0
 11
9346.373671934083
 21
9624.595363088325
 31
0.0
  0
MTEXT
  5
263
330
259
100
AcDbEntity
  8
G-OLCU-ZINCIR
 62
7
100
AcDbMText
 10
9286.554868995256
 20
9684.141234607394
 30
0.0
 40
50.0
 71
5
  1
100
  7
GYM
 50
8.804182583419967
  0
POINT
  5
264
330
259
100
AcDbEntity
  8
Defpoints
100
AcDbPoint
 10
9247.551950847079
 20
9609.28956544814
 30
0.0
  0
POINT
  5
265
330
259
100
AcDbEntity
  8
Defpoints
100
AcDbPoint
 10
9299.74472080011
 20
9272.307496541454
 30
0.0
  0
POINT
  5
266
330
259
100
AcDbEntity
  8
Defpoints
100
AcDbPoint
 10
9398.566441887115
 20
9287.61329418164
 30
0.0
  0
ENDBLK
  5
25B
330
259
100
AcDbEntity
  8
0
100
AcDbBlockEnd
  0
BLOCK
  5
269
330
268
100
AcDbEntity
  8
0
100
AcDbBlockBegin
  2
*D7
 70
1
 10
0.0
 20
0.0
 30
0.0
  3
*D7
  1

  0
LINE
  5
26B
330
268
100
AcDbEntity
  8
0
 62
7
370
13
100
AcDbLine
 10
9393.97470259506
 20
9317.259810507741
 30
0.0
 11
9342.547222524046
 21
9649.300793360077
 31
0.0
  0
LINE
  5
26C
330
268
100
AcDbEntity
  8
0
 62
7
370
13
100
AcDbLine
 10
10431.60277400861
 20
9477.970685729664
 30
0.0
 11
10380.175293937595
 21
9810.011668582
 31
0.0
  0
INSERT
  5
26D
330
268
100
AcDbEntity
  8
G-OLCU-ZINCIR
 62
7
100
AcDbBlockReference
  2
_ARCHTICK
 10
9346.373671934092
 20
9624.595363088325
 30
0.0
 41
50.0
 42
50.0
 50
188.8041825834188
  0
INSERT
  5
26F
330
268
100
AcDbEntity
  8
G-OLCU-ZINCIR
 62
7
100
AcDbBlockReference
  2
_ARCHTICK
 10
10384.00174334764
 20
9785.306238310248
 30
0.0
 41
50.0
 42
50.0
 50
8.8041825834188
  0
LINE
  5
271
330
268
100
AcDbEntity
  8
0
 62
7
370
18
100
AcDbLine
 10
9346.373671934092
 20
9624.595363088325
 30
0.0
 11
10384.00174334764
 21
9785.306238310248
 31
0.0
  0
MTEXT
  5
272
330
268
100
AcDbEntity
  8
G-OLCU-ZINCIR
 62
7
100
AcDbMText
 10
9858.606214655589
 20
9747.4441407667
 30
0.0
 40
50.0
 71
5
  1
1050
  7
GYM
 50
8.8041825834188
  0
POINT
  5
273
330
268
100
AcDbEntity
  8
Defpoints
100
AcDbPoint
 10
9346.373671934092
 20
9624.595363088325
 30
0.0
  0
POINT
  5
274
330
268
100
AcDbEntity
  8
Defpoints
100
AcDbPoint
 10
9398.566441887115
 20
9287.61329418164
 30
0.0
  0
POINT
  5
275
330
268
100
AcDbEntity
  8
Defpoints
100
AcDbPoint
 10
10436.194513300665
 20
9448.324169403562
 30
0.0
  0
ENDBLK
  5
26A
330
268
100
AcDbEntity
  8
0
100
AcDbBlockEnd
  0
BLOCK
  5
278
330
277
100
AcDbEntity
  8
0
100
AcDbBlockBegin
  2
*D8
 70
1
 10
0.0
 20
0.0
 30
0.0
  3
*D8
  1

  0
LINE
  5
27A
330
277
100
AcDbEntity
  8
0
 62
7
370
13
100
AcDbLine
 10
8257.524910094506
 20
9141.243137645633
 30
0.0
 11
8174.781768051675
 21
9675.473361841981
 31
0.0
  0
LINE
  5
27B
330
277
100
AcDbEntity
  8
0
 62
7
370
13
100
AcDbLine
 10
10431.60277400861
 20
9477.970685729664
 30
0.0
 11
10348.859631965783
 21
10012.200909926012
 31
0.0
  0
INSERT
  5
27C
330
277
100
AcDbEntity
  8
G-OLCU-ZINCIR
 62
7
100
AcDbBlockReference
  2
_ARCHTICK
 10
8178.60821746172
 20
9650.76793157023
 30
0.0
 41
50.0
 42
50.0
 50
188.80418258341885
  0
INSERT
  5
27E
330
277
100
AcDbEntity
  8
G-OLCU-ZINCIR
 62
7
100
AcDbBlockReference
  2
_ARCHTICK
 10
10352.686081375829
 20
9987.49547965426
 30
0.0
 41
50.0
 42
50.0
 50
8.804182583418854
  0
LINE
  5
280
330
277
100
AcDbEntity
  8
0
 62
7
370
18
100
AcDbLine
 10
8178.60821746172
 20
9650.76793157023
 30
0.0
 11
10352.686081375829
 21
9987.49547965426
 31
0.0
  0
MTEXT
  5
281
330
277
100
AcDbEntity
  8
G-OLCU-ZINCIR
 62
7
100
AcDbMText
 10
9259.065656433497
 20
9861.625045679659
 30
0.0
 40
50.0
 71
5
  1
2200
  7
GYM
 50
8.804182583418854
  0
POINT
  5
282
330
277
100
AcDbEntity
  8
Defpoints
100
AcDbPoint
 10
8178.60821746172
 20
9650.76793157023
 30
0.0
  0
POINT
  5
283
330
277
100
AcDbEntity
  8
Defpoints
100
AcDbPoint
 10
8262.11664938656
 20
9111.596621319532
 30
0.0
  0
POINT
  5
284
330
277
100
AcDbEntity
  8
Defpoints
100
AcDbPoint
 10
10436.194513300665
 20
9448.324169403562
 30
0.0
  0
ENDBLK
  5
279
330
277
100
AcDbEntity
  8
0
100
AcDbBlockEnd
  0
BLOCK
  5
287
330
286
100
AcDbEntity
  8
0
100
AcDbBlockBegin
  2
*D9
 70
1
 10
0.0
 20
0.0
 30
0.0
  3
*D9
  1

  0
LINE
  5
289
330
286
100
AcDbEntity
  8
0
 62
7
370
13
100
AcDbLine
 10
8652.10212160314
 20
6593.3213148637
 30
0.0
 11
8679.805615331872
 21
6414.453999696221
 31
0.0
  0
LINE
  5
28A
330
286
100
AcDbEntity
  8
0
 62
7
370
13
100
AcDbLine
 10
8825.0401335054
 20
6620.10646073402
 30
0.0
 11
8852.743627234131
 21
6441.239145566542
 31
0.0
  0
INSERT
  5
28B
330
286
100
AcDbEntity
  8
G-OLCU-ZINCIR
 62
7
100
AcDbBlockReference
  2
_ARCHTICK
 10
8675.979165921826
 20
6439.159429967973
 30
0.0
 41
50.0
 42
50.0
 50
188.80418258341888
  0
INSERT
  5
28D
330
286
100
AcDbEntity
  8
G-OLCU-ZINCIR
 62
7
100
AcDbBlockReference
  2
_ARCHTICK
 10
8848.917177824085
 20
6465.9445758382935
 30
0.0
 41
50.0
 42
50.0
 50
8.804182583418868
  0
LINE
  5
28F
330
286
100
AcDbEntity
  8
0
 62
7
370
18
100
AcDbLine
 10
8675.979165921826
 20
6439.159429967973
 30
0.0
 11
8848.917177824085
 21
6465.9445758382935
 31
0.0
  0
MTEXT
  5
290
330
286
100
AcDbEntity
  8
G-OLCU-ZINCIR
 62
7
100
AcDbMText
 10
8755.866678887676
 20
6495.045342970545
 30
0.0
 40
50.0
 71
5
  1
175
  7
GYM
 50
8.804182583418868
  0
POINT
  5
291
330
286
100
AcDbEntity
  8
Defpoints
100
AcDbPoint
 10
8675.979165921826
 20
6439.159429967973
 30
0.0
  0
POINT
  5
292
330
286
100
AcDbEntity
  8
Defpoints
100
AcDbPoint
 10
8647.510382311086
 20
6622.9678311898015
 30
0.0
  0
POINT
  5
293
330
286
100
AcDbEntity
  8
Defpoints
100
AcDbPoint
 10
8820.448394213345
 20
6649.752977060122
 30
0.0
  0
ENDBLK
  5
288
330
286
100
AcDbEntity
  8
0
100
AcDbBlockEnd
  0
BLOCK
  5
296
330
295
100
AcDbEntity
  8
0
100
AcDbBlockBegin
  2
*D10
 70
1
 10
0.0
 20
0.0
 30
0.0
  3
*D10
  1

  0
LINE
  5
298
330
295
100
AcDbEntity
  8
0
 62
7
370
13
100
AcDbLine
 10
8825.0401335054
 20
6620.106460734021
 30
0.0
 11
8852.743627234133
 21
6441.239145566543
 31
0.0
  0
LINE
  5
299
330
295
100
AcDbEntity
  8
0
 62
7
370
13
100
AcDbLine
 10
9516.792181114432
 20
6727.2470442153035
 30
0.0
 11
9544.495674843163
 21
6548.379729047825
 31
0.0
  0
INSERT
  5
29A
330
295
100
AcDbEntity
  8
G-OLCU-ZINCIR
 62
7
100
AcDbBlockReference
  2
_ARCHTICK
 10
8848.917177824087
 20
6465.944575838294
 30
0.0
 41
50.0
 42
50.0
 50
188.8041825834189
  0
INSERT
  5
29C
330
295
100
AcDbEntity
  8
G-OLCU-ZINCIR
 62
7
100
AcDbBlockReference
  2
_ARCHTICK
 10
9540.669225433117
 20
6573.085159319577
 30
0.0
 41
50.0
 42
50.0
 50
8.804182583418914
  0
LINE
  5
29E
330
295
100
AcDbEntity
  8
0
 62
7
370
18
100
AcDbLine
 10
8848.917177824087
 20
6465.944575838294
 30
0.0
 11
9540.669225433117
 21
6573.085159319577
 31
0.0
  0
MTEXT
  5
29F
330
295
100
AcDbEntity
  8
G-OLCU-ZINCIR
 62
7
100
AcDbMText
 10
9188.211708643325
 20
6562.008207646347
 30
0.0
 40
50.0
 71
5
  1
700
  7
GYM
 50
8.804182583418914
  0
POINT
  5
2A0
330
295
100
AcDbEntity
  8
Defpoints
100
AcDbPoint
 10
8848.917177824087
 20
6465.944575838294
 30
0.0
  0
POINT
  5
2A1
330
295
100
AcDbEntity
  8
Defpoints
100
AcDbPoint
 10
8820.448394213345
 20
6649.752977060122
 30
0.0
  0
POINT
  5
2A2
330
295
100
AcDbEntity
  8
Defpoints
100
AcDbPoint
 10
9512.200441822377
 20
6756.893560541405
 30
0.0
  0
ENDBLK
  5
297
330
295
100
AcDbEntity
  8
0
100
AcDbBlockEnd
  0
BLOCK
  5
2A5
330
2A4
100
AcDbEntity
  8
0
100
AcDbBlockBegin
  2
*D11
 70
1
 10
0.0
 20
0.0
 30
0.0
  3
*D11
  1

  0
LINE
  5
2A7
330
2A4
100
AcDbEntity
  8
0
 62
7
370
13
100
AcDbLine
 10
9516.792181114432
 20
6727.247044215304
 30
0.0
 11
9544.495674843165
 21
6548.379729047825
 31
0.0
  0
LINE
  5
2A8
330
2A4
100
AcDbEntity
  8
0
 62
7
370
13
100
AcDbLine
 10
9961.489926005954
 20
6796.123133596128
 30
0.0
 11
9989.193419734685
 21
6617.25581842865
 31
0.0
  0
INSERT
  5
2A9
330
2A4
100
AcDbEntity
  8
G-OLCU-ZINCIR
 62
7
100
AcDbBlockReference
  2
_ARCHTICK
 10
9540.66922543312
 20
6573.085159319577
 30
0.0
 41
50.0
 42
50.0
 50
188.80418258341888
  0
INSERT
  5
2AB
330
2A4
100
AcDbEntity
  8
G-OLCU-ZINCIR
 62
7
100
AcDbBlockReference
  2
_ARCHTICK
 10
9985.36697032464
 20
6641.9612487004015
 30
0.0
 41
50.0
 42
50.0
 50
8.804182583418884
  0
LINE
  5
2AD
330
2A4
100
AcDbEntity
  8
0
 62
7
370
18
100
AcDbLine
 10
9540.66922543312
 20
6573.085159319577
 30
0.0
 11
9985.36697032464
 21
6641.9612487004015
 31
0.0
  0
MTEXT
  5
2AE
330
2A4
100
AcDbEntity
  8
G-OLCU-ZINCIR
 62
7
100
AcDbMText
 10
9756.4366048936
 20
6650.016544077401
 30
0.0
 40
50.0
 71
5
  1
450
  7
GYM
 50
8.804182583418884
  0
POINT
  5
2AF
330
2A4
100
AcDbEntity
  8
Defpoints
100
AcDbPoint
 10
9540.66922543312
 20
6573.085159319577
 30
0.0
  0
POINT
  5
2B0
330
2A4
100
AcDbEntity
  8
Defpoints
100
AcDbPoint
 10
9512.200441822377
 20
6756.893560541405
 30
0.0
  0
POINT
  5
2B1
330
2A4
100
AcDbEntity
  8
Defpoints
100
AcDbPoint
 10
9956.8981867139
 20
6825.76964992223
 30
0.0
  0
ENDBLK
  5
2A6
330
2A4
100
AcDbEntity
  8
0
100
AcDbBlockEnd
  0
BLOCK
  5
2B4
330
2B3
100
AcDbEntity
  8
0
100
AcDbBlockBegin
  2
*D12
 70
1
 10
0.0
 20
0.0
 30
0.0
  3
*D12
  1

  0
LINE
  5
2B6
330
2B3
100
AcDbEntity
  8
0
 62
7
370
13
100
AcDbLine
 10
9961.489926005954
 20
6796.123133596128
 30
0.0
 11
9989.193419734684
 21
6617.25581842865
 31
0.0
  0
LINE
  5
2B7
330
2B3
100
AcDbEntity
  8
0
 62
7
370
13
100
AcDbLine
 10
10653.241973614988
 20
6903.2637170774115
 30
0.0
 11
10680.94546734372
 21
6724.396401909933
 31
0.0
  0
INSERT
  5
2B8
330
2B3
100
AcDbEntity
  8
G-OLCU-ZINCIR
 62
7
100
AcDbBlockReference
  2
_ARCHTICK
 10
9985.366970324638
 20
6641.9612487004015
 30
0.0
 41
50.0
 42
50.0
 50
188.80418258341888
  0
INSERT
  5
2BA
330
2B3
100
AcDbEntity
  8
G-OLCU-ZINCIR
 62
7
100
AcDbBlockReference
  2
_ARCHTICK
 10
10677.119017933674
 20
6749.101832181685
 30
0.0
 41
50.0
 42
50.0
 50
8.804182583418891
  0
LINE
  5
2BC
330
2B3
100
AcDbEntity
  8
0
 62
7
370
18
100
AcDbLine
 10
9985.366970324638
 20
6641.9612487004015
 30
0.0
 11
10677.119017933674
 21
6749.101832181685
 31
0.0
  0
MTEXT
  5
2BD
330
2B3
100
AcDbEntity
  8
G-OLCU-ZINCIR
 62
7
100
AcDbMText
 10
10324.661501143877
 20
6738.024880508455
 30
0.0
 40
50.0
 71
5
  1
700
  7
GYM
 50
8.804182583418891
  0
POINT
  5
2BE
330
2B3
100
AcDbEntity
  8
Defpoints
100
AcDbPoint
 10
9985.366970324638
 20
6641.9612487004015
 30
0.0
  0
POINT
  5
2BF
330
2B3
100
AcDbEntity
  8
Defpoints
100
AcDbPoint
 10
9956.8981867139
 20
6825.76964992223
 30
0.0
  0
POINT
  5
2C0
330
2B3
100
AcDbEntity
  8
Defpoints
100
AcDbPoint
 10
10648.650234322933
 20
6932.910233403513
 30
0.0
  0
ENDBLK
  5
2B5
330
2B3
100
AcDbEntity
  8
0
100
AcDbBlockEnd
  0
BLOCK
  5
2C3
330
2C2
100
AcDbEntity
  8
0
100
AcDbBlockBegin
  2
*D13
 70
1
 10
0.0
 20
0.0
 30
0.0
  3
*D13
  1

  0
LINE
  5
2C5
330
2C2
100
AcDbEntity
  8
0
 62
7
370
13
100
AcDbLine
 10
10653.241973614988
 20
6903.263717077412
 30
0.0
 11
10680.945467343721
 21
6724.396401909933
 31
0.0
  0
LINE
  5
2C6
330
2C2
100
AcDbEntity
  8
0
 62
7
370
13
100
AcDbLine
 10
10826.00212160314
 20
6930.021314863699
 30
0.0
 11
10853.705615331872
 21
6751.153999696221
 31
0.0
  0
INSERT
  5
2C7
330
2C2
100
AcDbEntity
  8
G-OLCU-ZINCIR
 62
7
100
AcDbBlockReference
  2
_ARCHTICK
 10
10677.119017933675
 20
6749.101832181685
 30
0.0
 41
50.0
 42
50.0
 50
188.804182583419
  0
INSERT
  5
2C9
330
2C2
100
AcDbEntity
  8
G-OLCU-ZINCIR
 62
7
100
AcDbBlockReference
  2
_ARCHTICK
 10
10849.879165921826
 20
6775.859429967973
 30
0.0
 41
50.0
 42
50.0
 50
8.804182583418992
  0
LINE
  5
2CB
330
2C2
100
AcDbEntity
  8
0
 62
7
370
18
100
AcDbLine
 10
10677.119017933675
 20
6749.101832181685
 30
0.0
 11
10849.879165921826
 21
6775.859429967973
 31
0.0
  0
MTEXT
  5
2CC
330
2C2
100
AcDbEntity
  8
G-OLCU-ZINCIR
 62
7
100
AcDbMText
 10
10756.917598942473
 20
6804.97397114224
 30
0.0
 40
50.0
 71
5
  1
175
  7
GYM
 50
8.804182583418992
  0
POINT
  5
2CD
330
2C2
100
AcDbEntity
  8
Defpoints
100
AcDbPoint
 10
10677.119017933675
 20
6749.101832181685
 30
0.0
  0
POINT
  5
2CE
330
2C2
100
AcDbEntity
  8
Defpoints
100
AcDbPoint
 10
10648.650234322933
 20
6932.910233403513
 30
0.0
  0
POINT
  5
2CF
330
2C2
100
AcDbEntity
  8
Defpoints
100
AcDbPoint
 10
10821.410382311085
 20
6959.667831189801
 30
0.0
  0
ENDBLK
  5
2C4
330
2C2
100
AcDbEntity
  8
0
100
AcDbBlockEnd
  0
BLOCK
  5
2E7
330
2E6
100
AcDbEntity
  8
0
100
AcDbBlockBegin
  2
*Paper_Space
 70
0
 10
0.0
 20
0.0
 30
0.0
  3
*Paper_Space
  1

  0
ENDBLK
  5
2E8
330
2E6
100
AcDbEntity
  8
0
100
AcDbBlockEnd
  0
ENDSEC
  0
SECTION
  2
ENTITIES
  0
LWPOLYLINE
  5
1C2
330
17
100
AcDbEntity
  8
A-DUVAR-YENI
100
AcDbPolyline
 90
4
 70
1
 10
8930.5
 20
4795.6
 10
11104.4
 20
5132.3
 10
11119.705797640183
 20
5033.478278912996
 10
8945.805797640183
 20
4696.778278912996
  0
HATCH
  5
1C3
330
17
100
AcDbEntity
  8
A-KESIT-TARAMA
 62
7
100
AcDbHatch
 10
0.0
 20
0.0
 30
0.0
210
0.0
220
0.0
230
1.0
  2
ANSI37
 70
0
 71
0
 91
1
 92
3
 72
0
 73
1
 93
4
 10
8930.5
 20
4795.6
 10
11104.4
 20
5132.3
 10
11119.705797640183
 20
5033.478278912996
 10
8945.805797640183
 20
4696.778278912996
 97
0
 75
1
 76
1
 52
45.0
 41
160.0
 77
0
 78
2
 53
90.0
 43
0.0
 44
0.0
 45
-508.0000000074
 46
0.0
 79
0
 53
180.0
 43
0.0
 44
0.0
 45
0.0
 46
-508.0000000074
 79
0
 98
0
  0
LWPOLYLINE
  5
1C4
330
17
100
AcDbEntity
  8
A-DUVAR-MEVCUT
100
AcDbPolyline
 90
4
 70
1
 10
11104.4
 20
5132.3
 10
10530.699999999999
 20
8838.2
 10
10728.345705566282
 20
8868.796978138476
 10
11302.045705566283
 20
5162.896978138475
  0
HATCH
  5
1C5
330
17
100
AcDbEntity
  8
A-KESIT-TARAMA
 62
7
100
AcDbHatch
 10
0.0
 20
0.0
 30
0.0
210
0.0
220
0.0
230
1.0
  2
ANSI31
 70
0
 71
0
 91
1
 92
3
 72
0
 73
1
 93
4
 10
11104.4
 20
5132.3
 10
10530.699999999999
 20
8838.2
 10
10728.345705566282
 20
8868.796978138476
 10
11302.045705566283
 20
5162.896978138475
 97
0
 75
1
 76
1
 52
0.0
 41
192.0
 77
0
 78
1
 53
45.0
 43
0.0
 44
0.0
 45
-431.0522938176
 46
431.0522938176
 79
0
 98
0
  0
LWPOLYLINE
  5
1C6
330
17
100
AcDbEntity
  8
A-DUVAR-YENI
100
AcDbPolyline
 90
4
 70
1
 10
10530.699999999999
 20
8838.2
 10
8357.0
 20
8498.900000000001
 10
8341.577425964442
 20
8597.703563752113
 10
10515.277425964441
 20
8937.003563752112
  0
HATCH
  5
1C7
330
17
100
AcDbEntity
  8
A-KESIT-TARAMA
 62
7
100
AcDbHatch
 10
0.0
 20
0.0
 30
0.0
210
0.0
220
0.0
230
1.0
  2
ANSI37
 70
0
 71
0
 91
1
 92
3
 72
0
 73
1
 93
4
 10
10530.699999999999
 20
8838.2
 10
8357.0
 20
8498.900000000001
 10
8341.577425964442
 20
8597.703563752113
 10
10515.277425964441
 20
8937.003563752112
 97
0
 75
1
 76
1
 52
45.0
 41
160.0
 77
0
 78
2
 53
90.0
 43
0.0
 44
0.0
 45
-508.0000000074
 46
0.0
 79
0
 53
180.0
 43
0.0
 44
0.0
 45
0.0
 46
-508.0000000074
 79
0
 98
0
  0
LWPOLYLINE
  5
1C8
330
17
100
AcDbEntity
  8
A-DUVAR-YENI
100
AcDbPolyline
 90
4
 70
1
 10
8357.0
 20
8498.900000000001
 10
8930.5
 20
4795.6
 10
8831.6779643033
 20
4780.296233772026
 10
8258.1779643033
 20
8483.596233772027
  0
HATCH
  5
1C9
330
17
100
AcDbEntity
  8
A-KESIT-TARAMA
 62
7
100
AcDbHatch
 10
0.0
 20
0.0
 30
0.0
210
0.0
220
0.0
230
1.0
  2
ANSI37
 70
0
 71
0
 91
1
 92
3
 72
0
 73
1
 93
4
 10
8357.0
 20
8498.900000000001
 10
8930.5
 20
4795.6
 10
8831.6779643033
 20
4780.296233772026
 10
8258.1779643033
 20
8483.596233772027
 97
0
 75
1
 76
1
 52
45.0
 41
160.0
 77
0
 78
2
 53
90.0
 43
0.0
 44
0.0
 45
-508.0000000074
 46
0.0
 79
0
 53
180.0
 43
0.0
 44
0.0
 45
0.0
 46
-508.0000000074
 79
0
 98
0
  0
LWPOLYLINE
  5
1CA
330
17
100
AcDbEntity
  8
A-DUVAR-YENI
100
AcDbPolyline
 90
18
 70
1
 10
9637.648037615947
 20
7089.997627580061
 10
9397.30877433822
 20
8642.504644803212
 10
9422.014487534007
 20
8646.329267070521
 10
9445.979969323003
 20
8628.789150690605
 10
9435.118042083843
 20
8698.953376166632
 10
9488.482382586742
 20
8707.214560264025
 10
9736.470890399087
 20
7105.2961166493
 10
10823.510387483137
 20
7273.577656754839
 10
10831.77157158053
 20
7220.21331625195
 10
10761.6073461045
 20
7209.3513890127815
 10
10785.5728278935
 20
7191.811272632865
 10
10789.39745016081
 20
7167.105559437079
 10
9707.198076377432
 20
6999.573305264133
 10
8615.361254207153
 20
6830.549104697714
 10
8611.536631939844
 20
6855.254817893499
 10
8629.076576722084
 20
6879.22140787282
 10
8558.913142474179
 20
6868.355766541787
 10
8550.648700085609
 20
6921.722304462558
  0
HATCH
  5
1CB
330
17
100
AcDbEntity
  8
A-KESIT-TARAMA
 62
7
100
AcDbHatch
 10
0.0
 20
0.0
 30
0.0
210
0.0
220
0.0
230
1.0
  2
ANSI37
 70
0
 71
0
 91
1
 92
3
 72
0
 73
1
 93
18
 10
9637.648037615947
 20
7089.997627580061
 10
9397.30877433822
 20
8642.504644803212
 10
9422.014487534007
 20
8646.329267070521
 10
9445.979969323003
 20
8628.789150690605
 10
9435.118042083843
 20
8698.953376166632
 10
9488.482382586742
 20
8707.214560264025
 10
9736.470890399087
 20
7105.2961166493
 10
10823.510387483137
 20
7273.577656754839
 10
10831.77157158053
 20
7220.21331625195
 10
10761.6073461045
 20
7209.3513890127815
 10
10785.5728278935
 20
7191.811272632865
 10
10789.39745016081
 20
7167.105559437079
 10
9707.198076377432
 20
6999.573305264133
 10
8615.361254207153
 20
6830.549104697714
 10
8611.536631939844
 20
6855.254817893499
 10
8629.076576722084
 20
6879.22140787282
 10
8558.913142474179
 20
6868.355766541787
 10
8550.648700085609
 20
6921.722304462558
 97
0
 75
1
 76
1
 52
45.0
 41
160.0
 77
0
 78
2
 53
90.0
 43
0.0
 44
0.0
 45
-508.0000000074
 46
0.0
 79
0
 53
180.0
 43
0.0
 44
0.0
 45
0.0
 46
-508.0000000074
 79
0
 98
0
  0
LWPOLYLINE
  5
1CC
330
17
100
AcDbEntity
  8
A-ZEMIN-SINIR
100
AcDbPolyline
 90
5
 70
1
 10
8930.5
 20
4795.6
 10
8615.363892797432
 20
6830.549513170486
 10
9707.198076377432
 20
6999.573305264132
 10
10789.39745016081
 20
7167.105559437079
 10
11104.4
 20
5132.3
  0
LWPOLYLINE
  5
1CD
330
17
100
AcDbEntity
  8
A-ZEMIN-SINIR
100
AcDbPolyline
 90
4
 70
1
 10
8359.63795876337
 20
8481.865732016764
 10
9397.30877433822
 20
8642.504644803212
 10
9637.648037615947
 20
7089.997627580061
 10
8600.060126547638
 20
6929.371549008085
  0
LWPOLYLINE
  5
1CE
330
17
100
AcDbEntity
  8
A-ZEMIN-SINIR
100
AcDbPolyline
 90
4
 70
1
 10
10533.759697813848
 20
8818.435429443372
 10
10774.098961091571
 20
7265.928412220222
 10
9736.470890399087
 20
7105.2961166493
 10
9496.131627121362
 20
8657.80313387245
  0
LINE
  5
1CF
330
17
100
AcDbEntity
  8
A-KAPI
100
AcDbLine
 10
8981.94666024394
 20
7535.878513866502
 30
0.0
 11
8843.309130620119
 21
7555.362748000912
 31
0.0
  0
LINE
  5
1D0
330
17
100
AcDbEntity
  8
A-KAPI
100
AcDbLine
 10
8856.69086937988
 20
6644.637251999087
 30
0.0
 11
8718.05333975606
 21
6664.1214861334975
 31
0.0
  0
LWPOLYLINE
  5
1D1
330
17
100
AcDbEntity
  8
A-KAPI
100
AcDbPolyline
 90
4
 70
1
 10
8912.62789543203
 20
7545.620630933707
 10
8021.386633564615
 20
7670.876421797765
 10
8026.953557603018
 20
7710.487144547428
 10
8918.194819470433
 20
7585.231353683369
  0
ARC
  5
1D2
330
17
100
AcDbEntity
  8
A-KAPI
100
AcDbCircle
 10
8912.62789543203
 20
7545.620630933707
 30
0.0
 40
900.0
100
AcDbArc
 50
172.0
 51
-98.00000000000004
  0
CIRCLE
  5
1D3
330
17
100
AcDbEntity
  8
A-MAHAL
100
AcDbCircle
 10
8850.045651340293
 20
7100.01275164694
 30
0.0
 40
5.5200000000000005
  0
TEXT
  5
1D4
330
17
100
AcDbEntity
  8
A-MAHAL
100
AcDbText
 10
8850.045651340293
 20
7100.01275164694
 30
0.0
 40
50.0
  1
K03
 50
8.804182583418896
  7
GYM
 72
1
 11
8850.045651340293
 21
7100.01275164694
 31
0.0
100
AcDbText
 73
2
  0
LINE
  5
1D5
330
17
100
AcDbEntity
  8
A-KAPI
100
AcDbLine
 10
9906.411057953825
 20
7151.630944001846
 30
0.0
 11
9927.82907503359
 21
7013.278970599327
 31
0.0
  0
LINE
  5
1D6
330
17
100
AcDbEntity
  8
A-KAPI
100
AcDbLine
 10
10598.17092496641
 20
7258.721029400673
 30
0.0
 11
10619.588942046175
 21
7120.369055998155
 31
0.0
  0
LWPOLYLINE
  5
1D7
330
17
100
AcDbEntity
  8
A-KAPI
100
AcDbPolyline
 90
4
 70
1
 10
9917.120066493708
 20
7082.454957300587
 10
10024.210151892534
 20
6390.695090287999
 10
9984.681016634673
 20
6384.575656836638
 10
9877.590931235845
 20
7076.335523849225
  0
ARC
  5
1D8
330
17
100
AcDbEntity
  8
A-KAPI
100
AcDbCircle
 10
9917.120066493708
 20
7082.454957300587
 30
0.0
 40
700.0
100
AcDbArc
 50
-81.2
 51
8.800000000000049
  0
CIRCLE
  5
1D9
330
17
100
AcDbEntity
  8
A-MAHAL
100
AcDbCircle
 10
10263.037570574188
 20
7136.040660821325
 30
0.0
 40
5.5200000000000005
  0
TEXT
  5
1DA
330
17
100
AcDbEntity
  8
A-MAHAL
100
AcDbText
 10
10263.037570574188
 20
7136.040660821325
 30
0.0
 40
50.0
  1
K05
 50
8.804182583418896
  7
GYM
 72
1
 11
10263.037570574188
 21
7136.040660821325
 31
0.0
100
AcDbText
 73
2
  0
LINE
  5
1DB
330
17
100
AcDbEntity
  8
A-KAPI
100
AcDbLine
 10
8770.411057953826
 20
6975.630944001845
 30
0.0
 11
8791.82907503359
 21
6837.278970599327
 31
0.0
  0
LINE
  5
1DC
330
17
100
AcDbEntity
  8
A-KAPI
100
AcDbLine
 10
9462.17092496641
 20
7082.721029400673
 30
0.0
 11
9483.588942046175
 21
6944.369055998154
 31
0.0
  0
LWPOLYLINE
  5
1DD
330
17
100
AcDbEntity
  8
A-KAPI
100
AcDbPolyline
 90
4
 70
1
 10
8781.120066493708
 20
6906.454957300586
 10
8888.210151892536
 20
6214.695090287999
 10
8848.681016634673
 20
6208.575656836637
 10
8741.590931235845
 20
6900.335523849225
  0
ARC
  5
1DE
330
17
100
AcDbEntity
  8
A-KAPI
100
AcDbCircle
 10
8781.120066493708
 20
6906.454957300586
 30
0.0
 40
700.0
100
AcDbArc
 50
-81.2
 51
8.800000000000049
  0
CIRCLE
  5
1DF
330
17
100
AcDbEntity
  8
A-MAHAL
100
AcDbCircle
 10
9127.041185875392
 20
6960.017308460325
 30
0.0
 40
5.5200000000000005
  0
TEXT
  5
1E0
330
17
100
AcDbEntity
  8
A-MAHAL
100
AcDbText
 10
9127.041185875392
 20
6960.017308460325
 30
0.0
 40
50.0
  1
K07
 50
8.804182583418896
  7
GYM
 72
1
 11
9127.041185875392
 21
6960.017308460325
 31
0.0
100
AcDbText
 73
2
  0
LWPOLYLINE
  5
1E1
330
17
100
AcDbEntity
  8
M-SIHHI-CIHAZ
100
AcDbPolyline
 90
4
 70
1
 10
9934.669517079366
 20
8047.760492611524
 10
10300.309885101286
 20
8104.391943880202
 10
10200.835404619454
 20
8746.73517590874
 10
9835.195036597535
 20
8690.103724640061
  0
LWPOLYLINE
  5
1E2
330
17
100
AcDbEntity
  8
M-SIHHI-CIHAZ
100
AcDbPolyline
 90
4
 70
1
 10
9984.780289994786
 20
8116.237192613653
 10
10231.834592712297
 20
8154.501686714109
 10
10201.227060256351
 20
8352.145758107508
 10
9954.172757538838
 20
8313.881264007048
  0
LWPOLYLINE
  5
1E3
330
17
100
AcDbEntity
  8
M-SIHHI-CIHAZ
100
AcDbPolyline
 90
4
 70
1
 10
9760.744636370528
 20
7210.215215562124
 10
10254.853241805551
 20
7286.744203763041
 10
10190.577423648057
 20
7701.796753689173
 10
9696.468818213034
 20
7625.267765488256
  0
ELLIPSE
  5
1E4
330
17
100
AcDbEntity
  8
M-SIHHI-CIHAZ
100
AcDbEllipse
 10
9975.661030009293
 20
7456.005984625649
 30
0.0
 11
167.99692584790807
 21
26.019855988311594
 31
0.0
 40
0.7
 41
0.0
 42
6.283185307179586
  0
CIRCLE
  5
1E5
330
17
100
AcDbEntity
  8
M-SIHHI-PIS
100
AcDbCircle
 10
10505.939079827504
 20
7528.0177695397615
 30
0.0
 40
50.0
  0
CIRCLE
  5
1E6
330
17
100
AcDbEntity
  8
M-SIHHI-PIS
100
AcDbCircle
 10
10505.939079827504
 20
7528.0177695397615
 30
0.0
 40
75.00000000000001
  0
LINE
  5
1E7
330
17
100
AcDbEntity
  8
M-SIHHI-PIS
100
AcDbLine
 10
10431.82278901225
 20
7516.538421309624
 30
0.0
 11
10580.055370642758
 21
7539.4971177699
 31
0.0
  0
LINE
  5
1E8
330
17
100
AcDbEntity
  8
M-SIHHI-PIS
100
AcDbLine
 10
10517.416904498486
 20
7453.901242767238
 30
0.0
 11
10494.461255156524
 21
7602.134296312285
 31
0.0
  0
LWPOLYLINE
  5
1E9
330
17
100
AcDbEntity
  8
M-SIHHI-CIHAZ
100
AcDbPolyline
 90
4
 70
1
 10
8625.167955771181
 20
6963.561285373551
 10
9603.565766128242
 20
7115.098404259985
 10
9372.317277624028
 20
8608.354773009165
 10
8393.919467266967
 20
8456.81765412273
  0
CIRCLE
  5
1EA
330
17
100
AcDbEntity
  8
M-SIHHI-PIS
100
AcDbCircle
 10
9022.785691521703
 20
7630.703070174638
 30
0.0
 40
50.0
  0
CIRCLE
  5
1EB
330
17
100
AcDbEntity
  8
M-SIHHI-PIS
100
AcDbCircle
 10
9022.785691521703
 20
7630.703070174638
 30
0.0
 40
75.00000000000001
  0
LINE
  5
1EC
330
17
100
AcDbEntity
  8
M-SIHHI-PIS
100
AcDbLine
 10
8948.66940070645
 20
7619.223721944501
 30
0.0
 11
9096.901982336958
 21
7642.1824184047755
 31
0.0
  0
LINE
  5
1ED
330
17
100
AcDbEntity
  8
M-SIHHI-PIS
100
AcDbLine
 10
9034.263516192683
 20
7556.586543402113
 30
0.0
 11
9011.30786685072
 21
7704.819596947163
 31
0.0
  0
CIRCLE
  5
1EE
330
17
100
AcDbEntity
  8
M-SIHHI-CIHAZ
100
AcDbCircle
 10
9379.237628680428
 20
7844.890211230374
 30
0.0
 40
75.0
  0
LINE
  5
1EF
330
17
100
AcDbEntity
  8
A-ZEMIN-YAZI
100
AcDbLine
 10
8565.107698239435
 20
8331.543297037957
 30
0.0
 11
8905.599450961128
 21
7733.983715370494
 31
0.0
  0
LINE
  5
1F0
330
17
100
AcDbEntity
  8
A-ZEMIN-YAZI
100
AcDbLine
 10
8905.599450961128
 20
7733.983715370494
 30
0.0
 11
8827.149235504376
 21
7795.996324530157
 31
0.0
  0
LINE
  5
1F1
330
17
100
AcDbEntity
  8
A-ZEMIN-YAZI
100
AcDbLine
 10
8905.599450961128
 20
7733.983715370494
 30
0.0
 11
8892.244666664705
 21
7833.087952093229
 31
0.0
  0
TEXT
  5
1F2
330
17
100
AcDbEntity
  8
A-ZEMIN-YAZI
100
AcDbText
 10
8735.353574600282
 20
8092.763506204226
 30
0.0
 40
50.0
  1
%1,5
 50
-51.521160351212146
  7
GYM
 72
1
 11
8735.353574600282
 21
8092.763506204226
 31
0.0
100
AcDbText
 73
2
  0
LINE
  5
1F3
330
17
100
AcDbEntity
  8
A-ZEMIN-YAZI
100
AcDbLine
 10
10366.784058731553
 20
8590.291599459742
 30
0.0
 11
10586.39628144094
 21
7661.910010015983
 31
0.0
  0
LINE
  5
1F4
330
17
100
AcDbEntity
  8
A-ZEMIN-YAZI
100
AcDbLine
 10
10586.39628144094
 20
7661.910010015983
 30
0.0
 11
10528.597855518281
 21
7743.514801302175
 31
0.0
  0
LINE
  5
1F5
330
17
100
AcDbEntity
  8
A-ZEMIN-YAZI
100
AcDbLine
 10
10586.39628144094
 20
7661.910010015983
 30
0.0
 11
10601.50702461436
 21
7760.761744652999
 31
0.0
  0
TEXT
  5
1F6
330
17
100
AcDbEntity
  8
A-ZEMIN-YAZI
100
AcDbText
 10
10476.590170086247
 20
8186.100804737864
 30
0.0
 40
50.0
  1
%1,5
 50
-67.8869267089745
  7
GYM
 72
1
 11
10476.590170086247
 21
8186.100804737864
 31
0.0
100
AcDbText
 73
2
  0
LWPOLYLINE
  5
1F7
330
17
100
AcDbEntity
  8
A-MOBILYA
100
AcDbPolyline
 90
4
 70
1
 10
9088.0258795191
 20
5411.53908881183
 10
9141.596171259742
 20
5065.663065007314
 10
10821.565429738823
 20
5325.86162489043
 10
10767.995137998181
 20
5671.737648694946
  0
TEXT
  5
1F8
330
17
100
AcDbEntity
  8
A-MOBILYA
100
AcDbText
 10
9954.795654628962
 20
5368.700356851131
 30
0.0
 40
40.0
  1
DOLAP E
 50
8.804182583418896
  7
GYM
 72
1
 11
9954.795654628962
 21
5368.700356851131
 31
0.0
100
AcDbText
 73
2
  0
LWPOLYLINE
  5
1F9
330
17
100
AcDbEntity
  8
A-MOBILYA
100
AcDbPolyline
 90
4
 70
1
 10
9292.942814473534
 20
6612.048610751943
 10
9341.92136692212
 20
6295.8191032735285
 10
10021.320699395279
 20
6401.046462049788
 10
9972.342146946692
 20
6717.275969528203
  0
TEXT
  5
1FA
330
17
100
AcDbEntity
  8
A-MOBILYA
100
AcDbText
 10
9657.131756934406
 20
6506.547536400865
 30
0.0
 40
40.0
  1
BANK E
 50
8.804182583418896
  7
GYM
 72
1
 11
9657.131756934406
 21
6506.547536400865
 31
0.0
100
AcDbText
 73
2
  0
CIRCLE
  5
1FB
330
17
100
AcDbEntity
  8
A-MAHAL
100
AcDbCircle
 10
8843.614867427388
 20
6663.517037057455
 30
0.0
 40
170.0
  0
TEXT
  5
1FC
330
17
100
AcDbEntity
  8
A-MAHAL
100
AcDbText
 10
8843.614867427388
 20
6663.517037057455
 30
0.0
 40
50.0
  1
105
 50
8.804182583418896
  7
GYM
 72
1
 11
8843.614867427388
 21
6663.517037057455
 31
0.0
100
AcDbText
 73
2
  0
TEXT
  5
1FD
330
17
100
AcDbEntity
  8
A-YAZI
100
AcDbText
 10
9070.074361676618
 20
6769.426376381583
 30
0.0
 40
44.0
  1
ERKEK SOYUNMA
 50
8.804182583418896
  7
GYM
 11
9070.074361676618
 21
6769.426376381583
 31
0.0
100
AcDbText
 73
2
  0
TEXT
  5
1FE
330
17
100
AcDbEntity
  8
A-YAZI
100
AcDbText
 10
9079.839460571055
 20
6706.378118328074
 30
0.0
 40
44.0
  1
4,53 m²   Z5 / T4
 50
8.804182583418896
  7
GYM
 11
9079.839460571055
 21
6706.378118328074
 31
0.0
100
AcDbText
 73
2
  0
LWPOLYLINE
  5
1FF
330
17
100
AcDbEntity
  8
A-KOT-ISARET
100
AcDbPolyline
 90
3
 70
1
 10
9390.940319733481
 20
5089.537466733653
 10
9350.99101506938
 20
5138.398627760124
 10
9414.236916565063
 20
5148.194338249842
  0
TEXT
  5
200
330
17
100
AcDbEntity
  8
A-KOT-ISARET
100
AcDbText
 10
9451.204886413501
 20
5160.396354693241
 30
0.0
 40
50.0
  1
+0,000
 50
8.804182583418896
  7
GYM
 11
9451.204886413501
 21
5160.396354693241
 31
0.0
100
AcDbText
 73
2
  0
CIRCLE
  5
201
330
17
100
AcDbEntity
  8
A-MAHAL
100
AcDbCircle
 10
8587.932795702432
 20
8314.840049426653
 30
0.0
 40
170.0
  0
TEXT
  5
202
330
17
100
AcDbEntity
  8
A-MAHAL
100
AcDbText
 10
8587.932795702432
 20
8314.840049426653
 30
0.0
 40
50.0
  1
106
 50
8.804182583418896
  7
GYM
 72
1
 11
8587.932795702432
 21
8314.840049426653
 31
0.0
100
AcDbText
 73
2
  0
TEXT
  5
203
330
17
100
AcDbEntity
  8
A-YAZI
100
AcDbText
 10
8814.392289951658
 20
8420.749388750783
 30
0.0
 40
44.0
  1
ERKEK DUŞ
 50
8.804182583418896
  7
GYM
 11
8814.392289951658
 21
8420.749388750783
 31
0.0
100
AcDbText
 73
2
  0
TEXT
  5
204
330
17
100
AcDbEntity
  8
A-YAZI
100
AcDbText
 10
8824.157388846097
 20
8357.701130697274
 30
0.0
 40
44.0
  1
1,65 m²   Z4 / T3
 50
8.804182583418896
  7
GYM
 11
8824.157388846097
 21
8357.701130697274
 31
0.0
100
AcDbText
 73
2
  0
LWPOLYLINE
  5
205
330
17
100
AcDbEntity
  8
A-KOT-ISARET
100
AcDbPolyline
 90
3
 70
1
 10
9060.55288904695
 20
7223.26040210614
 10
9020.603584382849
 20
7272.121563132611
 10
9083.849485878533
 20
7281.917273622328
  0
TEXT
  5
206
330
17
100
AcDbEntity
  8
A-KOT-ISARET
100
AcDbText
 10
9120.817455726972
 20
7294.119290065727
 30
0.0
 40
50.0
  1
-0,020
 50
8.804182583418896
  7
GYM
 11
9120.817455726972
 21
7294.119290065727
 31
0.0
100
AcDbText
 73
2
  0
CIRCLE
  5
207
330
17
100
AcDbEntity
  8
A-MAHAL
100
AcDbCircle
 10
9724.33994090614
 20
8490.787972580947
 30
0.0
 40
170.0
  0
TEXT
  5
208
330
17
100
AcDbEntity
  8
A-MAHAL
100
AcDbText
 10
9724.33994090614
 20
8490.787972580947
 30
0.0
 40
50.0
  1
107
 50
8.804182583418896
  7
GYM
 72
1
 11
9724.33994090614
 21
8490.787972580947
 31
0.0
100
AcDbText
 73
2
  0
TEXT
  5
209
330
17
100
AcDbEntity
  8
A-YAZI
100
AcDbText
 10
9950.799435155372
 20
8596.697311905074
 30
0.0
 40
44.0
  1
ERKEK WC
 50
8.804182583418896
  7
GYM
 11
9950.799435155372
 21
8596.697311905074
 31
0.0
100
AcDbText
 73
2
  0
TEXT
  5
20A
330
17
100
AcDbEntity
  8
A-YAZI
100
AcDbText
 10
9960.564534049809
 20
8533.649053851566
 30
0.0
 40
44.0
  1
1,65 m²   Z4 / T3
 50
8.804182583418896
  7
GYM
 11
9960.564534049809
 21
8533.649053851566
 31
0.0
100
AcDbText
 73
2
  0
LWPOLYLINE
  5
20B
330
17
100
AcDbEntity
  8
A-KOT-ISARET
100
AcDbPolyline
 90
3
 70
1
 10
10196.960033897178
 20
7399.208327543005
 10
10157.010729233076
 20
7448.069488569477
 10
10220.25663072876
 20
7457.865199059194
  0
TEXT
  5
20C
330
17
100
AcDbEntity
  8
A-KOT-ISARET
100
AcDbText
 10
10257.224600577198
 20
7470.067215502593
 30
0.0
 40
50.0
  1
-0,020
 50
8.804182583418896
  7
GYM
 11
10257.224600577198
 21
7470.067215502593
 31
0.0
100
AcDbText
 73
2
  0
DIMENSION
  5
20D
330
17
100
AcDbEntity
  8
G-OLCU-ZINCIR
100
AcDbDimension
280
0
  2
*D1
  3
GYM-20
 10
8654.788470986312
 20
4752.88989746826
 30
0.0
 11
8454.742722319737
 21
5763.682135487741
 31
0.0
 70
32
 71
5
  1
<>
100
AcDbAlignedDimension
 13
8317.805329260571
 23
4700.704054630864
 33
0.0
 14
8002.700782626583
 24
6735.449769625883
 34
0.0
 50
98.80300479416896
100
AcDbRotatedDimension
  0
DIMENSION
  5
21C
330
17
100
AcDbEntity
  8
G-OLCU-ZINCIR
100
AcDbDimension
280
0
  2
*D2
  3
GYM-20
 10
8339.683924352325
 20
6787.635612463273
 30
0.0
 11
8264.833056964582
 21
6826.640069276601
 31
0.0
 70
32
 71
5
  1
<>
100
AcDbAlignedDimension
 13
8002.700782626583
 23
6735.449769625883
 33
0.0
 14
7987.39701639861
 24
6834.271805322582
 34
0.0
 50
98.80300479416827
100
AcDbRotatedDimension
  0
DIMENSION
  5
22B
330
17
100
AcDbEntity
  8
G-OLCU-ZINCIR
100
AcDbDimension
280
0
  2
*D3
  3
GYM-20
 10
8324.380158124352
 20
6886.457648159972
 30
0.0
 11
8160.374778924657
 21
7664.523992113727
 31
0.0
 70
32
 71
5
  1
<>
100
AcDbAlignedDimension
 13
7987.39701639861
 23
6834.271805322582
 33
0.0
 14
7744.37320869838
 24
8403.56573218615
 34
0.0
 50
98.80300479416894
100
AcDbRotatedDimension
  0
DIMENSION
  5
23A
330
17
100
AcDbEntity
  8
G-OLCU-ZINCIR
100
AcDbDimension
280
0
  2
*D4
  3
GYM-20
 10
8856.978356021757
 20
4784.201403170693
 30
0.0
 11
8527.76882039108
 21
6629.051622470308
 31
0.0
 70
32
 71
5
  1
<>
100
AcDbAlignedDimension
 13
8317.805329260571
 23
4700.704054630864
 33
0.0
 14
7744.37320869838
 24
8403.56573218615
 34
0.0
 50
98.80300479416893
100
AcDbRotatedDimension
  0
DIMENSION
  5
249
330
17
100
AcDbEntity
  8
G-OLCU-ZINCIR
100
AcDbDimension
280
0
  2
*D5
  3
GYM-20
 10
8209.923879433536
 20
9448.578690226217
 30
0.0
 11
8722.156422155032
 21
9571.427467904592
 31
0.0
 70
32
 71
5
  1
<>
100
AcDbAlignedDimension
 13
8262.11664938656
 23
9111.596621319532
 33
0.0
 14
9299.74472080011
 24
9272.307496541454
 34
0.0
 50
8.8041825834188
100
AcDbRotatedDimension
  0
DIMENSION
  5
258
330
17
100
AcDbEntity
  8
G-OLCU-ZINCIR
100
AcDbDimension
280
0
  2
*D6
  3
GYM-20
 10
9247.551950847079
 20
9609.28956544814
 30
0.0
 11
9286.554868995256
 21
9684.141234607394
 31
0.0
 70
32
 71
5
  1
<>
100
AcDbAlignedDimension
 13
9299.74472080011
 23
9272.307496541454
 33
0.0
 14
9398.566441887115
 24
9287.61329418164
 34
0.0
 50
8.804182583419967
100
AcDbRotatedDimension
  0
DIMENSION
  5
267
330
17
100
AcDbEntity
  8
G-OLCU-ZINCIR
100
AcDbDimension
280
0
  2
*D7
  3
GYM-20
 10
9346.373671934092
 20
9624.595363088325
 30
0.0
 11
9858.606214655589
 21
9747.4441407667
 31
0.0
 70
32
 71
5
  1
<>
100
AcDbAlignedDimension
 13
9398.566441887115
 23
9287.61329418164
 33
0.0
 14
10436.194513300665
 24
9448.324169403562
 34
0.0
 50
8.8041825834188
100
AcDbRotatedDimension
  0
DIMENSION
  5
276
330
17
100
AcDbEntity
  8
G-OLCU-ZINCIR
100
AcDbDimension
280
0
  2
*D8
  3
GYM-20
 10
8178.60821746172
 20
9650.76793157023
 30
0.0
 11
9259.065656433497
 21
9861.625045679659
 31
0.0
 70
32
 71
5
  1
<>
100
AcDbAlignedDimension
 13
8262.11664938656
 23
9111.596621319532
 33
0.0
 14
10436.194513300665
 24
9448.324169403562
 34
0.0
 50
8.804182583418854
100
AcDbRotatedDimension
  0
DIMENSION
  5
285
330
17
100
AcDbEntity
  8
G-OLCU-ZINCIR
100
AcDbDimension
280
0
  2
*D9
  3
GYM-20
 10
8675.979165921826
 20
6439.159429967973
 30
0.0
 11
8755.866678887676
 21
6495.045342970545
 31
0.0
 70
32
 71
5
  1
<>
100
AcDbAlignedDimension
 13
8647.510382311086
 23
6622.9678311898015
 33
0.0
 14
8820.448394213345
 24
6649.752977060122
 34
0.0
 50
8.804182583418868
100
AcDbRotatedDimension
  0
DIMENSION
  5
294
330
17
100
AcDbEntity
  8
G-OLCU-ZINCIR
100
AcDbDimension
280
0
  2
*D10
  3
GYM-20
 10
8848.917177824087
 20
6465.944575838294
 30
0.0
 11
9188.211708643325
 21
6562.008207646347
 31
0.0
 70
32
 71
5
  1
<>
100
AcDbAlignedDimension
 13
8820.448394213345
 23
6649.752977060122
 33
0.0
 14
9512.200441822377
 24
6756.893560541405
 34
0.0
 50
8.804182583418914
100
AcDbRotatedDimension
  0
DIMENSION
  5
2A3
330
17
100
AcDbEntity
  8
G-OLCU-ZINCIR
100
AcDbDimension
280
0
  2
*D11
  3
GYM-20
 10
9540.66922543312
 20
6573.085159319577
 30
0.0
 11
9756.4366048936
 21
6650.016544077401
 31
0.0
 70
32
 71
5
  1
<>
100
AcDbAlignedDimension
 13
9512.200441822377
 23
6756.893560541405
 33
0.0
 14
9956.8981867139
 24
6825.76964992223
 34
0.0
 50
8.804182583418884
100
AcDbRotatedDimension
  0
DIMENSION
  5
2B2
330
17
100
AcDbEntity
  8
G-OLCU-ZINCIR
100
AcDbDimension
280
0
  2
*D12
  3
GYM-20
 10
9985.366970324638
 20
6641.9612487004015
 30
0.0
 11
10324.661501143877
 21
6738.024880508455
 31
0.0
 70
32
 71
5
  1
<>
100
AcDbAlignedDimension
 13
9956.8981867139
 23
6825.76964992223
 33
0.0
 14
10648.650234322933
 24
6932.910233403513
 34
0.0
 50
8.804182583418891
100
AcDbRotatedDimension
  0
DIMENSION
  5
2C1
330
17
100
AcDbEntity
  8
G-OLCU-ZINCIR
100
AcDbDimension
280
0
  2
*D13
  3
GYM-20
 10
10677.119017933675
 20
6749.101832181685
 30
0.0
 11
10756.917598942473
 21
6804.97397114224
 31
0.0
 70
32
 71
5
  1
<>
100
AcDbAlignedDimension
 13
10648.650234322933
 23
6932.910233403513
 33
0.0
 14
10821.410382311085
 24
6959.667831189801
 34
0.0
 50
8.804182583418992
100
AcDbRotatedDimension
  0
LINE
  5
2D0
330
17
100
AcDbEntity
  8
A-KESIT-HAT
100
AcDbLine
 10
9489.323232206501
 20
4780.95985132431
 30
0.0
 11
9573.493946460358
 21
4237.438654992469
 31
0.0
  0
LINE
  5
2D1
330
17
100
AcDbEntity
  8
G-KESIT-ISARET
100
AcDbLine
 10
9573.493946460358
 20
4237.438654992469
 30
0.0
 11
9949.014756352497
 21
4295.6118588101
 31
0.0
  0
LINE
  5
2D2
330
17
100
AcDbEntity
  8
G-KESIT-ISARET
100
AcDbLine
 10
9949.014756352497
 20
4295.6118588101
 30
0.0
 11
9824.059228453265
 21
4232.476163300949
 31
0.0
  0
LINE
  5
2D3
330
17
100
AcDbEntity
  8
G-KESIT-ISARET
100
AcDbLine
 10
9949.014756352497
 20
4295.6118588101
 30
0.0
 11
9810.813380027419
 21
4317.981024683104
 31
0.0
  0
CIRCLE
  5
2D4
330
17
100
AcDbEntity
  8
G-KESIT-ISARET
100
AcDbCircle
 10
9637.769764617851
 20
3822.386105066336
 30
0.0
 40
300.0
  0
LINE
  5
2D5
330
17
100
AcDbEntity
  8
G-KESIT-ISARET
100
AcDbLine
 10
9341.302871118356
 20
3776.47988493072
 30
0.0
 11
9934.233197640386
 21
3868.31467077182
 31
0.0
  0
TEXT
  5
2D6
330
17
100
AcDbEntity
  8
G-KESIT-ISARET
100
AcDbText
 10
9617.873138283005
 20
3950.8659242569775
 30
0.0
 40
50.0
  1
K1
 50
8.804182583418896
  7
GYM
 72
1
 11
9617.873138283005
 21
3950.8659242569775
 31
0.0
100
AcDbText
 73
2
  0
TEXT
  5
2D7
330
17
100
AcDbEntity
  8
G-KESIT-ISARET
100
AcDbText
 10
9666.845190212522
 20
3634.635410027543
 30
0.0
 40
40.0
  1
P-03
 50
8.804182583418896
  7
GYM
 72
1
 11
9666.845190212522
 21
3634.635410027543
 31
0.0
100
AcDbText
 73
2
  0
LINE
  5
2D8
330
17
100
AcDbEntity
  8
A-KESIT-HAT
100
AcDbLine
 10
8885.215699750552
 20
8681.903922717707
 30
0.0
 11
8801.044985496696
 21
9225.425119049547
 31
0.0
  0
LINE
  5
2D9
330
17
100
AcDbEntity
  8
G-KESIT-ISARET
100
AcDbLine
 10
8801.044985496696
 20
9225.425119049547
 30
0.0
 11
9176.565795388833
 21
9283.598322867178
 31
0.0
  0
LINE
  5
2DA
330
17
100
AcDbEntity
  8
G-KESIT-ISARET
100
AcDbLine
 10
9176.565795388833
 20
9283.598322867178
 30
0.0
 11
9051.610267489601
 21
9220.462627358027
 31
0.0
  0
LINE
  5
2DB
330
17
100
AcDbEntity
  8
G-KESIT-ISARET
100
AcDbLine
 10
9176.565795388833
 20
9283.598322867178
 30
0.0
 11
9038.364419063753
 21
9305.967488740182
 31
0.0
  0
CIRCLE
  5
2DC
330
17
100
AcDbEntity
  8
G-KESIT-ISARET
100
AcDbCircle
 10
8736.769167339202
 20
9640.47766897568
 30
0.0
 40
300.0
  0
LINE
  5
2DD
330
17
100
AcDbEntity
  8
G-KESIT-ISARET
100
AcDbLine
 10
8440.302273839709
 20
9594.571448840064
 30
0.0
 11
9033.232600361736
 21
9686.406234681164
 31
0.0
  0
TEXT
  5
2DE
330
17
100
AcDbEntity
  8
G-KESIT-ISARET
100
AcDbText
 10
8716.872541004359
 20
9768.957488166321
 30
0.0
 40
50.0
  1
K1
 50
8.804182583418896
  7
GYM
 72
1
 11
8716.872541004359
 21
9768.957488166321
 31
0.0
100
AcDbText
 73
2
  0
TEXT
  5
2DF
330
17
100
AcDbEntity
  8
G-KESIT-ISARET
100
AcDbText
 10
8765.844592933874
 20
9452.726973936888
 30
0.0
 40
40.0
  1
P-03
 50
8.804182583418896
  7
GYM
 72
1
 11
8765.844592933874
 21
9452.726973936888
 31
0.0
100
AcDbText
 73
2
  0
CIRCLE
  5
2E0
330
17
100
AcDbEntity
  8
A-DETAY-CAGRI
  6
DASHED
100
AcDbCircle
 10
8642.266987398227
 20
7179.573494832906
 30
0.0
 40
260.0
  0
LINE
  5
2E1
330
17
100
AcDbEntity
  8
A-DETAY-CAGRI
100
AcDbLine
 10
8431.591337814772
 20
7333.7444702852345
 30
0.0
 11
7803.901157582391
 21
7793.083779596065
 31
0.0
  0
CIRCLE
  5
2E2
330
17
100
AcDbEntity
  8
A-DETAY-CAGRI
100
AcDbCircle
 10
7487.671650103975
 20
7744.105227147479
 30
0.0
 40
300.0
  0
LINE
  5
2E3
330
17
100
AcDbEntity
  8
A-DETAY-CAGRI
100
AcDbLine
 10
7187.671650103975
 20
7744.105227147479
 30
0.0
 11
7787.671650103975
 21
7744.105227147479
 31
0.0
  0
TEXT
  5
2E4
330
17
100
AcDbEntity
  8
A-DETAY-CAGRI
100
AcDbText
 10
7487.671650103975
 20
7864.105227147479
 30
0.0
 40
50.0
  1
D-02
 50
8.804182583418896
  7
GYM
 72
1
 11
7487.671650103975
 21
7864.105227147479
 31
0.0
100
AcDbText
 73
2
  0
TEXT
  5
2E5
330
17
100
AcDbEntity
  8
A-DETAY-CAGRI
100
AcDbText
 10
7487.671650103975
 20
7544.105227147478
 30
0.0
 40
40.0
  1
P-05
 50
8.804182583418896
  7
GYM
 72
1
 11
7487.671650103975
 21
7544.105227147478
 31
0.0
100
AcDbText
 73
2
  0
VIEWPORT
  5
2EA
330
2E6
100
AcDbEntity
 67
1
  8
VIEWPORTS
100
AcDbViewport
 10
297.0
 20
210.0
 30
0.0
 40
653.4000000000001
 41
462.00000000000006
 68
1
 69
1
 12
297.0
 22
210.0
 13
0.0
 23
0.0
 14
10.0
 24
10.0
 15
10.0
 25
10.0
 16
0.0
 26
0.0
 36
1.0
 17
0.0
 27
0.0
 37
0.0
 42
50.0
 43
0.0
 44
0.0
 45
462.00000000000006
 50
0.0
 51
0.0
 72
100
 90
557088
  1

281
0
 71
0
 74
0
110
0.0
120
0.0
130
0.0
111
1.0
121
0.0
131
0.0
112
0.0
122
1.0
132
0.0
 79
0
146
0.0
282
0
  0
LWPOLYLINE
  5
2EB
330
2E6
100
AcDbEntity
 67
1
  8
G-CERCEVE
370
13
100
AcDbPolyline
 90
4
 70
1
 10
0.0
 20
0.0
 10
10.0
 20
0.0
 10
10.0
 20
10.0
 10
0.0
 20
10.0
  0
LWPOLYLINE
  5
2EC
330
2E6
100
AcDbEntity
 67
1
  8
G-CERCEVE
370
13
100
AcDbPolyline
 90
4
 70
1
 10
584.0
 20
0.0
 10
594.0
 20
0.0
 10
594.0
 20
10.0
 10
584.0
 20
10.0
  0
LWPOLYLINE
  5
2ED
330
2E6
100
AcDbEntity
 67
1
  8
G-CERCEVE
370
13
100
AcDbPolyline
 90
4
 70
1
 10
584.0
 20
410.0
 10
594.0
 20
410.0
 10
594.0
 20
420.0
 10
584.0
 20
420.0
  0
LWPOLYLINE
  5
2EE
330
2E6
100
AcDbEntity
 67
1
  8
G-CERCEVE
370
13
100
AcDbPolyline
 90
4
 70
1
 10
0.0
 20
410.0
 10
10.0
 20
410.0
 10
10.0
 20
420.0
 10
0.0
 20
420.0
  0
LWPOLYLINE
  5
2EF
330
2E6
100
AcDbEntity
 67
1
  8
G-CERCEVE
370
70
100
AcDbPolyline
 90
4
 70
1
 10
20.0
 20
10.0
 10
584.0
 20
10.0
 10
584.0
 20
410.0
 10
20.0
 20
410.0
  0
LWPOLYLINE
  5
2F0
330
2E6
100
AcDbEntity
 67
1
  8
G-PAFTA-ZON
370
13
100
AcDbPolyline
 90
4
 70
1
 10
25.0
 20
15.0
 10
579.0
 20
15.0
 10
579.0
 20
405.0
 10
25.0
 20
405.0
  0
TEXT
  5
2F1
330
2E6
100
AcDbEntity
 67
1
  8
G-PAFTA-ZON
100
AcDbText
 10
50.18181818181819
 20
12.5
 30
0.0
 40
3.5
  1
1
  7
GYM
 72
1
 11
50.18181818181819
 21
12.5
 31
0.0
100
AcDbText
 73
2
  0
TEXT
  5
2F2
330
2E6
100
AcDbEntity
 67
1
  8
G-PAFTA-ZON
100
AcDbText
 10
50.18181818181819
 20
407.5
 30
0.0
 40
3.5
  1
1
  7
GYM
 72
1
 11
50.18181818181819
 21
407.5
 31
0.0
100
AcDbText
 73
2
  0
LINE
  5
2F3
330
2E6
100
AcDbEntity
 67
1
  8
G-PAFTA-ZON
370
13
100
AcDbLine
 10
75.36363636363637
 20
10.0
 30
0.0
 11
75.36363636363637
 21
15.0
 31
0.0
  0
LINE
  5
2F4
330
2E6
100
AcDbEntity
 67
1
  8
G-PAFTA-ZON
370
13
100
AcDbLine
 10
75.36363636363637
 20
405.0
 30
0.0
 11
75.36363636363637
 21
410.0
 31
0.0
  0
TEXT
  5
2F5
330
2E6
100
AcDbEntity
 67
1
  8
G-PAFTA-ZON
100
AcDbText
 10
100.54545454545456
 20
12.5
 30
0.0
 40
3.5
  1
2
  7
GYM
 72
1
 11
100.54545454545456
 21
12.5
 31
0.0
100
AcDbText
 73
2
  0
TEXT
  5
2F6
330
2E6
100
AcDbEntity
 67
1
  8
G-PAFTA-ZON
100
AcDbText
 10
100.54545454545456
 20
407.5
 30
0.0
 40
3.5
  1
2
  7
GYM
 72
1
 11
100.54545454545456
 21
407.5
 31
0.0
100
AcDbText
 73
2
  0
LINE
  5
2F7
330
2E6
100
AcDbEntity
 67
1
  8
G-PAFTA-ZON
370
13
100
AcDbLine
 10
125.72727272727273
 20
10.0
 30
0.0
 11
125.72727272727273
 21
15.0
 31
0.0
  0
LINE
  5
2F8
330
2E6
100
AcDbEntity
 67
1
  8
G-PAFTA-ZON
370
13
100
AcDbLine
 10
125.72727272727273
 20
405.0
 30
0.0
 11
125.72727272727273
 21
410.0
 31
0.0
  0
TEXT
  5
2F9
330
2E6
100
AcDbEntity
 67
1
  8
G-PAFTA-ZON
100
AcDbText
 10
150.9090909090909
 20
12.5
 30
0.0
 40
3.5
  1
3
  7
GYM
 72
1
 11
150.9090909090909
 21
12.5
 31
0.0
100
AcDbText
 73
2
  0
TEXT
  5
2FA
330
2E6
100
AcDbEntity
 67
1
  8
G-PAFTA-ZON
100
AcDbText
 10
150.9090909090909
 20
407.5
 30
0.0
 40
3.5
  1
3
  7
GYM
 72
1
 11
150.9090909090909
 21
407.5
 31
0.0
100
AcDbText
 73
2
  0
LINE
  5
2FB
330
2E6
100
AcDbEntity
 67
1
  8
G-PAFTA-ZON
370
13
100
AcDbLine
 10
176.0909090909091
 20
10.0
 30
0.0
 11
176.0909090909091
 21
15.0
 31
0.0
  0
LINE
  5
2FC
330
2E6
100
AcDbEntity
 67
1
  8
G-PAFTA-ZON
370
13
100
AcDbLine
 10
176.0909090909091
 20
405.0
 30
0.0
 11
176.0909090909091
 21
410.0
 31
0.0
  0
TEXT
  5
2FD
330
2E6
100
AcDbEntity
 67
1
  8
G-PAFTA-ZON
100
AcDbText
 10
201.27272727272728
 20
12.5
 30
0.0
 40
3.5
  1
4
  7
GYM
 72
1
 11
201.27272727272728
 21
12.5
 31
0.0
100
AcDbText
 73
2
  0
TEXT
  5
2FE
330
2E6
100
AcDbEntity
 67
1
  8
G-PAFTA-ZON
100
AcDbText
 10
201.27272727272728
 20
407.5
 30
0.0
 40
3.5
  1
4
  7
GYM
 72
1
 11
201.27272727272728
 21
407.5
 31
0.0
100
AcDbText
 73
2
  0
LINE
  5
2FF
330
2E6
100
AcDbEntity
 67
1
  8
G-PAFTA-ZON
370
13
100
AcDbLine
 10
226.45454545454547
 20
10.0
 30
0.0
 11
226.45454545454547
 21
15.0
 31
0.0
  0
LINE
  5
300
330
2E6
100
AcDbEntity
 67
1
  8
G-PAFTA-ZON
370
13
100
AcDbLine
 10
226.45454545454547
 20
405.0
 30
0.0
 11
226.45454545454547
 21
410.0
 31
0.0
  0
TEXT
  5
301
330
2E6
100
AcDbEntity
 67
1
  8
G-PAFTA-ZON
100
AcDbText
 10
251.63636363636365
 20
12.5
 30
0.0
 40
3.5
  1
5
  7
GYM
 72
1
 11
251.63636363636365
 21
12.5
 31
0.0
100
AcDbText
 73
2
  0
TEXT
  5
302
330
2E6
100
AcDbEntity
 67
1
  8
G-PAFTA-ZON
100
AcDbText
 10
251.63636363636365
 20
407.5
 30
0.0
 40
3.5
  1
5
  7
GYM
 72
1
 11
251.63636363636365
 21
407.5
 31
0.0
100
AcDbText
 73
2
  0
LINE
  5
303
330
2E6
100
AcDbEntity
 67
1
  8
G-PAFTA-ZON
370
13
100
AcDbLine
 10
276.81818181818187
 20
10.0
 30
0.0
 11
276.81818181818187
 21
15.0
 31
0.0
  0
LINE
  5
304
330
2E6
100
AcDbEntity
 67
1
  8
G-PAFTA-ZON
370
13
100
AcDbLine
 10
276.81818181818187
 20
405.0
 30
0.0
 11
276.81818181818187
 21
410.0
 31
0.0
  0
TEXT
  5
305
330
2E6
100
AcDbEntity
 67
1
  8
G-PAFTA-ZON
100
AcDbText
 10
302.00000000000006
 20
12.5
 30
0.0
 40
3.5
  1
6
  7
GYM
 72
1
 11
302.00000000000006
 21
12.5
 31
0.0
100
AcDbText
 73
2
  0
TEXT
  5
306
330
2E6
100
AcDbEntity
 67
1
  8
G-PAFTA-ZON
100
AcDbText
 10
302.00000000000006
 20
407.5
 30
0.0
 40
3.5
  1
6
  7
GYM
 72
1
 11
302.00000000000006
 21
407.5
 31
0.0
100
AcDbText
 73
2
  0
LINE
  5
307
330
2E6
100
AcDbEntity
 67
1
  8
G-PAFTA-ZON
370
13
100
AcDbLine
 10
327.1818181818182
 20
10.0
 30
0.0
 11
327.1818181818182
 21
15.0
 31
0.0
  0
LINE
  5
308
330
2E6
100
AcDbEntity
 67
1
  8
G-PAFTA-ZON
370
13
100
AcDbLine
 10
327.1818181818182
 20
405.0
 30
0.0
 11
327.1818181818182
 21
410.0
 31
0.0
  0
TEXT
  5
309
330
2E6
100
AcDbEntity
 67
1
  8
G-PAFTA-ZON
100
AcDbText
 10
352.3636363636364
 20
12.5
 30
0.0
 40
3.5
  1
7
  7
GYM
 72
1
 11
352.3636363636364
 21
12.5
 31
0.0
100
AcDbText
 73
2
  0
TEXT
  5
30A
330
2E6
100
AcDbEntity
 67
1
  8
G-PAFTA-ZON
100
AcDbText
 10
352.3636363636364
 20
407.5
 30
0.0
 40
3.5
  1
7
  7
GYM
 72
1
 11
352.3636363636364
 21
407.5
 31
0.0
100
AcDbText
 73
2
  0
LINE
  5
30B
330
2E6
100
AcDbEntity
 67
1
  8
G-PAFTA-ZON
370
13
100
AcDbLine
 10
377.54545454545456
 20
10.0
 30
0.0
 11
377.54545454545456
 21
15.0
 31
0.0
  0
LINE
  5
30C
330
2E6
100
AcDbEntity
 67
1
  8
G-PAFTA-ZON
370
13
100
AcDbLine
 10
377.54545454545456
 20
405.0
 30
0.0
 11
377.54545454545456
 21
410.0
 31
0.0
  0
TEXT
  5
30D
330
2E6
100
AcDbEntity
 67
1
  8
G-PAFTA-ZON
100
AcDbText
 10
402.72727272727275
 20
12.5
 30
0.0
 40
3.5
  1
8
  7
GYM
 72
1
 11
402.72727272727275
 21
12.5
 31
0.0
100
AcDbText
 73
2
  0
TEXT
  5
30E
330
2E6
100
AcDbEntity
 67
1
  8
G-PAFTA-ZON
100
AcDbText
 10
402.72727272727275
 20
407.5
 30
0.0
 40
3.5
  1
8
  7
GYM
 72
1
 11
402.72727272727275
 21
407.5
 31
0.0
100
AcDbText
 73
2
  0
LINE
  5
30F
330
2E6
100
AcDbEntity
 67
1
  8
G-PAFTA-ZON
370
13
100
AcDbLine
 10
427.90909090909093
 20
10.0
 30
0.0
 11
427.90909090909093
 21
15.0
 31
0.0
  0
LINE
  5
310
330
2E6
100
AcDbEntity
 67
1
  8
G-PAFTA-ZON
370
13
100
AcDbLine
 10
427.90909090909093
 20
405.0
 30
0.0
 11
427.90909090909093
 21
410.0
 31
0.0
  0
TEXT
  5
311
330
2E6
100
AcDbEntity
 67
1
  8
G-PAFTA-ZON
100
AcDbText
 10
453.0909090909091
 20
12.5
 30
0.0
 40
3.5
  1
9
  7
GYM
 72
1
 11
453.0909090909091
 21
12.5
 31
0.0
100
AcDbText
 73
2
  0
TEXT
  5
312
330
2E6
100
AcDbEntity
 67
1
  8
G-PAFTA-ZON
100
AcDbText
 10
453.0909090909091
 20
407.5
 30
0.0
 40
3.5
  1
9
  7
GYM
 72
1
 11
453.0909090909091
 21
407.5
 31
0.0
100
AcDbText
 73
2
  0
LINE
  5
313
330
2E6
100
AcDbEntity
 67
1
  8
G-PAFTA-ZON
370
13
100
AcDbLine
 10
478.2727272727273
 20
10.0
 30
0.0
 11
478.2727272727273
 21
15.0
 31
0.0
  0
LINE
  5
314
330
2E6
100
AcDbEntity
 67
1
  8
G-PAFTA-ZON
370
13
100
AcDbLine
 10
478.2727272727273
 20
405.0
 30
0.0
 11
478.2727272727273
 21
410.0
 31
0.0
  0
TEXT
  5
315
330
2E6
100
AcDbEntity
 67
1
  8
G-PAFTA-ZON
100
AcDbText
 10
503.4545454545455
 20
12.5
 30
0.0
 40
3.5
  1
10
  7
GYM
 72
1
 11
503.4545454545455
 21
12.5
 31
0.0
100
AcDbText
 73
2
  0
TEXT
  5
316
330
2E6
100
AcDbEntity
 67
1
  8
G-PAFTA-ZON
100
AcDbText
 10
503.4545454545455
 20
407.5
 30
0.0
 40
3.5
  1
10
  7
GYM
 72
1
 11
503.4545454545455
 21
407.5
 31
0.0
100
AcDbText
 73
2
  0
LINE
  5
317
330
2E6
100
AcDbEntity
 67
1
  8
G-PAFTA-ZON
370
13
100
AcDbLine
 10
528.6363636363637
 20
10.0
 30
0.0
 11
528.6363636363637
 21
15.0
 31
0.0
  0
LINE
  5
318
330
2E6
100
AcDbEntity
 67
1
  8
G-PAFTA-ZON
370
13
100
AcDbLine
 10
528.6363636363637
 20
405.0
 30
0.0
 11
528.6363636363637
 21
410.0
 31
0.0
  0
TEXT
  5
319
330
2E6
100
AcDbEntity
 67
1
  8
G-PAFTA-ZON
100
AcDbText
 10
553.8181818181819
 20
12.5
 30
0.0
 40
3.5
  1
11
  7
GYM
 72
1
 11
553.8181818181819
 21
12.5
 31
0.0
100
AcDbText
 73
2
  0
TEXT
  5
31A
330
2E6
100
AcDbEntity
 67
1
  8
G-PAFTA-ZON
100
AcDbText
 10
553.8181818181819
 20
407.5
 30
0.0
 40
3.5
  1
11
  7
GYM
 72
1
 11
553.8181818181819
 21
407.5
 31
0.0
100
AcDbText
 73
2
  0
TEXT
  5
31B
330
2E6
100
AcDbEntity
 67
1
  8
G-PAFTA-ZON
100
AcDbText
 10
22.5
 20
39.375
 30
0.0
 40
3.5
  1
A
  7
GYM
 72
1
 11
22.5
 21
39.375
 31
0.0
100
AcDbText
 73
2
  0
TEXT
  5
31C
330
2E6
100
AcDbEntity
 67
1
  8
G-PAFTA-ZON
100
AcDbText
 10
581.5
 20
39.375
 30
0.0
 40
3.5
  1
A
  7
GYM
 72
1
 11
581.5
 21
39.375
 31
0.0
100
AcDbText
 73
2
  0
LINE
  5
31D
330
2E6
100
AcDbEntity
 67
1
  8
G-PAFTA-ZON
370
13
100
AcDbLine
 10
20.0
 20
63.75
 30
0.0
 11
25.0
 21
63.75
 31
0.0
  0
LINE
  5
31E
330
2E6
100
AcDbEntity
 67
1
  8
G-PAFTA-ZON
370
13
100
AcDbLine
 10
579.0
 20
63.75
 30
0.0
 11
584.0
 21
63.75
 31
0.0
  0
TEXT
  5
31F
330
2E6
100
AcDbEntity
 67
1
  8
G-PAFTA-ZON
100
AcDbText
 10
22.5
 20
88.125
 30
0.0
 40
3.5
  1
B
  7
GYM
 72
1
 11
22.5
 21
88.125
 31
0.0
100
AcDbText
 73
2
  0
TEXT
  5
320
330
2E6
100
AcDbEntity
 67
1
  8
G-PAFTA-ZON
100
AcDbText
 10
581.5
 20
88.125
 30
0.0
 40
3.5
  1
B
  7
GYM
 72
1
 11
581.5
 21
88.125
 31
0.0
100
AcDbText
 73
2
  0
LINE
  5
321
330
2E6
100
AcDbEntity
 67
1
  8
G-PAFTA-ZON
370
13
100
AcDbLine
 10
20.0
 20
112.5
 30
0.0
 11
25.0
 21
112.5
 31
0.0
  0
LINE
  5
322
330
2E6
100
AcDbEntity
 67
1
  8
G-PAFTA-ZON
370
13
100
AcDbLine
 10
579.0
 20
112.5
 30
0.0
 11
584.0
 21
112.5
 31
0.0
  0
TEXT
  5
323
330
2E6
100
AcDbEntity
 67
1
  8
G-PAFTA-ZON
100
AcDbText
 10
22.5
 20
136.875
 30
0.0
 40
3.5
  1
C
  7
GYM
 72
1
 11
22.5
 21
136.875
 31
0.0
100
AcDbText
 73
2
  0
TEXT
  5
324
330
2E6
100
AcDbEntity
 67
1
  8
G-PAFTA-ZON
100
AcDbText
 10
581.5
 20
136.875
 30
0.0
 40
3.5
  1
C
  7
GYM
 72
1
 11
581.5
 21
136.875
 31
0.0
100
AcDbText
 73
2
  0
LINE
  5
325
330
2E6
100
AcDbEntity
 67
1
  8
G-PAFTA-ZON
370
13
100
AcDbLine
 10
20.0
 20
161.25
 30
0.0
 11
25.0
 21
161.25
 31
0.0
  0
LINE
  5
326
330
2E6
100
AcDbEntity
 67
1
  8
G-PAFTA-ZON
370
13
100
AcDbLine
 10
579.0
 20
161.25
 30
0.0
 11
584.0
 21
161.25
 31
0.0
  0
TEXT
  5
327
330
2E6
100
AcDbEntity
 67
1
  8
G-PAFTA-ZON
100
AcDbText
 10
22.5
 20
185.625
 30
0.0
 40
3.5
  1
D
  7
GYM
 72
1
 11
22.5
 21
185.625
 31
0.0
100
AcDbText
 73
2
  0
TEXT
  5
328
330
2E6
100
AcDbEntity
 67
1
  8
G-PAFTA-ZON
100
AcDbText
 10
581.5
 20
185.625
 30
0.0
 40
3.5
  1
D
  7
GYM
 72
1
 11
581.5
 21
185.625
 31
0.0
100
AcDbText
 73
2
  0
LINE
  5
329
330
2E6
100
AcDbEntity
 67
1
  8
G-PAFTA-ZON
370
13
100
AcDbLine
 10
20.0
 20
210.0
 30
0.0
 11
25.0
 21
210.0
 31
0.0
  0
LINE
  5
32A
330
2E6
100
AcDbEntity
 67
1
  8
G-PAFTA-ZON
370
13
100
AcDbLine
 10
579.0
 20
210.0
 30
0.0
 11
584.0
 21
210.0
 31
0.0
  0
TEXT
  5
32B
330
2E6
100
AcDbEntity
 67
1
  8
G-PAFTA-ZON
100
AcDbText
 10
22.5
 20
234.375
 30
0.0
 40
3.5
  1
E
  7
GYM
 72
1
 11
22.5
 21
234.375
 31
0.0
100
AcDbText
 73
2
  0
TEXT
  5
32C
330
2E6
100
AcDbEntity
 67
1
  8
G-PAFTA-ZON
100
AcDbText
 10
581.5
 20
234.375
 30
0.0
 40
3.5
  1
E
  7
GYM
 72
1
 11
581.5
 21
234.375
 31
0.0
100
AcDbText
 73
2
  0
LINE
  5
32D
330
2E6
100
AcDbEntity
 67
1
  8
G-PAFTA-ZON
370
13
100
AcDbLine
 10
20.0
 20
258.75
 30
0.0
 11
25.0
 21
258.75
 31
0.0
  0
LINE
  5
32E
330
2E6
100
AcDbEntity
 67
1
  8
G-PAFTA-ZON
370
13
100
AcDbLine
 10
579.0
 20
258.75
 30
0.0
 11
584.0
 21
258.75
 31
0.0
  0
TEXT
  5
32F
330
2E6
100
AcDbEntity
 67
1
  8
G-PAFTA-ZON
100
AcDbText
 10
22.5
 20
283.125
 30
0.0
 40
3.5
  1
F
  7
GYM
 72
1
 11
22.5
 21
283.125
 31
0.0
100
AcDbText
 73
2
  0
TEXT
  5
330
330
2E6
100
AcDbEntity
 67
1
  8
G-PAFTA-ZON
100
AcDbText
 10
581.5
 20
283.125
 30
0.0
 40
3.5
  1
F
  7
GYM
 72
1
 11
581.5
 21
283.125
 31
0.0
100
AcDbText
 73
2
  0
LINE
  5
331
330
2E6
100
AcDbEntity
 67
1
  8
G-PAFTA-ZON
370
13
100
AcDbLine
 10
20.0
 20
307.5
 30
0.0
 11
25.0
 21
307.5
 31
0.0
  0
LINE
  5
332
330
2E6
100
AcDbEntity
 67
1
  8
G-PAFTA-ZON
370
13
100
AcDbLine
 10
579.0
 20
307.5
 30
0.0
 11
584.0
 21
307.5
 31
0.0
  0
TEXT
  5
333
330
2E6
100
AcDbEntity
 67
1
  8
G-PAFTA-ZON
100
AcDbText
 10
22.5
 20
331.875
 30
0.0
 40
3.5
  1
G
  7
GYM
 72
1
 11
22.5
 21
331.875
 31
0.0
100
AcDbText
 73
2
  0
TEXT
  5
334
330
2E6
100
AcDbEntity
 67
1
  8
G-PAFTA-ZON
100
AcDbText
 10
581.5
 20
331.875
 30
0.0
 40
3.5
  1
G
  7
GYM
 72
1
 11
581.5
 21
331.875
 31
0.0
100
AcDbText
 73
2
  0
LINE
  5
335
330
2E6
100
AcDbEntity
 67
1
  8
G-PAFTA-ZON
370
13
100
AcDbLine
 10
20.0
 20
356.25
 30
0.0
 11
25.0
 21
356.25
 31
0.0
  0
LINE
  5
336
330
2E6
100
AcDbEntity
 67
1
  8
G-PAFTA-ZON
370
13
100
AcDbLine
 10
579.0
 20
356.25
 30
0.0
 11
584.0
 21
356.25
 31
0.0
  0
TEXT
  5
337
330
2E6
100
AcDbEntity
 67
1
  8
G-PAFTA-ZON
100
AcDbText
 10
22.5
 20
380.625
 30
0.0
 40
3.5
  1
H
  7
GYM
 72
1
 11
22.5
 21
380.625
 31
0.0
100
AcDbText
 73
2
  0
TEXT
  5
338
330
2E6
100
AcDbEntity
 67
1
  8
G-PAFTA-ZON
100
AcDbText
 10
581.5
 20
380.625
 30
0.0
 40
3.5
  1
H
  7
GYM
 72
1
 11
581.5
 21
380.625
 31
0.0
100
AcDbText
 73
2
  0
LINE
  5
339
330
2E6
100
AcDbEntity
 67
1
  8
G-CERCEVE
370
70
100
AcDbLine
 10
297.0
 20
0.0
 30
0.0
 11
297.0
 21
20.0
 31
0.0
  0
LINE
  5
33A
330
2E6
100
AcDbEntity
 67
1
  8
G-CERCEVE
370
70
100
AcDbLine
 10
297.0
 20
400.0
 30
0.0
 11
297.0
 21
420.0
 31
0.0
  0
LWPOLYLINE
  5
33B
330
2E6
100
AcDbEntity
 67
1
  8
G-CERCEVE
370
70
100
AcDbPolyline
 90
3
 70
1
 10
297.0
 20
419.0
 10
294.4
 20
412.0
 10
299.6
 20
412.0
  0
LINE
  5
33C
330
2E6
100
AcDbEntity
 67
1
  8
G-CERCEVE
370
70
100
AcDbLine
 10
0.0
 20
210.0
 30
0.0
 11
30.0
 21
210.0
 31
0.0
  0
LINE
  5
33D
330
2E6
100
AcDbEntity
 67
1
  8
G-CERCEVE
370
70
100
AcDbLine
 10
574.0
 20
210.0
 30
0.0
 11
594.0
 21
210.0
 31
0.0
  0
LWPOLYLINE
  5
33E
330
2E6
100
AcDbEntity
 67
1
  8
G-CERCEVE
370
70
100
AcDbPolyline
 90
3
 70
1
 10
1.0
 20
210.0
 10
8.0
 20
207.4
 10
8.0
 20
212.6
  0
TEXT
  5
33F
330
2E6
100
AcDbEntity
 67
1
  8
G-CERCEVE
100
AcDbText
 10
582.0
 20
5.0
 30
0.0
 40
2.5
  1
A2
  7
GYM
 72
2
 11
582.0
 21
5.0
 31
0.0
100
AcDbText
 73
2
  0
LWPOLYLINE
  5
340
330
2E6
100
AcDbEntity
 67
1
  8
G-CERCEVE
370
35
100
AcDbPolyline
 90
4
 70
1
 10
327.0
 20
2.0
 10
427.0
 20
2.0
 10
427.0
 20
6.0
 10
327.0
 20
6.0
  0
LINE
  5
341
330
2E6
100
AcDbEntity
 67
1
  8
G-CERCEVE
370
35
100
AcDbLine
 10
327.0
 20
2.0
 30
0.0
 11
327.0
 21
6.0
 31
0.0
  0
LINE
  5
342
330
2E6
100
AcDbEntity
 67
1
  8
G-CERCEVE
370
35
100
AcDbLine
 10
337.0
 20
2.0
 30
0.0
 11
337.0
 21
6.0
 31
0.0
  0
LINE
  5
343
330
2E6
100
AcDbEntity
 67
1
  8
G-CERCEVE
370
35
100
AcDbLine
 10
347.0
 20
2.0
 30
0.0
 11
347.0
 21
6.0
 31
0.0
  0
LINE
  5
344
330
2E6
100
AcDbEntity
 67
1
  8
G-CERCEVE
370
35
100
AcDbLine
 10
357.0
 20
2.0
 30
0.0
 11
357.0
 21
6.0
 31
0.0
  0
LINE
  5
345
330
2E6
100
AcDbEntity
 67
1
  8
G-CERCEVE
370
35
100
AcDbLine
 10
367.0
 20
2.0
 30
0.0
 11
367.0
 21
6.0
 31
0.0
  0
LINE
  5
346
330
2E6
100
AcDbEntity
 67
1
  8
G-CERCEVE
370
35
100
AcDbLine
 10
377.0
 20
2.0
 30
0.0
 11
377.0
 21
6.0
 31
0.0
  0
LINE
  5
347
330
2E6
100
AcDbEntity
 67
1
  8
G-CERCEVE
370
35
100
AcDbLine
 10
387.0
 20
2.0
 30
0.0
 11
387.0
 21
6.0
 31
0.0
  0
LINE
  5
348
330
2E6
100
AcDbEntity
 67
1
  8
G-CERCEVE
370
35
100
AcDbLine
 10
397.0
 20
2.0
 30
0.0
 11
397.0
 21
6.0
 31
0.0
  0
LINE
  5
349
330
2E6
100
AcDbEntity
 67
1
  8
G-CERCEVE
370
35
100
AcDbLine
 10
407.0
 20
2.0
 30
0.0
 11
407.0
 21
6.0
 31
0.0
  0
LINE
  5
34A
330
2E6
100
AcDbEntity
 67
1
  8
G-CERCEVE
370
35
100
AcDbLine
 10
417.0
 20
2.0
 30
0.0
 11
417.0
 21
6.0
 31
0.0
  0
LINE
  5
34B
330
2E6
100
AcDbEntity
 67
1
  8
G-CERCEVE
370
35
100
AcDbLine
 10
427.0
 20
2.0
 30
0.0
 11
427.0
 21
6.0
 31
0.0
  0
TEXT
  5
34C
330
2E6
100
AcDbEntity
 67
1
  8
G-CERCEVE
100
AcDbText
 10
431.0
 20
4.0
 30
0.0
 40
1.8
  1
100 mm
  7
GYM
 11
431.0
 21
4.0
 31
0.0
100
AcDbText
 73
2
  0
LWPOLYLINE
  5
34D
330
2E6
100
AcDbEntity
 67
1
  8
G-ANTET
370
100
100
AcDbPolyline
 90
4
 70
1
 10
404.0
 20
15.0
 10
584.0
 20
15.0
 10
584.0
 20
107.0
 10
404.0
 20
107.0
  0
LINE
  5
34E
330
2E6
100
AcDbEntity
 67
1
  8
G-ANTET
370
35
100
AcDbLine
 10
404.0
 20
25.0
 30
0.0
 11
584.0
 21
25.0
 31
0.0
  0
LINE
  5
34F
330
2E6
100
AcDbEntity
 67
1
  8
G-ANTET
370
35
100
AcDbLine
 10
404.0
 20
35.0
 30
0.0
 11
584.0
 21
35.0
 31
0.0
  0
LINE
  5
350
330
2E6
100
AcDbEntity
 67
1
  8
G-ANTET
370
35
100
AcDbLine
 10
404.0
 20
45.0
 30
0.0
 11
584.0
 21
45.0
 31
0.0
  0
LINE
  5
351
330
2E6
100
AcDbEntity
 67
1
  8
G-ANTET
370
35
100
AcDbLine
 10
404.0
 20
57.0
 30
0.0
 11
584.0
 21
57.0
 31
0.0
  0
LINE
  5
352
330
2E6
100
AcDbEntity
 67
1
  8
G-ANTET
370
35
100
AcDbLine
 10
404.0
 20
69.0
 30
0.0
 11
584.0
 21
69.0
 31
0.0
  0
LINE
  5
353
330
2E6
100
AcDbEntity
 67
1
  8
G-ANTET
370
35
100
AcDbLine
 10
404.0
 20
83.0
 30
0.0
 11
584.0
 21
83.0
 31
0.0
  0
LINE
  5
354
330
2E6
100
AcDbEntity
 67
1
  8
G-ANTET
370
35
100
AcDbLine
 10
464.0
 20
15.0
 30
0.0
 11
464.0
 21
45.0
 31
0.0
  0
LINE
  5
355
330
2E6
100
AcDbEntity
 67
1
  8
G-ANTET
370
35
100
AcDbLine
 10
524.0
 20
15.0
 30
0.0
 11
524.0
 21
45.0
 31
0.0
  0
LINE
  5
356
330
2E6
100
AcDbEntity
 67
1
  8
G-ANTET
370
35
100
AcDbLine
 10
522.0
 20
45.0
 30
0.0
 11
522.0
 21
69.0
 31
0.0
  0
TEXT
  5
357
330
2E6
100
AcDbEntity
 67
1
  8
G-ANTET
100
AcDbText
 10
405.6
 20
103.0
 30
0.0
 40
1.8
  1
İŞVEREN
  7
GYM
 11
405.6
 21
103.0
 31
0.0
100
AcDbText
 73
2
  0
TEXT
  5
358
330
2E6
100
AcDbEntity
 67
1
  8
G-ANTET
100
AcDbText
 10
405.6
 20
98.0
 30
0.0
 40
2.5
  1
ÖZEL — MALTEPE / İDEALTEPE
  7
GYM
 11
405.6
 21
98.0
 31
0.0
100
AcDbText
 73
2
  0
TEXT
  5
359
330
2E6
100
AcDbEntity
 67
1
  8
G-ANTET
100
AcDbText
 10
405.6
 20
93.0
 30
0.0
 40
1.8
  1
PROJE
  7
GYM
 11
405.6
 21
93.0
 31
0.0
100
AcDbText
 73
2
  0
TEXT
  5
35A
330
2E6
100
AcDbEntity
 67
1
  8
G-ANTET
100
AcDbText
 10
405.6
 20
87.2
 30
0.0
 40
3.5
  1

  7
GYM
 11
405.6
 21
87.2
 31
0.0
100
AcDbText
 73
2
  0
TEXT
  5
35B
330
2E6
100
AcDbEntity
 67
1
  8
G-ANTET
100
AcDbText
 10
405.6
 20
78.0
 30
0.0
 40
1.8
  1
YAPI / MAHAL
  7
GYM
 11
405.6
 21
78.0
 31
0.0
100
AcDbText
 73
2
  0
TEXT
  5
35C
330
2E6
100
AcDbEntity
 67
1
  8
G-ANTET
100
AcDbText
 10
405.6
 20
72.0
 30
0.0
 40
2.5
  1
Mevcut mağaza → fonksiyonel antrenman stüdyosu (fit-out)
  7
GYM
 11
405.6
 21
72.0
 31
0.0
100
AcDbText
 73
2
  0
TEXT
  5
35D
330
2E6
100
AcDbEntity
 67
1
  8
G-ANTET
100
AcDbText
 10
524.4
 20
78.0
 30
0.0
 40
1.8
  1
DİSİPLİN
  7
GYM
 11
524.4
 21
78.0
 31
0.0
100
AcDbText
 73
2
  0
TEXT
  5
35E
330
2E6
100
AcDbEntity
 67
1
  8
G-ANTET
100
AcDbText
 10
524.4
 20
72.0
 30
0.0
 40
2.5
  1
MİMARİ
  7
GYM
 11
524.4
 21
72.0
 31
0.0
100
AcDbText
 73
2
  0
LINE
  5
35F
330
2E6
100
AcDbEntity
 67
1
  8
G-ANTET
370
35
100
AcDbLine
 10
522.0
 20
69.0
 30
0.0
 11
522.0
 21
83.0
 31
0.0
  0
TEXT
  5
360
330
2E6
100
AcDbEntity
 67
1
  8
G-ANTET
100
AcDbText
 10
405.6
 20
65.0
 30
0.0
 40
1.8
  1
PAFTA ADI
  7
GYM
 11
405.6
 21
65.0
 31
0.0
100
AcDbText
 73
2
  0
TEXT
  5
361
330
2E6
100
AcDbEntity
 67
1
  8
G-ANTET
100
AcDbText
 10
405.6
 20
59.8
 30
0.0
 40
3.5
  1
ÖLÇÜLÜ PLAN — ERKEK ISLAK BLOK
  7
GYM
 11
405.6
 21
59.8
 31
0.0
100
AcDbText
 73
2
  0
TEXT
  5
362
330
2E6
100
AcDbEntity
 67
1
  8
G-ANTET
100
AcDbText
 10
524.4
 20
59.8
 30
0.0
 40
1.8
  1
PİLOT BÖLGE — ERKEK ISLAK BLOK (105·106·107)
  7
GYM
 11
524.4
 21
59.8
 31
0.0
100
AcDbText
 73
2
  0
TEXT
  5
363
330
2E6
100
AcDbEntity
 67
1
  8
G-ANTET
100
AcDbText
 10
405.6
 20
53.0
 30
0.0
 40
1.8
  1
PROJE MÜELLİFİ · ODA SİCİL NO
  7
GYM
 11
405.6
 21
53.0
 31
0.0
100
AcDbText
 73
2
  0
TEXT
  5
364
330
2E6
100
AcDbEntity
 67
1
  8
G-ANTET
100
AcDbText
 10
405.6
 20
47.8
 30
0.0
 40
2.5
  1
—  (proje müellifi imzası için ayrılmıştır)   —
  7
GYM
 11
405.6
 21
47.8
 31
0.0
100
AcDbText
 73
2
  0
TEXT
  5
365
330
2E6
100
AcDbEntity
 67
1
  8
G-ANTET
100
AcDbText
 10
405.6
 20
42.0
 30
0.0
 40
1.8
  1
ÇİZEN
  7
GYM
 11
405.6
 21
42.0
 31
0.0
100
AcDbText
 73
2
  0
TEXT
  5
366
330
2E6
100
AcDbEntity
 67
1
  8
G-ANTET
100
AcDbText
 10
405.6
 20
37.6
 30
0.0
 40
2.5
  1
CC
  7
GYM
 11
405.6
 21
37.6
 31
0.0
100
AcDbText
 73
2
  0
TEXT
  5
367
330
2E6
100
AcDbEntity
 67
1
  8
G-ANTET
100
AcDbText
 10
465.6
 20
42.0
 30
0.0
 40
1.8
  1
KONTROL
  7
GYM
 11
465.6
 21
42.0
 31
0.0
100
AcDbText
 73
2
  0
TEXT
  5
368
330
2E6
100
AcDbEntity
 67
1
  8
G-ANTET
100
AcDbText
 10
465.6
 20
37.6
 30
0.0
 40
2.5
  1
—
  7
GYM
 11
465.6
 21
37.6
 31
0.0
100
AcDbText
 73
2
  0
TEXT
  5
369
330
2E6
100
AcDbEntity
 67
1
  8
G-ANTET
100
AcDbText
 10
525.6
 20
42.0
 30
0.0
 40
1.8
  1
ONAY
  7
GYM
 11
525.6
 21
42.0
 31
0.0
100
AcDbText
 73
2
  0
TEXT
  5
36A
330
2E6
100
AcDbEntity
 67
1
  8
G-ANTET
100
AcDbText
 10
525.6
 20
37.6
 30
0.0
 40
2.5
  1
—
  7
GYM
 11
525.6
 21
37.6
 31
0.0
100
AcDbText
 73
2
  0
TEXT
  5
36B
330
2E6
100
AcDbEntity
 67
1
  8
G-ANTET
100
AcDbText
 10
405.6
 20
32.0
 30
0.0
 40
1.8
  1
TARİH
  7
GYM
 11
405.6
 21
32.0
 31
0.0
100
AcDbText
 73
2
  0
TEXT
  5
36C
330
2E6
100
AcDbEntity
 67
1
  8
G-ANTET
100
AcDbText
 10
405.6
 20
27.6
 30
0.0
 40
2.5
  1
17 Eylül 2026
  7
GYM
 11
405.6
 21
27.6
 31
0.0
100
AcDbText
 73
2
  0
TEXT
  5
36D
330
2E6
100
AcDbEntity
 67
1
  8
G-ANTET
100
AcDbText
 10
465.6
 20
32.0
 30
0.0
 40
1.8
  1
ÖLÇEK
  7
GYM
 11
465.6
 21
32.0
 31
0.0
100
AcDbText
 73
2
  0
TEXT
  5
36E
330
2E6
100
AcDbEntity
 67
1
  8
G-ANTET
100
AcDbText
 10
465.6
 20
27.6
 30
0.0
 40
3.5
  1
1:20
  7
GYM
 11
465.6
 21
27.6
 31
0.0
100
AcDbText
 73
2
  0
TEXT
  5
36F
330
2E6
100
AcDbEntity
 67
1
  8
G-ANTET
100
AcDbText
 10
525.6
 20
32.0
 30
0.0
 40
1.8
  1
BİRİM
  7
GYM
 11
525.6
 21
32.0
 31
0.0
100
AcDbText
 73
2
  0
TEXT
  5
370
330
2E6
100
AcDbEntity
 67
1
  8
G-ANTET
100
AcDbText
 10
525.6
 20
27.6
 30
0.0
 40
2.5
  1
milimetre (mm)
  7
GYM
 11
525.6
 21
27.6
 31
0.0
100
AcDbText
 73
2
  0
TEXT
  5
371
330
2E6
100
AcDbEntity
 67
1
  8
G-ANTET
100
AcDbText
 10
405.6
 20
22.0
 30
0.0
 40
1.8
  1
DURUM
  7
GYM
 11
405.6
 21
22.0
 31
0.0
100
AcDbText
 73
2
  0
TEXT
  5
372
330
2E6
100
AcDbEntity
 67
1
  8
G-ANTET
100
AcDbText
 10
405.6
 20
17.6
 30
0.0
 40
2.5
  1
ÖN TASARIM
  7
GYM
 11
405.6
 21
17.6
 31
0.0
100
AcDbText
 73
2
  0
TEXT
  5
373
330
2E6
100
AcDbEntity
 67
1
  8
G-ANTET
100
AcDbText
 10
465.6
 20
22.0
 30
0.0
 40
1.8
  1
PAFTA NO
  7
GYM
 11
465.6
 21
22.0
 31
0.0
100
AcDbText
 73
2
  0
TEXT
  5
374
330
2E6
100
AcDbEntity
 67
1
  8
G-ANTET
100
AcDbText
 10
465.6
 20
17.6
 30
0.0
 40
5.0
  1
P-01
  7
GYM
 11
465.6
 21
17.6
 31
0.0
100
AcDbText
 73
2
  0
TEXT
  5
375
330
2E6
100
AcDbEntity
 67
1
  8
G-ANTET
100
AcDbText
 10
525.6
 20
22.0
 30
0.0
 40
1.8
  1
REV
  7
GYM
 11
525.6
 21
22.0
 31
0.0
100
AcDbText
 73
2
  0
TEXT
  5
376
330
2E6
100
AcDbEntity
 67
1
  8
G-ANTET
100
AcDbText
 10
525.6
 20
17.6
 30
0.0
 40
5.0
  1
D
  7
GYM
 11
525.6
 21
17.6
 31
0.0
100
AcDbText
 73
2
  0
TEXT
  5
377
330
2E6
100
AcDbEntity
 67
1
  8
G-ANTET
100
AcDbText
 10
554.0
 20
18.0
 30
0.0
 40
1.8
  1
SONRAKİ: P-02
  7
GYM
 11
554.0
 21
18.0
 31
0.0
100
AcDbText
 73
2
  0
LWPOLYLINE
  5
378
330
2E6
100
AcDbEntity
 67
1
  8
G-ANTET
370
50
100
AcDbPolyline
 90
4
 70
1
 10
404.0
 20
107.0
 10
584.0
 20
107.0
 10
584.0
 20
143.0
 10
404.0
 20
143.0
  0
LINE
  5
379
330
2E6
100
AcDbEntity
 67
1
  8
G-ANTET
370
18
100
AcDbLine
 10
404.0
 20
107.0
 30
0.0
 11
584.0
 21
107.0
 31
0.0
  0
LINE
  5
37A
330
2E6
100
AcDbEntity
 67
1
  8
G-ANTET
370
18
100
AcDbLine
 10
404.0
 20
113.0
 30
0.0
 11
584.0
 21
113.0
 31
0.0
  0
LINE
  5
37B
330
2E6
100
AcDbEntity
 67
1
  8
G-ANTET
370
18
100
AcDbLine
 10
404.0
 20
119.0
 30
0.0
 11
584.0
 21
119.0
 31
0.0
  0
LINE
  5
37C
330
2E6
100
AcDbEntity
 67
1
  8
G-ANTET
370
18
100
AcDbLine
 10
404.0
 20
125.0
 30
0.0
 11
584.0
 21
125.0
 31
0.0
  0
LINE
  5
37D
330
2E6
100
AcDbEntity
 67
1
  8
G-ANTET
370
18
100
AcDbLine
 10
404.0
 20
131.0
 30
0.0
 11
584.0
 21
131.0
 31
0.0
  0
LINE
  5
37E
330
2E6
100
AcDbEntity
 67
1
  8
G-ANTET
370
18
100
AcDbLine
 10
404.0
 20
137.0
 30
0.0
 11
584.0
 21
137.0
 31
0.0
  0
LINE
  5
37F
330
2E6
100
AcDbEntity
 67
1
  8
G-ANTET
370
18
100
AcDbLine
 10
416.0
 20
107.0
 30
0.0
 11
416.0
 21
143.0
 31
0.0
  0
LINE
  5
380
330
2E6
100
AcDbEntity
 67
1
  8
G-ANTET
370
18
100
AcDbLine
 10
440.0
 20
107.0
 30
0.0
 11
440.0
 21
143.0
 31
0.0
  0
LINE
  5
381
330
2E6
100
AcDbEntity
 67
1
  8
G-ANTET
370
18
100
AcDbLine
 10
530.0
 20
107.0
 30
0.0
 11
530.0
 21
143.0
 31
0.0
  0
LINE
  5
382
330
2E6
100
AcDbEntity
 67
1
  8
G-ANTET
370
18
100
AcDbLine
 10
548.0
 20
107.0
 30
0.0
 11
548.0
 21
143.0
 31
0.0
  0
LINE
  5
383
330
2E6
100
AcDbEntity
 67
1
  8
G-ANTET
370
18
100
AcDbLine
 10
566.0
 20
107.0
 30
0.0
 11
566.0
 21
143.0
 31
0.0
  0
TEXT
  5
384
330
2E6
100
AcDbEntity
 67
1
  8
G-ANTET
100
AcDbText
 10
405.2
 20
140.0
 30
0.0
 40
1.8
  1
REV
  7
GYM
 11
405.2
 21
140.0
 31
0.0
100
AcDbText
 73
2
  0
TEXT
  5
385
330
2E6
100
AcDbEntity
 67
1
  8
G-ANTET
100
AcDbText
 10
417.2
 20
140.0
 30
0.0
 40
1.8
  1
TARİH
  7
GYM
 11
417.2
 21
140.0
 31
0.0
100
AcDbText
 73
2
  0
TEXT
  5
386
330
2E6
100
AcDbEntity
 67
1
  8
G-ANTET
100
AcDbText
 10
441.2
 20
140.0
 30
0.0
 40
1.8
  1
AÇIKLAMA
  7
GYM
 11
441.2
 21
140.0
 31
0.0
100
AcDbText
 73
2
  0
TEXT
  5
387
330
2E6
100
AcDbEntity
 67
1
  8
G-ANTET
100
AcDbText
 10
531.2
 20
140.0
 30
0.0
 40
1.8
  1
ÇZ
  7
GYM
 11
531.2
 21
140.0
 31
0.0
100
AcDbText
 73
2
  0
TEXT
  5
388
330
2E6
100
AcDbEntity
 67
1
  8
G-ANTET
100
AcDbText
 10
549.2
 20
140.0
 30
0.0
 40
1.8
  1
KT
  7
GYM
 11
549.2
 21
140.0
 31
0.0
100
AcDbText
 73
2
  0
TEXT
  5
389
330
2E6
100
AcDbEntity
 67
1
  8
G-ANTET
100
AcDbText
 10
567.2
 20
140.0
 30
0.0
 40
1.8
  1
ON
  7
GYM
 11
567.2
 21
140.0
 31
0.0
100
AcDbText
 73
2
  0
TEXT
  5
38A
330
2E6
100
AcDbEntity
 67
1
  8
G-ANTET
100
AcDbText
 10
405.2
 20
134.0
 30
0.0
 40
1.8
  1
A
  7
GYM
 11
405.2
 21
134.0
 31
0.0
100
AcDbText
 73
2
  0
TEXT
  5
38B
330
2E6
100
AcDbEntity
 67
1
  8
G-ANTET
100
AcDbText
 10
417.2
 20
134.0
 30
0.0
 40
1.8
  1
13.09.2026
  7
GYM
 11
417.2
 21
134.0
 31
0.0
100
AcDbText
 73
2
  0
TEXT
  5
38C
330
2E6
100
AcDbEntity
 67
1
  8
G-ANTET
100
AcDbText
 10
441.2
 20
134.0
 30
0.0
 40
1.8
  1
İlk yayın — ön tasarım
  7
GYM
 11
441.2
 21
134.0
 31
0.0
100
AcDbText
 73
2
  0
TEXT
  5
38D
330
2E6
100
AcDbEntity
 67
1
  8
G-ANTET
100
AcDbText
 10
405.2
 20
128.0
 30
0.0
 40
1.8
  1
B
  7
GYM
 11
405.2
 21
128.0
 31
0.0
100
AcDbText
 73
2
  0
TEXT
  5
38E
330
2E6
100
AcDbEntity
 67
1
  8
G-ANTET
100
AcDbText
 10
417.2
 20
128.0
 30
0.0
 40
1.8
  1
17.09.2026
  7
GYM
 11
417.2
 21
128.0
 31
0.0
100
AcDbText
 73
2
  0
TEXT
  5
38F
330
2E6
100
AcDbEntity
 67
1
  8
G-ANTET
100
AcDbText
 10
441.2
 20
128.0
 30
0.0
 40
1.8
  1
Mühendis geri bildirimi işlendi
  7
GYM
 11
441.2
 21
128.0
 31
0.0
100
AcDbText
 73
2
  0
TEXT
  5
390
330
2E6
100
AcDbEntity
 67
1
  8
G-ANTET
100
AcDbText
 10
405.2
 20
122.0
 30
0.0
 40
1.8
  1
C
  7
GYM
 11
405.2
 21
122.0
 31
0.0
100
AcDbText
 73
2
  0
TEXT
  5
391
330
2E6
100
AcDbEntity
 67
1
  8
G-ANTET
100
AcDbText
 10
417.2
 20
122.0
 30
0.0
 40
1.8
  1
18.09.2026
  7
GYM
 11
417.2
 21
122.0
 31
0.0
100
AcDbText
 73
2
  0
TEXT
  5
392
330
2E6
100
AcDbEntity
 67
1
  8
G-ANTET
100
AcDbText
 10
441.2
 20
122.0
 30
0.0
 40
1.8
  1
Geometri ölçülmüş rölöveye taşındı (ESAT-FINAL.dwg)
  7
GYM
 11
441.2
 21
122.0
 31
0.0
100
AcDbText
 73
2
  0
TEXT
  5
393
330
2E6
100
AcDbEntity
 67
1
  8
G-ANTET
100
AcDbText
 10
405.2
 20
116.0
 30
0.0
 40
1.8
  1
D
  7
GYM
 11
405.2
 21
116.0
 31
0.0
100
AcDbText
 73
2
  0
TEXT
  5
394
330
2E6
100
AcDbEntity
 67
1
  8
G-ANTET
100
AcDbText
 10
417.2
 20
116.0
 30
0.0
 40
1.8
  1
18.09.2026
  7
GYM
 11
417.2
 21
116.0
 31
0.0
100
AcDbText
 73
2
  0
TEXT
  5
395
330
2E6
100
AcDbEntity
 67
1
  8
G-ANTET
100
AcDbText
 10
441.2
 20
116.0
 30
0.0
 40
1.8
  1
Pilot bölge: ölçülü plan · tavan · kesit · görünüş · detay
  7
GYM
 11
441.2
 21
116.0
 31
0.0
100
AcDbText
 73
2
  0
VIEWPORT
  5
396
330
2E6
100
AcDbEntity
 67
1
  8
G-VIEWPORT
100
AcDbViewport
 10
145.0
 20
210.0
 30
0.0
 40
232.0
 41
382.0
 68
1
 69
3
 12
9730.771282951151
 22
6816.297626416486
 13
0.0
 23
0.0
 14
10.0
 24
10.0
 15
10.0
 25
10.0
 16
0.0
 26
0.0
 36
1.0
 17
0.0
 27
0.0
 37
0.0
 42
50.0
 43
0.0
 44
0.0
 45
7640.0
 50
0.0
 51
-8.804182583418896
 72
100
 90
0
  1

281
0
 71
0
 74
0
110
0.0
120
0.0
130
0.0
111
1.0
121
0.0
131
0.0
112
0.0
122
1.0
132
0.0
 79
0
146
0.0
282
0
  0
LWPOLYLINE
  5
397
330
2E6
100
AcDbEntity
 67
1
  8
G-CERCEVE
370
18
100
AcDbPolyline
 90
4
 70
1
 10
29.0
 20
19.0
 10
261.0
 20
19.0
 10
261.0
 20
401.0
 10
29.0
 20
401.0
  0
HATCH
  5
398
330
2E6
100
AcDbEntity
 67
1
  8
G-ANTET
 62
7
100
AcDbHatch
 10
0.0
 20
0.0
 30
0.0
210
0.0
220
0.0
230
1.0
  2
SOLID
 70
1
 71
0
 91
1
 92
3
 72
0
 73
1
 93
4
 10
37.0
 20
27.0
 10
62.0
 20
27.0
 10
62.0
 20
29.2
 10
37.0
 20
29.2
 97
0
 75
0
 76
1
 98
0
  0
LWPOLYLINE
  5
399
330
2E6
100
AcDbEntity
 67
1
  8
G-ANTET
370
18
100
AcDbPolyline
 90
4
 70
1
 10
37.0
 20
27.0
 10
62.0
 20
27.0
 10
62.0
 20
29.2
 10
37.0
 20
29.2
  0
HATCH
  5
39A
330
2E6
100
AcDbEntity
 67
1
  8
G-ANTET
 62
0
100
AcDbHatch
 10
0.0
 20
0.0
 30
0.0
210
0.0
220
0.0
230
1.0
  2
SOLID
 70
1
 71
0
 91
1
 92
3
 72
0
 73
1
 93
4
 10
62.0
 20
27.0
 10
87.0
 20
27.0
 10
87.0
 20
29.2
 10
62.0
 20
29.2
 97
0
 75
0
 76
1
 98
0
  0
LWPOLYLINE
  5
39B
330
2E6
100
AcDbEntity
 67
1
  8
G-ANTET
370
18
100
AcDbPolyline
 90
4
 70
1
 10
62.0
 20
27.0
 10
87.0
 20
27.0
 10
87.0
 20
29.2
 10
62.0
 20
29.2
  0
HATCH
  5
39C
330
2E6
100
AcDbEntity
 67
1
  8
G-ANTET
 62
7
100
AcDbHatch
 10
0.0
 20
0.0
 30
0.0
210
0.0
220
0.0
230
1.0
  2
SOLID
 70
1
 71
0
 91
1
 92
3
 72
0
 73
1
 93
4
 10
87.0
 20
27.0
 10
112.0
 20
27.0
 10
112.0
 20
29.2
 10
87.0
 20
29.2
 97
0
 75
0
 76
1
 98
0
  0
LWPOLYLINE
  5
39D
330
2E6
100
AcDbEntity
 67
1
  8
G-ANTET
370
18
100
AcDbPolyline
 90
4
 70
1
 10
87.0
 20
27.0
 10
112.0
 20
27.0
 10
112.0
 20
29.2
 10
87.0
 20
29.2
  0
HATCH
  5
39E
330
2E6
100
AcDbEntity
 67
1
  8
G-ANTET
 62
0
100
AcDbHatch
 10
0.0
 20
0.0
 30
0.0
210
0.0
220
0.0
230
1.0
  2
SOLID
 70
1
 71
0
 91
1
 92
3
 72
0
 73
1
 93
4
 10
112.0
 20
27.0
 10
137.0
 20
27.0
 10
137.0
 20
29.2
 10
112.0
 20
29.2
 97
0
 75
0
 76
1
 98
0
  0
LWPOLYLINE
  5
39F
330
2E6
100
AcDbEntity
 67
1
  8
G-ANTET
370
18
100
AcDbPolyline
 90
4
 70
1
 10
112.0
 20
27.0
 10
137.0
 20
27.0
 10
137.0
 20
29.2
 10
112.0
 20
29.2
  0
TEXT
  5
3A0
330
2E6
100
AcDbEntity
 67
1
  8
G-ANTET
100
AcDbText
 10
37.0
 20
23.8
 30
0.0
 40
1.8
  1
0
  7
GYM
 72
1
 11
37.0
 21
23.8
 31
0.0
100
AcDbText
 73
2
  0
TEXT
  5
3A1
330
2E6
100
AcDbEntity
 67
1
  8
G-ANTET
100
AcDbText
 10
62.0
 20
23.8
 30
0.0
 40
1.8
  1
0,50
  7
GYM
 72
1
 11
62.0
 21
23.8
 31
0.0
100
AcDbText
 73
2
  0
TEXT
  5
3A2
330
2E6
100
AcDbEntity
 67
1
  8
G-ANTET
100
AcDbText
 10
87.0
 20
23.8
 30
0.0
 40
1.8
  1
1
  7
GYM
 72
1
 11
87.0
 21
23.8
 31
0.0
100
AcDbText
 73
2
  0
TEXT
  5
3A3
330
2E6
100
AcDbEntity
 67
1
  8
G-ANTET
100
AcDbText
 10
112.0
 20
23.8
 30
0.0
 40
1.8
  1
1,50
  7
GYM
 72
1
 11
112.0
 21
23.8
 31
0.0
100
AcDbText
 73
2
  0
TEXT
  5
3A4
330
2E6
100
AcDbEntity
 67
1
  8
G-ANTET
100
AcDbText
 10
137.0
 20
23.8
 30
0.0
 40
1.8
  1
2
  7
GYM
 72
1
 11
137.0
 21
23.8
 31
0.0
100
AcDbText
 73
2
  0
TEXT
  5
3A5
330
2E6
100
AcDbEntity
 67
1
  8
G-ANTET
100
AcDbText
 10
140.0
 20
28.1
 30
0.0
 40
1.8
  1
m
  7
GYM
 11
140.0
 21
28.1
 31
0.0
100
AcDbText
 73
2
  0
TEXT
  5
3A6
330
2E6
100
AcDbEntity
 67
1
  8
G-ANTET
100
AcDbText
 10
37.0
 20
31.0
 30
0.0
 40
1.8
  1
ÖLÇEK 1:20
  7
GYM
 11
37.0
 21
31.0
 31
0.0
100
AcDbText
 73
2
  0
CIRCLE
  5
3A7
330
2E6
100
AcDbEntity
 67
1
  8
G-ANTET
370
35
100
AcDbCircle
 10
244.0
 20
384.0
 30
0.0
 40
9.0
  0
LWPOLYLINE
  5
3A8
330
2E6
100
AcDbEntity
 67
1
  8
G-ANTET
370
50
100
AcDbPolyline
 90
4
 70
1
 10
245.1846687373502
 20
391.6488012121342
 10
240.25974400517708
 20
379.8435008609178
 10
243.75204607822903
 20
382.3990881183905
 10
246.30763333570178
 20
378.9067860453386
  0
HATCH
  5
3A9
330
2E6
100
AcDbEntity
 67
1
  8
G-ANTET
 62
7
100
AcDbHatch
 10
0.0
 20
0.0
 30
0.0
210
0.0
220
0.0
230
1.0
  2
SOLID
 70
1
 71
0
 91
1
 92
3
 72
0
 73
1
 93
3
 10
245.1846687373502
 20
391.6488012121342
 10
240.25974400517708
 20
379.8435008609178
 10
243.75204607822903
 20
382.3990881183905
 97
0
 75
0
 76
1
 98
0
  0
TEXT
  5
3AA
330
2E6
100
AcDbEntity
 67
1
  8
G-ANTET
100
AcDbText
 10
242.01024630677617
 20
371.15317625868937
 30
0.0
 40
3.5
  1
K
  7
GYM
 72
1
 11
242.01024630677617
 21
371.15317625868937
 31
0.0
100
AcDbText
 73
2
  0
LWPOLYLINE
  5
3AB
330
2E6
100
AcDbEntity
 67
1
  8
G-ANTET
 62
1
370
50
100
AcDbPolyline
 90
4
 70
1
 10
189.0
 20
27.0
 10
259.0
 20
27.0
 10
259.0
 20
36.0
 10
189.0
 20
36.0
  0
TEXT
  5
3AC
330
2E6
100
AcDbEntity
 67
1
  8
G-ANTET
 62
1
100
AcDbText
 10
224.0
 20
31.5
 30
0.0
 40
1.8
  1
ÖN TASARIM — UYGULAMA İÇİN DEĞİLDİR
  7
GYM
 72
1
 11
224.0
 21
31.5
 31
0.0
100
AcDbText
 73
2
  0
TEXT
  5
3AD
330
2E6
100
AcDbEntity
 67
1
  8
G-YAZI
100
AcDbText
 10
31.0
 20
403.2
 30
0.0
 40
1.8
  1
ÖLÇÜ ALINMAZ — YAZILI ÖLÇÜLER GEÇERLİDİR
  7
GYM
 11
31.0
 21
403.2
 31
0.0
100
AcDbText
 73
2
  0
TEXT
  5
3AE
330
2E6
100
AcDbEntity
 67
1
  8
G-YAZI
100
AcDbText
 10
269.0
 20
399.0
 30
0.0
 40
3.5
  1
MALZEME VE EKİPMAN LİSTESİ
  7
GYM
 11
269.0
 21
399.0
 31
0.0
100
AcDbText
 73
2
  0
LINE
  5
3AF
330
2E6
100
AcDbEntity
 67
1
  8
G-YAZI
370
35
100
AcDbLine
 10
269.0
 20
396.6
 30
0.0
 11
449.0
 21
396.6
 31
0.0
  0
TEXT
  5
3B0
330
2E6
100
AcDbEntity
 67
1
  8
G-YAZI
100
AcDbText
 10
269.0
 20
392.0
 30
0.0
 40
3.5
  1
MAHAL LİSTESİ
  7
GYM
 11
269.0
 21
392.0
 31
0.0
100
AcDbText
 73
2
  0
LINE
  5
3B1
330
2E6
100
AcDbEntity
 67
1
  8
G-YAZI
370
35
100
AcDbLine
 10
269.0
 20
389.6
 30
0.0
 11
449.0
 21
389.6
 31
0.0
  0
LWPOLYLINE
  5
3B2
330
2E6
100
AcDbEntity
 67
1
  8
G-ANTET
370
35
100
AcDbPolyline
 90
4
 70
1
 10
269.0
 20
365.0
 10
409.0
 20
365.0
 10
409.0
 20
385.0
 10
269.0
 20
385.0
  0
LINE
  5
3B3
330
2E6
100
AcDbEntity
 67
1
  8
G-ANTET
370
13
100
AcDbLine
 10
269.0
 20
380.0
 30
0.0
 11
409.0
 21
380.0
 31
0.0
  0
LINE
  5
3B4
330
2E6
100
AcDbEntity
 67
1
  8
G-ANTET
370
13
100
AcDbLine
 10
269.0
 20
375.0
 30
0.0
 11
409.0
 21
375.0
 31
0.0
  0
LINE
  5
3B5
330
2E6
100
AcDbEntity
 67
1
  8
G-ANTET
370
13
100
AcDbLine
 10
269.0
 20
370.0
 30
0.0
 11
409.0
 21
370.0
 31
0.0
  0
LINE
  5
3B6
330
2E6
100
AcDbEntity
 67
1
  8
G-ANTET
370
13
100
AcDbLine
 10
281.0
 20
365.0
 30
0.0
 11
281.0
 21
385.0
 31
0.0
  0
LINE
  5
3B7
330
2E6
100
AcDbEntity
 67
1
  8
G-ANTET
370
13
100
AcDbLine
 10
327.0
 20
365.0
 30
0.0
 11
327.0
 21
385.0
 31
0.0
  0
LINE
  5
3B8
330
2E6
100
AcDbEntity
 67
1
  8
G-ANTET
370
13
100
AcDbLine
 10
343.0
 20
365.0
 30
0.0
 11
343.0
 21
385.0
 31
0.0
  0
LINE
  5
3B9
330
2E6
100
AcDbEntity
 67
1
  8
G-ANTET
370
13
100
AcDbLine
 10
361.0
 20
365.0
 30
0.0
 11
361.0
 21
385.0
 31
0.0
  0
LINE
  5
3BA
330
2E6
100
AcDbEntity
 67
1
  8
G-ANTET
370
13
100
AcDbLine
 10
391.0
 20
365.0
 30
0.0
 11
391.0
 21
385.0
 31
0.0
  0
TEXT
  5
3BB
330
2E6
100
AcDbEntity
 67
1
  8
G-ANTET
100
AcDbText
 10
270.2
 20
382.5
 30
0.0
 40
1.8
  1
NO
  7
GYM
 11
270.2
 21
382.5
 31
0.0
100
AcDbText
 73
2
  0
TEXT
  5
3BC
330
2E6
100
AcDbEntity
 67
1
  8
G-ANTET
100
AcDbText
 10
282.2
 20
382.5
 30
0.0
 40
1.8
  1
MAHAL
  7
GYM
 11
282.2
 21
382.5
 31
0.0
100
AcDbText
 73
2
  0
TEXT
  5
3BD
330
2E6
100
AcDbEntity
 67
1
  8
G-ANTET
100
AcDbText
 10
328.2
 20
382.5
 30
0.0
 40
1.8
  1
m²
  7
GYM
 11
328.2
 21
382.5
 31
0.0
100
AcDbText
 73
2
  0
TEXT
  5
3BE
330
2E6
100
AcDbEntity
 67
1
  8
G-ANTET
100
AcDbText
 10
344.2
 20
382.5
 30
0.0
 40
1.8
  1
ZEMİN
  7
GYM
 11
344.2
 21
382.5
 31
0.0
100
AcDbText
 73
2
  0
TEXT
  5
3BF
330
2E6
100
AcDbEntity
 67
1
  8
G-ANTET
100
AcDbText
 10
362.2
 20
382.5
 30
0.0
 40
1.8
  1
DUVAR
  7
GYM
 11
362.2
 21
382.5
 31
0.0
100
AcDbText
 73
2
  0
TEXT
  5
3C0
330
2E6
100
AcDbEntity
 67
1
  8
G-ANTET
100
AcDbText
 10
392.2
 20
382.5
 30
0.0
 40
1.8
  1
TAVAN
  7
GYM
 11
392.2
 21
382.5
 31
0.0
100
AcDbText
 73
2
  0
TEXT
  5
3C1
330
2E6
100
AcDbEntity
 67
1
  8
G-YAZI
100
AcDbText
 10
270.2
 20
377.5
 30
0.0
 40
1.8
  1
105
  7
GYM
 11
270.2
 21
377.5
 31
0.0
100
AcDbText
 73
2
  0
TEXT
  5
3C2
330
2E6
100
AcDbEntity
 67
1
  8
G-YAZI
100
AcDbText
 10
282.2
 20
377.5
 30
0.0
 40
1.8
  1
ERKEK SOYUNMA
  7
GYM
 11
282.2
 21
377.5
 31
0.0
100
AcDbText
 73
2
  0
TEXT
  5
3C3
330
2E6
100
AcDbEntity
 67
1
  8
G-YAZI
100
AcDbText
 10
328.2
 20
377.5
 30
0.0
 40
1.8
  1
4,53
  7
GYM
 11
328.2
 21
377.5
 31
0.0
100
AcDbText
 73
2
  0
TEXT
  5
3C4
330
2E6
100
AcDbEntity
 67
1
  8
G-YAZI
100
AcDbText
 10
344.2
 20
377.5
 30
0.0
 40
1.8
  1
Z5
  7
GYM
 11
344.2
 21
377.5
 31
0.0
100
AcDbText
 73
2
  0
TEXT
  5
3C5
330
2E6
100
AcDbEntity
 67
1
  8
G-YAZI
100
AcDbText
 10
362.2
 20
377.5
 30
0.0
 40
1.8
  1
D2 / D3
  7
GYM
 11
362.2
 21
377.5
 31
0.0
100
AcDbText
 73
2
  0
TEXT
  5
3C6
330
2E6
100
AcDbEntity
 67
1
  8
G-YAZI
100
AcDbText
 10
392.2
 20
377.5
 30
0.0
 40
1.8
  1
T4
  7
GYM
 11
392.2
 21
377.5
 31
0.0
100
AcDbText
 73
2
  0
TEXT
  5
3C7
330
2E6
100
AcDbEntity
 67
1
  8
G-YAZI
100
AcDbText
 10
270.2
 20
372.5
 30
0.0
 40
1.8
  1
106
  7
GYM
 11
270.2
 21
372.5
 31
0.0
100
AcDbText
 73
2
  0
TEXT
  5
3C8
330
2E6
100
AcDbEntity
 67
1
  8
G-YAZI
100
AcDbText
 10
282.2
 20
372.5
 30
0.0
 40
1.8
  1
ERKEK DUŞ
  7
GYM
 11
282.2
 21
372.5
 31
0.0
100
AcDbText
 73
2
  0
TEXT
  5
3C9
330
2E6
100
AcDbEntity
 67
1
  8
G-YAZI
100
AcDbText
 10
328.2
 20
372.5
 30
0.0
 40
1.8
  1
1,65
  7
GYM
 11
328.2
 21
372.5
 31
0.0
100
AcDbText
 73
2
  0
TEXT
  5
3CA
330
2E6
100
AcDbEntity
 67
1
  8
G-YAZI
100
AcDbText
 10
344.2
 20
372.5
 30
0.0
 40
1.8
  1
Z4
  7
GYM
 11
344.2
 21
372.5
 31
0.0
100
AcDbText
 73
2
  0
TEXT
  5
3CB
330
2E6
100
AcDbEntity
 67
1
  8
G-YAZI
100
AcDbText
 10
362.2
 20
372.5
 30
0.0
 40
1.8
  1
D3 + D5 (tavana kadar)
  7
GYM
 11
362.2
 21
372.5
 31
0.0
100
AcDbText
 73
2
  0
TEXT
  5
3CC
330
2E6
100
AcDbEntity
 67
1
  8
G-YAZI
100
AcDbText
 10
392.2
 20
372.5
 30
0.0
 40
1.8
  1
T3
  7
GYM
 11
392.2
 21
372.5
 31
0.0
100
AcDbText
 73
2
  0
TEXT
  5
3CD
330
2E6
100
AcDbEntity
 67
1
  8
G-YAZI
100
AcDbText
 10
270.2
 20
367.5
 30
0.0
 40
1.8
  1
107
  7
GYM
 11
270.2
 21
367.5
 31
0.0
100
AcDbText
 73
2
  0
TEXT
  5
3CE
330
2E6
100
AcDbEntity
 67
1
  8
G-YAZI
100
AcDbText
 10
282.2
 20
367.5
 30
0.0
 40
1.8
  1
ERKEK WC
  7
GYM
 11
282.2
 21
367.5
 31
0.0
100
AcDbText
 73
2
  0
TEXT
  5
3CF
330
2E6
100
AcDbEntity
 67
1
  8
G-YAZI
100
AcDbText
 10
328.2
 20
367.5
 30
0.0
 40
1.8
  1
1,65
  7
GYM
 11
328.2
 21
367.5
 31
0.0
100
AcDbText
 73
2
  0
TEXT
  5
3D0
330
2E6
100
AcDbEntity
 67
1
  8
G-YAZI
100
AcDbText
 10
344.2
 20
367.5
 30
0.0
 40
1.8
  1
Z4
  7
GYM
 11
344.2
 21
367.5
 31
0.0
100
AcDbText
 73
2
  0
TEXT
  5
3D1
330
2E6
100
AcDbEntity
 67
1
  8
G-YAZI
100
AcDbText
 10
362.2
 20
367.5
 30
0.0
 40
1.8
  1
D3 + D5 (h=1,60 m)
  7
GYM
 11
362.2
 21
367.5
 31
0.0
100
AcDbText
 73
2
  0
TEXT
  5
3D2
330
2E6
100
AcDbEntity
 67
1
  8
G-YAZI
100
AcDbText
 10
392.2
 20
367.5
 30
0.0
 40
1.8
  1
T3
  7
GYM
 11
392.2
 21
367.5
 31
0.0
100
AcDbText
 73
2
  0
TEXT
  5
3D3
330
2E6
100
AcDbEntity
 67
1
  8
G-YAZI
100
AcDbText
 10
269.0
 20
356.0
 30
0.0
 40
3.5
  1
KAPI LİSTESİ (bu bölge)
  7
GYM
 11
269.0
 21
356.0
 31
0.0
100
AcDbText
 73
2
  0
LINE
  5
3D4
330
2E6
100
AcDbEntity
 67
1
  8
G-YAZI
370
35
100
AcDbLine
 10
269.0
 20
353.6
 30
0.0
 11
449.0
 21
353.6
 31
0.0
  0
LWPOLYLINE
  5
3D5
330
2E6
100
AcDbEntity
 67
1
  8
G-ANTET
370
35
100
AcDbPolyline
 90
4
 70
1
 10
269.0
 20
329.0
 10
409.0
 20
329.0
 10
409.0
 20
349.0
 10
269.0
 20
349.0
  0
LINE
  5
3D6
330
2E6
100
AcDbEntity
 67
1
  8
G-ANTET
370
13
100
AcDbLine
 10
269.0
 20
344.0
 30
0.0
 11
409.0
 21
344.0
 31
0.0
  0
LINE
  5
3D7
330
2E6
100
AcDbEntity
 67
1
  8
G-ANTET
370
13
100
AcDbLine
 10
269.0
 20
339.0
 30
0.0
 11
409.0
 21
339.0
 31
0.0
  0
LINE
  5
3D8
330
2E6
100
AcDbEntity
 67
1
  8
G-ANTET
370
13
100
AcDbLine
 10
269.0
 20
334.0
 30
0.0
 11
409.0
 21
334.0
 31
0.0
  0
LINE
  5
3D9
330
2E6
100
AcDbEntity
 67
1
  8
G-ANTET
370
13
100
AcDbLine
 10
283.0
 20
329.0
 30
0.0
 11
283.0
 21
349.0
 31
0.0
  0
LINE
  5
3DA
330
2E6
100
AcDbEntity
 67
1
  8
G-ANTET
370
13
100
AcDbLine
 10
327.0
 20
329.0
 30
0.0
 11
327.0
 21
349.0
 31
0.0
  0
LINE
  5
3DB
330
2E6
100
AcDbEntity
 67
1
  8
G-ANTET
370
13
100
AcDbLine
 10
353.0
 20
329.0
 30
0.0
 11
353.0
 21
349.0
 31
0.0
  0
TEXT
  5
3DC
330
2E6
100
AcDbEntity
 67
1
  8
G-ANTET
100
AcDbText
 10
270.2
 20
346.5
 30
0.0
 40
1.8
  1
KOD
  7
GYM
 11
270.2
 21
346.5
 31
0.0
100
AcDbText
 73
2
  0
TEXT
  5
3DD
330
2E6
100
AcDbEntity
 67
1
  8
G-ANTET
100
AcDbText
 10
284.2
 20
346.5
 30
0.0
 40
1.8
  1
MAHAL
  7
GYM
 11
284.2
 21
346.5
 31
0.0
100
AcDbText
 73
2
  0
TEXT
  5
3DE
330
2E6
100
AcDbEntity
 67
1
  8
G-ANTET
100
AcDbText
 10
328.2
 20
346.5
 30
0.0
 40
1.8
  1
mm
  7
GYM
 11
328.2
 21
346.5
 31
0.0
100
AcDbText
 73
2
  0
TEXT
  5
3DF
330
2E6
100
AcDbEntity
 67
1
  8
G-ANTET
100
AcDbText
 10
354.2
 20
346.5
 30
0.0
 40
1.8
  1
TİP
  7
GYM
 11
354.2
 21
346.5
 31
0.0
100
AcDbText
 73
2
  0
TEXT
  5
3E0
330
2E6
100
AcDbEntity
 67
1
  8
G-YAZI
100
AcDbText
 10
270.2
 20
341.5
 30
0.0
 40
1.8
  1
K03
  7
GYM
 11
270.2
 21
341.5
 31
0.0
100
AcDbText
 73
2
  0
TEXT
  5
3E1
330
2E6
100
AcDbEntity
 67
1
  8
G-YAZI
100
AcDbText
 10
284.2
 20
341.5
 30
0.0
 40
1.8
  1
105 Erkek soyunma
  7
GYM
 11
284.2
 21
341.5
 31
0.0
100
AcDbText
 73
2
  0
TEXT
  5
3E2
330
2E6
100
AcDbEntity
 67
1
  8
G-YAZI
100
AcDbText
 10
328.2
 20
341.5
 30
0.0
 40
1.8
  1
900×2100
  7
GYM
 11
328.2
 21
341.5
 31
0.0
100
AcDbText
 73
2
  0
TEXT
  5
3E3
330
2E6
100
AcDbEntity
 67
1
  8
G-YAZI
100
AcDbText
 10
354.2
 20
341.5
 30
0.0
 40
1.8
  1
Tek kanat panel kapı
  7
GYM
 11
354.2
 21
341.5
 31
0.0
100
AcDbText
 73
2
  0
TEXT
  5
3E4
330
2E6
100
AcDbEntity
 67
1
  8
G-YAZI
100
AcDbText
 10
270.2
 20
336.5
 30
0.0
 40
1.8
  1
K05
  7
GYM
 11
270.2
 21
336.5
 31
0.0
100
AcDbText
 73
2
  0
TEXT
  5
3E5
330
2E6
100
AcDbEntity
 67
1
  8
G-YAZI
100
AcDbText
 10
284.2
 20
336.5
 30
0.0
 40
1.8
  1
107 Erkek WC
  7
GYM
 11
284.2
 21
336.5
 31
0.0
100
AcDbText
 73
2
  0
TEXT
  5
3E6
330
2E6
100
AcDbEntity
 67
1
  8
G-YAZI
100
AcDbText
 10
328.2
 20
336.5
 30
0.0
 40
1.8
  1
700×2000
  7
GYM
 11
328.2
 21
336.5
 31
0.0
100
AcDbText
 73
2
  0
TEXT
  5
3E7
330
2E6
100
AcDbEntity
 67
1
  8
G-YAZI
100
AcDbText
 10
354.2
 20
336.5
 30
0.0
 40
1.8
  1
Tek kanat WC kapısı
  7
GYM
 11
354.2
 21
336.5
 31
0.0
100
AcDbText
 73
2
  0
TEXT
  5
3E8
330
2E6
100
AcDbEntity
 67
1
  8
G-YAZI
100
AcDbText
 10
270.2
 20
331.5
 30
0.0
 40
1.8
  1
K07
  7
GYM
 11
270.2
 21
331.5
 31
0.0
100
AcDbText
 73
2
  0
TEXT
  5
3E9
330
2E6
100
AcDbEntity
 67
1
  8
G-YAZI
100
AcDbText
 10
284.2
 20
331.5
 30
0.0
 40
1.8
  1
106 Erkek duş
  7
GYM
 11
284.2
 21
331.5
 31
0.0
100
AcDbText
 73
2
  0
TEXT
  5
3EA
330
2E6
100
AcDbEntity
 67
1
  8
G-YAZI
100
AcDbText
 10
328.2
 20
331.5
 30
0.0
 40
1.8
  1
700×1950
  7
GYM
 11
328.2
 21
331.5
 31
0.0
100
AcDbText
 73
2
  0
TEXT
  5
3EB
330
2E6
100
AcDbEntity
 67
1
  8
G-YAZI
100
AcDbText
 10
354.2
 20
331.5
 30
0.0
 40
1.8
  1
Duş kapağı
  7
GYM
 11
354.2
 21
331.5
 31
0.0
100
AcDbText
 73
2
  0
TEXT
  5
3EC
330
2E6
100
AcDbEntity
 67
1
  8
G-YAZI
100
AcDbText
 10
269.0
 20
320.0
 30
0.0
 40
3.5
  1
VİTRİFİYE VE ARMATÜR
  7
GYM
 11
269.0
 21
320.0
 31
0.0
100
AcDbText
 73
2
  0
LINE
  5
3ED
330
2E6
100
AcDbEntity
 67
1
  8
G-YAZI
370
35
100
AcDbLine
 10
269.0
 20
317.6
 30
0.0
 11
449.0
 21
317.6
 31
0.0
  0
LWPOLYLINE
  5
3EE
330
2E6
100
AcDbEntity
 67
1
  8
G-ANTET
370
35
100
AcDbPolyline
 90
4
 70
1
 10
269.0
 20
288.0
 10
401.0
 20
288.0
 10
401.0
 20
313.0
 10
269.0
 20
313.0
  0
LINE
  5
3EF
330
2E6
100
AcDbEntity
 67
1
  8
G-ANTET
370
13
100
AcDbLine
 10
269.0
 20
308.0
 30
0.0
 11
401.0
 21
308.0
 31
0.0
  0
LINE
  5
3F0
330
2E6
100
AcDbEntity
 67
1
  8
G-ANTET
370
13
100
AcDbLine
 10
269.0
 20
303.0
 30
0.0
 11
401.0
 21
303.0
 31
0.0
  0
LINE
  5
3F1
330
2E6
100
AcDbEntity
 67
1
  8
G-ANTET
370
13
100
AcDbLine
 10
269.0
 20
298.0
 30
0.0
 11
401.0
 21
298.0
 31
0.0
  0
LINE
  5
3F2
330
2E6
100
AcDbEntity
 67
1
  8
G-ANTET
370
13
100
AcDbLine
 10
269.0
 20
293.0
 30
0.0
 11
401.0
 21
293.0
 31
0.0
  0
LINE
  5
3F3
330
2E6
100
AcDbEntity
 67
1
  8
G-ANTET
370
13
100
AcDbLine
 10
287.0
 20
288.0
 30
0.0
 11
287.0
 21
313.0
 31
0.0
  0
LINE
  5
3F4
330
2E6
100
AcDbEntity
 67
1
  8
G-ANTET
370
13
100
AcDbLine
 10
371.0
 20
288.0
 30
0.0
 11
371.0
 21
313.0
 31
0.0
  0
TEXT
  5
3F5
330
2E6
100
AcDbEntity
 67
1
  8
G-ANTET
100
AcDbText
 10
270.2
 20
310.5
 30
0.0
 40
1.8
  1
KOD
  7
GYM
 11
270.2
 21
310.5
 31
0.0
100
AcDbText
 73
2
  0
TEXT
  5
3F6
330
2E6
100
AcDbEntity
 67
1
  8
G-ANTET
100
AcDbText
 10
288.2
 20
310.5
 30
0.0
 40
1.8
  1
TANIM
  7
GYM
 11
288.2
 21
310.5
 31
0.0
100
AcDbText
 73
2
  0
TEXT
  5
3F7
330
2E6
100
AcDbEntity
 67
1
  8
G-ANTET
100
AcDbText
 10
372.2
 20
310.5
 30
0.0
 40
1.8
  1
mm
  7
GYM
 11
372.2
 21
310.5
 31
0.0
100
AcDbText
 73
2
  0
TEXT
  5
3F8
330
2E6
100
AcDbEntity
 67
1
  8
G-YAZI
100
AcDbText
 10
270.2
 20
305.5
 30
0.0
 40
1.8
  1
WC-1
  7
GYM
 11
270.2
 21
305.5
 31
0.0
100
AcDbText
 73
2
  0
TEXT
  5
3F9
330
2E6
100
AcDbEntity
 67
1
  8
G-YAZI
100
AcDbText
 10
288.2
 20
305.5
 30
0.0
 40
1.8
  1
Asma klozet + gömme rezervuar
  7
GYM
 11
288.2
 21
305.5
 31
0.0
100
AcDbText
 73
2
  0
TEXT
  5
3FA
330
2E6
100
AcDbEntity
 67
1
  8
G-YAZI
100
AcDbText
 10
372.2
 20
305.5
 30
0.0
 40
1.8
  1
370×650
  7
GYM
 11
372.2
 21
305.5
 31
0.0
100
AcDbText
 73
2
  0
TEXT
  5
3FB
330
2E6
100
AcDbEntity
 67
1
  8
G-YAZI
100
AcDbText
 10
270.2
 20
300.5
 30
0.0
 40
1.8
  1
LV-1
  7
GYM
 11
270.2
 21
300.5
 31
0.0
100
AcDbText
 73
2
  0
TEXT
  5
3FC
330
2E6
100
AcDbEntity
 67
1
  8
G-YAZI
100
AcDbText
 10
288.2
 20
300.5
 30
0.0
 40
1.8
  1
Lavabo + batarya
  7
GYM
 11
288.2
 21
300.5
 31
0.0
100
AcDbText
 73
2
  0
TEXT
  5
3FD
330
2E6
100
AcDbEntity
 67
1
  8
G-YAZI
100
AcDbText
 10
372.2
 20
300.5
 30
0.0
 40
1.8
  1
500×420
  7
GYM
 11
372.2
 21
300.5
 31
0.0
100
AcDbText
 73
2
  0
TEXT
  5
3FE
330
2E6
100
AcDbEntity
 67
1
  8
G-YAZI
100
AcDbText
 10
270.2
 20
295.5
 30
0.0
 40
1.8
  1
DU-1
  7
GYM
 11
270.2
 21
295.5
 31
0.0
100
AcDbText
 73
2
  0
TEXT
  5
3FF
330
2E6
100
AcDbEntity
 67
1
  8
G-YAZI
100
AcDbText
 10
288.2
 20
295.5
 30
0.0
 40
1.8
  1
Duş bataryası + tepe duşu
  7
GYM
 11
288.2
 21
295.5
 31
0.0
100
AcDbText
 73
2
  0
TEXT
  5
400
330
2E6
100
AcDbEntity
 67
1
  8
G-YAZI
100
AcDbText
 10
372.2
 20
295.5
 30
0.0
 40
1.8
  1
—
  7
GYM
 11
372.2
 21
295.5
 31
0.0
100
AcDbText
 73
2
  0
TEXT
  5
401
330
2E6
100
AcDbEntity
 67
1
  8
G-YAZI
100
AcDbText
 10
270.2
 20
290.5
 30
0.0
 40
1.8
  1
SZ-1
  7
GYM
 11
270.2
 21
290.5
 31
0.0
100
AcDbText
 73
2
  0
TEXT
  5
402
330
2E6
100
AcDbEntity
 67
1
  8
G-YAZI
100
AcDbText
 10
288.2
 20
290.5
 30
0.0
 40
1.8
  1
Sifonlu yer süzgeci Ø100, paslanmaz
  7
GYM
 11
288.2
 21
290.5
 31
0.0
100
AcDbText
 73
2
  0
TEXT
  5
403
330
2E6
100
AcDbEntity
 67
1
  8
G-YAZI
100
AcDbText
 10
372.2
 20
290.5
 30
0.0
 40
1.8
  1
150×150
  7
GYM
 11
372.2
 21
290.5
 31
0.0
100
AcDbText
 73
2
  0
TEXT
  5
404
330
2E6
100
AcDbEntity
 67
1
  8
G-YAZI
100
AcDbText
 10
404.0
 20
399.0
 30
0.0
 40
3.5
  1
LEJANT
  7
GYM
 11
404.0
 21
399.0
 31
0.0
100
AcDbText
 73
2
  0
LINE
  5
405
330
2E6
100
AcDbEntity
 67
1
  8
G-YAZI
370
35
100
AcDbLine
 10
404.0
 20
396.6
 30
0.0
 11
584.0
 21
396.6
 31
0.0
  0
LINE
  5
406
330
2E6
100
AcDbEntity
 67
1
  8
G-ANTET
  6
Continuous
 62
8
370
35
100
AcDbLine
 10
404.0
 20
392.0
 30
0.0
 11
416.0
 21
392.0
 31
0.0
  0
TEXT
  5
407
330
2E6
100
AcDbEntity
 67
1
  8
G-YAZI
100
AcDbText
 10
419.0
 20
392.0
 30
0.0
 40
1.8
  1
Mimari — mevcut duvar (korunuyor)
  7
GYM
 11
419.0
 21
392.0
 31
0.0
100
AcDbText
 73
2
  0
LINE
  5
408
330
2E6
100
AcDbEntity
 67
1
  8
G-ANTET
  6
Continuous
 62
1
370
35
100
AcDbLine
 10
404.0
 20
387.4
 30
0.0
 11
416.0
 21
387.4
 31
0.0
  0
TEXT
  5
409
330
2E6
100
AcDbEntity
 67
1
  8
G-YAZI
100
AcDbText
 10
419.0
 20
387.4
 30
0.0
 40
1.8
  1
Mimari — yeni alçıpan bölme
  7
GYM
 11
419.0
 21
387.4
 31
0.0
100
AcDbText
 73
2
  0
LINE
  5
40A
330
2E6
100
AcDbEntity
 67
1
  8
G-ANTET
  6
Continuous
 62
8
370
18
100
AcDbLine
 10
404.0
 20
382.79999999999995
 30
0.0
 11
416.0
 21
382.79999999999995
 31
0.0
  0
TEXT
  5
40B
330
2E6
100
AcDbEntity
 67
1
  8
G-YAZI
100
AcDbText
 10
419.0
 20
382.79999999999995
 30
0.0
 40
1.8
  1
Mimari — kapı ve açılım
  7
GYM
 11
419.0
 21
382.79999999999995
 31
0.0
100
AcDbText
 73
2
  0
LINE
  5
40C
330
2E6
100
AcDbEntity
 67
1
  8
G-ANTET
  6
Continuous
 62
9
370
18
100
AcDbLine
 10
404.0
 20
378.19999999999993
 30
0.0
 11
416.0
 21
378.19999999999993
 31
0.0
  0
TEXT
  5
40D
330
2E6
100
AcDbEntity
 67
1
  8
G-YAZI
100
AcDbText
 10
419.0
 20
378.19999999999993
 30
0.0
 40
1.8
  1
Mimari — sabit mobilya
  7
GYM
 11
419.0
 21
378.19999999999993
 31
0.0
100
AcDbText
 73
2
  0
LINE
  5
40E
330
2E6
100
AcDbEntity
 67
1
  8
G-ANTET
  6
Continuous
 62
7
370
13
100
AcDbLine
 10
404.0
 20
373.5999999999999
 30
0.0
 11
416.0
 21
373.5999999999999
 31
0.0
  0
TEXT
  5
40F
330
2E6
100
AcDbEntity
 67
1
  8
G-YAZI
100
AcDbText
 10
419.0
 20
373.5999999999999
 30
0.0
 40
1.8
  1
Mimari — mahal adı ve alan
  7
GYM
 11
419.0
 21
373.5999999999999
 31
0.0
100
AcDbText
 73
2
  0
LINE
  5
410
330
2E6
100
AcDbEntity
 67
1
  8
G-ANTET
  6
Continuous
 62
250
370
18
100
AcDbLine
 10
404.0
 20
368.9999999999999
 30
0.0
 11
416.0
 21
368.9999999999999
 31
0.0
  0
TEXT
  5
411
330
2E6
100
AcDbEntity
 67
1
  8
G-YAZI
100
AcDbText
 10
419.0
 20
368.9999999999999
 30
0.0
 40
1.8
  1
Mimari — mahal numarası ve kapı kodu balonu
  7
GYM
 11
419.0
 21
368.9999999999999
 31
0.0
100
AcDbText
 73
2
  0
LINE
  5
412
330
2E6
100
AcDbEntity
 67
1
  8
G-ANTET
  6
DASHDOT
 62
1
370
35
100
AcDbLine
 10
404.0
 20
364.39999999999986
 30
0.0
 11
416.0
 21
364.39999999999986
 31
0.0
  0
TEXT
  5
413
330
2E6
100
AcDbEntity
 67
1
  8
G-YAZI
100
AcDbText
 10
419.0
 20
364.39999999999986
 30
0.0
 40
1.8
  1
Mimari — kesit ve görünüş hattı
  7
GYM
 11
419.0
 21
364.39999999999986
 31
0.0
100
AcDbText
 73
2
  0
LINE
  5
414
330
2E6
100
AcDbEntity
 67
1
  8
G-ANTET
  6
Continuous
 62
30
370
25
100
AcDbLine
 10
404.0
 20
359.79999999999984
 30
0.0
 11
416.0
 21
359.79999999999984
 31
0.0
  0
TEXT
  5
415
330
2E6
100
AcDbEntity
 67
1
  8
G-YAZI
100
AcDbText
 10
419.0
 20
359.79999999999984
 30
0.0
 40
1.8
  1
Mimari — zemin kaplama tipi sınırı
  7
GYM
 11
419.0
 21
359.79999999999984
 31
0.0
100
AcDbText
 73
2
  0
LINE
  5
416
330
2E6
100
AcDbEntity
 67
1
  8
G-ANTET
  6
Continuous
 62
30
370
13
100
AcDbLine
 10
404.0
 20
355.1999999999998
 30
0.0
 11
416.0
 21
355.1999999999998
 31
0.0
  0
TEXT
  5
417
330
2E6
100
AcDbEntity
 67
1
  8
G-YAZI
100
AcDbText
 10
419.0
 20
355.1999999999998
 30
0.0
 40
1.8
  1
Mimari — zemin kaplama tipi ve kotu
  7
GYM
 11
419.0
 21
355.1999999999998
 31
0.0
100
AcDbText
 73
2
  0
LINE
  5
418
330
2E6
100
AcDbEntity
 67
1
  8
G-ANTET
  6
Continuous
 62
253
370
13
100
AcDbLine
 10
404.0
 20
350.5999999999998
 30
0.0
 11
416.0
 21
350.5999999999998
 31
0.0
  0
TEXT
  5
419
330
2E6
100
AcDbEntity
 67
1
  8
G-YAZI
100
AcDbText
 10
419.0
 20
350.5999999999998
 30
0.0
 40
1.8
  1
Kesit — malzeme taraması
  7
GYM
 11
419.0
 21
350.5999999999998
 31
0.0
100
AcDbText
 73
2
  0
LINE
  5
41A
330
2E6
100
AcDbEntity
 67
1
  8
G-ANTET
  6
Continuous
 62
250
370
25
100
AcDbLine
 10
404.0
 20
345.9999999999998
 30
0.0
 11
416.0
 21
345.9999999999998
 31
0.0
  0
TEXT
  5
41B
330
2E6
100
AcDbEntity
 67
1
  8
G-YAZI
100
AcDbText
 10
419.0
 20
345.9999999999998
 30
0.0
 40
1.8
  1
Kot işareti ve değeri
  7
GYM
 11
419.0
 21
345.9999999999998
 31
0.0
100
AcDbText
 73
2
  0
LINE
  5
41C
330
2E6
100
AcDbEntity
 67
1
  8
G-ANTET
  6
Continuous
 62
1
370
25
100
AcDbLine
 10
404.0
 20
341.39999999999975
 30
0.0
 11
416.0
 21
341.39999999999975
 31
0.0
  0
TEXT
  5
41D
330
2E6
100
AcDbEntity
 67
1
  8
G-YAZI
100
AcDbText
 10
419.0
 20
341.39999999999975
 30
0.0
 40
1.8
  1
Detay çağrı balonu ve kopuş çizgisi
  7
GYM
 11
419.0
 21
341.39999999999975
 31
0.0
100
AcDbText
 73
2
  0
LINE
  5
41E
330
2E6
100
AcDbEntity
 67
1
  8
G-ANTET
  6
Continuous
 62
8
370
35
100
AcDbLine
 10
404.0
 20
336.7999999999997
 30
0.0
 11
416.0
 21
336.7999999999997
 31
0.0
  0
TEXT
  5
41F
330
2E6
100
AcDbEntity
 67
1
  8
G-YAZI
100
AcDbText
 10
419.0
 20
336.7999999999997
 30
0.0
 40
1.8
  1
Mekanik — pis su PVC
  7
GYM
 11
419.0
 21
336.7999999999997
 31
0.0
100
AcDbText
 73
2
  0
LINE
  5
420
330
2E6
100
AcDbEntity
 67
1
  8
G-ANTET
  6
Continuous
 62
8
370
25
100
AcDbLine
 10
404.0
 20
332.1999999999997
 30
0.0
 11
416.0
 21
332.1999999999997
 31
0.0
  0
TEXT
  5
421
330
2E6
100
AcDbEntity
 67
1
  8
G-YAZI
100
AcDbText
 10
419.0
 20
332.1999999999997
 30
0.0
 40
1.8
  1
Mekanik — vitrifiye ve su ısıtıcı
  7
GYM
 11
419.0
 21
332.1999999999997
 31
0.0
100
AcDbText
 73
2
  0
LINE
  5
422
330
2E6
100
AcDbEntity
 67
1
  8
G-ANTET
  6
Continuous
 62
7
370
13
100
AcDbLine
 10
404.0
 20
327.5999999999997
 30
0.0
 11
416.0
 21
327.5999999999997
 31
0.0
  0
TEXT
  5
423
330
2E6
100
AcDbEntity
 67
1
  8
G-YAZI
100
AcDbText
 10
419.0
 20
327.5999999999997
 30
0.0
 40
1.8
  1
Genel — zincir ölçü
  7
GYM
 11
419.0
 21
327.5999999999997
 31
0.0
100
AcDbText
 73
2
  0
LINE
  5
424
330
2E6
100
AcDbEntity
 67
1
  8
G-ANTET
  6
Continuous
 62
1
370
50
100
AcDbLine
 10
404.0
 20
322.99999999999966
 30
0.0
 11
416.0
 21
322.99999999999966
 31
0.0
  0
TEXT
  5
425
330
2E6
100
AcDbEntity
 67
1
  8
G-YAZI
100
AcDbText
 10
419.0
 20
322.99999999999966
 30
0.0
 40
1.8
  1
Genel — kesit ve detay işareti
  7
GYM
 11
419.0
 21
322.99999999999966
 31
0.0
100
AcDbText
 73
2
  0
TEXT
  5
426
330
2E6
100
AcDbEntity
 67
1
  8
G-YAZI
100
AcDbText
 10
404.0
 20
313.39999999999964
 30
0.0
 40
3.5
  1
GENEL NOTLAR
  7
GYM
 11
404.0
 21
313.39999999999964
 31
0.0
100
AcDbText
 73
2
  0
LINE
  5
427
330
2E6
100
AcDbEntity
 67
1
  8
G-YAZI
370
35
100
AcDbLine
 10
404.0
 20
310.99999999999966
 30
0.0
 11
584.0
 21
310.99999999999966
 31
0.0
  0
TEXT
  5
428
330
2E6
100
AcDbEntity
 67
1
  8
G-YAZI
100
AcDbText
 10
404.0
 20
306.39999999999964
 30
0.0
 40
1.8
  1
1. Geometri ölçülmüş rölöveden alınmıştır (ESAT-FINAL.dwg, TRIMODE).
  7
GYM
 11
404.0
 21
306.39999999999964
 31
0.0
100
AcDbText
 73
2
  0
TEXT
  5
429
330
2E6
100
AcDbEntity
 67
1
  8
G-YAZI
100
AcDbText
 10
404.0
 20
301.5999999999996
 30
0.0
 40
1.8
  1
2. Mahal alanları BİTMİŞ YÜZ net alanıdır; iç bölme payı düşülmüştür.
  7
GYM
 11
404.0
 21
301.5999999999996
 31
0.0
100
AcDbText
 73
2
  0
TEXT
  5
42A
330
2E6
100
AcDbEntity
 67
1
  8
G-YAZI
100
AcDbText
 10
404.0
 20
296.7999999999996
 30
0.0
 40
1.8
  1
3. Ölçüler bloğun kendi doğrultusundadır (dünya eksenine izdüşüm değil).
  7
GYM
 11
404.0
 21
296.7999999999996
 31
0.0
100
AcDbText
 73
2
  0
TEXT
  5
42B
330
2E6
100
AcDbEntity
 67
1
  8
G-YAZI
100
AcDbText
 10
404.0
 20
291.9999999999996
 30
0.0
 40
1.8
  1
4. Duş ve WC zemininde süzgeğe doğru %1,5 eğim verilecektir.
  7
GYM
 11
404.0
 21
291.9999999999996
 31
0.0
100
AcDbText
 73
2
  0
TEXT
  5
42C
330
2E6
100
AcDbEntity
 67
1
  8
G-YAZI
100
AcDbText
 10
404.0
 20
287.1999999999996
 30
0.0
 40
1.8
  1
5. Kapı kodları kapı cetveliyle (K03·K05·K07) aynı kaynaktan üretilir.
  7
GYM
 11
404.0
 21
287.1999999999996
 31
0.0
100
AcDbText
 73
2
  0
ENDSEC
  0
SECTION
  2
OBJECTS
  0
DICTIONARY
  5
A
330
0
100
AcDbDictionary
281
1
  3
ACAD_COLOR
350
B
  3
ACAD_GROUP
350
C
  3
ACAD_LAYOUT
350
D
  3
ACAD_MATERIAL
350
E
  3
ACAD_MLEADERSTYLE
350
F
  3
ACAD_MLINESTYLE
350
10
  3
ACAD_PLOTSETTINGS
350
11
  3
ACAD_PLOTSTYLENAME
350
12
  3
ACAD_SCALELIST
350
14
  3
ACAD_TABLESTYLE
350
15
  3
ACAD_VISUALSTYLE
350
16
  3
EZDXF_META
350
2D
  0
DICTIONARY
  5
B
330
A
100
AcDbDictionary
281
1
  0
DICTIONARY
  5
C
330
A
100
AcDbDictionary
281
1
  0
DICTIONARY
  5
D
330
A
100
AcDbDictionary
281
1
  3
Model
350
1A
  3
P-01 ÖLÇÜLÜ PLAN — ERKEK ISLAK BLOK
350
2E9
  0
DICTIONARY
  5
E
330
A
100
AcDbDictionary
281
1
  3
ByBlock
350
1F
  3
ByLayer
350
20
  3
Global
350
21
  0
DICTIONARY
  5
F
330
A
100
AcDbDictionary
281
1
  3
Standard
350
2C
  0
DICTIONARY
  5
10
330
A
100
AcDbDictionary
281
1
  3
Standard
350
22
  0
DICTIONARY
  5
11
330
A
100
AcDbDictionary
281
1
  0
ACDBDICTIONARYWDFLT
  5
12
330
A
100
AcDbDictionary
281
1
  3
Normal
350
13
100
AcDbDictionaryWithDefault
340
13
  0
ACDBPLACEHOLDER
  5
13
330
12
  0
DICTIONARY
  5
14
330
A
100
AcDbDictionary
281
1
  0
DICTIONARY
  5
15
330
A
100
AcDbDictionary
281
1
  0
DICTIONARY
  5
16
330
A
100
AcDbDictionary
281
1
  3
2dWireframe
350
5A
  3
Basic
350
5B
  3
Brighten
350
5C
  3
ColorChange
350
5D
  3
Conceptual
350
5E
  3
Dim
350
5F
  3
EdgeColorOff
350
60
  3
Facepattern
350
61
  3
Flat
350
62
  3
FlatWithEdges
350
63
  3
Gouraud
350
64
  3
GouraudWithEdges
350
65
  3
Hidden
350
66
  3
JitterOff
350
67
  3
Linepattern
350
68
  3
Modeling
350
69
  3
OverhangOff
350
6A
  3
Realistic
350
6B
  3
Shaded
350
6C
  3
Shaded with edges
350
6D
  3
Shades of Gray
350
6E
  3
Sketchy
350
6F
  3
Thicken
350
70
  3
Wireframe
350
71
  3
X-Ray
350
72
  0
LAYOUT
  5
1A
330
D
100
AcDbPlotSettings
  1

  4
A3
  6

 40
7.5
 41
20.0
 42
7.5
 43
20.0
 44
420.0
 45
297.0
 46
0.0
 47
0.0
 48
0.0
 49
0.0
140
0.0
141
0.0
142
1.0
143
1.0
 70
1024
 72
1
 73
0
 74
5
  7

 75
16
 76
0
 77
2
 78
300
147
1.0
148
0.0
149
0.0
100
AcDbLayout
  1
Model
 70
1
 71
0
 10
0.0
 20
0.0
 11
420.0
 21
297.0
 12
0.0
 22
0.0
 32
0.0
 14
1e+20
 24
1e+20
 34
1e+20
 15
-1e+20
 25
-1e+20
 35
-1e+20
146
0.0
 13
0.0
 23
0.0
 33
0.0
 16
1.0
 26
0.0
 36
0.0
 17
0.0
 27
1.0
 37
0.0
 76
1
330
17
  0
MATERIAL
  5
1F
102
{ACAD_REACTORS
330
E
102
}
330
E
100
AcDbMaterial
  1
ByBlock
  2

 70
0
 40
1.0
 71
1
 41
1.0
 91
-1023410177
 42
1.0
 72
1
  3

 73
1
 74
1
 75
1
 44
0.5
 73
0
 45
1.0
 46
1.0
 77
1
  4

 78
1
 79
1
170
1
 48
1.0
171
1
  6

172
1
173
1
174
1
140
1.0
141
1.0
175
1
  7

176
1
177
1
178
1
143
1.0
179
1
  8

270
1
271
1
272
1
145
1.0
146
1.0
273
1
  9

274
1
275
1
276
1
 42
1.0
 72
1
  3

 73
1
 74
1
 75
1
 94
63
  0
MATERIAL
  5
20
102
{ACAD_REACTORS
330
E
102
}
330
E
100
AcDbMaterial
  1
ByLayer
  2

 70
0
 40
1.0
 71
1
 41
1.0
 91
-1023410177
 42
1.0
 72
1
  3

 73
1
 74
1
 75
1
 44
0.5
 73
0
 45
1.0
 46
1.0
 77
1
  4

 78
1
 79
1
170
1
 48
1.0
171
1
  6

172
1
173
1
174
1
140
1.0
141
1.0
175
1
  7

176
1
177
1
178
1
143
1.0
179
1
  8

270
1
271
1
272
1
145
1.0
146
1.0
273
1
  9

274
1
275
1
276
1
 42
1.0
 72
1
  3

 73
1
 74
1
 75
1
 94
63
  0
MATERIAL
  5
21
102
{ACAD_REACTORS
330
E
102
}
330
E
100
AcDbMaterial
  1
Global
  2

 70
0
 40
1.0
 71
1
 41
1.0
 91
-1023410177
 42
1.0
 72
1
  3

 73
1
 74
1
 75
1
 44
0.5
 73
0
 45
1.0
 46
1.0
 77
1
  4

 78
1
 79
1
170
1
 48
1.0
171
1
  6

172
1
173
1
174
1
140
1.0
141
1.0
175
1
  7

176
1
177
1
178
1
143
1.0
179
1
  8

270
1
271
1
272
1
145
1.0
146
1.0
273
1
  9

274
1
275
1
276
1
 42
1.0
 72
1
  3

 73
1
 74
1
 75
1
 94
63
  0
MLINESTYLE
  5
22
102
{ACAD_REACTORS
330
10
102
}
330
10
100
AcDbMlineStyle
  2
Standard
 70
0
  3

 62
256
 51
90.0
 52
90.0
 71
2
 49
0.5
 62
256
  6
BYLAYER
 49
-0.5
 62
256
  6
BYLAYER
  0
MLEADERSTYLE
  5
2C
102
{ACAD_REACTORS
330
F
102
}
330
F
100
AcDbMLeaderStyle
179
2
170
2
171
1
172
0
 90
2
 40
0.0
 41
0.0
173
1
 91
-1056964608
 92
-2
290
1
 42
2.0
291
1
 43
8.0
  3
Standard
 44
4.0
300

342
29
174
1
175
1
176
0
178
1
 93
-1056964608
 45
4.0
292
0
297
0
 46
4.0
 94
-1056964608
 47
1.0
 49
1.0
140
1.0
294
1
141
0.0
177
0
142
1.0
295
0
296
0
143
3.75
271
0
272
9
273
9
  0
DICTIONARY
  5
2D
330
A
100
AcDbDictionary
280
1
281
1
  3
CREATED_BY_EZDXF
350
2E
  3
WRITTEN_BY_EZDXF
350
430
  0
DICTIONARYVAR
  5
2E
330
2D
100
DictionaryVariables
280
0
  1
1.4.4 @ 2026-09-18T13:27:39.364721+00:00
  0
VISUALSTYLE
  5
5A
102
{ACAD_REACTORS
330
16
102
}
330
16
100
AcDbVisualStyle
  2
2dWireframe
 70
4
 90
0
 40
0.6
 62
7
290
0
291
0
  0
VISUALSTYLE
  5
5B
102
{ACAD_REACTORS
330
16
102
}
330
16
100
AcDbVisualStyle
  2
Basic
 70
7
 90
1
 40
0.6
 62
7
290
0
291
1
  0
VISUALSTYLE
  5
5C
102
{ACAD_REACTORS
330
16
102
}
330
16
100
AcDbVisualStyle
  2
Brighten
 70
12
 90
2
 40
0.6
 62
7
290
0
291
1
  0
VISUALSTYLE
  5
5D
102
{ACAD_REACTORS
330
16
102
}
330
16
100
AcDbVisualStyle
  2
ColorChange
 70
16
 90
2
 40
0.6
 62
8
290
0
291
1
  0
VISUALSTYLE
  5
5E
102
{ACAD_REACTORS
330
16
102
}
330
16
100
AcDbVisualStyle
  2
Conceptual
 70
9
 90
3
 40
0.6
 62
7
290
0
291
0
  0
VISUALSTYLE
  5
5F
102
{ACAD_REACTORS
330
16
102
}
330
16
100
AcDbVisualStyle
  2
Dim
 70
11
 90
2
 40
0.6
 62
7
290
0
291
1
  0
VISUALSTYLE
  5
60
102
{ACAD_REACTORS
330
16
102
}
330
16
100
AcDbVisualStyle
  2
EdgeColorOff
 70
22
 90
2
 40
0.6
 62
7
290
0
291
1
  0
VISUALSTYLE
  5
61
102
{ACAD_REACTORS
330
16
102
}
330
16
100
AcDbVisualStyle
  2
Facepattern
 70
15
 90
2
 40
0.6
 62
7
290
0
291
1
  0
VISUALSTYLE
  5
62
102
{ACAD_REACTORS
330
16
102
}
330
16
100
AcDbVisualStyle
  2
Flat
 70
0
 90
2
 40
0.6
 62
7
290
0
291
1
  0
VISUALSTYLE
  5
63
102
{ACAD_REACTORS
330
16
102
}
330
16
100
AcDbVisualStyle
  2
FlatWithEdges
 70
1
 90
2
 40
0.6
 62
7
290
0
291
1
  0
VISUALSTYLE
  5
64
102
{ACAD_REACTORS
330
16
102
}
330
16
100
AcDbVisualStyle
  2
Gouraud
 70
2
 90
2
 40
0.6
 62
7
290
0
291
1
  0
VISUALSTYLE
  5
65
102
{ACAD_REACTORS
330
16
102
}
330
16
100
AcDbVisualStyle
  2
GouraudWithEdges
 70
3
 90
2
 40
0.6
 62
7
290
0
291
1
  0
VISUALSTYLE
  5
66
102
{ACAD_REACTORS
330
16
102
}
330
16
100
AcDbVisualStyle
  2
Hidden
 70
6
 90
1
 40
0.6
 62
7
290
0
291
0
  0
VISUALSTYLE
  5
67
102
{ACAD_REACTORS
330
16
102
}
330
16
100
AcDbVisualStyle
  2
JitterOff
 70
20
 90
2
 40
0.6
 62
7
290
0
291
1
  0
VISUALSTYLE
  5
68
102
{ACAD_REACTORS
330
16
102
}
330
16
100
AcDbVisualStyle
  2
Linepattern
 70
14
 90
2
 40
0.6
 62
7
290
0
291
1
  0
VISUALSTYLE
  5
69
102
{ACAD_REACTORS
330
16
102
}
330
16
100
AcDbVisualStyle
  2
Modeling
 70
10
 90
2
 40
0.6
 62
7
290
0
291
0
  0
VISUALSTYLE
  5
6A
102
{ACAD_REACTORS
330
16
102
}
330
16
100
AcDbVisualStyle
  2
OverhangOff
 70
21
 90
2
 40
0.6
 62
7
290
0
291
1
  0
VISUALSTYLE
  5
6B
102
{ACAD_REACTORS
330
16
102
}
330
16
100
AcDbVisualStyle
  2
Realistic
 70
8
 90
2
 40
0.6
 62
7
290
0
291
0
  0
VISUALSTYLE
  5
6C
102
{ACAD_REACTORS
330
16
102
}
330
16
100
AcDbVisualStyle
  2
Shaded
 70
27
 90
2
 40
0.6
 62
7
290
0
291
0
  0
VISUALSTYLE
  5
6D
102
{ACAD_REACTORS
330
16
102
}
330
16
100
AcDbVisualStyle
  2
Shaded with edges
 70
26
 90
2
 40
0.6
 62
7
290
0
291
0
  0
VISUALSTYLE
  5
6E
102
{ACAD_REACTORS
330
16
102
}
330
16
100
AcDbVisualStyle
  2
Shades of Gray
 70
23
 90
2
 40
0.6
 62
7
290
0
291
0
  0
VISUALSTYLE
  5
6F
102
{ACAD_REACTORS
330
16
102
}
330
16
100
AcDbVisualStyle
  2
Sketchy
 70
24
 90
1
 40
0.6
 62
7
290
0
291
0
  0
VISUALSTYLE
  5
70
102
{ACAD_REACTORS
330
16
102
}
330
16
100
AcDbVisualStyle
  2
Thicken
 70
13
 90
2
 40
0.6
 62
7
290
0
291
1
  0
VISUALSTYLE
  5
71
102
{ACAD_REACTORS
330
16
102
}
330
16
100
AcDbVisualStyle
  2
Wireframe
 70
5
 90
0
 40
0.6
 62
7
290
0
291
0
  0
VISUALSTYLE
  5
72
102
{ACAD_REACTORS
330
16
102
}
330
16
100
AcDbVisualStyle
  2
X-Ray
 70
25
 90
2
 40
0.5
 62
7
290
0
291
0
  0
LAYOUT
  5
2E9
330
D
100
AcDbPlotSettings
  1

  2
DWG to PDF.pc3
  4
ezdxf_(594.00_x_420.00_MM)
  6

 40
0.0
 41
0.0
 42
0.0
 43
0.0
 44
594.0
 45
420.0
 46
0.0
 47
0.0
 48
0.0
 49
0.0
140
0.0
141
0.0
142
1.0
143
1.0
 70
672
 72
1
 73
0
 74
5
  7

 75
16
 76
0
 77
2
 78
300
147
1.0
148
0.0
149
0.0
100
AcDbLayout
  1
P-01 ÖLÇÜLÜ PLAN — ERKEK ISLAK BLOK
 70
1
 71
3
 10
-0.0
 20
-0.0
 11
594.0
 21
420.0
 12
0.0
 22
0.0
 32
0.0
 14
1e+20
 24
1e+20
 34
1e+20
 15
-1e+20
 25
-1e+20
 35
-1e+20
146
0.0
 13
0.0
 23
0.0
 33
0.0
 16
1.0
 26
0.0
 36
0.0
 17
0.0
 27
1.0
 37
0.0
 76
1
330
2E6
331
2EA
  0
DICTIONARYVAR
  5
430
330
2D
100
DictionaryVariables
280
0
  1
1.4.4 @ 2026-09-18T13:27:39.400925+00:00
  0
ENDSEC
  0
EOF
